%TF.GenerationSoftware,KiCad,Pcbnew,7.0.5*%
%TF.CreationDate,2023-11-27T09:45:24+05:30*%
%TF.ProjectId,Precharge circuit,50726563-6861-4726-9765-206369726375,rev?*%
%TF.SameCoordinates,Original*%
%TF.FileFunction,Drillmap*%
%TF.FilePolarity,Positive*%
%FSLAX45Y45*%
G04 Gerber Fmt 4.5, Leading zero omitted, Abs format (unit mm)*
G04 Created by KiCad (PCBNEW 7.0.5) date 2023-11-27 09:45:24*
%MOMM*%
%LPD*%
G01*
G04 APERTURE LIST*
%ADD10C,0.100000*%
%ADD11C,0.200000*%
%ADD12C,0.078000*%
%ADD13C,0.080000*%
%ADD14C,0.120000*%
%ADD15C,0.130000*%
G04 APERTURE END LIST*
D10*
X2851150Y-3009900D02*
X15660370Y-3009900D01*
X15660370Y-9702800D01*
X2851150Y-9702800D01*
X2851150Y-3009900D01*
D11*
D12*
X8781660Y-5307700D02*
X8859660Y-5385700D01*
X8859660Y-5307700D02*
X8781660Y-5385700D01*
X8781660Y-5561700D02*
X8859660Y-5639700D01*
X8859660Y-5561700D02*
X8781660Y-5639700D01*
X8781660Y-5815700D02*
X8859660Y-5893700D01*
X8859660Y-5815700D02*
X8781660Y-5893700D01*
X8781660Y-6069700D02*
X8859660Y-6147700D01*
X8859660Y-6069700D02*
X8781660Y-6147700D01*
X9575660Y-5307700D02*
X9653660Y-5385700D01*
X9653660Y-5307700D02*
X9575660Y-5385700D01*
X9575660Y-5561700D02*
X9653660Y-5639700D01*
X9653660Y-5561700D02*
X9575660Y-5639700D01*
X9575660Y-5815700D02*
X9653660Y-5893700D01*
X9653660Y-5815700D02*
X9575660Y-5893700D01*
X9575660Y-6069700D02*
X9653660Y-6147700D01*
X9653660Y-6069700D02*
X9575660Y-6147700D01*
D13*
X3773800Y-3662680D02*
G75*
G03*
X3773800Y-3662680I-40000J0D01*
G01*
X3819520Y-6035040D02*
G75*
G03*
X3819520Y-6035040I-40000J0D01*
G01*
X3832220Y-6697980D02*
G75*
G03*
X3832220Y-6697980I-40000J0D01*
G01*
X3872860Y-9001760D02*
G75*
G03*
X3872860Y-9001760I-40000J0D01*
G01*
X4789800Y-3662680D02*
G75*
G03*
X4789800Y-3662680I-40000J0D01*
G01*
X4835520Y-6035040D02*
G75*
G03*
X4835520Y-6035040I-40000J0D01*
G01*
X4848220Y-6697980D02*
G75*
G03*
X4848220Y-6697980I-40000J0D01*
G01*
X4888860Y-9001760D02*
G75*
G03*
X4888860Y-9001760I-40000J0D01*
G01*
X5158100Y-3665220D02*
G75*
G03*
X5158100Y-3665220I-40000J0D01*
G01*
X5175880Y-6692900D02*
G75*
G03*
X5175880Y-6692900I-40000J0D01*
G01*
X5183500Y-6035040D02*
G75*
G03*
X5183500Y-6035040I-40000J0D01*
G01*
X5196200Y-9009380D02*
G75*
G03*
X5196200Y-9009380I-40000J0D01*
G01*
X6174100Y-3665220D02*
G75*
G03*
X6174100Y-3665220I-40000J0D01*
G01*
X6191880Y-6692900D02*
G75*
G03*
X6191880Y-6692900I-40000J0D01*
G01*
X6199500Y-6035040D02*
G75*
G03*
X6199500Y-6035040I-40000J0D01*
G01*
X6212200Y-9009380D02*
G75*
G03*
X6212200Y-9009380I-40000J0D01*
G01*
X6577960Y-7990840D02*
G75*
G03*
X6577960Y-7990840I-40000J0D01*
G01*
X6577960Y-9006840D02*
G75*
G03*
X6577960Y-9006840I-40000J0D01*
G01*
X6580500Y-6695440D02*
G75*
G03*
X6580500Y-6695440I-40000J0D01*
G01*
X6580500Y-7711440D02*
G75*
G03*
X6580500Y-7711440I-40000J0D01*
G01*
X6618600Y-3736340D02*
G75*
G03*
X6618600Y-3736340I-40000J0D01*
G01*
X6618600Y-4752340D02*
G75*
G03*
X6618600Y-4752340I-40000J0D01*
G01*
X6626220Y-5021580D02*
G75*
G03*
X6626220Y-5021580I-40000J0D01*
G01*
X6626220Y-6037580D02*
G75*
G03*
X6626220Y-6037580I-40000J0D01*
G01*
X6953880Y-6697980D02*
G75*
G03*
X6953880Y-6697980I-40000J0D01*
G01*
X6976740Y-8976360D02*
G75*
G03*
X6976740Y-8976360I-40000J0D01*
G01*
X7182480Y-4777740D02*
G75*
G03*
X7182480Y-4777740I-40000J0D01*
G01*
X7182480Y-5412740D02*
G75*
G03*
X7182480Y-5412740I-40000J0D01*
G01*
X7187560Y-6035040D02*
G75*
G03*
X7187560Y-6035040I-40000J0D01*
G01*
X7969880Y-6697980D02*
G75*
G03*
X7969880Y-6697980I-40000J0D01*
G01*
X7992740Y-8976360D02*
G75*
G03*
X7992740Y-8976360I-40000J0D01*
G01*
X8198480Y-4777740D02*
G75*
G03*
X8198480Y-4777740I-40000J0D01*
G01*
X8198480Y-5412740D02*
G75*
G03*
X8198480Y-5412740I-40000J0D01*
G01*
X8203560Y-6035040D02*
G75*
G03*
X8203560Y-6035040I-40000J0D01*
G01*
X8272140Y-8981440D02*
G75*
G03*
X8272140Y-8981440I-40000J0D01*
G01*
X8279760Y-6697980D02*
G75*
G03*
X8279760Y-6697980I-40000J0D01*
G01*
X8749660Y-4577080D02*
G75*
G03*
X8749660Y-4577080I-40000J0D01*
G01*
X9288140Y-8981440D02*
G75*
G03*
X9288140Y-8981440I-40000J0D01*
G01*
X9295760Y-6697980D02*
G75*
G03*
X9295760Y-6697980I-40000J0D01*
G01*
X9641200Y-6697980D02*
G75*
G03*
X9641200Y-6697980I-40000J0D01*
G01*
X9641200Y-7713980D02*
G75*
G03*
X9641200Y-7713980I-40000J0D01*
G01*
X9648820Y-7970520D02*
G75*
G03*
X9648820Y-7970520I-40000J0D01*
G01*
X9648820Y-8986520D02*
G75*
G03*
X9648820Y-8986520I-40000J0D01*
G01*
X9765660Y-4577080D02*
G75*
G03*
X9765660Y-4577080I-40000J0D01*
G01*
X10146660Y-7434580D02*
G75*
G03*
X10146660Y-7434580I-40000J0D01*
G01*
X10146660Y-8450580D02*
G75*
G03*
X10146660Y-8450580I-40000J0D01*
G01*
X10175600Y-5099280D02*
G75*
G03*
X10175600Y-5099280I-40000J0D01*
G01*
X10175600Y-5353280D02*
G75*
G03*
X10175600Y-5353280I-40000J0D01*
G01*
X10175600Y-5607280D02*
G75*
G03*
X10175600Y-5607280I-40000J0D01*
G01*
X10937600Y-5099280D02*
G75*
G03*
X10937600Y-5099280I-40000J0D01*
G01*
X10937600Y-5353280D02*
G75*
G03*
X10937600Y-5353280I-40000J0D01*
G01*
X10937600Y-5607280D02*
G75*
G03*
X10937600Y-5607280I-40000J0D01*
G01*
X11297280Y-5610860D02*
G75*
G03*
X11297280Y-5610860I-40000J0D01*
G01*
X11297280Y-6626860D02*
G75*
G03*
X11297280Y-6626860I-40000J0D01*
G01*
X12338730Y-5592520D02*
G75*
G03*
X12338730Y-5592520I-40000J0D01*
G01*
X12338730Y-6792520D02*
G75*
G03*
X12338730Y-6792520I-40000J0D01*
G01*
X12353970Y-3733240D02*
G75*
G03*
X12353970Y-3733240I-40000J0D01*
G01*
X12353970Y-4933240D02*
G75*
G03*
X12353970Y-4933240I-40000J0D01*
G01*
X12359050Y-7530540D02*
G75*
G03*
X12359050Y-7530540I-40000J0D01*
G01*
X12359050Y-8730540D02*
G75*
G03*
X12359050Y-8730540I-40000J0D01*
G01*
D14*
X13518730Y-5532520D02*
X13518730Y-5652520D01*
X13458730Y-5592520D02*
X13578730Y-5592520D01*
X13518730Y-6732520D02*
X13518730Y-6852520D01*
X13458730Y-6792520D02*
X13578730Y-6792520D01*
X13533970Y-3673240D02*
X13533970Y-3793240D01*
X13473970Y-3733240D02*
X13593970Y-3733240D01*
X13533970Y-4873240D02*
X13533970Y-4993240D01*
X13473970Y-4933240D02*
X13593970Y-4933240D01*
X13539050Y-7470540D02*
X13539050Y-7590540D01*
X13479050Y-7530540D02*
X13599050Y-7530540D01*
X13539050Y-8670540D02*
X13539050Y-8790540D01*
X13479050Y-8730540D02*
X13599050Y-8730540D01*
D15*
X3779782Y-4648942D02*
X3779782Y-4557018D01*
X3687858Y-4557018D01*
X3687858Y-4648942D01*
X3779782Y-4648942D01*
X3779782Y-5156942D02*
X3779782Y-5065018D01*
X3687858Y-5065018D01*
X3687858Y-5156942D01*
X3779782Y-5156942D01*
X3838202Y-7628362D02*
X3838202Y-7536438D01*
X3746278Y-7536438D01*
X3746278Y-7628362D01*
X3838202Y-7628362D01*
X3838202Y-8136362D02*
X3838202Y-8044438D01*
X3746278Y-8044438D01*
X3746278Y-8136362D01*
X3838202Y-8136362D01*
X7729462Y-3916922D02*
X7729462Y-3824998D01*
X7637538Y-3824998D01*
X7637538Y-3916922D01*
X7729462Y-3916922D01*
X8237462Y-3916922D02*
X8237462Y-3824998D01*
X8145538Y-3824998D01*
X8145538Y-3916922D01*
X8237462Y-3916922D01*
X11003522Y-3899142D02*
X11003522Y-3807218D01*
X10911598Y-3807218D01*
X10911598Y-3899142D01*
X11003522Y-3899142D01*
X11084302Y-8791202D02*
X11084302Y-8699278D01*
X10992378Y-8699278D01*
X10992378Y-8791202D01*
X11084302Y-8791202D01*
X11511522Y-3899142D02*
X11511522Y-3807218D01*
X11419598Y-3807218D01*
X11419598Y-3899142D01*
X11511522Y-3899142D01*
X11592302Y-8791202D02*
X11592302Y-8699278D01*
X11500378Y-8699278D01*
X11500378Y-8791202D01*
X11592302Y-8791202D01*
X12144692Y-6250482D02*
X12144692Y-6158558D01*
X12052768Y-6158558D01*
X12052768Y-6250482D01*
X12144692Y-6250482D01*
X12159932Y-4391202D02*
X12159932Y-4299278D01*
X12068008Y-4299278D01*
X12068008Y-4391202D01*
X12159932Y-4391202D01*
X12165012Y-8188502D02*
X12165012Y-8096578D01*
X12073088Y-8096578D01*
X12073088Y-8188502D01*
X12165012Y-8188502D01*
X14742402Y-4226802D02*
X14742402Y-4134878D01*
X14650478Y-4134878D01*
X14650478Y-4226802D01*
X14742402Y-4226802D01*
X14742402Y-4734802D02*
X14742402Y-4642878D01*
X14650478Y-4642878D01*
X14650478Y-4734802D01*
X14742402Y-4734802D01*
X14744942Y-6053062D02*
X14744942Y-5961138D01*
X14653018Y-5961138D01*
X14653018Y-6053062D01*
X14744942Y-6053062D01*
X14744942Y-6561062D02*
X14744942Y-6469138D01*
X14653018Y-6469138D01*
X14653018Y-6561062D01*
X14744942Y-6561062D01*
X14744942Y-7874242D02*
X14744942Y-7782318D01*
X14653018Y-7782318D01*
X14653018Y-7874242D01*
X14744942Y-7874242D01*
X14744942Y-8382242D02*
X14744942Y-8290318D01*
X14653018Y-8290318D01*
X14653018Y-8382242D01*
X14744942Y-8382242D01*
D11*
X3106927Y-10019284D02*
X3106927Y-9819284D01*
X3106927Y-9819284D02*
X3154546Y-9819284D01*
X3154546Y-9819284D02*
X3183117Y-9828808D01*
X3183117Y-9828808D02*
X3202165Y-9847855D01*
X3202165Y-9847855D02*
X3211689Y-9866903D01*
X3211689Y-9866903D02*
X3221212Y-9904998D01*
X3221212Y-9904998D02*
X3221212Y-9933570D01*
X3221212Y-9933570D02*
X3211689Y-9971665D01*
X3211689Y-9971665D02*
X3202165Y-9990712D01*
X3202165Y-9990712D02*
X3183117Y-10009760D01*
X3183117Y-10009760D02*
X3154546Y-10019284D01*
X3154546Y-10019284D02*
X3106927Y-10019284D01*
X3306927Y-10019284D02*
X3306927Y-9885950D01*
X3306927Y-9924046D02*
X3316451Y-9904998D01*
X3316451Y-9904998D02*
X3325974Y-9895474D01*
X3325974Y-9895474D02*
X3345022Y-9885950D01*
X3345022Y-9885950D02*
X3364070Y-9885950D01*
X3430736Y-10019284D02*
X3430736Y-9885950D01*
X3430736Y-9819284D02*
X3421212Y-9828808D01*
X3421212Y-9828808D02*
X3430736Y-9838331D01*
X3430736Y-9838331D02*
X3440260Y-9828808D01*
X3440260Y-9828808D02*
X3430736Y-9819284D01*
X3430736Y-9819284D02*
X3430736Y-9838331D01*
X3554546Y-10019284D02*
X3535498Y-10009760D01*
X3535498Y-10009760D02*
X3525974Y-9990712D01*
X3525974Y-9990712D02*
X3525974Y-9819284D01*
X3659308Y-10019284D02*
X3640260Y-10009760D01*
X3640260Y-10009760D02*
X3630736Y-9990712D01*
X3630736Y-9990712D02*
X3630736Y-9819284D01*
X3887879Y-10019284D02*
X3887879Y-9819284D01*
X3887879Y-9819284D02*
X3954546Y-9962141D01*
X3954546Y-9962141D02*
X4021212Y-9819284D01*
X4021212Y-9819284D02*
X4021212Y-10019284D01*
X4202165Y-10019284D02*
X4202165Y-9914522D01*
X4202165Y-9914522D02*
X4192641Y-9895474D01*
X4192641Y-9895474D02*
X4173593Y-9885950D01*
X4173593Y-9885950D02*
X4135498Y-9885950D01*
X4135498Y-9885950D02*
X4116451Y-9895474D01*
X4202165Y-10009760D02*
X4183117Y-10019284D01*
X4183117Y-10019284D02*
X4135498Y-10019284D01*
X4135498Y-10019284D02*
X4116451Y-10009760D01*
X4116451Y-10009760D02*
X4106927Y-9990712D01*
X4106927Y-9990712D02*
X4106927Y-9971665D01*
X4106927Y-9971665D02*
X4116451Y-9952617D01*
X4116451Y-9952617D02*
X4135498Y-9943093D01*
X4135498Y-9943093D02*
X4183117Y-9943093D01*
X4183117Y-9943093D02*
X4202165Y-9933570D01*
X4297403Y-9885950D02*
X4297403Y-10085950D01*
X4297403Y-9895474D02*
X4316451Y-9885950D01*
X4316451Y-9885950D02*
X4354546Y-9885950D01*
X4354546Y-9885950D02*
X4373594Y-9895474D01*
X4373594Y-9895474D02*
X4383117Y-9904998D01*
X4383117Y-9904998D02*
X4392641Y-9924046D01*
X4392641Y-9924046D02*
X4392641Y-9981189D01*
X4392641Y-9981189D02*
X4383117Y-10000236D01*
X4383117Y-10000236D02*
X4373594Y-10009760D01*
X4373594Y-10009760D02*
X4354546Y-10019284D01*
X4354546Y-10019284D02*
X4316451Y-10019284D01*
X4316451Y-10019284D02*
X4297403Y-10009760D01*
X4478355Y-10000236D02*
X4487879Y-10009760D01*
X4487879Y-10009760D02*
X4478355Y-10019284D01*
X4478355Y-10019284D02*
X4468832Y-10009760D01*
X4468832Y-10009760D02*
X4478355Y-10000236D01*
X4478355Y-10000236D02*
X4478355Y-10019284D01*
X4478355Y-9895474D02*
X4487879Y-9904998D01*
X4487879Y-9904998D02*
X4478355Y-9914522D01*
X4478355Y-9914522D02*
X4468832Y-9904998D01*
X4468832Y-9904998D02*
X4478355Y-9895474D01*
X4478355Y-9895474D02*
X4478355Y-9914522D01*
D12*
X2768150Y-10308800D02*
X2846150Y-10386800D01*
X2846150Y-10308800D02*
X2768150Y-10386800D01*
D11*
X3145022Y-10239284D02*
X3164070Y-10239284D01*
X3164070Y-10239284D02*
X3183117Y-10248808D01*
X3183117Y-10248808D02*
X3192641Y-10258331D01*
X3192641Y-10258331D02*
X3202165Y-10277379D01*
X3202165Y-10277379D02*
X3211689Y-10315474D01*
X3211689Y-10315474D02*
X3211689Y-10363093D01*
X3211689Y-10363093D02*
X3202165Y-10401189D01*
X3202165Y-10401189D02*
X3192641Y-10420236D01*
X3192641Y-10420236D02*
X3183117Y-10429760D01*
X3183117Y-10429760D02*
X3164070Y-10439284D01*
X3164070Y-10439284D02*
X3145022Y-10439284D01*
X3145022Y-10439284D02*
X3125974Y-10429760D01*
X3125974Y-10429760D02*
X3116451Y-10420236D01*
X3116451Y-10420236D02*
X3106927Y-10401189D01*
X3106927Y-10401189D02*
X3097403Y-10363093D01*
X3097403Y-10363093D02*
X3097403Y-10315474D01*
X3097403Y-10315474D02*
X3106927Y-10277379D01*
X3106927Y-10277379D02*
X3116451Y-10258331D01*
X3116451Y-10258331D02*
X3125974Y-10248808D01*
X3125974Y-10248808D02*
X3145022Y-10239284D01*
X3297403Y-10420236D02*
X3306927Y-10429760D01*
X3306927Y-10429760D02*
X3297403Y-10439284D01*
X3297403Y-10439284D02*
X3287879Y-10429760D01*
X3287879Y-10429760D02*
X3297403Y-10420236D01*
X3297403Y-10420236D02*
X3297403Y-10439284D01*
X3373593Y-10239284D02*
X3506927Y-10239284D01*
X3506927Y-10239284D02*
X3421212Y-10439284D01*
X3611689Y-10324998D02*
X3592641Y-10315474D01*
X3592641Y-10315474D02*
X3583117Y-10305950D01*
X3583117Y-10305950D02*
X3573593Y-10286903D01*
X3573593Y-10286903D02*
X3573593Y-10277379D01*
X3573593Y-10277379D02*
X3583117Y-10258331D01*
X3583117Y-10258331D02*
X3592641Y-10248808D01*
X3592641Y-10248808D02*
X3611689Y-10239284D01*
X3611689Y-10239284D02*
X3649784Y-10239284D01*
X3649784Y-10239284D02*
X3668832Y-10248808D01*
X3668832Y-10248808D02*
X3678355Y-10258331D01*
X3678355Y-10258331D02*
X3687879Y-10277379D01*
X3687879Y-10277379D02*
X3687879Y-10286903D01*
X3687879Y-10286903D02*
X3678355Y-10305950D01*
X3678355Y-10305950D02*
X3668832Y-10315474D01*
X3668832Y-10315474D02*
X3649784Y-10324998D01*
X3649784Y-10324998D02*
X3611689Y-10324998D01*
X3611689Y-10324998D02*
X3592641Y-10334522D01*
X3592641Y-10334522D02*
X3583117Y-10344046D01*
X3583117Y-10344046D02*
X3573593Y-10363093D01*
X3573593Y-10363093D02*
X3573593Y-10401189D01*
X3573593Y-10401189D02*
X3583117Y-10420236D01*
X3583117Y-10420236D02*
X3592641Y-10429760D01*
X3592641Y-10429760D02*
X3611689Y-10439284D01*
X3611689Y-10439284D02*
X3649784Y-10439284D01*
X3649784Y-10439284D02*
X3668832Y-10429760D01*
X3668832Y-10429760D02*
X3678355Y-10420236D01*
X3678355Y-10420236D02*
X3687879Y-10401189D01*
X3687879Y-10401189D02*
X3687879Y-10363093D01*
X3687879Y-10363093D02*
X3678355Y-10344046D01*
X3678355Y-10344046D02*
X3668832Y-10334522D01*
X3668832Y-10334522D02*
X3649784Y-10324998D01*
X3811689Y-10239284D02*
X3830736Y-10239284D01*
X3830736Y-10239284D02*
X3849784Y-10248808D01*
X3849784Y-10248808D02*
X3859308Y-10258331D01*
X3859308Y-10258331D02*
X3868832Y-10277379D01*
X3868832Y-10277379D02*
X3878355Y-10315474D01*
X3878355Y-10315474D02*
X3878355Y-10363093D01*
X3878355Y-10363093D02*
X3868832Y-10401189D01*
X3868832Y-10401189D02*
X3859308Y-10420236D01*
X3859308Y-10420236D02*
X3849784Y-10429760D01*
X3849784Y-10429760D02*
X3830736Y-10439284D01*
X3830736Y-10439284D02*
X3811689Y-10439284D01*
X3811689Y-10439284D02*
X3792641Y-10429760D01*
X3792641Y-10429760D02*
X3783117Y-10420236D01*
X3783117Y-10420236D02*
X3773593Y-10401189D01*
X3773593Y-10401189D02*
X3764070Y-10363093D01*
X3764070Y-10363093D02*
X3764070Y-10315474D01*
X3764070Y-10315474D02*
X3773593Y-10277379D01*
X3773593Y-10277379D02*
X3783117Y-10258331D01*
X3783117Y-10258331D02*
X3792641Y-10248808D01*
X3792641Y-10248808D02*
X3811689Y-10239284D01*
X3964070Y-10439284D02*
X3964070Y-10305950D01*
X3964070Y-10324998D02*
X3973593Y-10315474D01*
X3973593Y-10315474D02*
X3992641Y-10305950D01*
X3992641Y-10305950D02*
X4021213Y-10305950D01*
X4021213Y-10305950D02*
X4040260Y-10315474D01*
X4040260Y-10315474D02*
X4049784Y-10334522D01*
X4049784Y-10334522D02*
X4049784Y-10439284D01*
X4049784Y-10334522D02*
X4059308Y-10315474D01*
X4059308Y-10315474D02*
X4078355Y-10305950D01*
X4078355Y-10305950D02*
X4106927Y-10305950D01*
X4106927Y-10305950D02*
X4125974Y-10315474D01*
X4125974Y-10315474D02*
X4135498Y-10334522D01*
X4135498Y-10334522D02*
X4135498Y-10439284D01*
X4230736Y-10439284D02*
X4230736Y-10305950D01*
X4230736Y-10324998D02*
X4240260Y-10315474D01*
X4240260Y-10315474D02*
X4259308Y-10305950D01*
X4259308Y-10305950D02*
X4287879Y-10305950D01*
X4287879Y-10305950D02*
X4306927Y-10315474D01*
X4306927Y-10315474D02*
X4316451Y-10334522D01*
X4316451Y-10334522D02*
X4316451Y-10439284D01*
X4316451Y-10334522D02*
X4325975Y-10315474D01*
X4325975Y-10315474D02*
X4345022Y-10305950D01*
X4345022Y-10305950D02*
X4373594Y-10305950D01*
X4373594Y-10305950D02*
X4392641Y-10315474D01*
X4392641Y-10315474D02*
X4402165Y-10334522D01*
X4402165Y-10334522D02*
X4402165Y-10439284D01*
X4792641Y-10229760D02*
X4621213Y-10486903D01*
X5049784Y-10239284D02*
X5068832Y-10239284D01*
X5068832Y-10239284D02*
X5087879Y-10248808D01*
X5087879Y-10248808D02*
X5097403Y-10258331D01*
X5097403Y-10258331D02*
X5106927Y-10277379D01*
X5106927Y-10277379D02*
X5116451Y-10315474D01*
X5116451Y-10315474D02*
X5116451Y-10363093D01*
X5116451Y-10363093D02*
X5106927Y-10401189D01*
X5106927Y-10401189D02*
X5097403Y-10420236D01*
X5097403Y-10420236D02*
X5087879Y-10429760D01*
X5087879Y-10429760D02*
X5068832Y-10439284D01*
X5068832Y-10439284D02*
X5049784Y-10439284D01*
X5049784Y-10439284D02*
X5030737Y-10429760D01*
X5030737Y-10429760D02*
X5021213Y-10420236D01*
X5021213Y-10420236D02*
X5011689Y-10401189D01*
X5011689Y-10401189D02*
X5002165Y-10363093D01*
X5002165Y-10363093D02*
X5002165Y-10315474D01*
X5002165Y-10315474D02*
X5011689Y-10277379D01*
X5011689Y-10277379D02*
X5021213Y-10258331D01*
X5021213Y-10258331D02*
X5030737Y-10248808D01*
X5030737Y-10248808D02*
X5049784Y-10239284D01*
X5202165Y-10420236D02*
X5211689Y-10429760D01*
X5211689Y-10429760D02*
X5202165Y-10439284D01*
X5202165Y-10439284D02*
X5192641Y-10429760D01*
X5192641Y-10429760D02*
X5202165Y-10420236D01*
X5202165Y-10420236D02*
X5202165Y-10439284D01*
X5335498Y-10239284D02*
X5354546Y-10239284D01*
X5354546Y-10239284D02*
X5373594Y-10248808D01*
X5373594Y-10248808D02*
X5383118Y-10258331D01*
X5383118Y-10258331D02*
X5392641Y-10277379D01*
X5392641Y-10277379D02*
X5402165Y-10315474D01*
X5402165Y-10315474D02*
X5402165Y-10363093D01*
X5402165Y-10363093D02*
X5392641Y-10401189D01*
X5392641Y-10401189D02*
X5383118Y-10420236D01*
X5383118Y-10420236D02*
X5373594Y-10429760D01*
X5373594Y-10429760D02*
X5354546Y-10439284D01*
X5354546Y-10439284D02*
X5335498Y-10439284D01*
X5335498Y-10439284D02*
X5316451Y-10429760D01*
X5316451Y-10429760D02*
X5306927Y-10420236D01*
X5306927Y-10420236D02*
X5297403Y-10401189D01*
X5297403Y-10401189D02*
X5287879Y-10363093D01*
X5287879Y-10363093D02*
X5287879Y-10315474D01*
X5287879Y-10315474D02*
X5297403Y-10277379D01*
X5297403Y-10277379D02*
X5306927Y-10258331D01*
X5306927Y-10258331D02*
X5316451Y-10248808D01*
X5316451Y-10248808D02*
X5335498Y-10239284D01*
X5468832Y-10239284D02*
X5592641Y-10239284D01*
X5592641Y-10239284D02*
X5525975Y-10315474D01*
X5525975Y-10315474D02*
X5554546Y-10315474D01*
X5554546Y-10315474D02*
X5573594Y-10324998D01*
X5573594Y-10324998D02*
X5583118Y-10334522D01*
X5583118Y-10334522D02*
X5592641Y-10353570D01*
X5592641Y-10353570D02*
X5592641Y-10401189D01*
X5592641Y-10401189D02*
X5583118Y-10420236D01*
X5583118Y-10420236D02*
X5573594Y-10429760D01*
X5573594Y-10429760D02*
X5554546Y-10439284D01*
X5554546Y-10439284D02*
X5497403Y-10439284D01*
X5497403Y-10439284D02*
X5478356Y-10429760D01*
X5478356Y-10429760D02*
X5468832Y-10420236D01*
X5716451Y-10239284D02*
X5735498Y-10239284D01*
X5735498Y-10239284D02*
X5754546Y-10248808D01*
X5754546Y-10248808D02*
X5764070Y-10258331D01*
X5764070Y-10258331D02*
X5773594Y-10277379D01*
X5773594Y-10277379D02*
X5783117Y-10315474D01*
X5783117Y-10315474D02*
X5783117Y-10363093D01*
X5783117Y-10363093D02*
X5773594Y-10401189D01*
X5773594Y-10401189D02*
X5764070Y-10420236D01*
X5764070Y-10420236D02*
X5754546Y-10429760D01*
X5754546Y-10429760D02*
X5735498Y-10439284D01*
X5735498Y-10439284D02*
X5716451Y-10439284D01*
X5716451Y-10439284D02*
X5697403Y-10429760D01*
X5697403Y-10429760D02*
X5687879Y-10420236D01*
X5687879Y-10420236D02*
X5678356Y-10401189D01*
X5678356Y-10401189D02*
X5668832Y-10363093D01*
X5668832Y-10363093D02*
X5668832Y-10315474D01*
X5668832Y-10315474D02*
X5678356Y-10277379D01*
X5678356Y-10277379D02*
X5687879Y-10258331D01*
X5687879Y-10258331D02*
X5697403Y-10248808D01*
X5697403Y-10248808D02*
X5716451Y-10239284D01*
X5849784Y-10239284D02*
X5983117Y-10239284D01*
X5983117Y-10239284D02*
X5897403Y-10439284D01*
X6049784Y-10239284D02*
X6049784Y-10277379D01*
X6125975Y-10239284D02*
X6125975Y-10277379D01*
X6421213Y-10515474D02*
X6411689Y-10505950D01*
X6411689Y-10505950D02*
X6392641Y-10477379D01*
X6392641Y-10477379D02*
X6383118Y-10458331D01*
X6383118Y-10458331D02*
X6373594Y-10429760D01*
X6373594Y-10429760D02*
X6364070Y-10382141D01*
X6364070Y-10382141D02*
X6364070Y-10344046D01*
X6364070Y-10344046D02*
X6373594Y-10296427D01*
X6373594Y-10296427D02*
X6383118Y-10267855D01*
X6383118Y-10267855D02*
X6392641Y-10248808D01*
X6392641Y-10248808D02*
X6411689Y-10220236D01*
X6411689Y-10220236D02*
X6421213Y-10210712D01*
X6525975Y-10324998D02*
X6506927Y-10315474D01*
X6506927Y-10315474D02*
X6497403Y-10305950D01*
X6497403Y-10305950D02*
X6487879Y-10286903D01*
X6487879Y-10286903D02*
X6487879Y-10277379D01*
X6487879Y-10277379D02*
X6497403Y-10258331D01*
X6497403Y-10258331D02*
X6506927Y-10248808D01*
X6506927Y-10248808D02*
X6525975Y-10239284D01*
X6525975Y-10239284D02*
X6564070Y-10239284D01*
X6564070Y-10239284D02*
X6583118Y-10248808D01*
X6583118Y-10248808D02*
X6592641Y-10258331D01*
X6592641Y-10258331D02*
X6602165Y-10277379D01*
X6602165Y-10277379D02*
X6602165Y-10286903D01*
X6602165Y-10286903D02*
X6592641Y-10305950D01*
X6592641Y-10305950D02*
X6583118Y-10315474D01*
X6583118Y-10315474D02*
X6564070Y-10324998D01*
X6564070Y-10324998D02*
X6525975Y-10324998D01*
X6525975Y-10324998D02*
X6506927Y-10334522D01*
X6506927Y-10334522D02*
X6497403Y-10344046D01*
X6497403Y-10344046D02*
X6487879Y-10363093D01*
X6487879Y-10363093D02*
X6487879Y-10401189D01*
X6487879Y-10401189D02*
X6497403Y-10420236D01*
X6497403Y-10420236D02*
X6506927Y-10429760D01*
X6506927Y-10429760D02*
X6525975Y-10439284D01*
X6525975Y-10439284D02*
X6564070Y-10439284D01*
X6564070Y-10439284D02*
X6583118Y-10429760D01*
X6583118Y-10429760D02*
X6592641Y-10420236D01*
X6592641Y-10420236D02*
X6602165Y-10401189D01*
X6602165Y-10401189D02*
X6602165Y-10363093D01*
X6602165Y-10363093D02*
X6592641Y-10344046D01*
X6592641Y-10344046D02*
X6583118Y-10334522D01*
X6583118Y-10334522D02*
X6564070Y-10324998D01*
X6840260Y-10439284D02*
X6840260Y-10239284D01*
X6925975Y-10439284D02*
X6925975Y-10334522D01*
X6925975Y-10334522D02*
X6916451Y-10315474D01*
X6916451Y-10315474D02*
X6897403Y-10305950D01*
X6897403Y-10305950D02*
X6868832Y-10305950D01*
X6868832Y-10305950D02*
X6849784Y-10315474D01*
X6849784Y-10315474D02*
X6840260Y-10324998D01*
X7049784Y-10439284D02*
X7030737Y-10429760D01*
X7030737Y-10429760D02*
X7021213Y-10420236D01*
X7021213Y-10420236D02*
X7011689Y-10401189D01*
X7011689Y-10401189D02*
X7011689Y-10344046D01*
X7011689Y-10344046D02*
X7021213Y-10324998D01*
X7021213Y-10324998D02*
X7030737Y-10315474D01*
X7030737Y-10315474D02*
X7049784Y-10305950D01*
X7049784Y-10305950D02*
X7078356Y-10305950D01*
X7078356Y-10305950D02*
X7097403Y-10315474D01*
X7097403Y-10315474D02*
X7106927Y-10324998D01*
X7106927Y-10324998D02*
X7116451Y-10344046D01*
X7116451Y-10344046D02*
X7116451Y-10401189D01*
X7116451Y-10401189D02*
X7106927Y-10420236D01*
X7106927Y-10420236D02*
X7097403Y-10429760D01*
X7097403Y-10429760D02*
X7078356Y-10439284D01*
X7078356Y-10439284D02*
X7049784Y-10439284D01*
X7230737Y-10439284D02*
X7211689Y-10429760D01*
X7211689Y-10429760D02*
X7202165Y-10410712D01*
X7202165Y-10410712D02*
X7202165Y-10239284D01*
X7383118Y-10429760D02*
X7364070Y-10439284D01*
X7364070Y-10439284D02*
X7325975Y-10439284D01*
X7325975Y-10439284D02*
X7306927Y-10429760D01*
X7306927Y-10429760D02*
X7297403Y-10410712D01*
X7297403Y-10410712D02*
X7297403Y-10334522D01*
X7297403Y-10334522D02*
X7306927Y-10315474D01*
X7306927Y-10315474D02*
X7325975Y-10305950D01*
X7325975Y-10305950D02*
X7364070Y-10305950D01*
X7364070Y-10305950D02*
X7383118Y-10315474D01*
X7383118Y-10315474D02*
X7392641Y-10334522D01*
X7392641Y-10334522D02*
X7392641Y-10353570D01*
X7392641Y-10353570D02*
X7297403Y-10372617D01*
X7468832Y-10429760D02*
X7487880Y-10439284D01*
X7487880Y-10439284D02*
X7525975Y-10439284D01*
X7525975Y-10439284D02*
X7545022Y-10429760D01*
X7545022Y-10429760D02*
X7554546Y-10410712D01*
X7554546Y-10410712D02*
X7554546Y-10401189D01*
X7554546Y-10401189D02*
X7545022Y-10382141D01*
X7545022Y-10382141D02*
X7525975Y-10372617D01*
X7525975Y-10372617D02*
X7497403Y-10372617D01*
X7497403Y-10372617D02*
X7478356Y-10363093D01*
X7478356Y-10363093D02*
X7468832Y-10344046D01*
X7468832Y-10344046D02*
X7468832Y-10334522D01*
X7468832Y-10334522D02*
X7478356Y-10315474D01*
X7478356Y-10315474D02*
X7497403Y-10305950D01*
X7497403Y-10305950D02*
X7525975Y-10305950D01*
X7525975Y-10305950D02*
X7545022Y-10315474D01*
X7621213Y-10515474D02*
X7630737Y-10505950D01*
X7630737Y-10505950D02*
X7649784Y-10477379D01*
X7649784Y-10477379D02*
X7659308Y-10458331D01*
X7659308Y-10458331D02*
X7668832Y-10429760D01*
X7668832Y-10429760D02*
X7678356Y-10382141D01*
X7678356Y-10382141D02*
X7678356Y-10344046D01*
X7678356Y-10344046D02*
X7668832Y-10296427D01*
X7668832Y-10296427D02*
X7659308Y-10267855D01*
X7659308Y-10267855D02*
X7649784Y-10248808D01*
X7649784Y-10248808D02*
X7630737Y-10220236D01*
X7630737Y-10220236D02*
X7621213Y-10210712D01*
D13*
X2846150Y-10611800D02*
G75*
G03*
X2846150Y-10611800I-40000J0D01*
G01*
D11*
X3145022Y-10503284D02*
X3164070Y-10503284D01*
X3164070Y-10503284D02*
X3183117Y-10512808D01*
X3183117Y-10512808D02*
X3192641Y-10522331D01*
X3192641Y-10522331D02*
X3202165Y-10541379D01*
X3202165Y-10541379D02*
X3211689Y-10579474D01*
X3211689Y-10579474D02*
X3211689Y-10627093D01*
X3211689Y-10627093D02*
X3202165Y-10665189D01*
X3202165Y-10665189D02*
X3192641Y-10684236D01*
X3192641Y-10684236D02*
X3183117Y-10693760D01*
X3183117Y-10693760D02*
X3164070Y-10703284D01*
X3164070Y-10703284D02*
X3145022Y-10703284D01*
X3145022Y-10703284D02*
X3125974Y-10693760D01*
X3125974Y-10693760D02*
X3116451Y-10684236D01*
X3116451Y-10684236D02*
X3106927Y-10665189D01*
X3106927Y-10665189D02*
X3097403Y-10627093D01*
X3097403Y-10627093D02*
X3097403Y-10579474D01*
X3097403Y-10579474D02*
X3106927Y-10541379D01*
X3106927Y-10541379D02*
X3116451Y-10522331D01*
X3116451Y-10522331D02*
X3125974Y-10512808D01*
X3125974Y-10512808D02*
X3145022Y-10503284D01*
X3297403Y-10684236D02*
X3306927Y-10693760D01*
X3306927Y-10693760D02*
X3297403Y-10703284D01*
X3297403Y-10703284D02*
X3287879Y-10693760D01*
X3287879Y-10693760D02*
X3297403Y-10684236D01*
X3297403Y-10684236D02*
X3297403Y-10703284D01*
X3421212Y-10588998D02*
X3402165Y-10579474D01*
X3402165Y-10579474D02*
X3392641Y-10569950D01*
X3392641Y-10569950D02*
X3383117Y-10550903D01*
X3383117Y-10550903D02*
X3383117Y-10541379D01*
X3383117Y-10541379D02*
X3392641Y-10522331D01*
X3392641Y-10522331D02*
X3402165Y-10512808D01*
X3402165Y-10512808D02*
X3421212Y-10503284D01*
X3421212Y-10503284D02*
X3459308Y-10503284D01*
X3459308Y-10503284D02*
X3478355Y-10512808D01*
X3478355Y-10512808D02*
X3487879Y-10522331D01*
X3487879Y-10522331D02*
X3497403Y-10541379D01*
X3497403Y-10541379D02*
X3497403Y-10550903D01*
X3497403Y-10550903D02*
X3487879Y-10569950D01*
X3487879Y-10569950D02*
X3478355Y-10579474D01*
X3478355Y-10579474D02*
X3459308Y-10588998D01*
X3459308Y-10588998D02*
X3421212Y-10588998D01*
X3421212Y-10588998D02*
X3402165Y-10598522D01*
X3402165Y-10598522D02*
X3392641Y-10608046D01*
X3392641Y-10608046D02*
X3383117Y-10627093D01*
X3383117Y-10627093D02*
X3383117Y-10665189D01*
X3383117Y-10665189D02*
X3392641Y-10684236D01*
X3392641Y-10684236D02*
X3402165Y-10693760D01*
X3402165Y-10693760D02*
X3421212Y-10703284D01*
X3421212Y-10703284D02*
X3459308Y-10703284D01*
X3459308Y-10703284D02*
X3478355Y-10693760D01*
X3478355Y-10693760D02*
X3487879Y-10684236D01*
X3487879Y-10684236D02*
X3497403Y-10665189D01*
X3497403Y-10665189D02*
X3497403Y-10627093D01*
X3497403Y-10627093D02*
X3487879Y-10608046D01*
X3487879Y-10608046D02*
X3478355Y-10598522D01*
X3478355Y-10598522D02*
X3459308Y-10588998D01*
X3621212Y-10503284D02*
X3640260Y-10503284D01*
X3640260Y-10503284D02*
X3659308Y-10512808D01*
X3659308Y-10512808D02*
X3668832Y-10522331D01*
X3668832Y-10522331D02*
X3678355Y-10541379D01*
X3678355Y-10541379D02*
X3687879Y-10579474D01*
X3687879Y-10579474D02*
X3687879Y-10627093D01*
X3687879Y-10627093D02*
X3678355Y-10665189D01*
X3678355Y-10665189D02*
X3668832Y-10684236D01*
X3668832Y-10684236D02*
X3659308Y-10693760D01*
X3659308Y-10693760D02*
X3640260Y-10703284D01*
X3640260Y-10703284D02*
X3621212Y-10703284D01*
X3621212Y-10703284D02*
X3602165Y-10693760D01*
X3602165Y-10693760D02*
X3592641Y-10684236D01*
X3592641Y-10684236D02*
X3583117Y-10665189D01*
X3583117Y-10665189D02*
X3573593Y-10627093D01*
X3573593Y-10627093D02*
X3573593Y-10579474D01*
X3573593Y-10579474D02*
X3583117Y-10541379D01*
X3583117Y-10541379D02*
X3592641Y-10522331D01*
X3592641Y-10522331D02*
X3602165Y-10512808D01*
X3602165Y-10512808D02*
X3621212Y-10503284D01*
X3811689Y-10503284D02*
X3830736Y-10503284D01*
X3830736Y-10503284D02*
X3849784Y-10512808D01*
X3849784Y-10512808D02*
X3859308Y-10522331D01*
X3859308Y-10522331D02*
X3868832Y-10541379D01*
X3868832Y-10541379D02*
X3878355Y-10579474D01*
X3878355Y-10579474D02*
X3878355Y-10627093D01*
X3878355Y-10627093D02*
X3868832Y-10665189D01*
X3868832Y-10665189D02*
X3859308Y-10684236D01*
X3859308Y-10684236D02*
X3849784Y-10693760D01*
X3849784Y-10693760D02*
X3830736Y-10703284D01*
X3830736Y-10703284D02*
X3811689Y-10703284D01*
X3811689Y-10703284D02*
X3792641Y-10693760D01*
X3792641Y-10693760D02*
X3783117Y-10684236D01*
X3783117Y-10684236D02*
X3773593Y-10665189D01*
X3773593Y-10665189D02*
X3764070Y-10627093D01*
X3764070Y-10627093D02*
X3764070Y-10579474D01*
X3764070Y-10579474D02*
X3773593Y-10541379D01*
X3773593Y-10541379D02*
X3783117Y-10522331D01*
X3783117Y-10522331D02*
X3792641Y-10512808D01*
X3792641Y-10512808D02*
X3811689Y-10503284D01*
X3964070Y-10703284D02*
X3964070Y-10569950D01*
X3964070Y-10588998D02*
X3973593Y-10579474D01*
X3973593Y-10579474D02*
X3992641Y-10569950D01*
X3992641Y-10569950D02*
X4021213Y-10569950D01*
X4021213Y-10569950D02*
X4040260Y-10579474D01*
X4040260Y-10579474D02*
X4049784Y-10598522D01*
X4049784Y-10598522D02*
X4049784Y-10703284D01*
X4049784Y-10598522D02*
X4059308Y-10579474D01*
X4059308Y-10579474D02*
X4078355Y-10569950D01*
X4078355Y-10569950D02*
X4106927Y-10569950D01*
X4106927Y-10569950D02*
X4125974Y-10579474D01*
X4125974Y-10579474D02*
X4135498Y-10598522D01*
X4135498Y-10598522D02*
X4135498Y-10703284D01*
X4230736Y-10703284D02*
X4230736Y-10569950D01*
X4230736Y-10588998D02*
X4240260Y-10579474D01*
X4240260Y-10579474D02*
X4259308Y-10569950D01*
X4259308Y-10569950D02*
X4287879Y-10569950D01*
X4287879Y-10569950D02*
X4306927Y-10579474D01*
X4306927Y-10579474D02*
X4316451Y-10598522D01*
X4316451Y-10598522D02*
X4316451Y-10703284D01*
X4316451Y-10598522D02*
X4325975Y-10579474D01*
X4325975Y-10579474D02*
X4345022Y-10569950D01*
X4345022Y-10569950D02*
X4373594Y-10569950D01*
X4373594Y-10569950D02*
X4392641Y-10579474D01*
X4392641Y-10579474D02*
X4402165Y-10598522D01*
X4402165Y-10598522D02*
X4402165Y-10703284D01*
X4792641Y-10493760D02*
X4621213Y-10750903D01*
X5049784Y-10503284D02*
X5068832Y-10503284D01*
X5068832Y-10503284D02*
X5087879Y-10512808D01*
X5087879Y-10512808D02*
X5097403Y-10522331D01*
X5097403Y-10522331D02*
X5106927Y-10541379D01*
X5106927Y-10541379D02*
X5116451Y-10579474D01*
X5116451Y-10579474D02*
X5116451Y-10627093D01*
X5116451Y-10627093D02*
X5106927Y-10665189D01*
X5106927Y-10665189D02*
X5097403Y-10684236D01*
X5097403Y-10684236D02*
X5087879Y-10693760D01*
X5087879Y-10693760D02*
X5068832Y-10703284D01*
X5068832Y-10703284D02*
X5049784Y-10703284D01*
X5049784Y-10703284D02*
X5030737Y-10693760D01*
X5030737Y-10693760D02*
X5021213Y-10684236D01*
X5021213Y-10684236D02*
X5011689Y-10665189D01*
X5011689Y-10665189D02*
X5002165Y-10627093D01*
X5002165Y-10627093D02*
X5002165Y-10579474D01*
X5002165Y-10579474D02*
X5011689Y-10541379D01*
X5011689Y-10541379D02*
X5021213Y-10522331D01*
X5021213Y-10522331D02*
X5030737Y-10512808D01*
X5030737Y-10512808D02*
X5049784Y-10503284D01*
X5202165Y-10684236D02*
X5211689Y-10693760D01*
X5211689Y-10693760D02*
X5202165Y-10703284D01*
X5202165Y-10703284D02*
X5192641Y-10693760D01*
X5192641Y-10693760D02*
X5202165Y-10684236D01*
X5202165Y-10684236D02*
X5202165Y-10703284D01*
X5335498Y-10503284D02*
X5354546Y-10503284D01*
X5354546Y-10503284D02*
X5373594Y-10512808D01*
X5373594Y-10512808D02*
X5383118Y-10522331D01*
X5383118Y-10522331D02*
X5392641Y-10541379D01*
X5392641Y-10541379D02*
X5402165Y-10579474D01*
X5402165Y-10579474D02*
X5402165Y-10627093D01*
X5402165Y-10627093D02*
X5392641Y-10665189D01*
X5392641Y-10665189D02*
X5383118Y-10684236D01*
X5383118Y-10684236D02*
X5373594Y-10693760D01*
X5373594Y-10693760D02*
X5354546Y-10703284D01*
X5354546Y-10703284D02*
X5335498Y-10703284D01*
X5335498Y-10703284D02*
X5316451Y-10693760D01*
X5316451Y-10693760D02*
X5306927Y-10684236D01*
X5306927Y-10684236D02*
X5297403Y-10665189D01*
X5297403Y-10665189D02*
X5287879Y-10627093D01*
X5287879Y-10627093D02*
X5287879Y-10579474D01*
X5287879Y-10579474D02*
X5297403Y-10541379D01*
X5297403Y-10541379D02*
X5306927Y-10522331D01*
X5306927Y-10522331D02*
X5316451Y-10512808D01*
X5316451Y-10512808D02*
X5335498Y-10503284D01*
X5468832Y-10503284D02*
X5592641Y-10503284D01*
X5592641Y-10503284D02*
X5525975Y-10579474D01*
X5525975Y-10579474D02*
X5554546Y-10579474D01*
X5554546Y-10579474D02*
X5573594Y-10588998D01*
X5573594Y-10588998D02*
X5583118Y-10598522D01*
X5583118Y-10598522D02*
X5592641Y-10617570D01*
X5592641Y-10617570D02*
X5592641Y-10665189D01*
X5592641Y-10665189D02*
X5583118Y-10684236D01*
X5583118Y-10684236D02*
X5573594Y-10693760D01*
X5573594Y-10693760D02*
X5554546Y-10703284D01*
X5554546Y-10703284D02*
X5497403Y-10703284D01*
X5497403Y-10703284D02*
X5478356Y-10693760D01*
X5478356Y-10693760D02*
X5468832Y-10684236D01*
X5783117Y-10703284D02*
X5668832Y-10703284D01*
X5725975Y-10703284D02*
X5725975Y-10503284D01*
X5725975Y-10503284D02*
X5706927Y-10531855D01*
X5706927Y-10531855D02*
X5687879Y-10550903D01*
X5687879Y-10550903D02*
X5668832Y-10560427D01*
X5964070Y-10503284D02*
X5868832Y-10503284D01*
X5868832Y-10503284D02*
X5859308Y-10598522D01*
X5859308Y-10598522D02*
X5868832Y-10588998D01*
X5868832Y-10588998D02*
X5887879Y-10579474D01*
X5887879Y-10579474D02*
X5935498Y-10579474D01*
X5935498Y-10579474D02*
X5954546Y-10588998D01*
X5954546Y-10588998D02*
X5964070Y-10598522D01*
X5964070Y-10598522D02*
X5973594Y-10617570D01*
X5973594Y-10617570D02*
X5973594Y-10665189D01*
X5973594Y-10665189D02*
X5964070Y-10684236D01*
X5964070Y-10684236D02*
X5954546Y-10693760D01*
X5954546Y-10693760D02*
X5935498Y-10703284D01*
X5935498Y-10703284D02*
X5887879Y-10703284D01*
X5887879Y-10703284D02*
X5868832Y-10693760D01*
X5868832Y-10693760D02*
X5859308Y-10684236D01*
X6049784Y-10503284D02*
X6049784Y-10541379D01*
X6125975Y-10503284D02*
X6125975Y-10541379D01*
X6421213Y-10779474D02*
X6411689Y-10769950D01*
X6411689Y-10769950D02*
X6392641Y-10741379D01*
X6392641Y-10741379D02*
X6383118Y-10722331D01*
X6383118Y-10722331D02*
X6373594Y-10693760D01*
X6373594Y-10693760D02*
X6364070Y-10646141D01*
X6364070Y-10646141D02*
X6364070Y-10608046D01*
X6364070Y-10608046D02*
X6373594Y-10560427D01*
X6373594Y-10560427D02*
X6383118Y-10531855D01*
X6383118Y-10531855D02*
X6392641Y-10512808D01*
X6392641Y-10512808D02*
X6411689Y-10484236D01*
X6411689Y-10484236D02*
X6421213Y-10474712D01*
X6583118Y-10503284D02*
X6545022Y-10503284D01*
X6545022Y-10503284D02*
X6525975Y-10512808D01*
X6525975Y-10512808D02*
X6516451Y-10522331D01*
X6516451Y-10522331D02*
X6497403Y-10550903D01*
X6497403Y-10550903D02*
X6487879Y-10588998D01*
X6487879Y-10588998D02*
X6487879Y-10665189D01*
X6487879Y-10665189D02*
X6497403Y-10684236D01*
X6497403Y-10684236D02*
X6506927Y-10693760D01*
X6506927Y-10693760D02*
X6525975Y-10703284D01*
X6525975Y-10703284D02*
X6564070Y-10703284D01*
X6564070Y-10703284D02*
X6583118Y-10693760D01*
X6583118Y-10693760D02*
X6592641Y-10684236D01*
X6592641Y-10684236D02*
X6602165Y-10665189D01*
X6602165Y-10665189D02*
X6602165Y-10617570D01*
X6602165Y-10617570D02*
X6592641Y-10598522D01*
X6592641Y-10598522D02*
X6583118Y-10588998D01*
X6583118Y-10588998D02*
X6564070Y-10579474D01*
X6564070Y-10579474D02*
X6525975Y-10579474D01*
X6525975Y-10579474D02*
X6506927Y-10588998D01*
X6506927Y-10588998D02*
X6497403Y-10598522D01*
X6497403Y-10598522D02*
X6487879Y-10617570D01*
X6725975Y-10503284D02*
X6745022Y-10503284D01*
X6745022Y-10503284D02*
X6764070Y-10512808D01*
X6764070Y-10512808D02*
X6773594Y-10522331D01*
X6773594Y-10522331D02*
X6783118Y-10541379D01*
X6783118Y-10541379D02*
X6792641Y-10579474D01*
X6792641Y-10579474D02*
X6792641Y-10627093D01*
X6792641Y-10627093D02*
X6783118Y-10665189D01*
X6783118Y-10665189D02*
X6773594Y-10684236D01*
X6773594Y-10684236D02*
X6764070Y-10693760D01*
X6764070Y-10693760D02*
X6745022Y-10703284D01*
X6745022Y-10703284D02*
X6725975Y-10703284D01*
X6725975Y-10703284D02*
X6706927Y-10693760D01*
X6706927Y-10693760D02*
X6697403Y-10684236D01*
X6697403Y-10684236D02*
X6687879Y-10665189D01*
X6687879Y-10665189D02*
X6678356Y-10627093D01*
X6678356Y-10627093D02*
X6678356Y-10579474D01*
X6678356Y-10579474D02*
X6687879Y-10541379D01*
X6687879Y-10541379D02*
X6697403Y-10522331D01*
X6697403Y-10522331D02*
X6706927Y-10512808D01*
X6706927Y-10512808D02*
X6725975Y-10503284D01*
X7030737Y-10703284D02*
X7030737Y-10503284D01*
X7116451Y-10703284D02*
X7116451Y-10598522D01*
X7116451Y-10598522D02*
X7106927Y-10579474D01*
X7106927Y-10579474D02*
X7087880Y-10569950D01*
X7087880Y-10569950D02*
X7059308Y-10569950D01*
X7059308Y-10569950D02*
X7040260Y-10579474D01*
X7040260Y-10579474D02*
X7030737Y-10588998D01*
X7240260Y-10703284D02*
X7221213Y-10693760D01*
X7221213Y-10693760D02*
X7211689Y-10684236D01*
X7211689Y-10684236D02*
X7202165Y-10665189D01*
X7202165Y-10665189D02*
X7202165Y-10608046D01*
X7202165Y-10608046D02*
X7211689Y-10588998D01*
X7211689Y-10588998D02*
X7221213Y-10579474D01*
X7221213Y-10579474D02*
X7240260Y-10569950D01*
X7240260Y-10569950D02*
X7268832Y-10569950D01*
X7268832Y-10569950D02*
X7287880Y-10579474D01*
X7287880Y-10579474D02*
X7297403Y-10588998D01*
X7297403Y-10588998D02*
X7306927Y-10608046D01*
X7306927Y-10608046D02*
X7306927Y-10665189D01*
X7306927Y-10665189D02*
X7297403Y-10684236D01*
X7297403Y-10684236D02*
X7287880Y-10693760D01*
X7287880Y-10693760D02*
X7268832Y-10703284D01*
X7268832Y-10703284D02*
X7240260Y-10703284D01*
X7421213Y-10703284D02*
X7402165Y-10693760D01*
X7402165Y-10693760D02*
X7392641Y-10674712D01*
X7392641Y-10674712D02*
X7392641Y-10503284D01*
X7573594Y-10693760D02*
X7554546Y-10703284D01*
X7554546Y-10703284D02*
X7516451Y-10703284D01*
X7516451Y-10703284D02*
X7497403Y-10693760D01*
X7497403Y-10693760D02*
X7487880Y-10674712D01*
X7487880Y-10674712D02*
X7487880Y-10598522D01*
X7487880Y-10598522D02*
X7497403Y-10579474D01*
X7497403Y-10579474D02*
X7516451Y-10569950D01*
X7516451Y-10569950D02*
X7554546Y-10569950D01*
X7554546Y-10569950D02*
X7573594Y-10579474D01*
X7573594Y-10579474D02*
X7583118Y-10598522D01*
X7583118Y-10598522D02*
X7583118Y-10617570D01*
X7583118Y-10617570D02*
X7487880Y-10636617D01*
X7659308Y-10693760D02*
X7678356Y-10703284D01*
X7678356Y-10703284D02*
X7716451Y-10703284D01*
X7716451Y-10703284D02*
X7735499Y-10693760D01*
X7735499Y-10693760D02*
X7745022Y-10674712D01*
X7745022Y-10674712D02*
X7745022Y-10665189D01*
X7745022Y-10665189D02*
X7735499Y-10646141D01*
X7735499Y-10646141D02*
X7716451Y-10636617D01*
X7716451Y-10636617D02*
X7687880Y-10636617D01*
X7687880Y-10636617D02*
X7668832Y-10627093D01*
X7668832Y-10627093D02*
X7659308Y-10608046D01*
X7659308Y-10608046D02*
X7659308Y-10598522D01*
X7659308Y-10598522D02*
X7668832Y-10579474D01*
X7668832Y-10579474D02*
X7687880Y-10569950D01*
X7687880Y-10569950D02*
X7716451Y-10569950D01*
X7716451Y-10569950D02*
X7735499Y-10579474D01*
X7811689Y-10779474D02*
X7821213Y-10769950D01*
X7821213Y-10769950D02*
X7840261Y-10741379D01*
X7840261Y-10741379D02*
X7849784Y-10722331D01*
X7849784Y-10722331D02*
X7859308Y-10693760D01*
X7859308Y-10693760D02*
X7868832Y-10646141D01*
X7868832Y-10646141D02*
X7868832Y-10608046D01*
X7868832Y-10608046D02*
X7859308Y-10560427D01*
X7859308Y-10560427D02*
X7849784Y-10531855D01*
X7849784Y-10531855D02*
X7840261Y-10512808D01*
X7840261Y-10512808D02*
X7821213Y-10484236D01*
X7821213Y-10484236D02*
X7811689Y-10474712D01*
D14*
X2786150Y-10815800D02*
X2786150Y-10935800D01*
X2726150Y-10875800D02*
X2846150Y-10875800D01*
D11*
X3211689Y-10967284D02*
X3097403Y-10967284D01*
X3154546Y-10967284D02*
X3154546Y-10767284D01*
X3154546Y-10767284D02*
X3135498Y-10795855D01*
X3135498Y-10795855D02*
X3116451Y-10814903D01*
X3116451Y-10814903D02*
X3097403Y-10824427D01*
X3297403Y-10948236D02*
X3306927Y-10957760D01*
X3306927Y-10957760D02*
X3297403Y-10967284D01*
X3297403Y-10967284D02*
X3287879Y-10957760D01*
X3287879Y-10957760D02*
X3297403Y-10948236D01*
X3297403Y-10948236D02*
X3297403Y-10967284D01*
X3383117Y-10786331D02*
X3392641Y-10776808D01*
X3392641Y-10776808D02*
X3411689Y-10767284D01*
X3411689Y-10767284D02*
X3459308Y-10767284D01*
X3459308Y-10767284D02*
X3478355Y-10776808D01*
X3478355Y-10776808D02*
X3487879Y-10786331D01*
X3487879Y-10786331D02*
X3497403Y-10805379D01*
X3497403Y-10805379D02*
X3497403Y-10824427D01*
X3497403Y-10824427D02*
X3487879Y-10852998D01*
X3487879Y-10852998D02*
X3373593Y-10967284D01*
X3373593Y-10967284D02*
X3497403Y-10967284D01*
X3621212Y-10767284D02*
X3640260Y-10767284D01*
X3640260Y-10767284D02*
X3659308Y-10776808D01*
X3659308Y-10776808D02*
X3668832Y-10786331D01*
X3668832Y-10786331D02*
X3678355Y-10805379D01*
X3678355Y-10805379D02*
X3687879Y-10843474D01*
X3687879Y-10843474D02*
X3687879Y-10891093D01*
X3687879Y-10891093D02*
X3678355Y-10929189D01*
X3678355Y-10929189D02*
X3668832Y-10948236D01*
X3668832Y-10948236D02*
X3659308Y-10957760D01*
X3659308Y-10957760D02*
X3640260Y-10967284D01*
X3640260Y-10967284D02*
X3621212Y-10967284D01*
X3621212Y-10967284D02*
X3602165Y-10957760D01*
X3602165Y-10957760D02*
X3592641Y-10948236D01*
X3592641Y-10948236D02*
X3583117Y-10929189D01*
X3583117Y-10929189D02*
X3573593Y-10891093D01*
X3573593Y-10891093D02*
X3573593Y-10843474D01*
X3573593Y-10843474D02*
X3583117Y-10805379D01*
X3583117Y-10805379D02*
X3592641Y-10786331D01*
X3592641Y-10786331D02*
X3602165Y-10776808D01*
X3602165Y-10776808D02*
X3621212Y-10767284D01*
X3811689Y-10767284D02*
X3830736Y-10767284D01*
X3830736Y-10767284D02*
X3849784Y-10776808D01*
X3849784Y-10776808D02*
X3859308Y-10786331D01*
X3859308Y-10786331D02*
X3868832Y-10805379D01*
X3868832Y-10805379D02*
X3878355Y-10843474D01*
X3878355Y-10843474D02*
X3878355Y-10891093D01*
X3878355Y-10891093D02*
X3868832Y-10929189D01*
X3868832Y-10929189D02*
X3859308Y-10948236D01*
X3859308Y-10948236D02*
X3849784Y-10957760D01*
X3849784Y-10957760D02*
X3830736Y-10967284D01*
X3830736Y-10967284D02*
X3811689Y-10967284D01*
X3811689Y-10967284D02*
X3792641Y-10957760D01*
X3792641Y-10957760D02*
X3783117Y-10948236D01*
X3783117Y-10948236D02*
X3773593Y-10929189D01*
X3773593Y-10929189D02*
X3764070Y-10891093D01*
X3764070Y-10891093D02*
X3764070Y-10843474D01*
X3764070Y-10843474D02*
X3773593Y-10805379D01*
X3773593Y-10805379D02*
X3783117Y-10786331D01*
X3783117Y-10786331D02*
X3792641Y-10776808D01*
X3792641Y-10776808D02*
X3811689Y-10767284D01*
X3964070Y-10967284D02*
X3964070Y-10833950D01*
X3964070Y-10852998D02*
X3973593Y-10843474D01*
X3973593Y-10843474D02*
X3992641Y-10833950D01*
X3992641Y-10833950D02*
X4021213Y-10833950D01*
X4021213Y-10833950D02*
X4040260Y-10843474D01*
X4040260Y-10843474D02*
X4049784Y-10862522D01*
X4049784Y-10862522D02*
X4049784Y-10967284D01*
X4049784Y-10862522D02*
X4059308Y-10843474D01*
X4059308Y-10843474D02*
X4078355Y-10833950D01*
X4078355Y-10833950D02*
X4106927Y-10833950D01*
X4106927Y-10833950D02*
X4125974Y-10843474D01*
X4125974Y-10843474D02*
X4135498Y-10862522D01*
X4135498Y-10862522D02*
X4135498Y-10967284D01*
X4230736Y-10967284D02*
X4230736Y-10833950D01*
X4230736Y-10852998D02*
X4240260Y-10843474D01*
X4240260Y-10843474D02*
X4259308Y-10833950D01*
X4259308Y-10833950D02*
X4287879Y-10833950D01*
X4287879Y-10833950D02*
X4306927Y-10843474D01*
X4306927Y-10843474D02*
X4316451Y-10862522D01*
X4316451Y-10862522D02*
X4316451Y-10967284D01*
X4316451Y-10862522D02*
X4325975Y-10843474D01*
X4325975Y-10843474D02*
X4345022Y-10833950D01*
X4345022Y-10833950D02*
X4373594Y-10833950D01*
X4373594Y-10833950D02*
X4392641Y-10843474D01*
X4392641Y-10843474D02*
X4402165Y-10862522D01*
X4402165Y-10862522D02*
X4402165Y-10967284D01*
X4792641Y-10757760D02*
X4621213Y-11014903D01*
X5049784Y-10767284D02*
X5068832Y-10767284D01*
X5068832Y-10767284D02*
X5087879Y-10776808D01*
X5087879Y-10776808D02*
X5097403Y-10786331D01*
X5097403Y-10786331D02*
X5106927Y-10805379D01*
X5106927Y-10805379D02*
X5116451Y-10843474D01*
X5116451Y-10843474D02*
X5116451Y-10891093D01*
X5116451Y-10891093D02*
X5106927Y-10929189D01*
X5106927Y-10929189D02*
X5097403Y-10948236D01*
X5097403Y-10948236D02*
X5087879Y-10957760D01*
X5087879Y-10957760D02*
X5068832Y-10967284D01*
X5068832Y-10967284D02*
X5049784Y-10967284D01*
X5049784Y-10967284D02*
X5030737Y-10957760D01*
X5030737Y-10957760D02*
X5021213Y-10948236D01*
X5021213Y-10948236D02*
X5011689Y-10929189D01*
X5011689Y-10929189D02*
X5002165Y-10891093D01*
X5002165Y-10891093D02*
X5002165Y-10843474D01*
X5002165Y-10843474D02*
X5011689Y-10805379D01*
X5011689Y-10805379D02*
X5021213Y-10786331D01*
X5021213Y-10786331D02*
X5030737Y-10776808D01*
X5030737Y-10776808D02*
X5049784Y-10767284D01*
X5202165Y-10948236D02*
X5211689Y-10957760D01*
X5211689Y-10957760D02*
X5202165Y-10967284D01*
X5202165Y-10967284D02*
X5192641Y-10957760D01*
X5192641Y-10957760D02*
X5202165Y-10948236D01*
X5202165Y-10948236D02*
X5202165Y-10967284D01*
X5335498Y-10767284D02*
X5354546Y-10767284D01*
X5354546Y-10767284D02*
X5373594Y-10776808D01*
X5373594Y-10776808D02*
X5383118Y-10786331D01*
X5383118Y-10786331D02*
X5392641Y-10805379D01*
X5392641Y-10805379D02*
X5402165Y-10843474D01*
X5402165Y-10843474D02*
X5402165Y-10891093D01*
X5402165Y-10891093D02*
X5392641Y-10929189D01*
X5392641Y-10929189D02*
X5383118Y-10948236D01*
X5383118Y-10948236D02*
X5373594Y-10957760D01*
X5373594Y-10957760D02*
X5354546Y-10967284D01*
X5354546Y-10967284D02*
X5335498Y-10967284D01*
X5335498Y-10967284D02*
X5316451Y-10957760D01*
X5316451Y-10957760D02*
X5306927Y-10948236D01*
X5306927Y-10948236D02*
X5297403Y-10929189D01*
X5297403Y-10929189D02*
X5287879Y-10891093D01*
X5287879Y-10891093D02*
X5287879Y-10843474D01*
X5287879Y-10843474D02*
X5297403Y-10805379D01*
X5297403Y-10805379D02*
X5306927Y-10786331D01*
X5306927Y-10786331D02*
X5316451Y-10776808D01*
X5316451Y-10776808D02*
X5335498Y-10767284D01*
X5573594Y-10833950D02*
X5573594Y-10967284D01*
X5525975Y-10757760D02*
X5478356Y-10900617D01*
X5478356Y-10900617D02*
X5602165Y-10900617D01*
X5659308Y-10767284D02*
X5792641Y-10767284D01*
X5792641Y-10767284D02*
X5706927Y-10967284D01*
X5859308Y-10786331D02*
X5868832Y-10776808D01*
X5868832Y-10776808D02*
X5887879Y-10767284D01*
X5887879Y-10767284D02*
X5935498Y-10767284D01*
X5935498Y-10767284D02*
X5954546Y-10776808D01*
X5954546Y-10776808D02*
X5964070Y-10786331D01*
X5964070Y-10786331D02*
X5973594Y-10805379D01*
X5973594Y-10805379D02*
X5973594Y-10824427D01*
X5973594Y-10824427D02*
X5964070Y-10852998D01*
X5964070Y-10852998D02*
X5849784Y-10967284D01*
X5849784Y-10967284D02*
X5973594Y-10967284D01*
X6049784Y-10767284D02*
X6049784Y-10805379D01*
X6125975Y-10767284D02*
X6125975Y-10805379D01*
X6421213Y-11043474D02*
X6411689Y-11033950D01*
X6411689Y-11033950D02*
X6392641Y-11005379D01*
X6392641Y-11005379D02*
X6383118Y-10986331D01*
X6383118Y-10986331D02*
X6373594Y-10957760D01*
X6373594Y-10957760D02*
X6364070Y-10910141D01*
X6364070Y-10910141D02*
X6364070Y-10872046D01*
X6364070Y-10872046D02*
X6373594Y-10824427D01*
X6373594Y-10824427D02*
X6383118Y-10795855D01*
X6383118Y-10795855D02*
X6392641Y-10776808D01*
X6392641Y-10776808D02*
X6411689Y-10748236D01*
X6411689Y-10748236D02*
X6421213Y-10738712D01*
X6583118Y-10767284D02*
X6545022Y-10767284D01*
X6545022Y-10767284D02*
X6525975Y-10776808D01*
X6525975Y-10776808D02*
X6516451Y-10786331D01*
X6516451Y-10786331D02*
X6497403Y-10814903D01*
X6497403Y-10814903D02*
X6487879Y-10852998D01*
X6487879Y-10852998D02*
X6487879Y-10929189D01*
X6487879Y-10929189D02*
X6497403Y-10948236D01*
X6497403Y-10948236D02*
X6506927Y-10957760D01*
X6506927Y-10957760D02*
X6525975Y-10967284D01*
X6525975Y-10967284D02*
X6564070Y-10967284D01*
X6564070Y-10967284D02*
X6583118Y-10957760D01*
X6583118Y-10957760D02*
X6592641Y-10948236D01*
X6592641Y-10948236D02*
X6602165Y-10929189D01*
X6602165Y-10929189D02*
X6602165Y-10881570D01*
X6602165Y-10881570D02*
X6592641Y-10862522D01*
X6592641Y-10862522D02*
X6583118Y-10852998D01*
X6583118Y-10852998D02*
X6564070Y-10843474D01*
X6564070Y-10843474D02*
X6525975Y-10843474D01*
X6525975Y-10843474D02*
X6506927Y-10852998D01*
X6506927Y-10852998D02*
X6497403Y-10862522D01*
X6497403Y-10862522D02*
X6487879Y-10881570D01*
X6840260Y-10967284D02*
X6840260Y-10767284D01*
X6925975Y-10967284D02*
X6925975Y-10862522D01*
X6925975Y-10862522D02*
X6916451Y-10843474D01*
X6916451Y-10843474D02*
X6897403Y-10833950D01*
X6897403Y-10833950D02*
X6868832Y-10833950D01*
X6868832Y-10833950D02*
X6849784Y-10843474D01*
X6849784Y-10843474D02*
X6840260Y-10852998D01*
X7049784Y-10967284D02*
X7030737Y-10957760D01*
X7030737Y-10957760D02*
X7021213Y-10948236D01*
X7021213Y-10948236D02*
X7011689Y-10929189D01*
X7011689Y-10929189D02*
X7011689Y-10872046D01*
X7011689Y-10872046D02*
X7021213Y-10852998D01*
X7021213Y-10852998D02*
X7030737Y-10843474D01*
X7030737Y-10843474D02*
X7049784Y-10833950D01*
X7049784Y-10833950D02*
X7078356Y-10833950D01*
X7078356Y-10833950D02*
X7097403Y-10843474D01*
X7097403Y-10843474D02*
X7106927Y-10852998D01*
X7106927Y-10852998D02*
X7116451Y-10872046D01*
X7116451Y-10872046D02*
X7116451Y-10929189D01*
X7116451Y-10929189D02*
X7106927Y-10948236D01*
X7106927Y-10948236D02*
X7097403Y-10957760D01*
X7097403Y-10957760D02*
X7078356Y-10967284D01*
X7078356Y-10967284D02*
X7049784Y-10967284D01*
X7230737Y-10967284D02*
X7211689Y-10957760D01*
X7211689Y-10957760D02*
X7202165Y-10938712D01*
X7202165Y-10938712D02*
X7202165Y-10767284D01*
X7383118Y-10957760D02*
X7364070Y-10967284D01*
X7364070Y-10967284D02*
X7325975Y-10967284D01*
X7325975Y-10967284D02*
X7306927Y-10957760D01*
X7306927Y-10957760D02*
X7297403Y-10938712D01*
X7297403Y-10938712D02*
X7297403Y-10862522D01*
X7297403Y-10862522D02*
X7306927Y-10843474D01*
X7306927Y-10843474D02*
X7325975Y-10833950D01*
X7325975Y-10833950D02*
X7364070Y-10833950D01*
X7364070Y-10833950D02*
X7383118Y-10843474D01*
X7383118Y-10843474D02*
X7392641Y-10862522D01*
X7392641Y-10862522D02*
X7392641Y-10881570D01*
X7392641Y-10881570D02*
X7297403Y-10900617D01*
X7468832Y-10957760D02*
X7487880Y-10967284D01*
X7487880Y-10967284D02*
X7525975Y-10967284D01*
X7525975Y-10967284D02*
X7545022Y-10957760D01*
X7545022Y-10957760D02*
X7554546Y-10938712D01*
X7554546Y-10938712D02*
X7554546Y-10929189D01*
X7554546Y-10929189D02*
X7545022Y-10910141D01*
X7545022Y-10910141D02*
X7525975Y-10900617D01*
X7525975Y-10900617D02*
X7497403Y-10900617D01*
X7497403Y-10900617D02*
X7478356Y-10891093D01*
X7478356Y-10891093D02*
X7468832Y-10872046D01*
X7468832Y-10872046D02*
X7468832Y-10862522D01*
X7468832Y-10862522D02*
X7478356Y-10843474D01*
X7478356Y-10843474D02*
X7497403Y-10833950D01*
X7497403Y-10833950D02*
X7525975Y-10833950D01*
X7525975Y-10833950D02*
X7545022Y-10843474D01*
X7621213Y-11043474D02*
X7630737Y-11033950D01*
X7630737Y-11033950D02*
X7649784Y-11005379D01*
X7649784Y-11005379D02*
X7659308Y-10986331D01*
X7659308Y-10986331D02*
X7668832Y-10957760D01*
X7668832Y-10957760D02*
X7678356Y-10910141D01*
X7678356Y-10910141D02*
X7678356Y-10872046D01*
X7678356Y-10872046D02*
X7668832Y-10824427D01*
X7668832Y-10824427D02*
X7659308Y-10795855D01*
X7659308Y-10795855D02*
X7649784Y-10776808D01*
X7649784Y-10776808D02*
X7630737Y-10748236D01*
X7630737Y-10748236D02*
X7621213Y-10738712D01*
D15*
X2827112Y-11185762D02*
X2827112Y-11093838D01*
X2735188Y-11093838D01*
X2735188Y-11185762D01*
X2827112Y-11185762D01*
D11*
X3211689Y-11231284D02*
X3097403Y-11231284D01*
X3154546Y-11231284D02*
X3154546Y-11031284D01*
X3154546Y-11031284D02*
X3135498Y-11059855D01*
X3135498Y-11059855D02*
X3116451Y-11078903D01*
X3116451Y-11078903D02*
X3097403Y-11088427D01*
X3297403Y-11212236D02*
X3306927Y-11221760D01*
X3306927Y-11221760D02*
X3297403Y-11231284D01*
X3297403Y-11231284D02*
X3287879Y-11221760D01*
X3287879Y-11221760D02*
X3297403Y-11212236D01*
X3297403Y-11212236D02*
X3297403Y-11231284D01*
X3373593Y-11031284D02*
X3497403Y-11031284D01*
X3497403Y-11031284D02*
X3430736Y-11107474D01*
X3430736Y-11107474D02*
X3459308Y-11107474D01*
X3459308Y-11107474D02*
X3478355Y-11116998D01*
X3478355Y-11116998D02*
X3487879Y-11126522D01*
X3487879Y-11126522D02*
X3497403Y-11145570D01*
X3497403Y-11145570D02*
X3497403Y-11193188D01*
X3497403Y-11193188D02*
X3487879Y-11212236D01*
X3487879Y-11212236D02*
X3478355Y-11221760D01*
X3478355Y-11221760D02*
X3459308Y-11231284D01*
X3459308Y-11231284D02*
X3402165Y-11231284D01*
X3402165Y-11231284D02*
X3383117Y-11221760D01*
X3383117Y-11221760D02*
X3373593Y-11212236D01*
X3621212Y-11031284D02*
X3640260Y-11031284D01*
X3640260Y-11031284D02*
X3659308Y-11040808D01*
X3659308Y-11040808D02*
X3668832Y-11050331D01*
X3668832Y-11050331D02*
X3678355Y-11069379D01*
X3678355Y-11069379D02*
X3687879Y-11107474D01*
X3687879Y-11107474D02*
X3687879Y-11155093D01*
X3687879Y-11155093D02*
X3678355Y-11193188D01*
X3678355Y-11193188D02*
X3668832Y-11212236D01*
X3668832Y-11212236D02*
X3659308Y-11221760D01*
X3659308Y-11221760D02*
X3640260Y-11231284D01*
X3640260Y-11231284D02*
X3621212Y-11231284D01*
X3621212Y-11231284D02*
X3602165Y-11221760D01*
X3602165Y-11221760D02*
X3592641Y-11212236D01*
X3592641Y-11212236D02*
X3583117Y-11193188D01*
X3583117Y-11193188D02*
X3573593Y-11155093D01*
X3573593Y-11155093D02*
X3573593Y-11107474D01*
X3573593Y-11107474D02*
X3583117Y-11069379D01*
X3583117Y-11069379D02*
X3592641Y-11050331D01*
X3592641Y-11050331D02*
X3602165Y-11040808D01*
X3602165Y-11040808D02*
X3621212Y-11031284D01*
X3811689Y-11031284D02*
X3830736Y-11031284D01*
X3830736Y-11031284D02*
X3849784Y-11040808D01*
X3849784Y-11040808D02*
X3859308Y-11050331D01*
X3859308Y-11050331D02*
X3868832Y-11069379D01*
X3868832Y-11069379D02*
X3878355Y-11107474D01*
X3878355Y-11107474D02*
X3878355Y-11155093D01*
X3878355Y-11155093D02*
X3868832Y-11193188D01*
X3868832Y-11193188D02*
X3859308Y-11212236D01*
X3859308Y-11212236D02*
X3849784Y-11221760D01*
X3849784Y-11221760D02*
X3830736Y-11231284D01*
X3830736Y-11231284D02*
X3811689Y-11231284D01*
X3811689Y-11231284D02*
X3792641Y-11221760D01*
X3792641Y-11221760D02*
X3783117Y-11212236D01*
X3783117Y-11212236D02*
X3773593Y-11193188D01*
X3773593Y-11193188D02*
X3764070Y-11155093D01*
X3764070Y-11155093D02*
X3764070Y-11107474D01*
X3764070Y-11107474D02*
X3773593Y-11069379D01*
X3773593Y-11069379D02*
X3783117Y-11050331D01*
X3783117Y-11050331D02*
X3792641Y-11040808D01*
X3792641Y-11040808D02*
X3811689Y-11031284D01*
X3964070Y-11231284D02*
X3964070Y-11097950D01*
X3964070Y-11116998D02*
X3973593Y-11107474D01*
X3973593Y-11107474D02*
X3992641Y-11097950D01*
X3992641Y-11097950D02*
X4021213Y-11097950D01*
X4021213Y-11097950D02*
X4040260Y-11107474D01*
X4040260Y-11107474D02*
X4049784Y-11126522D01*
X4049784Y-11126522D02*
X4049784Y-11231284D01*
X4049784Y-11126522D02*
X4059308Y-11107474D01*
X4059308Y-11107474D02*
X4078355Y-11097950D01*
X4078355Y-11097950D02*
X4106927Y-11097950D01*
X4106927Y-11097950D02*
X4125974Y-11107474D01*
X4125974Y-11107474D02*
X4135498Y-11126522D01*
X4135498Y-11126522D02*
X4135498Y-11231284D01*
X4230736Y-11231284D02*
X4230736Y-11097950D01*
X4230736Y-11116998D02*
X4240260Y-11107474D01*
X4240260Y-11107474D02*
X4259308Y-11097950D01*
X4259308Y-11097950D02*
X4287879Y-11097950D01*
X4287879Y-11097950D02*
X4306927Y-11107474D01*
X4306927Y-11107474D02*
X4316451Y-11126522D01*
X4316451Y-11126522D02*
X4316451Y-11231284D01*
X4316451Y-11126522D02*
X4325975Y-11107474D01*
X4325975Y-11107474D02*
X4345022Y-11097950D01*
X4345022Y-11097950D02*
X4373594Y-11097950D01*
X4373594Y-11097950D02*
X4392641Y-11107474D01*
X4392641Y-11107474D02*
X4402165Y-11126522D01*
X4402165Y-11126522D02*
X4402165Y-11231284D01*
X4792641Y-11021760D02*
X4621213Y-11278903D01*
X5049784Y-11031284D02*
X5068832Y-11031284D01*
X5068832Y-11031284D02*
X5087879Y-11040808D01*
X5087879Y-11040808D02*
X5097403Y-11050331D01*
X5097403Y-11050331D02*
X5106927Y-11069379D01*
X5106927Y-11069379D02*
X5116451Y-11107474D01*
X5116451Y-11107474D02*
X5116451Y-11155093D01*
X5116451Y-11155093D02*
X5106927Y-11193188D01*
X5106927Y-11193188D02*
X5097403Y-11212236D01*
X5097403Y-11212236D02*
X5087879Y-11221760D01*
X5087879Y-11221760D02*
X5068832Y-11231284D01*
X5068832Y-11231284D02*
X5049784Y-11231284D01*
X5049784Y-11231284D02*
X5030737Y-11221760D01*
X5030737Y-11221760D02*
X5021213Y-11212236D01*
X5021213Y-11212236D02*
X5011689Y-11193188D01*
X5011689Y-11193188D02*
X5002165Y-11155093D01*
X5002165Y-11155093D02*
X5002165Y-11107474D01*
X5002165Y-11107474D02*
X5011689Y-11069379D01*
X5011689Y-11069379D02*
X5021213Y-11050331D01*
X5021213Y-11050331D02*
X5030737Y-11040808D01*
X5030737Y-11040808D02*
X5049784Y-11031284D01*
X5202165Y-11212236D02*
X5211689Y-11221760D01*
X5211689Y-11221760D02*
X5202165Y-11231284D01*
X5202165Y-11231284D02*
X5192641Y-11221760D01*
X5192641Y-11221760D02*
X5202165Y-11212236D01*
X5202165Y-11212236D02*
X5202165Y-11231284D01*
X5335498Y-11031284D02*
X5354546Y-11031284D01*
X5354546Y-11031284D02*
X5373594Y-11040808D01*
X5373594Y-11040808D02*
X5383118Y-11050331D01*
X5383118Y-11050331D02*
X5392641Y-11069379D01*
X5392641Y-11069379D02*
X5402165Y-11107474D01*
X5402165Y-11107474D02*
X5402165Y-11155093D01*
X5402165Y-11155093D02*
X5392641Y-11193188D01*
X5392641Y-11193188D02*
X5383118Y-11212236D01*
X5383118Y-11212236D02*
X5373594Y-11221760D01*
X5373594Y-11221760D02*
X5354546Y-11231284D01*
X5354546Y-11231284D02*
X5335498Y-11231284D01*
X5335498Y-11231284D02*
X5316451Y-11221760D01*
X5316451Y-11221760D02*
X5306927Y-11212236D01*
X5306927Y-11212236D02*
X5297403Y-11193188D01*
X5297403Y-11193188D02*
X5287879Y-11155093D01*
X5287879Y-11155093D02*
X5287879Y-11107474D01*
X5287879Y-11107474D02*
X5297403Y-11069379D01*
X5297403Y-11069379D02*
X5306927Y-11050331D01*
X5306927Y-11050331D02*
X5316451Y-11040808D01*
X5316451Y-11040808D02*
X5335498Y-11031284D01*
X5583118Y-11031284D02*
X5487879Y-11031284D01*
X5487879Y-11031284D02*
X5478356Y-11126522D01*
X5478356Y-11126522D02*
X5487879Y-11116998D01*
X5487879Y-11116998D02*
X5506927Y-11107474D01*
X5506927Y-11107474D02*
X5554546Y-11107474D01*
X5554546Y-11107474D02*
X5573594Y-11116998D01*
X5573594Y-11116998D02*
X5583118Y-11126522D01*
X5583118Y-11126522D02*
X5592641Y-11145570D01*
X5592641Y-11145570D02*
X5592641Y-11193188D01*
X5592641Y-11193188D02*
X5583118Y-11212236D01*
X5583118Y-11212236D02*
X5573594Y-11221760D01*
X5573594Y-11221760D02*
X5554546Y-11231284D01*
X5554546Y-11231284D02*
X5506927Y-11231284D01*
X5506927Y-11231284D02*
X5487879Y-11221760D01*
X5487879Y-11221760D02*
X5478356Y-11212236D01*
X5783117Y-11231284D02*
X5668832Y-11231284D01*
X5725975Y-11231284D02*
X5725975Y-11031284D01*
X5725975Y-11031284D02*
X5706927Y-11059855D01*
X5706927Y-11059855D02*
X5687879Y-11078903D01*
X5687879Y-11078903D02*
X5668832Y-11088427D01*
X5859308Y-11050331D02*
X5868832Y-11040808D01*
X5868832Y-11040808D02*
X5887879Y-11031284D01*
X5887879Y-11031284D02*
X5935498Y-11031284D01*
X5935498Y-11031284D02*
X5954546Y-11040808D01*
X5954546Y-11040808D02*
X5964070Y-11050331D01*
X5964070Y-11050331D02*
X5973594Y-11069379D01*
X5973594Y-11069379D02*
X5973594Y-11088427D01*
X5973594Y-11088427D02*
X5964070Y-11116998D01*
X5964070Y-11116998D02*
X5849784Y-11231284D01*
X5849784Y-11231284D02*
X5973594Y-11231284D01*
X6049784Y-11031284D02*
X6049784Y-11069379D01*
X6125975Y-11031284D02*
X6125975Y-11069379D01*
X6421213Y-11307474D02*
X6411689Y-11297950D01*
X6411689Y-11297950D02*
X6392641Y-11269379D01*
X6392641Y-11269379D02*
X6383118Y-11250331D01*
X6383118Y-11250331D02*
X6373594Y-11221760D01*
X6373594Y-11221760D02*
X6364070Y-11174141D01*
X6364070Y-11174141D02*
X6364070Y-11136046D01*
X6364070Y-11136046D02*
X6373594Y-11088427D01*
X6373594Y-11088427D02*
X6383118Y-11059855D01*
X6383118Y-11059855D02*
X6392641Y-11040808D01*
X6392641Y-11040808D02*
X6411689Y-11012236D01*
X6411689Y-11012236D02*
X6421213Y-11002712D01*
X6602165Y-11231284D02*
X6487879Y-11231284D01*
X6545022Y-11231284D02*
X6545022Y-11031284D01*
X6545022Y-11031284D02*
X6525975Y-11059855D01*
X6525975Y-11059855D02*
X6506927Y-11078903D01*
X6506927Y-11078903D02*
X6487879Y-11088427D01*
X6697403Y-11231284D02*
X6735498Y-11231284D01*
X6735498Y-11231284D02*
X6754546Y-11221760D01*
X6754546Y-11221760D02*
X6764070Y-11212236D01*
X6764070Y-11212236D02*
X6783118Y-11183665D01*
X6783118Y-11183665D02*
X6792641Y-11145570D01*
X6792641Y-11145570D02*
X6792641Y-11069379D01*
X6792641Y-11069379D02*
X6783118Y-11050331D01*
X6783118Y-11050331D02*
X6773594Y-11040808D01*
X6773594Y-11040808D02*
X6754546Y-11031284D01*
X6754546Y-11031284D02*
X6716451Y-11031284D01*
X6716451Y-11031284D02*
X6697403Y-11040808D01*
X6697403Y-11040808D02*
X6687879Y-11050331D01*
X6687879Y-11050331D02*
X6678356Y-11069379D01*
X6678356Y-11069379D02*
X6678356Y-11116998D01*
X6678356Y-11116998D02*
X6687879Y-11136046D01*
X6687879Y-11136046D02*
X6697403Y-11145570D01*
X6697403Y-11145570D02*
X6716451Y-11155093D01*
X6716451Y-11155093D02*
X6754546Y-11155093D01*
X6754546Y-11155093D02*
X6773594Y-11145570D01*
X6773594Y-11145570D02*
X6783118Y-11136046D01*
X6783118Y-11136046D02*
X6792641Y-11116998D01*
X7030737Y-11231284D02*
X7030737Y-11031284D01*
X7116451Y-11231284D02*
X7116451Y-11126522D01*
X7116451Y-11126522D02*
X7106927Y-11107474D01*
X7106927Y-11107474D02*
X7087880Y-11097950D01*
X7087880Y-11097950D02*
X7059308Y-11097950D01*
X7059308Y-11097950D02*
X7040260Y-11107474D01*
X7040260Y-11107474D02*
X7030737Y-11116998D01*
X7240260Y-11231284D02*
X7221213Y-11221760D01*
X7221213Y-11221760D02*
X7211689Y-11212236D01*
X7211689Y-11212236D02*
X7202165Y-11193188D01*
X7202165Y-11193188D02*
X7202165Y-11136046D01*
X7202165Y-11136046D02*
X7211689Y-11116998D01*
X7211689Y-11116998D02*
X7221213Y-11107474D01*
X7221213Y-11107474D02*
X7240260Y-11097950D01*
X7240260Y-11097950D02*
X7268832Y-11097950D01*
X7268832Y-11097950D02*
X7287880Y-11107474D01*
X7287880Y-11107474D02*
X7297403Y-11116998D01*
X7297403Y-11116998D02*
X7306927Y-11136046D01*
X7306927Y-11136046D02*
X7306927Y-11193188D01*
X7306927Y-11193188D02*
X7297403Y-11212236D01*
X7297403Y-11212236D02*
X7287880Y-11221760D01*
X7287880Y-11221760D02*
X7268832Y-11231284D01*
X7268832Y-11231284D02*
X7240260Y-11231284D01*
X7421213Y-11231284D02*
X7402165Y-11221760D01*
X7402165Y-11221760D02*
X7392641Y-11202712D01*
X7392641Y-11202712D02*
X7392641Y-11031284D01*
X7573594Y-11221760D02*
X7554546Y-11231284D01*
X7554546Y-11231284D02*
X7516451Y-11231284D01*
X7516451Y-11231284D02*
X7497403Y-11221760D01*
X7497403Y-11221760D02*
X7487880Y-11202712D01*
X7487880Y-11202712D02*
X7487880Y-11126522D01*
X7487880Y-11126522D02*
X7497403Y-11107474D01*
X7497403Y-11107474D02*
X7516451Y-11097950D01*
X7516451Y-11097950D02*
X7554546Y-11097950D01*
X7554546Y-11097950D02*
X7573594Y-11107474D01*
X7573594Y-11107474D02*
X7583118Y-11126522D01*
X7583118Y-11126522D02*
X7583118Y-11145570D01*
X7583118Y-11145570D02*
X7487880Y-11164617D01*
X7659308Y-11221760D02*
X7678356Y-11231284D01*
X7678356Y-11231284D02*
X7716451Y-11231284D01*
X7716451Y-11231284D02*
X7735499Y-11221760D01*
X7735499Y-11221760D02*
X7745022Y-11202712D01*
X7745022Y-11202712D02*
X7745022Y-11193188D01*
X7745022Y-11193188D02*
X7735499Y-11174141D01*
X7735499Y-11174141D02*
X7716451Y-11164617D01*
X7716451Y-11164617D02*
X7687880Y-11164617D01*
X7687880Y-11164617D02*
X7668832Y-11155093D01*
X7668832Y-11155093D02*
X7659308Y-11136046D01*
X7659308Y-11136046D02*
X7659308Y-11126522D01*
X7659308Y-11126522D02*
X7668832Y-11107474D01*
X7668832Y-11107474D02*
X7687880Y-11097950D01*
X7687880Y-11097950D02*
X7716451Y-11097950D01*
X7716451Y-11097950D02*
X7735499Y-11107474D01*
X7811689Y-11307474D02*
X7821213Y-11297950D01*
X7821213Y-11297950D02*
X7840261Y-11269379D01*
X7840261Y-11269379D02*
X7849784Y-11250331D01*
X7849784Y-11250331D02*
X7859308Y-11221760D01*
X7859308Y-11221760D02*
X7868832Y-11174141D01*
X7868832Y-11174141D02*
X7868832Y-11136046D01*
X7868832Y-11136046D02*
X7859308Y-11088427D01*
X7859308Y-11088427D02*
X7849784Y-11059855D01*
X7849784Y-11059855D02*
X7840261Y-11040808D01*
X7840261Y-11040808D02*
X7821213Y-11012236D01*
X7821213Y-11012236D02*
X7811689Y-11002712D01*
M02*
