%TF.GenerationSoftware,KiCad,Pcbnew,7.0.5*%
%TF.CreationDate,2023-11-27T09:45:35+05:30*%
%TF.ProjectId,Precharge circuit,50726563-6861-4726-9765-206369726375,rev?*%
%TF.SameCoordinates,Original*%
%TF.FileFunction,Soldermask,Top*%
%TF.FilePolarity,Negative*%
%FSLAX46Y46*%
G04 Gerber Fmt 4.6, Leading zero omitted, Abs format (unit mm)*
G04 Created by KiCad (PCBNEW 7.0.5) date 2023-11-27 09:45:35*
%MOMM*%
%LPD*%
G01*
G04 APERTURE LIST*
G04 Aperture macros list*
%AMRoundRect*
0 Rectangle with rounded corners*
0 $1 Rounding radius*
0 $2 $3 $4 $5 $6 $7 $8 $9 X,Y pos of 4 corners*
0 Add a 4 corners polygon primitive as box body*
4,1,4,$2,$3,$4,$5,$6,$7,$8,$9,$2,$3,0*
0 Add four circle primitives for the rounded corners*
1,1,$1+$1,$2,$3*
1,1,$1+$1,$4,$5*
1,1,$1+$1,$6,$7*
1,1,$1+$1,$8,$9*
0 Add four rect primitives between the rounded corners*
20,1,$1+$1,$2,$3,$4,$5,0*
20,1,$1+$1,$4,$5,$6,$7,0*
20,1,$1+$1,$6,$7,$8,$9,0*
20,1,$1+$1,$8,$9,$2,$3,0*%
G04 Aperture macros list end*
%ADD10C,3.500000*%
%ADD11R,1.600000X1.600000*%
%ADD12O,1.600000X1.600000*%
%ADD13C,1.600000*%
%ADD14C,2.004000*%
%ADD15C,1.512000*%
%ADD16C,2.154000*%
%ADD17R,2.600000X2.600000*%
%ADD18C,2.600000*%
%ADD19RoundRect,0.102000X-0.565000X-0.565000X0.565000X-0.565000X0.565000X0.565000X-0.565000X0.565000X0*%
%ADD20C,1.334000*%
G04 APERTURE END LIST*
D10*
%TO.C,REF\u002A\u002A*%
X32537400Y-34391600D03*
%TD*%
%TO.C,REF\u002A\u002A*%
X32766000Y-91516200D03*
%TD*%
%TO.C,REF\u002A\u002A*%
X148564600Y-91617800D03*
%TD*%
%TO.C,REF\u002A\u002A*%
X148590000Y-34239200D03*
%TD*%
D11*
%TO.C,U2*%
X101356000Y-50992800D03*
D12*
X101356000Y-53532800D03*
X101356000Y-56072800D03*
X108976000Y-56072800D03*
X108976000Y-53532800D03*
X108976000Y-50992800D03*
%TD*%
D13*
%TO.C,R25*%
X71424800Y-47777400D03*
D12*
X81584800Y-47777400D03*
%TD*%
%TO.C,R24*%
X81584800Y-54127400D03*
D13*
X71424800Y-54127400D03*
%TD*%
%TO.C,R23*%
X92481400Y-89814400D03*
D12*
X82321400Y-89814400D03*
%TD*%
D13*
%TO.C,R22*%
X96088200Y-79705200D03*
D12*
X96088200Y-89865200D03*
%TD*%
D13*
%TO.C,R21*%
X96012000Y-66979800D03*
D12*
X96012000Y-77139800D03*
%TD*%
D13*
%TO.C,R20*%
X82397600Y-66979800D03*
D12*
X92557600Y-66979800D03*
%TD*%
D13*
%TO.C,R19*%
X69367400Y-89763600D03*
D12*
X79527400Y-89763600D03*
%TD*%
D13*
%TO.C,R18*%
X79298800Y-66979800D03*
D12*
X69138800Y-66979800D03*
%TD*%
D13*
%TO.C,R17*%
X61722000Y-90093800D03*
D12*
X51562000Y-90093800D03*
%TD*%
D13*
%TO.C,R16*%
X65379600Y-79908400D03*
D12*
X65379600Y-90068400D03*
%TD*%
D13*
%TO.C,R14*%
X112572800Y-56108600D03*
D12*
X112572800Y-66268600D03*
%TD*%
D13*
%TO.C,R13*%
X87096600Y-45770800D03*
D12*
X97256600Y-45770800D03*
%TD*%
%TO.C,R12*%
X101066600Y-74345800D03*
D13*
X101066600Y-84505800D03*
%TD*%
%TO.C,R11*%
X71475600Y-60350400D03*
D12*
X81635600Y-60350400D03*
%TD*%
D13*
%TO.C,R10*%
X65405000Y-66954400D03*
D12*
X65405000Y-77114400D03*
%TD*%
D13*
%TO.C,R9*%
X51358800Y-66929000D03*
D12*
X61518800Y-66929000D03*
%TD*%
D13*
%TO.C,R8*%
X38328600Y-90017600D03*
D12*
X48488600Y-90017600D03*
%TD*%
D13*
%TO.C,R7*%
X48082200Y-66979800D03*
D12*
X37922200Y-66979800D03*
%TD*%
D13*
%TO.C,R6*%
X37795200Y-60350400D03*
D12*
X47955200Y-60350400D03*
%TD*%
D13*
%TO.C,R5*%
X61595000Y-60350400D03*
D12*
X51435000Y-60350400D03*
%TD*%
D13*
%TO.C,R4*%
X65862200Y-50215800D03*
D12*
X65862200Y-60375800D03*
%TD*%
%TO.C,R3*%
X65786000Y-47523400D03*
D13*
X65786000Y-37363400D03*
%TD*%
D12*
%TO.C,R2*%
X61341000Y-36652200D03*
D13*
X51181000Y-36652200D03*
%TD*%
D12*
%TO.C,R1*%
X37338000Y-36626800D03*
D13*
X47498000Y-36626800D03*
%TD*%
D14*
%TO.C,K3*%
X135390500Y-87305400D03*
D15*
X123190500Y-75305400D03*
D16*
X121190500Y-81425400D03*
D14*
X135390500Y-75305400D03*
D15*
X123190500Y-87305400D03*
%TD*%
D14*
%TO.C,K2*%
X135187300Y-67925200D03*
D15*
X122987300Y-55925200D03*
D16*
X120987300Y-62045200D03*
D14*
X135187300Y-55925200D03*
D15*
X122987300Y-67925200D03*
%TD*%
D14*
%TO.C,K1*%
X135339700Y-49332400D03*
D15*
X123139700Y-37332400D03*
D16*
X121139700Y-43452400D03*
D14*
X135339700Y-37332400D03*
D15*
X123139700Y-49332400D03*
%TD*%
D17*
%TO.C,J8*%
X81915000Y-38709600D03*
D18*
X76835000Y-38709600D03*
%TD*%
D17*
%TO.C,J7*%
X146989800Y-83362800D03*
D18*
X146989800Y-78282800D03*
%TD*%
D17*
%TO.C,J6*%
X146964400Y-46888400D03*
D18*
X146964400Y-41808400D03*
%TD*%
D17*
%TO.C,J5*%
X146989800Y-65151000D03*
D18*
X146989800Y-60071000D03*
%TD*%
%TO.C,J4*%
X115463400Y-87452400D03*
D17*
X110383400Y-87452400D03*
%TD*%
%TO.C,J3*%
X37922400Y-80904000D03*
D18*
X37922400Y-75824000D03*
%TD*%
D17*
%TO.C,J2*%
X114655600Y-38531800D03*
D18*
X109575600Y-38531800D03*
%TD*%
%TO.C,J1*%
X37338200Y-46029800D03*
D17*
X37338200Y-51109800D03*
%TD*%
D19*
%TO.C,IC1*%
X88206600Y-53467000D03*
D20*
X88206600Y-56007000D03*
X88206600Y-58547000D03*
X88206600Y-61087000D03*
X96146600Y-61087000D03*
X96146600Y-58547000D03*
X96146600Y-56007000D03*
X96146600Y-53467000D03*
%TD*%
M02*
