%TF.GenerationSoftware,KiCad,Pcbnew,7.0.5*%
%TF.CreationDate,2023-11-27T09:45:35+05:30*%
%TF.ProjectId,Precharge circuit,50726563-6861-4726-9765-206369726375,rev?*%
%TF.SameCoordinates,Original*%
%TF.FileFunction,Copper,L2,Bot*%
%TF.FilePolarity,Positive*%
%FSLAX46Y46*%
G04 Gerber Fmt 4.6, Leading zero omitted, Abs format (unit mm)*
G04 Created by KiCad (PCBNEW 7.0.5) date 2023-11-27 09:45:35*
%MOMM*%
%LPD*%
G01*
G04 APERTURE LIST*
%TA.AperFunction,ComponentPad*%
%ADD10R,1.600000X1.600000*%
%TD*%
%TA.AperFunction,ComponentPad*%
%ADD11O,1.600000X1.600000*%
%TD*%
%TA.AperFunction,ComponentPad*%
%ADD12C,1.600000*%
%TD*%
%TA.AperFunction,ComponentPad*%
%ADD13C,1.800000*%
%TD*%
%TA.AperFunction,ComponentPad*%
%ADD14C,1.308000*%
%TD*%
%TA.AperFunction,ComponentPad*%
%ADD15C,1.950000*%
%TD*%
%TA.AperFunction,ComponentPad*%
%ADD16R,2.600000X2.600000*%
%TD*%
%TA.AperFunction,ComponentPad*%
%ADD17C,2.600000*%
%TD*%
%TA.AperFunction,ComponentPad*%
%ADD18R,1.130000X1.130000*%
%TD*%
%TA.AperFunction,ComponentPad*%
%ADD19C,1.130000*%
%TD*%
%TA.AperFunction,Conductor*%
%ADD20C,0.200000*%
%TD*%
%TA.AperFunction,Conductor*%
%ADD21C,0.250000*%
%TD*%
G04 APERTURE END LIST*
D10*
%TO.P,U2,1*%
%TO.N,Net-(IC1-1OUT)*%
X101356000Y-50992800D03*
D11*
%TO.P,U2,2*%
%TO.N,GND*%
X101356000Y-53532800D03*
%TO.P,U2,3,NC*%
%TO.N,unconnected-(U2-NC-Pad3)*%
X101356000Y-56072800D03*
%TO.P,U2,4*%
%TO.N,rpower*%
X108976000Y-56072800D03*
%TO.P,U2,5*%
%TO.N,VCC*%
X108976000Y-53532800D03*
%TO.P,U2,6*%
%TO.N,unconnected-(U2-Pad6)*%
X108976000Y-50992800D03*
%TD*%
D12*
%TO.P,R25,1*%
%TO.N,+12V*%
X71424800Y-47777400D03*
D11*
%TO.P,R25,2*%
%TO.N,Net-(IC1-1IN-)*%
X81584800Y-47777400D03*
%TD*%
%TO.P,R24,2*%
%TO.N,GND*%
X81584800Y-54127400D03*
D12*
%TO.P,R24,1*%
%TO.N,Net-(IC1-1IN+)*%
X71424800Y-54127400D03*
%TD*%
%TO.P,R23,1*%
%TO.N,Net-(R12-Pad1)*%
X92481400Y-89814400D03*
D11*
%TO.P,R23,2*%
%TO.N,Net-(R19-Pad2)*%
X82321400Y-89814400D03*
%TD*%
D12*
%TO.P,R22,1*%
%TO.N,Net-(R21-Pad2)*%
X96088200Y-79705200D03*
D11*
%TO.P,R22,2*%
%TO.N,Net-(R12-Pad1)*%
X96088200Y-89865200D03*
%TD*%
D12*
%TO.P,R21,1*%
%TO.N,Net-(R20-Pad2)*%
X96012000Y-66979800D03*
D11*
%TO.P,R21,2*%
%TO.N,Net-(R21-Pad2)*%
X96012000Y-77139800D03*
%TD*%
D12*
%TO.P,R20,1*%
%TO.N,Net-(R18-Pad1)*%
X82397600Y-66979800D03*
D11*
%TO.P,R20,2*%
%TO.N,Net-(R20-Pad2)*%
X92557600Y-66979800D03*
%TD*%
D12*
%TO.P,R19,1*%
%TO.N,GND*%
X69367400Y-89763600D03*
D11*
%TO.P,R19,2*%
%TO.N,Net-(R19-Pad2)*%
X79527400Y-89763600D03*
%TD*%
D12*
%TO.P,R18,1*%
%TO.N,Net-(R18-Pad1)*%
X79298800Y-66979800D03*
D11*
%TO.P,R18,2*%
%TO.N,Net-(R10-Pad1)*%
X69138800Y-66979800D03*
%TD*%
D12*
%TO.P,R17,1*%
%TO.N,Net-(R16-Pad2)*%
X61722000Y-90093800D03*
D11*
%TO.P,R17,2*%
%TO.N,Net-(R17-Pad2)*%
X51562000Y-90093800D03*
%TD*%
D12*
%TO.P,R16,1*%
%TO.N,Net-(R10-Pad2)*%
X65379600Y-79908400D03*
D11*
%TO.P,R16,2*%
%TO.N,Net-(R16-Pad2)*%
X65379600Y-90068400D03*
%TD*%
D12*
%TO.P,R14,1*%
%TO.N,rpower*%
X112572800Y-56108600D03*
D11*
%TO.P,R14,2*%
%TO.N,GND1*%
X112572800Y-66268600D03*
%TD*%
D12*
%TO.P,R13,1*%
%TO.N,Net-(IC1-1OUT)*%
X87096600Y-45770800D03*
D11*
%TO.P,R13,2*%
%TO.N,+12V*%
X97256600Y-45770800D03*
%TD*%
%TO.P,R12,2*%
%TO.N,Net-(IC1-1IN-)*%
X101066600Y-74345800D03*
D12*
%TO.P,R12,1*%
%TO.N,Net-(R12-Pad1)*%
X101066600Y-84505800D03*
%TD*%
%TO.P,R11,1*%
%TO.N,Net-(R11-Pad1)*%
X71475600Y-60350400D03*
D11*
%TO.P,R11,2*%
%TO.N,Net-(IC1-1IN+)*%
X81635600Y-60350400D03*
%TD*%
D12*
%TO.P,R10,1*%
%TO.N,Net-(R10-Pad1)*%
X65405000Y-66954400D03*
D11*
%TO.P,R10,2*%
%TO.N,Net-(R10-Pad2)*%
X65405000Y-77114400D03*
%TD*%
D12*
%TO.P,R9,1*%
%TO.N,Net-(R7-Pad1)*%
X51358800Y-66929000D03*
D11*
%TO.P,R9,2*%
%TO.N,Net-(R10-Pad1)*%
X61518800Y-66929000D03*
%TD*%
D12*
%TO.P,R8,1*%
%TO.N,GND*%
X38328600Y-90017600D03*
D11*
%TO.P,R8,2*%
%TO.N,Net-(R17-Pad2)*%
X48488600Y-90017600D03*
%TD*%
D12*
%TO.P,R7,1*%
%TO.N,Net-(R7-Pad1)*%
X48082200Y-66979800D03*
D11*
%TO.P,R7,2*%
%TO.N,Net-(J3-Pin_2)*%
X37922200Y-66979800D03*
%TD*%
D12*
%TO.P,R6,1*%
%TO.N,GND*%
X37795200Y-60350400D03*
D11*
%TO.P,R6,2*%
%TO.N,Net-(R5-Pad2)*%
X47955200Y-60350400D03*
%TD*%
D12*
%TO.P,R5,1*%
%TO.N,Net-(R11-Pad1)*%
X61595000Y-60350400D03*
D11*
%TO.P,R5,2*%
%TO.N,Net-(R5-Pad2)*%
X51435000Y-60350400D03*
%TD*%
D12*
%TO.P,R4,1*%
%TO.N,Net-(R3-Pad2)*%
X65862200Y-50215800D03*
D11*
%TO.P,R4,2*%
%TO.N,Net-(R11-Pad1)*%
X65862200Y-60375800D03*
%TD*%
%TO.P,R3,2*%
%TO.N,Net-(R3-Pad2)*%
X65786000Y-47523400D03*
D12*
%TO.P,R3,1*%
%TO.N,Net-(R2-Pad2)*%
X65786000Y-37363400D03*
%TD*%
D11*
%TO.P,R2,2*%
%TO.N,Net-(R2-Pad2)*%
X61341000Y-36652200D03*
D12*
%TO.P,R2,1*%
%TO.N,Net-(R1-Pad1)*%
X51181000Y-36652200D03*
%TD*%
D11*
%TO.P,R1,2*%
%TO.N,Net-(J1-Pin_2)*%
X37338000Y-36626800D03*
D12*
%TO.P,R1,1*%
%TO.N,Net-(R1-Pad1)*%
X47498000Y-36626800D03*
%TD*%
D13*
%TO.P,K3,NO*%
%TO.N,AIR-*%
X135390500Y-87305400D03*
D14*
%TO.P,K3,COIL1*%
%TO.N,SDC+*%
X123190500Y-75305400D03*
D15*
%TO.P,K3,COM*%
X121190500Y-81425400D03*
D13*
%TO.P,K3,NC*%
%TO.N,unconnected-(K3-PadNC)*%
X135390500Y-75305400D03*
D14*
%TO.P,K3,COIL2*%
%TO.N,GND1*%
X123190500Y-87305400D03*
%TD*%
D13*
%TO.P,K2,NO*%
%TO.N,AIR+*%
X135187300Y-67925200D03*
D14*
%TO.P,K2,COIL1*%
%TO.N,rpower*%
X122987300Y-55925200D03*
D15*
%TO.P,K2,COM*%
%TO.N,SDC+*%
X120987300Y-62045200D03*
D13*
%TO.P,K2,NC*%
%TO.N,unconnected-(K2-PadNC)*%
X135187300Y-55925200D03*
D14*
%TO.P,K2,COIL2*%
%TO.N,GND1*%
X122987300Y-67925200D03*
%TD*%
D13*
%TO.P,K1,NO*%
%TO.N,unconnected-(K1-PadNO)*%
X135339700Y-49332400D03*
D14*
%TO.P,K1,COIL1*%
%TO.N,rpower*%
X123139700Y-37332400D03*
D15*
%TO.P,K1,COM*%
%TO.N,SDC+*%
X121139700Y-43452400D03*
D13*
%TO.P,K1,NC*%
%TO.N,precharge*%
X135339700Y-37332400D03*
D14*
%TO.P,K1,COIL2*%
%TO.N,GND1*%
X123139700Y-49332400D03*
%TD*%
D16*
%TO.P,J8,1,Pin_1*%
%TO.N,+12V*%
X81915000Y-38709600D03*
D17*
%TO.P,J8,2,Pin_2*%
%TO.N,GND*%
X76835000Y-38709600D03*
%TD*%
D16*
%TO.P,J7,1,Pin_1*%
%TO.N,AIR-*%
X146989800Y-83362800D03*
D17*
%TO.P,J7,2,Pin_2*%
%TO.N,SDC-*%
X146989800Y-78282800D03*
%TD*%
D16*
%TO.P,J6,1,Pin_1*%
%TO.N,precharge*%
X146964400Y-46888400D03*
D17*
%TO.P,J6,2,Pin_2*%
%TO.N,SDC-*%
X146964400Y-41808400D03*
%TD*%
D16*
%TO.P,J5,1,Pin_1*%
%TO.N,AIR+*%
X146989800Y-65151000D03*
D17*
%TO.P,J5,2,Pin_2*%
%TO.N,SDC-*%
X146989800Y-60071000D03*
%TD*%
%TO.P,J4,2,Pin_2*%
%TO.N,SDC-*%
X115463400Y-87452400D03*
D16*
%TO.P,J4,1,Pin_1*%
%TO.N,SDC+*%
X110383400Y-87452400D03*
%TD*%
%TO.P,J3,1,Pin_1*%
%TO.N,GND*%
X37922400Y-80904000D03*
D17*
%TO.P,J3,2,Pin_2*%
%TO.N,Net-(J3-Pin_2)*%
X37922400Y-75824000D03*
%TD*%
D16*
%TO.P,J2,1,Pin_1*%
%TO.N,VCC*%
X114655600Y-38531800D03*
D17*
%TO.P,J2,2,Pin_2*%
%TO.N,GND1*%
X109575600Y-38531800D03*
%TD*%
%TO.P,J1,2,Pin_2*%
%TO.N,Net-(J1-Pin_2)*%
X37338200Y-46029800D03*
D16*
%TO.P,J1,1,Pin_1*%
%TO.N,GND*%
X37338200Y-51109800D03*
%TD*%
D18*
%TO.P,IC1,1,1OUT*%
%TO.N,Net-(IC1-1OUT)*%
X88206600Y-53467000D03*
D19*
%TO.P,IC1,2,1IN-*%
%TO.N,Net-(IC1-1IN-)*%
X88206600Y-56007000D03*
%TO.P,IC1,3,1IN+*%
%TO.N,Net-(IC1-1IN+)*%
X88206600Y-58547000D03*
%TO.P,IC1,4,GND*%
%TO.N,GND*%
X88206600Y-61087000D03*
%TO.P,IC1,5,2IN+*%
%TO.N,unconnected-(IC1-2IN+-Pad5)*%
X96146600Y-61087000D03*
%TO.P,IC1,6,2IN-*%
%TO.N,unconnected-(IC1-2IN--Pad6)*%
X96146600Y-58547000D03*
%TO.P,IC1,7,2OUT*%
%TO.N,unconnected-(IC1-2OUT-Pad7)*%
X96146600Y-56007000D03*
%TO.P,IC1,8,VCC*%
%TO.N,+12V*%
X96146600Y-53467000D03*
%TD*%
D20*
%TO.N,SDC-*%
X149021800Y-62103000D02*
X146989800Y-60071000D01*
X146989800Y-78282800D02*
X149021800Y-76250800D01*
X149021800Y-76250800D02*
X149021800Y-62103000D01*
X149199600Y-44043600D02*
X146964400Y-41808400D01*
X149199600Y-57861200D02*
X149199600Y-44043600D01*
X146989800Y-60071000D02*
X149199600Y-57861200D01*
D21*
%TO.N,rpower*%
X124118700Y-54793800D02*
X124118700Y-38311400D01*
X124118700Y-38311400D02*
X123139700Y-37332400D01*
X122987300Y-55925200D02*
X124118700Y-54793800D01*
D20*
%TO.N,SDC+*%
X120987300Y-73102200D02*
X123190500Y-75305400D01*
X120987300Y-62045200D02*
X120987300Y-73102200D01*
X121139700Y-61892800D02*
X120987300Y-62045200D01*
X121139700Y-43452400D02*
X121139700Y-61892800D01*
D21*
%TO.N,VCC*%
X114655600Y-47853200D02*
X114655600Y-38531800D01*
X108976000Y-53532800D02*
X114655600Y-47853200D01*
%TO.N,GND*%
X100101000Y-54787800D02*
X101356000Y-53532800D01*
X94505800Y-54787800D02*
X100101000Y-54787800D01*
X88206600Y-61087000D02*
X94505800Y-54787800D01*
X81584800Y-54465200D02*
X81584800Y-54127400D01*
X88206600Y-61087000D02*
X81584800Y-54465200D01*
%TO.N,Net-(IC1-1OUT)*%
X90680800Y-50992800D02*
X101356000Y-50992800D01*
X88206600Y-53467000D02*
X90680800Y-50992800D01*
%TD*%
M02*
