M48
; DRILL file {KiCad 7.0.5} date Mon Nov 27 09:45:21 2023
; FORMAT={-:-/ absolute / inch / decimal}
; #@! TF.CreationDate,2023-11-27T09:45:21+05:30
; #@! TF.GenerationSoftware,Kicad,Pcbnew,7.0.5
; #@! TF.FileFunction,Plated,1,2,PTH
FMAT,2
INCH
; #@! TA.AperFunction,Plated,PTH,ComponentDrill
T1C0.0307
; #@! TA.AperFunction,Plated,PTH,ComponentDrill
T2C0.0315
; #@! TA.AperFunction,Plated,PTH,ComponentDrill
T3C0.0472
; #@! TA.AperFunction,Plated,PTH,ComponentDrill
T4C0.0512
%
G90
G05
T1
X3.4727Y-2.105
X3.4727Y-2.205
X3.4727Y-2.305
X3.4727Y-2.405
X3.7853Y-2.105
X3.7853Y-2.205
X3.7853Y-2.305
X3.7853Y-2.405
T2
X1.47Y-1.442
X1.488Y-2.376
X1.493Y-2.637
X1.509Y-3.544
X1.87Y-1.442
X1.888Y-2.376
X1.893Y-2.637
X1.909Y-3.544
X2.015Y-1.443
X2.022Y-2.635
X2.025Y-2.376
X2.03Y-3.547
X2.415Y-1.443
X2.422Y-2.635
X2.425Y-2.376
X2.43Y-3.547
X2.574Y-3.146
X2.574Y-3.546
X2.575Y-2.636
X2.575Y-3.036
X2.59Y-1.471
X2.59Y-1.871
X2.593Y-1.977
X2.593Y-2.377
X2.722Y-2.637
X2.731Y-3.534
X2.812Y-1.881
X2.812Y-2.131
X2.814Y-2.376
X3.122Y-2.637
X3.131Y-3.534
X3.212Y-1.881
X3.212Y-2.131
X3.214Y-2.376
X3.241Y-3.536
X3.244Y-2.637
X3.429Y-1.802
X3.641Y-3.536
X3.644Y-2.637
X3.78Y-2.637
X3.78Y-3.037
X3.783Y-3.138
X3.783Y-3.538
X3.829Y-1.802
X3.979Y-2.927
X3.979Y-3.327
X3.9904Y-2.0076
X3.9904Y-2.1076
X3.9904Y-2.2076
X4.2904Y-2.0076
X4.2904Y-2.1076
X4.2904Y-2.2076
X4.432Y-2.209
X4.432Y-2.609
X4.842Y-2.2018
X4.842Y-2.6742
X4.848Y-1.4698
X4.848Y-1.9422
X4.85Y-2.9648
X4.85Y-3.4372
T3
X5.3223Y-2.2018
X5.3223Y-2.6742
X5.3283Y-1.4698
X5.3283Y-1.9422
X5.3303Y-2.9648
X5.3303Y-3.4372
T4
X1.47Y-1.8122
X1.47Y-2.0122
X1.493Y-2.9852
X1.493Y-3.1852
X3.025Y-1.524
X3.225Y-1.524
X4.314Y-1.517
X4.3458Y-3.443
X4.514Y-1.517
X4.5458Y-3.443
X4.7633Y-2.4427
X4.7693Y-1.7107
X4.7713Y-3.2057
X5.786Y-1.646
X5.786Y-1.846
X5.787Y-2.365
X5.787Y-2.565
X5.787Y-3.082
X5.787Y-3.282
T0
M30
