%TF.GenerationSoftware,KiCad,Pcbnew,7.0.5*%
%TF.CreationDate,2023-12-24T17:04:16+05:30*%
%TF.ProjectId,TSALv3,5453414c-7633-42e6-9b69-6361645f7063,rev?*%
%TF.SameCoordinates,Original*%
%TF.FileFunction,Drillmap*%
%TF.FilePolarity,Positive*%
%FSLAX45Y45*%
G04 Gerber Fmt 4.5, Leading zero omitted, Abs format (unit mm)*
G04 Created by KiCad (PCBNEW 7.0.5) date 2023-12-24 17:04:16*
%MOMM*%
%LPD*%
G01*
G04 APERTURE LIST*
%ADD10C,0.050000*%
%ADD11C,0.200000*%
%ADD12C,0.030000*%
%ADD13C,0.077000*%
%ADD14C,0.080000*%
%ADD15C,0.110000*%
%ADD16C,0.120000*%
%ADD17C,0.130000*%
%ADD18C,0.150000*%
G04 APERTURE END LIST*
D10*
X6047740Y-2941320D02*
X22687280Y-2941320D01*
X22687280Y-8897620D01*
X6047740Y-8897620D01*
X6047740Y-2941320D01*
D11*
D12*
X13975320Y-5804140D02*
X14005320Y-5834140D01*
X14005320Y-5804140D02*
X13975320Y-5834140D01*
X14320760Y-8224760D02*
X14350760Y-8254760D01*
X14350760Y-8224760D02*
X14320760Y-8254760D01*
X14366480Y-5946380D02*
X14396480Y-5976380D01*
X14396480Y-5946380D02*
X14366480Y-5976380D01*
X16444200Y-7455140D02*
X16474200Y-7485140D01*
X16474200Y-7455140D02*
X16444200Y-7485140D01*
X18049480Y-7828520D02*
X18079480Y-7858520D01*
X18079480Y-7828520D02*
X18049480Y-7858520D01*
D13*
X14638590Y-6332220D02*
G75*
G03*
X14638590Y-6332220I-38500J0D01*
G01*
X14638590Y-6586220D02*
G75*
G03*
X14638590Y-6586220I-38500J0D01*
G01*
X14638590Y-6840220D02*
G75*
G03*
X14638590Y-6840220I-38500J0D01*
G01*
X14638590Y-7094220D02*
G75*
G03*
X14638590Y-7094220I-38500J0D01*
G01*
X14638590Y-7348220D02*
G75*
G03*
X14638590Y-7348220I-38500J0D01*
G01*
X14638590Y-7602220D02*
G75*
G03*
X14638590Y-7602220I-38500J0D01*
G01*
X14638590Y-7856220D02*
G75*
G03*
X14638590Y-7856220I-38500J0D01*
G01*
X15432590Y-6332220D02*
G75*
G03*
X15432590Y-6332220I-38500J0D01*
G01*
X15432590Y-6586220D02*
G75*
G03*
X15432590Y-6586220I-38500J0D01*
G01*
X15432590Y-6840220D02*
G75*
G03*
X15432590Y-6840220I-38500J0D01*
G01*
X15432590Y-7094220D02*
G75*
G03*
X15432590Y-7094220I-38500J0D01*
G01*
X15432590Y-7348220D02*
G75*
G03*
X15432590Y-7348220I-38500J0D01*
G01*
X15432590Y-7602220D02*
G75*
G03*
X15432590Y-7602220I-38500J0D01*
G01*
X15432590Y-7856220D02*
G75*
G03*
X15432590Y-7856220I-38500J0D01*
G01*
X15983860Y-6332220D02*
G75*
G03*
X15983860Y-6332220I-38500J0D01*
G01*
X15983860Y-6586220D02*
G75*
G03*
X15983860Y-6586220I-38500J0D01*
G01*
X15983860Y-6840220D02*
G75*
G03*
X15983860Y-6840220I-38500J0D01*
G01*
X15983860Y-7094220D02*
G75*
G03*
X15983860Y-7094220I-38500J0D01*
G01*
X15983860Y-7348220D02*
G75*
G03*
X15983860Y-7348220I-38500J0D01*
G01*
X15983860Y-7602220D02*
G75*
G03*
X15983860Y-7602220I-38500J0D01*
G01*
X15983860Y-7856220D02*
G75*
G03*
X15983860Y-7856220I-38500J0D01*
G01*
X16777860Y-6332220D02*
G75*
G03*
X16777860Y-6332220I-38500J0D01*
G01*
X16777860Y-6586220D02*
G75*
G03*
X16777860Y-6586220I-38500J0D01*
G01*
X16777860Y-6840220D02*
G75*
G03*
X16777860Y-6840220I-38500J0D01*
G01*
X16777860Y-7094220D02*
G75*
G03*
X16777860Y-7094220I-38500J0D01*
G01*
X16777860Y-7348220D02*
G75*
G03*
X16777860Y-7348220I-38500J0D01*
G01*
X16777860Y-7602220D02*
G75*
G03*
X16777860Y-7602220I-38500J0D01*
G01*
X16777860Y-7856220D02*
G75*
G03*
X16777860Y-7856220I-38500J0D01*
G01*
D14*
X7307580Y-3742060D02*
X7307580Y-3822060D01*
X7267580Y-3782060D02*
X7347580Y-3782060D01*
X7376160Y-6096640D02*
X7376160Y-6176640D01*
X7336160Y-6136640D02*
X7416160Y-6136640D01*
X8209280Y-4872360D02*
X8209280Y-4952360D01*
X8169280Y-4912360D02*
X8249280Y-4912360D01*
X8323580Y-3742060D02*
X8323580Y-3822060D01*
X8283580Y-3782060D02*
X8363580Y-3782060D01*
X8392160Y-6096640D02*
X8392160Y-6176640D01*
X8352160Y-6136640D02*
X8432160Y-6136640D01*
X8585200Y-3747140D02*
X8585200Y-3827140D01*
X8545200Y-3787140D02*
X8625200Y-3787140D01*
X8684260Y-6099180D02*
X8684260Y-6179180D01*
X8644260Y-6139180D02*
X8724260Y-6139180D01*
X8702040Y-6724020D02*
X8702040Y-6804020D01*
X8662040Y-6764020D02*
X8742040Y-6764020D01*
X8971280Y-4872360D02*
X8971280Y-4952360D01*
X8931280Y-4912360D02*
X9011280Y-4912360D01*
X9601200Y-3747140D02*
X9601200Y-3827140D01*
X9561200Y-3787140D02*
X9641200Y-3787140D01*
X9700260Y-6099180D02*
X9700260Y-6179180D01*
X9660260Y-6139180D02*
X9740260Y-6139180D01*
X9718040Y-6724020D02*
X9718040Y-6804020D01*
X9678040Y-6764020D02*
X9758040Y-6764020D01*
X9992360Y-3744600D02*
X9992360Y-3824600D01*
X9952360Y-3784600D02*
X10032360Y-3784600D01*
X9992360Y-4760600D02*
X9992360Y-4840600D01*
X9952360Y-4800600D02*
X10032360Y-4800600D01*
X9997440Y-5085720D02*
X9997440Y-5165720D01*
X9957440Y-5125720D02*
X10037440Y-5125720D01*
X9997440Y-6101720D02*
X9997440Y-6181720D01*
X9957440Y-6141720D02*
X10037440Y-6141720D01*
X10739120Y-4725040D02*
X10739120Y-4805040D01*
X10699120Y-4765040D02*
X10779120Y-4765040D01*
X10739120Y-5741040D02*
X10739120Y-5821040D01*
X10699120Y-5781040D02*
X10779120Y-5781040D01*
X11107420Y-6254120D02*
X11107420Y-6334120D01*
X11067420Y-6294120D02*
X11147420Y-6294120D01*
X11281600Y-7478400D02*
X11281600Y-7558400D01*
X11241600Y-7518400D02*
X11321600Y-7518400D01*
X11531600Y-7478400D02*
X11531600Y-7558400D01*
X11491600Y-7518400D02*
X11571600Y-7518400D01*
X11833320Y-7478400D02*
X11833320Y-7558400D01*
X11793320Y-7518400D02*
X11873320Y-7518400D01*
X12083320Y-7478400D02*
X12083320Y-7558400D01*
X12043320Y-7518400D02*
X12123320Y-7518400D01*
X12123420Y-6254120D02*
X12123420Y-6334120D01*
X12083420Y-6294120D02*
X12163420Y-6294120D01*
X12499340Y-4707260D02*
X12499340Y-4787260D01*
X12459340Y-4747260D02*
X12539340Y-4747260D01*
X12499340Y-5723260D02*
X12499340Y-5803260D01*
X12459340Y-5763260D02*
X12539340Y-5763260D01*
X12504420Y-3427100D02*
X12504420Y-3507100D01*
X12464420Y-3467100D02*
X12544420Y-3467100D01*
X12504420Y-4443100D02*
X12504420Y-4523100D01*
X12464420Y-4483100D02*
X12544420Y-4483100D01*
X12898120Y-6632580D02*
X12898120Y-6712580D01*
X12858120Y-6672580D02*
X12938120Y-6672580D01*
X12898120Y-7648580D02*
X12898120Y-7728580D01*
X12858120Y-7688580D02*
X12938120Y-7688580D01*
X12971780Y-3422020D02*
X12971780Y-3502020D01*
X12931780Y-3462020D02*
X13011780Y-3462020D01*
X13063220Y-3899540D02*
X13063220Y-3979540D01*
X13023220Y-3939540D02*
X13103220Y-3939540D01*
X13063220Y-4915540D02*
X13063220Y-4995540D01*
X13023220Y-4955540D02*
X13103220Y-4955540D01*
X13068300Y-5227960D02*
X13068300Y-5307960D01*
X13028300Y-5267960D02*
X13108300Y-5267960D01*
X13068300Y-6243960D02*
X13068300Y-6323960D01*
X13028300Y-6283960D02*
X13108300Y-6283960D01*
X13513800Y-3996520D02*
X13513800Y-4076520D01*
X13473800Y-4036520D02*
X13553800Y-4036520D01*
X13513800Y-4246520D02*
X13513800Y-4326520D01*
X13473800Y-4286520D02*
X13553800Y-4286520D01*
X13528040Y-4580260D02*
X13528040Y-4660260D01*
X13488040Y-4620260D02*
X13568040Y-4620260D01*
X13528040Y-5596260D02*
X13528040Y-5676260D01*
X13488040Y-5636260D02*
X13568040Y-5636260D01*
X13838920Y-3760840D02*
X13838920Y-3840840D01*
X13798920Y-3800840D02*
X13878920Y-3800840D01*
X13838920Y-4014840D02*
X13838920Y-4094840D01*
X13798920Y-4054840D02*
X13878920Y-4054840D01*
X13838920Y-4268840D02*
X13838920Y-4348840D01*
X13798920Y-4308840D02*
X13878920Y-4308840D01*
X13838920Y-4522840D02*
X13838920Y-4602840D01*
X13798920Y-4562840D02*
X13878920Y-4562840D01*
X13987780Y-3422020D02*
X13987780Y-3502020D01*
X13947780Y-3462020D02*
X14027780Y-3462020D01*
X13992860Y-5342260D02*
X13992860Y-5422260D01*
X13952860Y-5382260D02*
X14032860Y-5382260D01*
X13992860Y-6358260D02*
X13992860Y-6438260D01*
X13952860Y-6398260D02*
X14032860Y-6398260D01*
X14600920Y-3760840D02*
X14600920Y-3840840D01*
X14560920Y-3800840D02*
X14640920Y-3800840D01*
X14600920Y-4014840D02*
X14600920Y-4094840D01*
X14560920Y-4054840D02*
X14640920Y-4054840D01*
X14600920Y-4268840D02*
X14600920Y-4348840D01*
X14560920Y-4308840D02*
X14640920Y-4308840D01*
X14600920Y-4522840D02*
X14600920Y-4602840D01*
X14560920Y-4562840D02*
X14640920Y-4562840D01*
X15010280Y-4267040D02*
X15010280Y-4347040D01*
X14970280Y-4307040D02*
X15050280Y-4307040D01*
X16210280Y-4267040D02*
X16210280Y-4347040D01*
X16170280Y-4307040D02*
X16250280Y-4307040D01*
X18736040Y-4185520D02*
X18736040Y-4265520D01*
X18696040Y-4225520D02*
X18776040Y-4225520D01*
X18736040Y-4439520D02*
X18736040Y-4519520D01*
X18696040Y-4479520D02*
X18776040Y-4479520D01*
X18736040Y-4693520D02*
X18736040Y-4773520D01*
X18696040Y-4733520D02*
X18776040Y-4733520D01*
X18741120Y-6098140D02*
X18741120Y-6178140D01*
X18701120Y-6138140D02*
X18781120Y-6138140D01*
X18741120Y-6352140D02*
X18741120Y-6432140D01*
X18701120Y-6392140D02*
X18781120Y-6392140D01*
X18741120Y-6606140D02*
X18741120Y-6686140D01*
X18701120Y-6646140D02*
X18781120Y-6646140D01*
X19498040Y-4185520D02*
X19498040Y-4265520D01*
X19458040Y-4225520D02*
X19538040Y-4225520D01*
X19498040Y-4439520D02*
X19498040Y-4519520D01*
X19458040Y-4479520D02*
X19538040Y-4479520D01*
X19498040Y-4693520D02*
X19498040Y-4773520D01*
X19458040Y-4733520D02*
X19538040Y-4733520D01*
X19503120Y-6098140D02*
X19503120Y-6178140D01*
X19463120Y-6138140D02*
X19543120Y-6138140D01*
X19503120Y-6352140D02*
X19503120Y-6432140D01*
X19463120Y-6392140D02*
X19543120Y-6392140D01*
X19503120Y-6606140D02*
X19503120Y-6686140D01*
X19463120Y-6646140D02*
X19543120Y-6646140D01*
X19959320Y-4260220D02*
X19959320Y-4340220D01*
X19919320Y-4300220D02*
X19999320Y-4300220D01*
X19959320Y-5276220D02*
X19959320Y-5356220D01*
X19919320Y-5316220D02*
X19999320Y-5316220D01*
X19966940Y-5586100D02*
X19966940Y-5666100D01*
X19926940Y-5626100D02*
X20006940Y-5626100D01*
X19966940Y-6602100D02*
X19966940Y-6682100D01*
X19926940Y-6642100D02*
X20006940Y-6642100D01*
X20499800Y-5860420D02*
X20499800Y-5940420D01*
X20459800Y-5900420D02*
X20539800Y-5900420D01*
X20602940Y-4360280D02*
X20602940Y-4440280D01*
X20562940Y-4400280D02*
X20642940Y-4400280D01*
X20602940Y-4614280D02*
X20602940Y-4694280D01*
X20562940Y-4654280D02*
X20642940Y-4654280D01*
X20602940Y-4868280D02*
X20602940Y-4948280D01*
X20562940Y-4908280D02*
X20642940Y-4908280D01*
X20602940Y-5122280D02*
X20602940Y-5202280D01*
X20562940Y-5162280D02*
X20642940Y-5162280D01*
X20749800Y-5860420D02*
X20749800Y-5940420D01*
X20709800Y-5900420D02*
X20789800Y-5900420D01*
X21132260Y-5852800D02*
X21132260Y-5932800D01*
X21092260Y-5892800D02*
X21172260Y-5892800D01*
X21350700Y-3790320D02*
X21350700Y-3870320D01*
X21310700Y-3830320D02*
X21390700Y-3830320D01*
X21364940Y-4360280D02*
X21364940Y-4440280D01*
X21324940Y-4400280D02*
X21404940Y-4400280D01*
X21364940Y-4614280D02*
X21364940Y-4694280D01*
X21324940Y-4654280D02*
X21404940Y-4654280D01*
X21364940Y-4868280D02*
X21364940Y-4948280D01*
X21324940Y-4908280D02*
X21404940Y-4908280D01*
X21364940Y-5122280D02*
X21364940Y-5202280D01*
X21324940Y-5162280D02*
X21404940Y-5162280D01*
X21382260Y-5852800D02*
X21382260Y-5932800D01*
X21342260Y-5892800D02*
X21422260Y-5892800D01*
X21600700Y-3790320D02*
X21600700Y-3870320D01*
X21560700Y-3830320D02*
X21640700Y-3830320D01*
X21892260Y-5202560D02*
X21892260Y-5282560D01*
X21852260Y-5242560D02*
X21932260Y-5242560D01*
X21892260Y-6218560D02*
X21892260Y-6298560D01*
X21852260Y-6258560D02*
X21932260Y-6258560D01*
X21899880Y-3930020D02*
X21899880Y-4010020D01*
X21859880Y-3970020D02*
X21939880Y-3970020D01*
X21899880Y-4946020D02*
X21899880Y-5026020D01*
X21859880Y-4986020D02*
X21939880Y-4986020D01*
D15*
X11463811Y-7107711D02*
X11463811Y-7029929D01*
X11386029Y-7029929D01*
X11386029Y-7107711D01*
X11463811Y-7107711D01*
X11717811Y-7107711D02*
X11717811Y-7029929D01*
X11640029Y-7029929D01*
X11640029Y-7107711D01*
X11717811Y-7107711D01*
X11971811Y-7107711D02*
X11971811Y-7029929D01*
X11894029Y-7029929D01*
X11894029Y-7107711D01*
X11971811Y-7107711D01*
X13892571Y-6968011D02*
X13892571Y-6890229D01*
X13814789Y-6890229D01*
X13814789Y-6968011D01*
X13892571Y-6968011D01*
X13892571Y-7222011D02*
X13892571Y-7144229D01*
X13814789Y-7144229D01*
X13814789Y-7222011D01*
X13892571Y-7222011D01*
X13892571Y-7476011D02*
X13892571Y-7398229D01*
X13814789Y-7398229D01*
X13814789Y-7476011D01*
X13892571Y-7476011D01*
X15192531Y-3666011D02*
X15192531Y-3588229D01*
X15114749Y-3588229D01*
X15114749Y-3666011D01*
X15192531Y-3666011D01*
X16208531Y-3666011D02*
X16208531Y-3588229D01*
X16130749Y-3588229D01*
X16130749Y-3666011D01*
X16208531Y-3666011D01*
X20074411Y-3920011D02*
X20074411Y-3842229D01*
X19996629Y-3842229D01*
X19996629Y-3920011D01*
X20074411Y-3920011D01*
X20508751Y-6645431D02*
X20508751Y-6567649D01*
X20430969Y-6567649D01*
X20430969Y-6645431D01*
X20508751Y-6645431D01*
X21090411Y-3920011D02*
X21090411Y-3842229D01*
X21012629Y-3842229D01*
X21012629Y-3920011D01*
X21090411Y-3920011D01*
X21524751Y-6645431D02*
X21524751Y-6567649D01*
X21446969Y-6567649D01*
X21446969Y-6645431D01*
X21524751Y-6645431D01*
D16*
X15010280Y-5587040D02*
X15070280Y-5527040D01*
X15010280Y-5467040D01*
X14950280Y-5527040D01*
X15010280Y-5587040D01*
X16210280Y-5587040D02*
X16270280Y-5527040D01*
X16210280Y-5467040D01*
X16150280Y-5527040D01*
X16210280Y-5587040D01*
D17*
X6742200Y-7633740D02*
X6872200Y-7763740D01*
X6872200Y-7633740D02*
X6742200Y-7763740D01*
X6872200Y-7698740D02*
G75*
G03*
X6872200Y-7698740I-65000J0D01*
G01*
X6876800Y-4661440D02*
X7006800Y-4791440D01*
X7006800Y-4661440D02*
X6876800Y-4791440D01*
X7006800Y-4726440D02*
G75*
G03*
X7006800Y-4726440I-65000J0D01*
G01*
X6876800Y-5169440D02*
X7006800Y-5299440D01*
X7006800Y-5169440D02*
X6876800Y-5299440D01*
X7006800Y-5234440D02*
G75*
G03*
X7006800Y-5234440I-65000J0D01*
G01*
X7250200Y-7633740D02*
X7380200Y-7763740D01*
X7380200Y-7633740D02*
X7250200Y-7763740D01*
X7380200Y-7698740D02*
G75*
G03*
X7380200Y-7698740I-65000J0D01*
G01*
X8334780Y-7608340D02*
X8464780Y-7738340D01*
X8464780Y-7608340D02*
X8334780Y-7738340D01*
X8464780Y-7673340D02*
G75*
G03*
X8464780Y-7673340I-65000J0D01*
G01*
X8842780Y-7608340D02*
X8972780Y-7738340D01*
X8972780Y-7608340D02*
X8842780Y-7738340D01*
X8972780Y-7673340D02*
G75*
G03*
X8972780Y-7673340I-65000J0D01*
G01*
X9879100Y-7623580D02*
X10009100Y-7753580D01*
X10009100Y-7623580D02*
X9879100Y-7753580D01*
X10009100Y-7688580D02*
G75*
G03*
X10009100Y-7688580I-65000J0D01*
G01*
X10387100Y-7623580D02*
X10517100Y-7753580D01*
X10517100Y-7623580D02*
X10387100Y-7753580D01*
X10517100Y-7688580D02*
G75*
G03*
X10517100Y-7688580I-65000J0D01*
G01*
X11274060Y-3729740D02*
X11404060Y-3859740D01*
X11404060Y-3729740D02*
X11274060Y-3859740D01*
X11404060Y-3794740D02*
G75*
G03*
X11404060Y-3794740I-65000J0D01*
G01*
X11782060Y-3729740D02*
X11912060Y-3859740D01*
X11912060Y-3729740D02*
X11782060Y-3859740D01*
X11912060Y-3794740D02*
G75*
G03*
X11912060Y-3794740I-65000J0D01*
G01*
X15533280Y-4042040D02*
X15663280Y-4172040D01*
X15663280Y-4042040D02*
X15533280Y-4172040D01*
X15663280Y-4107040D02*
G75*
G03*
X15663280Y-4107040I-65000J0D01*
G01*
X17413240Y-3877060D02*
X17543240Y-4007060D01*
X17543240Y-3877060D02*
X17413240Y-4007060D01*
X17543240Y-3942060D02*
G75*
G03*
X17543240Y-3942060I-65000J0D01*
G01*
X17921240Y-3877060D02*
X18051240Y-4007060D01*
X18051240Y-3877060D02*
X17921240Y-4007060D01*
X18051240Y-3942060D02*
G75*
G03*
X18051240Y-3942060I-65000J0D01*
G01*
X18801620Y-7679480D02*
X18931620Y-7809480D01*
X18931620Y-7679480D02*
X18801620Y-7809480D01*
X18931620Y-7744480D02*
G75*
G03*
X18931620Y-7744480I-65000J0D01*
G01*
X19309620Y-7679480D02*
X19439620Y-7809480D01*
X19439620Y-7679480D02*
X19309620Y-7809480D01*
X19439620Y-7744480D02*
G75*
G03*
X19439620Y-7744480I-65000J0D01*
G01*
X20109720Y-7679480D02*
X20239720Y-7809480D01*
X20239720Y-7679480D02*
X20109720Y-7809480D01*
X20239720Y-7744480D02*
G75*
G03*
X20239720Y-7744480I-65000J0D01*
G01*
X20617720Y-7679480D02*
X20747720Y-7809480D01*
X20747720Y-7679480D02*
X20617720Y-7809480D01*
X20747720Y-7744480D02*
G75*
G03*
X20747720Y-7744480I-65000J0D01*
G01*
X21417820Y-7694720D02*
X21547820Y-7824720D01*
X21547820Y-7694720D02*
X21417820Y-7824720D01*
X21547820Y-7759720D02*
G75*
G03*
X21547820Y-7759720I-65000J0D01*
G01*
X21925820Y-7694720D02*
X22055820Y-7824720D01*
X22055820Y-7694720D02*
X21925820Y-7824720D01*
X22055820Y-7759720D02*
G75*
G03*
X22055820Y-7759720I-65000J0D01*
G01*
D18*
X17335910Y-4977250D02*
X17485910Y-5127250D01*
X17485910Y-4977250D02*
X17335910Y-5127250D01*
X17410910Y-4977250D02*
X17410910Y-5127250D01*
X17335910Y-5052250D02*
X17485910Y-5052250D01*
X17335910Y-6477250D02*
X17485910Y-6627250D01*
X17485910Y-6477250D02*
X17335910Y-6627250D01*
X17410910Y-6477250D02*
X17410910Y-6627250D01*
X17335910Y-6552250D02*
X17485910Y-6552250D01*
X17335910Y-6977250D02*
X17485910Y-7127250D01*
X17485910Y-6977250D02*
X17335910Y-7127250D01*
X17410910Y-6977250D02*
X17410910Y-7127250D01*
X17335910Y-7052250D02*
X17485910Y-7052250D01*
X17335910Y-7477250D02*
X17485910Y-7627250D01*
X17485910Y-7477250D02*
X17335910Y-7627250D01*
X17410910Y-7477250D02*
X17410910Y-7627250D01*
X17335910Y-7552250D02*
X17485910Y-7552250D01*
X18085910Y-4977250D02*
X18235910Y-5127250D01*
X18235910Y-4977250D02*
X18085910Y-5127250D01*
X18160910Y-4977250D02*
X18160910Y-5127250D01*
X18085910Y-5052250D02*
X18235910Y-5052250D01*
X18085910Y-6477250D02*
X18235910Y-6627250D01*
X18235910Y-6477250D02*
X18085910Y-6627250D01*
X18160910Y-6477250D02*
X18160910Y-6627250D01*
X18085910Y-6552250D02*
X18235910Y-6552250D01*
X18085910Y-6977250D02*
X18235910Y-7127250D01*
X18235910Y-6977250D02*
X18085910Y-7127250D01*
X18160910Y-6977250D02*
X18160910Y-7127250D01*
X18085910Y-7052250D02*
X18235910Y-7052250D01*
X18085910Y-7477250D02*
X18235910Y-7627250D01*
X18235910Y-7477250D02*
X18085910Y-7627250D01*
X18160910Y-7477250D02*
X18160910Y-7627250D01*
X18085910Y-7552250D02*
X18235910Y-7552250D01*
D11*
X6306017Y-9211604D02*
X6306017Y-9011604D01*
X6306017Y-9011604D02*
X6353636Y-9011604D01*
X6353636Y-9011604D02*
X6382207Y-9021128D01*
X6382207Y-9021128D02*
X6401255Y-9040175D01*
X6401255Y-9040175D02*
X6410779Y-9059223D01*
X6410779Y-9059223D02*
X6420302Y-9097318D01*
X6420302Y-9097318D02*
X6420302Y-9125890D01*
X6420302Y-9125890D02*
X6410779Y-9163985D01*
X6410779Y-9163985D02*
X6401255Y-9183032D01*
X6401255Y-9183032D02*
X6382207Y-9202080D01*
X6382207Y-9202080D02*
X6353636Y-9211604D01*
X6353636Y-9211604D02*
X6306017Y-9211604D01*
X6506017Y-9211604D02*
X6506017Y-9078270D01*
X6506017Y-9116366D02*
X6515541Y-9097318D01*
X6515541Y-9097318D02*
X6525064Y-9087794D01*
X6525064Y-9087794D02*
X6544112Y-9078270D01*
X6544112Y-9078270D02*
X6563160Y-9078270D01*
X6629826Y-9211604D02*
X6629826Y-9078270D01*
X6629826Y-9011604D02*
X6620302Y-9021128D01*
X6620302Y-9021128D02*
X6629826Y-9030651D01*
X6629826Y-9030651D02*
X6639350Y-9021128D01*
X6639350Y-9021128D02*
X6629826Y-9011604D01*
X6629826Y-9011604D02*
X6629826Y-9030651D01*
X6753636Y-9211604D02*
X6734588Y-9202080D01*
X6734588Y-9202080D02*
X6725064Y-9183032D01*
X6725064Y-9183032D02*
X6725064Y-9011604D01*
X6858398Y-9211604D02*
X6839350Y-9202080D01*
X6839350Y-9202080D02*
X6829826Y-9183032D01*
X6829826Y-9183032D02*
X6829826Y-9011604D01*
X7086969Y-9211604D02*
X7086969Y-9011604D01*
X7086969Y-9011604D02*
X7153636Y-9154461D01*
X7153636Y-9154461D02*
X7220302Y-9011604D01*
X7220302Y-9011604D02*
X7220302Y-9211604D01*
X7401255Y-9211604D02*
X7401255Y-9106842D01*
X7401255Y-9106842D02*
X7391731Y-9087794D01*
X7391731Y-9087794D02*
X7372683Y-9078270D01*
X7372683Y-9078270D02*
X7334588Y-9078270D01*
X7334588Y-9078270D02*
X7315541Y-9087794D01*
X7401255Y-9202080D02*
X7382207Y-9211604D01*
X7382207Y-9211604D02*
X7334588Y-9211604D01*
X7334588Y-9211604D02*
X7315541Y-9202080D01*
X7315541Y-9202080D02*
X7306017Y-9183032D01*
X7306017Y-9183032D02*
X7306017Y-9163985D01*
X7306017Y-9163985D02*
X7315541Y-9144937D01*
X7315541Y-9144937D02*
X7334588Y-9135413D01*
X7334588Y-9135413D02*
X7382207Y-9135413D01*
X7382207Y-9135413D02*
X7401255Y-9125890D01*
X7496493Y-9078270D02*
X7496493Y-9278270D01*
X7496493Y-9087794D02*
X7515541Y-9078270D01*
X7515541Y-9078270D02*
X7553636Y-9078270D01*
X7553636Y-9078270D02*
X7572683Y-9087794D01*
X7572683Y-9087794D02*
X7582207Y-9097318D01*
X7582207Y-9097318D02*
X7591731Y-9116366D01*
X7591731Y-9116366D02*
X7591731Y-9173509D01*
X7591731Y-9173509D02*
X7582207Y-9192556D01*
X7582207Y-9192556D02*
X7572683Y-9202080D01*
X7572683Y-9202080D02*
X7553636Y-9211604D01*
X7553636Y-9211604D02*
X7515541Y-9211604D01*
X7515541Y-9211604D02*
X7496493Y-9202080D01*
X7677445Y-9192556D02*
X7686969Y-9202080D01*
X7686969Y-9202080D02*
X7677445Y-9211604D01*
X7677445Y-9211604D02*
X7667922Y-9202080D01*
X7667922Y-9202080D02*
X7677445Y-9192556D01*
X7677445Y-9192556D02*
X7677445Y-9211604D01*
X7677445Y-9087794D02*
X7686969Y-9097318D01*
X7686969Y-9097318D02*
X7677445Y-9106842D01*
X7677445Y-9106842D02*
X7667922Y-9097318D01*
X7667922Y-9097318D02*
X7677445Y-9087794D01*
X7677445Y-9087794D02*
X7677445Y-9106842D01*
D12*
X6015240Y-9525120D02*
X6045240Y-9555120D01*
X6045240Y-9525120D02*
X6015240Y-9555120D01*
D11*
X6344112Y-9431604D02*
X6363160Y-9431604D01*
X6363160Y-9431604D02*
X6382207Y-9441128D01*
X6382207Y-9441128D02*
X6391731Y-9450651D01*
X6391731Y-9450651D02*
X6401255Y-9469699D01*
X6401255Y-9469699D02*
X6410779Y-9507794D01*
X6410779Y-9507794D02*
X6410779Y-9555413D01*
X6410779Y-9555413D02*
X6401255Y-9593509D01*
X6401255Y-9593509D02*
X6391731Y-9612556D01*
X6391731Y-9612556D02*
X6382207Y-9622080D01*
X6382207Y-9622080D02*
X6363160Y-9631604D01*
X6363160Y-9631604D02*
X6344112Y-9631604D01*
X6344112Y-9631604D02*
X6325064Y-9622080D01*
X6325064Y-9622080D02*
X6315541Y-9612556D01*
X6315541Y-9612556D02*
X6306017Y-9593509D01*
X6306017Y-9593509D02*
X6296493Y-9555413D01*
X6296493Y-9555413D02*
X6296493Y-9507794D01*
X6296493Y-9507794D02*
X6306017Y-9469699D01*
X6306017Y-9469699D02*
X6315541Y-9450651D01*
X6315541Y-9450651D02*
X6325064Y-9441128D01*
X6325064Y-9441128D02*
X6344112Y-9431604D01*
X6496493Y-9612556D02*
X6506017Y-9622080D01*
X6506017Y-9622080D02*
X6496493Y-9631604D01*
X6496493Y-9631604D02*
X6486969Y-9622080D01*
X6486969Y-9622080D02*
X6496493Y-9612556D01*
X6496493Y-9612556D02*
X6496493Y-9631604D01*
X6572683Y-9431604D02*
X6696493Y-9431604D01*
X6696493Y-9431604D02*
X6629826Y-9507794D01*
X6629826Y-9507794D02*
X6658398Y-9507794D01*
X6658398Y-9507794D02*
X6677445Y-9517318D01*
X6677445Y-9517318D02*
X6686969Y-9526842D01*
X6686969Y-9526842D02*
X6696493Y-9545890D01*
X6696493Y-9545890D02*
X6696493Y-9593509D01*
X6696493Y-9593509D02*
X6686969Y-9612556D01*
X6686969Y-9612556D02*
X6677445Y-9622080D01*
X6677445Y-9622080D02*
X6658398Y-9631604D01*
X6658398Y-9631604D02*
X6601255Y-9631604D01*
X6601255Y-9631604D02*
X6582207Y-9622080D01*
X6582207Y-9622080D02*
X6572683Y-9612556D01*
X6820302Y-9431604D02*
X6839350Y-9431604D01*
X6839350Y-9431604D02*
X6858398Y-9441128D01*
X6858398Y-9441128D02*
X6867922Y-9450651D01*
X6867922Y-9450651D02*
X6877445Y-9469699D01*
X6877445Y-9469699D02*
X6886969Y-9507794D01*
X6886969Y-9507794D02*
X6886969Y-9555413D01*
X6886969Y-9555413D02*
X6877445Y-9593509D01*
X6877445Y-9593509D02*
X6867922Y-9612556D01*
X6867922Y-9612556D02*
X6858398Y-9622080D01*
X6858398Y-9622080D02*
X6839350Y-9631604D01*
X6839350Y-9631604D02*
X6820302Y-9631604D01*
X6820302Y-9631604D02*
X6801255Y-9622080D01*
X6801255Y-9622080D02*
X6791731Y-9612556D01*
X6791731Y-9612556D02*
X6782207Y-9593509D01*
X6782207Y-9593509D02*
X6772683Y-9555413D01*
X6772683Y-9555413D02*
X6772683Y-9507794D01*
X6772683Y-9507794D02*
X6782207Y-9469699D01*
X6782207Y-9469699D02*
X6791731Y-9450651D01*
X6791731Y-9450651D02*
X6801255Y-9441128D01*
X6801255Y-9441128D02*
X6820302Y-9431604D01*
X7010779Y-9431604D02*
X7029826Y-9431604D01*
X7029826Y-9431604D02*
X7048874Y-9441128D01*
X7048874Y-9441128D02*
X7058398Y-9450651D01*
X7058398Y-9450651D02*
X7067922Y-9469699D01*
X7067922Y-9469699D02*
X7077445Y-9507794D01*
X7077445Y-9507794D02*
X7077445Y-9555413D01*
X7077445Y-9555413D02*
X7067922Y-9593509D01*
X7067922Y-9593509D02*
X7058398Y-9612556D01*
X7058398Y-9612556D02*
X7048874Y-9622080D01*
X7048874Y-9622080D02*
X7029826Y-9631604D01*
X7029826Y-9631604D02*
X7010779Y-9631604D01*
X7010779Y-9631604D02*
X6991731Y-9622080D01*
X6991731Y-9622080D02*
X6982207Y-9612556D01*
X6982207Y-9612556D02*
X6972683Y-9593509D01*
X6972683Y-9593509D02*
X6963160Y-9555413D01*
X6963160Y-9555413D02*
X6963160Y-9507794D01*
X6963160Y-9507794D02*
X6972683Y-9469699D01*
X6972683Y-9469699D02*
X6982207Y-9450651D01*
X6982207Y-9450651D02*
X6991731Y-9441128D01*
X6991731Y-9441128D02*
X7010779Y-9431604D01*
X7163160Y-9631604D02*
X7163160Y-9498270D01*
X7163160Y-9517318D02*
X7172683Y-9507794D01*
X7172683Y-9507794D02*
X7191731Y-9498270D01*
X7191731Y-9498270D02*
X7220303Y-9498270D01*
X7220303Y-9498270D02*
X7239350Y-9507794D01*
X7239350Y-9507794D02*
X7248874Y-9526842D01*
X7248874Y-9526842D02*
X7248874Y-9631604D01*
X7248874Y-9526842D02*
X7258398Y-9507794D01*
X7258398Y-9507794D02*
X7277445Y-9498270D01*
X7277445Y-9498270D02*
X7306017Y-9498270D01*
X7306017Y-9498270D02*
X7325064Y-9507794D01*
X7325064Y-9507794D02*
X7334588Y-9526842D01*
X7334588Y-9526842D02*
X7334588Y-9631604D01*
X7429826Y-9631604D02*
X7429826Y-9498270D01*
X7429826Y-9517318D02*
X7439350Y-9507794D01*
X7439350Y-9507794D02*
X7458398Y-9498270D01*
X7458398Y-9498270D02*
X7486969Y-9498270D01*
X7486969Y-9498270D02*
X7506017Y-9507794D01*
X7506017Y-9507794D02*
X7515541Y-9526842D01*
X7515541Y-9526842D02*
X7515541Y-9631604D01*
X7515541Y-9526842D02*
X7525064Y-9507794D01*
X7525064Y-9507794D02*
X7544112Y-9498270D01*
X7544112Y-9498270D02*
X7572683Y-9498270D01*
X7572683Y-9498270D02*
X7591731Y-9507794D01*
X7591731Y-9507794D02*
X7601255Y-9526842D01*
X7601255Y-9526842D02*
X7601255Y-9631604D01*
X7991731Y-9422080D02*
X7820303Y-9679223D01*
X8248874Y-9431604D02*
X8267922Y-9431604D01*
X8267922Y-9431604D02*
X8286969Y-9441128D01*
X8286969Y-9441128D02*
X8296493Y-9450651D01*
X8296493Y-9450651D02*
X8306017Y-9469699D01*
X8306017Y-9469699D02*
X8315541Y-9507794D01*
X8315541Y-9507794D02*
X8315541Y-9555413D01*
X8315541Y-9555413D02*
X8306017Y-9593509D01*
X8306017Y-9593509D02*
X8296493Y-9612556D01*
X8296493Y-9612556D02*
X8286969Y-9622080D01*
X8286969Y-9622080D02*
X8267922Y-9631604D01*
X8267922Y-9631604D02*
X8248874Y-9631604D01*
X8248874Y-9631604D02*
X8229826Y-9622080D01*
X8229826Y-9622080D02*
X8220303Y-9612556D01*
X8220303Y-9612556D02*
X8210779Y-9593509D01*
X8210779Y-9593509D02*
X8201255Y-9555413D01*
X8201255Y-9555413D02*
X8201255Y-9507794D01*
X8201255Y-9507794D02*
X8210779Y-9469699D01*
X8210779Y-9469699D02*
X8220303Y-9450651D01*
X8220303Y-9450651D02*
X8229826Y-9441128D01*
X8229826Y-9441128D02*
X8248874Y-9431604D01*
X8401255Y-9612556D02*
X8410779Y-9622080D01*
X8410779Y-9622080D02*
X8401255Y-9631604D01*
X8401255Y-9631604D02*
X8391731Y-9622080D01*
X8391731Y-9622080D02*
X8401255Y-9612556D01*
X8401255Y-9612556D02*
X8401255Y-9631604D01*
X8534588Y-9431604D02*
X8553636Y-9431604D01*
X8553636Y-9431604D02*
X8572684Y-9441128D01*
X8572684Y-9441128D02*
X8582208Y-9450651D01*
X8582208Y-9450651D02*
X8591731Y-9469699D01*
X8591731Y-9469699D02*
X8601255Y-9507794D01*
X8601255Y-9507794D02*
X8601255Y-9555413D01*
X8601255Y-9555413D02*
X8591731Y-9593509D01*
X8591731Y-9593509D02*
X8582208Y-9612556D01*
X8582208Y-9612556D02*
X8572684Y-9622080D01*
X8572684Y-9622080D02*
X8553636Y-9631604D01*
X8553636Y-9631604D02*
X8534588Y-9631604D01*
X8534588Y-9631604D02*
X8515541Y-9622080D01*
X8515541Y-9622080D02*
X8506017Y-9612556D01*
X8506017Y-9612556D02*
X8496493Y-9593509D01*
X8496493Y-9593509D02*
X8486969Y-9555413D01*
X8486969Y-9555413D02*
X8486969Y-9507794D01*
X8486969Y-9507794D02*
X8496493Y-9469699D01*
X8496493Y-9469699D02*
X8506017Y-9450651D01*
X8506017Y-9450651D02*
X8515541Y-9441128D01*
X8515541Y-9441128D02*
X8534588Y-9431604D01*
X8791731Y-9631604D02*
X8677446Y-9631604D01*
X8734588Y-9631604D02*
X8734588Y-9431604D01*
X8734588Y-9431604D02*
X8715541Y-9460175D01*
X8715541Y-9460175D02*
X8696493Y-9479223D01*
X8696493Y-9479223D02*
X8677446Y-9488747D01*
X8982208Y-9631604D02*
X8867922Y-9631604D01*
X8925065Y-9631604D02*
X8925065Y-9431604D01*
X8925065Y-9431604D02*
X8906017Y-9460175D01*
X8906017Y-9460175D02*
X8886969Y-9479223D01*
X8886969Y-9479223D02*
X8867922Y-9488747D01*
X9096493Y-9517318D02*
X9077446Y-9507794D01*
X9077446Y-9507794D02*
X9067922Y-9498270D01*
X9067922Y-9498270D02*
X9058398Y-9479223D01*
X9058398Y-9479223D02*
X9058398Y-9469699D01*
X9058398Y-9469699D02*
X9067922Y-9450651D01*
X9067922Y-9450651D02*
X9077446Y-9441128D01*
X9077446Y-9441128D02*
X9096493Y-9431604D01*
X9096493Y-9431604D02*
X9134589Y-9431604D01*
X9134589Y-9431604D02*
X9153636Y-9441128D01*
X9153636Y-9441128D02*
X9163160Y-9450651D01*
X9163160Y-9450651D02*
X9172684Y-9469699D01*
X9172684Y-9469699D02*
X9172684Y-9479223D01*
X9172684Y-9479223D02*
X9163160Y-9498270D01*
X9163160Y-9498270D02*
X9153636Y-9507794D01*
X9153636Y-9507794D02*
X9134589Y-9517318D01*
X9134589Y-9517318D02*
X9096493Y-9517318D01*
X9096493Y-9517318D02*
X9077446Y-9526842D01*
X9077446Y-9526842D02*
X9067922Y-9536366D01*
X9067922Y-9536366D02*
X9058398Y-9555413D01*
X9058398Y-9555413D02*
X9058398Y-9593509D01*
X9058398Y-9593509D02*
X9067922Y-9612556D01*
X9067922Y-9612556D02*
X9077446Y-9622080D01*
X9077446Y-9622080D02*
X9096493Y-9631604D01*
X9096493Y-9631604D02*
X9134589Y-9631604D01*
X9134589Y-9631604D02*
X9153636Y-9622080D01*
X9153636Y-9622080D02*
X9163160Y-9612556D01*
X9163160Y-9612556D02*
X9172684Y-9593509D01*
X9172684Y-9593509D02*
X9172684Y-9555413D01*
X9172684Y-9555413D02*
X9163160Y-9536366D01*
X9163160Y-9536366D02*
X9153636Y-9526842D01*
X9153636Y-9526842D02*
X9134589Y-9517318D01*
X9248874Y-9431604D02*
X9248874Y-9469699D01*
X9325065Y-9431604D02*
X9325065Y-9469699D01*
X9620303Y-9707794D02*
X9610779Y-9698270D01*
X9610779Y-9698270D02*
X9591731Y-9669699D01*
X9591731Y-9669699D02*
X9582208Y-9650651D01*
X9582208Y-9650651D02*
X9572684Y-9622080D01*
X9572684Y-9622080D02*
X9563160Y-9574461D01*
X9563160Y-9574461D02*
X9563160Y-9536366D01*
X9563160Y-9536366D02*
X9572684Y-9488747D01*
X9572684Y-9488747D02*
X9582208Y-9460175D01*
X9582208Y-9460175D02*
X9591731Y-9441128D01*
X9591731Y-9441128D02*
X9610779Y-9412556D01*
X9610779Y-9412556D02*
X9620303Y-9403032D01*
X9791731Y-9431604D02*
X9696493Y-9431604D01*
X9696493Y-9431604D02*
X9686970Y-9526842D01*
X9686970Y-9526842D02*
X9696493Y-9517318D01*
X9696493Y-9517318D02*
X9715541Y-9507794D01*
X9715541Y-9507794D02*
X9763160Y-9507794D01*
X9763160Y-9507794D02*
X9782208Y-9517318D01*
X9782208Y-9517318D02*
X9791731Y-9526842D01*
X9791731Y-9526842D02*
X9801255Y-9545890D01*
X9801255Y-9545890D02*
X9801255Y-9593509D01*
X9801255Y-9593509D02*
X9791731Y-9612556D01*
X9791731Y-9612556D02*
X9782208Y-9622080D01*
X9782208Y-9622080D02*
X9763160Y-9631604D01*
X9763160Y-9631604D02*
X9715541Y-9631604D01*
X9715541Y-9631604D02*
X9696493Y-9622080D01*
X9696493Y-9622080D02*
X9686970Y-9612556D01*
X10039351Y-9631604D02*
X10039351Y-9431604D01*
X10125065Y-9631604D02*
X10125065Y-9526842D01*
X10125065Y-9526842D02*
X10115541Y-9507794D01*
X10115541Y-9507794D02*
X10096493Y-9498270D01*
X10096493Y-9498270D02*
X10067922Y-9498270D01*
X10067922Y-9498270D02*
X10048874Y-9507794D01*
X10048874Y-9507794D02*
X10039351Y-9517318D01*
X10248874Y-9631604D02*
X10229827Y-9622080D01*
X10229827Y-9622080D02*
X10220303Y-9612556D01*
X10220303Y-9612556D02*
X10210779Y-9593509D01*
X10210779Y-9593509D02*
X10210779Y-9536366D01*
X10210779Y-9536366D02*
X10220303Y-9517318D01*
X10220303Y-9517318D02*
X10229827Y-9507794D01*
X10229827Y-9507794D02*
X10248874Y-9498270D01*
X10248874Y-9498270D02*
X10277446Y-9498270D01*
X10277446Y-9498270D02*
X10296493Y-9507794D01*
X10296493Y-9507794D02*
X10306017Y-9517318D01*
X10306017Y-9517318D02*
X10315541Y-9536366D01*
X10315541Y-9536366D02*
X10315541Y-9593509D01*
X10315541Y-9593509D02*
X10306017Y-9612556D01*
X10306017Y-9612556D02*
X10296493Y-9622080D01*
X10296493Y-9622080D02*
X10277446Y-9631604D01*
X10277446Y-9631604D02*
X10248874Y-9631604D01*
X10429827Y-9631604D02*
X10410779Y-9622080D01*
X10410779Y-9622080D02*
X10401255Y-9603032D01*
X10401255Y-9603032D02*
X10401255Y-9431604D01*
X10582208Y-9622080D02*
X10563160Y-9631604D01*
X10563160Y-9631604D02*
X10525065Y-9631604D01*
X10525065Y-9631604D02*
X10506017Y-9622080D01*
X10506017Y-9622080D02*
X10496493Y-9603032D01*
X10496493Y-9603032D02*
X10496493Y-9526842D01*
X10496493Y-9526842D02*
X10506017Y-9507794D01*
X10506017Y-9507794D02*
X10525065Y-9498270D01*
X10525065Y-9498270D02*
X10563160Y-9498270D01*
X10563160Y-9498270D02*
X10582208Y-9507794D01*
X10582208Y-9507794D02*
X10591732Y-9526842D01*
X10591732Y-9526842D02*
X10591732Y-9545890D01*
X10591732Y-9545890D02*
X10496493Y-9564937D01*
X10667922Y-9622080D02*
X10686970Y-9631604D01*
X10686970Y-9631604D02*
X10725065Y-9631604D01*
X10725065Y-9631604D02*
X10744113Y-9622080D01*
X10744113Y-9622080D02*
X10753636Y-9603032D01*
X10753636Y-9603032D02*
X10753636Y-9593509D01*
X10753636Y-9593509D02*
X10744113Y-9574461D01*
X10744113Y-9574461D02*
X10725065Y-9564937D01*
X10725065Y-9564937D02*
X10696493Y-9564937D01*
X10696493Y-9564937D02*
X10677446Y-9555413D01*
X10677446Y-9555413D02*
X10667922Y-9536366D01*
X10667922Y-9536366D02*
X10667922Y-9526842D01*
X10667922Y-9526842D02*
X10677446Y-9507794D01*
X10677446Y-9507794D02*
X10696493Y-9498270D01*
X10696493Y-9498270D02*
X10725065Y-9498270D01*
X10725065Y-9498270D02*
X10744113Y-9507794D01*
X10820303Y-9707794D02*
X10829827Y-9698270D01*
X10829827Y-9698270D02*
X10848874Y-9669699D01*
X10848874Y-9669699D02*
X10858398Y-9650651D01*
X10858398Y-9650651D02*
X10867922Y-9622080D01*
X10867922Y-9622080D02*
X10877446Y-9574461D01*
X10877446Y-9574461D02*
X10877446Y-9536366D01*
X10877446Y-9536366D02*
X10867922Y-9488747D01*
X10867922Y-9488747D02*
X10858398Y-9460175D01*
X10858398Y-9460175D02*
X10848874Y-9441128D01*
X10848874Y-9441128D02*
X10829827Y-9412556D01*
X10829827Y-9412556D02*
X10820303Y-9403032D01*
D13*
X6045240Y-9804120D02*
G75*
G03*
X6045240Y-9804120I-38500J0D01*
G01*
D11*
X6344112Y-9695604D02*
X6363160Y-9695604D01*
X6363160Y-9695604D02*
X6382207Y-9705128D01*
X6382207Y-9705128D02*
X6391731Y-9714651D01*
X6391731Y-9714651D02*
X6401255Y-9733699D01*
X6401255Y-9733699D02*
X6410779Y-9771794D01*
X6410779Y-9771794D02*
X6410779Y-9819413D01*
X6410779Y-9819413D02*
X6401255Y-9857509D01*
X6401255Y-9857509D02*
X6391731Y-9876556D01*
X6391731Y-9876556D02*
X6382207Y-9886080D01*
X6382207Y-9886080D02*
X6363160Y-9895604D01*
X6363160Y-9895604D02*
X6344112Y-9895604D01*
X6344112Y-9895604D02*
X6325064Y-9886080D01*
X6325064Y-9886080D02*
X6315541Y-9876556D01*
X6315541Y-9876556D02*
X6306017Y-9857509D01*
X6306017Y-9857509D02*
X6296493Y-9819413D01*
X6296493Y-9819413D02*
X6296493Y-9771794D01*
X6296493Y-9771794D02*
X6306017Y-9733699D01*
X6306017Y-9733699D02*
X6315541Y-9714651D01*
X6315541Y-9714651D02*
X6325064Y-9705128D01*
X6325064Y-9705128D02*
X6344112Y-9695604D01*
X6496493Y-9876556D02*
X6506017Y-9886080D01*
X6506017Y-9886080D02*
X6496493Y-9895604D01*
X6496493Y-9895604D02*
X6486969Y-9886080D01*
X6486969Y-9886080D02*
X6496493Y-9876556D01*
X6496493Y-9876556D02*
X6496493Y-9895604D01*
X6572683Y-9695604D02*
X6706017Y-9695604D01*
X6706017Y-9695604D02*
X6620302Y-9895604D01*
X6763160Y-9695604D02*
X6896493Y-9695604D01*
X6896493Y-9695604D02*
X6810779Y-9895604D01*
X7010779Y-9695604D02*
X7029826Y-9695604D01*
X7029826Y-9695604D02*
X7048874Y-9705128D01*
X7048874Y-9705128D02*
X7058398Y-9714651D01*
X7058398Y-9714651D02*
X7067922Y-9733699D01*
X7067922Y-9733699D02*
X7077445Y-9771794D01*
X7077445Y-9771794D02*
X7077445Y-9819413D01*
X7077445Y-9819413D02*
X7067922Y-9857509D01*
X7067922Y-9857509D02*
X7058398Y-9876556D01*
X7058398Y-9876556D02*
X7048874Y-9886080D01*
X7048874Y-9886080D02*
X7029826Y-9895604D01*
X7029826Y-9895604D02*
X7010779Y-9895604D01*
X7010779Y-9895604D02*
X6991731Y-9886080D01*
X6991731Y-9886080D02*
X6982207Y-9876556D01*
X6982207Y-9876556D02*
X6972683Y-9857509D01*
X6972683Y-9857509D02*
X6963160Y-9819413D01*
X6963160Y-9819413D02*
X6963160Y-9771794D01*
X6963160Y-9771794D02*
X6972683Y-9733699D01*
X6972683Y-9733699D02*
X6982207Y-9714651D01*
X6982207Y-9714651D02*
X6991731Y-9705128D01*
X6991731Y-9705128D02*
X7010779Y-9695604D01*
X7163160Y-9895604D02*
X7163160Y-9762270D01*
X7163160Y-9781318D02*
X7172683Y-9771794D01*
X7172683Y-9771794D02*
X7191731Y-9762270D01*
X7191731Y-9762270D02*
X7220303Y-9762270D01*
X7220303Y-9762270D02*
X7239350Y-9771794D01*
X7239350Y-9771794D02*
X7248874Y-9790842D01*
X7248874Y-9790842D02*
X7248874Y-9895604D01*
X7248874Y-9790842D02*
X7258398Y-9771794D01*
X7258398Y-9771794D02*
X7277445Y-9762270D01*
X7277445Y-9762270D02*
X7306017Y-9762270D01*
X7306017Y-9762270D02*
X7325064Y-9771794D01*
X7325064Y-9771794D02*
X7334588Y-9790842D01*
X7334588Y-9790842D02*
X7334588Y-9895604D01*
X7429826Y-9895604D02*
X7429826Y-9762270D01*
X7429826Y-9781318D02*
X7439350Y-9771794D01*
X7439350Y-9771794D02*
X7458398Y-9762270D01*
X7458398Y-9762270D02*
X7486969Y-9762270D01*
X7486969Y-9762270D02*
X7506017Y-9771794D01*
X7506017Y-9771794D02*
X7515541Y-9790842D01*
X7515541Y-9790842D02*
X7515541Y-9895604D01*
X7515541Y-9790842D02*
X7525064Y-9771794D01*
X7525064Y-9771794D02*
X7544112Y-9762270D01*
X7544112Y-9762270D02*
X7572683Y-9762270D01*
X7572683Y-9762270D02*
X7591731Y-9771794D01*
X7591731Y-9771794D02*
X7601255Y-9790842D01*
X7601255Y-9790842D02*
X7601255Y-9895604D01*
X7991731Y-9686080D02*
X7820303Y-9943223D01*
X8248874Y-9695604D02*
X8267922Y-9695604D01*
X8267922Y-9695604D02*
X8286969Y-9705128D01*
X8286969Y-9705128D02*
X8296493Y-9714651D01*
X8296493Y-9714651D02*
X8306017Y-9733699D01*
X8306017Y-9733699D02*
X8315541Y-9771794D01*
X8315541Y-9771794D02*
X8315541Y-9819413D01*
X8315541Y-9819413D02*
X8306017Y-9857509D01*
X8306017Y-9857509D02*
X8296493Y-9876556D01*
X8296493Y-9876556D02*
X8286969Y-9886080D01*
X8286969Y-9886080D02*
X8267922Y-9895604D01*
X8267922Y-9895604D02*
X8248874Y-9895604D01*
X8248874Y-9895604D02*
X8229826Y-9886080D01*
X8229826Y-9886080D02*
X8220303Y-9876556D01*
X8220303Y-9876556D02*
X8210779Y-9857509D01*
X8210779Y-9857509D02*
X8201255Y-9819413D01*
X8201255Y-9819413D02*
X8201255Y-9771794D01*
X8201255Y-9771794D02*
X8210779Y-9733699D01*
X8210779Y-9733699D02*
X8220303Y-9714651D01*
X8220303Y-9714651D02*
X8229826Y-9705128D01*
X8229826Y-9705128D02*
X8248874Y-9695604D01*
X8401255Y-9876556D02*
X8410779Y-9886080D01*
X8410779Y-9886080D02*
X8401255Y-9895604D01*
X8401255Y-9895604D02*
X8391731Y-9886080D01*
X8391731Y-9886080D02*
X8401255Y-9876556D01*
X8401255Y-9876556D02*
X8401255Y-9895604D01*
X8534588Y-9695604D02*
X8553636Y-9695604D01*
X8553636Y-9695604D02*
X8572684Y-9705128D01*
X8572684Y-9705128D02*
X8582208Y-9714651D01*
X8582208Y-9714651D02*
X8591731Y-9733699D01*
X8591731Y-9733699D02*
X8601255Y-9771794D01*
X8601255Y-9771794D02*
X8601255Y-9819413D01*
X8601255Y-9819413D02*
X8591731Y-9857509D01*
X8591731Y-9857509D02*
X8582208Y-9876556D01*
X8582208Y-9876556D02*
X8572684Y-9886080D01*
X8572684Y-9886080D02*
X8553636Y-9895604D01*
X8553636Y-9895604D02*
X8534588Y-9895604D01*
X8534588Y-9895604D02*
X8515541Y-9886080D01*
X8515541Y-9886080D02*
X8506017Y-9876556D01*
X8506017Y-9876556D02*
X8496493Y-9857509D01*
X8496493Y-9857509D02*
X8486969Y-9819413D01*
X8486969Y-9819413D02*
X8486969Y-9771794D01*
X8486969Y-9771794D02*
X8496493Y-9733699D01*
X8496493Y-9733699D02*
X8506017Y-9714651D01*
X8506017Y-9714651D02*
X8515541Y-9705128D01*
X8515541Y-9705128D02*
X8534588Y-9695604D01*
X8667922Y-9695604D02*
X8791731Y-9695604D01*
X8791731Y-9695604D02*
X8725065Y-9771794D01*
X8725065Y-9771794D02*
X8753636Y-9771794D01*
X8753636Y-9771794D02*
X8772684Y-9781318D01*
X8772684Y-9781318D02*
X8782208Y-9790842D01*
X8782208Y-9790842D02*
X8791731Y-9809890D01*
X8791731Y-9809890D02*
X8791731Y-9857509D01*
X8791731Y-9857509D02*
X8782208Y-9876556D01*
X8782208Y-9876556D02*
X8772684Y-9886080D01*
X8772684Y-9886080D02*
X8753636Y-9895604D01*
X8753636Y-9895604D02*
X8696493Y-9895604D01*
X8696493Y-9895604D02*
X8677446Y-9886080D01*
X8677446Y-9886080D02*
X8667922Y-9876556D01*
X8915541Y-9695604D02*
X8934589Y-9695604D01*
X8934589Y-9695604D02*
X8953636Y-9705128D01*
X8953636Y-9705128D02*
X8963160Y-9714651D01*
X8963160Y-9714651D02*
X8972684Y-9733699D01*
X8972684Y-9733699D02*
X8982208Y-9771794D01*
X8982208Y-9771794D02*
X8982208Y-9819413D01*
X8982208Y-9819413D02*
X8972684Y-9857509D01*
X8972684Y-9857509D02*
X8963160Y-9876556D01*
X8963160Y-9876556D02*
X8953636Y-9886080D01*
X8953636Y-9886080D02*
X8934589Y-9895604D01*
X8934589Y-9895604D02*
X8915541Y-9895604D01*
X8915541Y-9895604D02*
X8896493Y-9886080D01*
X8896493Y-9886080D02*
X8886969Y-9876556D01*
X8886969Y-9876556D02*
X8877446Y-9857509D01*
X8877446Y-9857509D02*
X8867922Y-9819413D01*
X8867922Y-9819413D02*
X8867922Y-9771794D01*
X8867922Y-9771794D02*
X8877446Y-9733699D01*
X8877446Y-9733699D02*
X8886969Y-9714651D01*
X8886969Y-9714651D02*
X8896493Y-9705128D01*
X8896493Y-9705128D02*
X8915541Y-9695604D01*
X9048874Y-9695604D02*
X9172684Y-9695604D01*
X9172684Y-9695604D02*
X9106017Y-9771794D01*
X9106017Y-9771794D02*
X9134589Y-9771794D01*
X9134589Y-9771794D02*
X9153636Y-9781318D01*
X9153636Y-9781318D02*
X9163160Y-9790842D01*
X9163160Y-9790842D02*
X9172684Y-9809890D01*
X9172684Y-9809890D02*
X9172684Y-9857509D01*
X9172684Y-9857509D02*
X9163160Y-9876556D01*
X9163160Y-9876556D02*
X9153636Y-9886080D01*
X9153636Y-9886080D02*
X9134589Y-9895604D01*
X9134589Y-9895604D02*
X9077446Y-9895604D01*
X9077446Y-9895604D02*
X9058398Y-9886080D01*
X9058398Y-9886080D02*
X9048874Y-9876556D01*
X9248874Y-9695604D02*
X9248874Y-9733699D01*
X9325065Y-9695604D02*
X9325065Y-9733699D01*
X9620303Y-9971794D02*
X9610779Y-9962270D01*
X9610779Y-9962270D02*
X9591731Y-9933699D01*
X9591731Y-9933699D02*
X9582208Y-9914651D01*
X9582208Y-9914651D02*
X9572684Y-9886080D01*
X9572684Y-9886080D02*
X9563160Y-9838461D01*
X9563160Y-9838461D02*
X9563160Y-9800366D01*
X9563160Y-9800366D02*
X9572684Y-9752747D01*
X9572684Y-9752747D02*
X9582208Y-9724175D01*
X9582208Y-9724175D02*
X9591731Y-9705128D01*
X9591731Y-9705128D02*
X9610779Y-9676556D01*
X9610779Y-9676556D02*
X9620303Y-9667032D01*
X9686970Y-9714651D02*
X9696493Y-9705128D01*
X9696493Y-9705128D02*
X9715541Y-9695604D01*
X9715541Y-9695604D02*
X9763160Y-9695604D01*
X9763160Y-9695604D02*
X9782208Y-9705128D01*
X9782208Y-9705128D02*
X9791731Y-9714651D01*
X9791731Y-9714651D02*
X9801255Y-9733699D01*
X9801255Y-9733699D02*
X9801255Y-9752747D01*
X9801255Y-9752747D02*
X9791731Y-9781318D01*
X9791731Y-9781318D02*
X9677446Y-9895604D01*
X9677446Y-9895604D02*
X9801255Y-9895604D01*
X9915541Y-9781318D02*
X9896493Y-9771794D01*
X9896493Y-9771794D02*
X9886970Y-9762270D01*
X9886970Y-9762270D02*
X9877446Y-9743223D01*
X9877446Y-9743223D02*
X9877446Y-9733699D01*
X9877446Y-9733699D02*
X9886970Y-9714651D01*
X9886970Y-9714651D02*
X9896493Y-9705128D01*
X9896493Y-9705128D02*
X9915541Y-9695604D01*
X9915541Y-9695604D02*
X9953636Y-9695604D01*
X9953636Y-9695604D02*
X9972684Y-9705128D01*
X9972684Y-9705128D02*
X9982208Y-9714651D01*
X9982208Y-9714651D02*
X9991731Y-9733699D01*
X9991731Y-9733699D02*
X9991731Y-9743223D01*
X9991731Y-9743223D02*
X9982208Y-9762270D01*
X9982208Y-9762270D02*
X9972684Y-9771794D01*
X9972684Y-9771794D02*
X9953636Y-9781318D01*
X9953636Y-9781318D02*
X9915541Y-9781318D01*
X9915541Y-9781318D02*
X9896493Y-9790842D01*
X9896493Y-9790842D02*
X9886970Y-9800366D01*
X9886970Y-9800366D02*
X9877446Y-9819413D01*
X9877446Y-9819413D02*
X9877446Y-9857509D01*
X9877446Y-9857509D02*
X9886970Y-9876556D01*
X9886970Y-9876556D02*
X9896493Y-9886080D01*
X9896493Y-9886080D02*
X9915541Y-9895604D01*
X9915541Y-9895604D02*
X9953636Y-9895604D01*
X9953636Y-9895604D02*
X9972684Y-9886080D01*
X9972684Y-9886080D02*
X9982208Y-9876556D01*
X9982208Y-9876556D02*
X9991731Y-9857509D01*
X9991731Y-9857509D02*
X9991731Y-9819413D01*
X9991731Y-9819413D02*
X9982208Y-9800366D01*
X9982208Y-9800366D02*
X9972684Y-9790842D01*
X9972684Y-9790842D02*
X9953636Y-9781318D01*
X10229827Y-9895604D02*
X10229827Y-9695604D01*
X10315541Y-9895604D02*
X10315541Y-9790842D01*
X10315541Y-9790842D02*
X10306017Y-9771794D01*
X10306017Y-9771794D02*
X10286970Y-9762270D01*
X10286970Y-9762270D02*
X10258398Y-9762270D01*
X10258398Y-9762270D02*
X10239351Y-9771794D01*
X10239351Y-9771794D02*
X10229827Y-9781318D01*
X10439351Y-9895604D02*
X10420303Y-9886080D01*
X10420303Y-9886080D02*
X10410779Y-9876556D01*
X10410779Y-9876556D02*
X10401255Y-9857509D01*
X10401255Y-9857509D02*
X10401255Y-9800366D01*
X10401255Y-9800366D02*
X10410779Y-9781318D01*
X10410779Y-9781318D02*
X10420303Y-9771794D01*
X10420303Y-9771794D02*
X10439351Y-9762270D01*
X10439351Y-9762270D02*
X10467922Y-9762270D01*
X10467922Y-9762270D02*
X10486970Y-9771794D01*
X10486970Y-9771794D02*
X10496493Y-9781318D01*
X10496493Y-9781318D02*
X10506017Y-9800366D01*
X10506017Y-9800366D02*
X10506017Y-9857509D01*
X10506017Y-9857509D02*
X10496493Y-9876556D01*
X10496493Y-9876556D02*
X10486970Y-9886080D01*
X10486970Y-9886080D02*
X10467922Y-9895604D01*
X10467922Y-9895604D02*
X10439351Y-9895604D01*
X10620303Y-9895604D02*
X10601255Y-9886080D01*
X10601255Y-9886080D02*
X10591732Y-9867032D01*
X10591732Y-9867032D02*
X10591732Y-9695604D01*
X10772684Y-9886080D02*
X10753636Y-9895604D01*
X10753636Y-9895604D02*
X10715541Y-9895604D01*
X10715541Y-9895604D02*
X10696493Y-9886080D01*
X10696493Y-9886080D02*
X10686970Y-9867032D01*
X10686970Y-9867032D02*
X10686970Y-9790842D01*
X10686970Y-9790842D02*
X10696493Y-9771794D01*
X10696493Y-9771794D02*
X10715541Y-9762270D01*
X10715541Y-9762270D02*
X10753636Y-9762270D01*
X10753636Y-9762270D02*
X10772684Y-9771794D01*
X10772684Y-9771794D02*
X10782208Y-9790842D01*
X10782208Y-9790842D02*
X10782208Y-9809890D01*
X10782208Y-9809890D02*
X10686970Y-9828937D01*
X10858398Y-9886080D02*
X10877446Y-9895604D01*
X10877446Y-9895604D02*
X10915541Y-9895604D01*
X10915541Y-9895604D02*
X10934589Y-9886080D01*
X10934589Y-9886080D02*
X10944113Y-9867032D01*
X10944113Y-9867032D02*
X10944113Y-9857509D01*
X10944113Y-9857509D02*
X10934589Y-9838461D01*
X10934589Y-9838461D02*
X10915541Y-9828937D01*
X10915541Y-9828937D02*
X10886970Y-9828937D01*
X10886970Y-9828937D02*
X10867922Y-9819413D01*
X10867922Y-9819413D02*
X10858398Y-9800366D01*
X10858398Y-9800366D02*
X10858398Y-9790842D01*
X10858398Y-9790842D02*
X10867922Y-9771794D01*
X10867922Y-9771794D02*
X10886970Y-9762270D01*
X10886970Y-9762270D02*
X10915541Y-9762270D01*
X10915541Y-9762270D02*
X10934589Y-9771794D01*
X11010779Y-9971794D02*
X11020303Y-9962270D01*
X11020303Y-9962270D02*
X11039351Y-9933699D01*
X11039351Y-9933699D02*
X11048874Y-9914651D01*
X11048874Y-9914651D02*
X11058398Y-9886080D01*
X11058398Y-9886080D02*
X11067922Y-9838461D01*
X11067922Y-9838461D02*
X11067922Y-9800366D01*
X11067922Y-9800366D02*
X11058398Y-9752747D01*
X11058398Y-9752747D02*
X11048874Y-9724175D01*
X11048874Y-9724175D02*
X11039351Y-9705128D01*
X11039351Y-9705128D02*
X11020303Y-9676556D01*
X11020303Y-9676556D02*
X11010779Y-9667032D01*
D14*
X6005240Y-10028120D02*
X6005240Y-10108120D01*
X5965240Y-10068120D02*
X6045240Y-10068120D01*
D11*
X6344112Y-9959604D02*
X6363160Y-9959604D01*
X6363160Y-9959604D02*
X6382207Y-9969128D01*
X6382207Y-9969128D02*
X6391731Y-9978651D01*
X6391731Y-9978651D02*
X6401255Y-9997699D01*
X6401255Y-9997699D02*
X6410779Y-10035794D01*
X6410779Y-10035794D02*
X6410779Y-10083413D01*
X6410779Y-10083413D02*
X6401255Y-10121509D01*
X6401255Y-10121509D02*
X6391731Y-10140556D01*
X6391731Y-10140556D02*
X6382207Y-10150080D01*
X6382207Y-10150080D02*
X6363160Y-10159604D01*
X6363160Y-10159604D02*
X6344112Y-10159604D01*
X6344112Y-10159604D02*
X6325064Y-10150080D01*
X6325064Y-10150080D02*
X6315541Y-10140556D01*
X6315541Y-10140556D02*
X6306017Y-10121509D01*
X6306017Y-10121509D02*
X6296493Y-10083413D01*
X6296493Y-10083413D02*
X6296493Y-10035794D01*
X6296493Y-10035794D02*
X6306017Y-9997699D01*
X6306017Y-9997699D02*
X6315541Y-9978651D01*
X6315541Y-9978651D02*
X6325064Y-9969128D01*
X6325064Y-9969128D02*
X6344112Y-9959604D01*
X6496493Y-10140556D02*
X6506017Y-10150080D01*
X6506017Y-10150080D02*
X6496493Y-10159604D01*
X6496493Y-10159604D02*
X6486969Y-10150080D01*
X6486969Y-10150080D02*
X6496493Y-10140556D01*
X6496493Y-10140556D02*
X6496493Y-10159604D01*
X6620302Y-10045318D02*
X6601255Y-10035794D01*
X6601255Y-10035794D02*
X6591731Y-10026270D01*
X6591731Y-10026270D02*
X6582207Y-10007223D01*
X6582207Y-10007223D02*
X6582207Y-9997699D01*
X6582207Y-9997699D02*
X6591731Y-9978651D01*
X6591731Y-9978651D02*
X6601255Y-9969128D01*
X6601255Y-9969128D02*
X6620302Y-9959604D01*
X6620302Y-9959604D02*
X6658398Y-9959604D01*
X6658398Y-9959604D02*
X6677445Y-9969128D01*
X6677445Y-9969128D02*
X6686969Y-9978651D01*
X6686969Y-9978651D02*
X6696493Y-9997699D01*
X6696493Y-9997699D02*
X6696493Y-10007223D01*
X6696493Y-10007223D02*
X6686969Y-10026270D01*
X6686969Y-10026270D02*
X6677445Y-10035794D01*
X6677445Y-10035794D02*
X6658398Y-10045318D01*
X6658398Y-10045318D02*
X6620302Y-10045318D01*
X6620302Y-10045318D02*
X6601255Y-10054842D01*
X6601255Y-10054842D02*
X6591731Y-10064366D01*
X6591731Y-10064366D02*
X6582207Y-10083413D01*
X6582207Y-10083413D02*
X6582207Y-10121509D01*
X6582207Y-10121509D02*
X6591731Y-10140556D01*
X6591731Y-10140556D02*
X6601255Y-10150080D01*
X6601255Y-10150080D02*
X6620302Y-10159604D01*
X6620302Y-10159604D02*
X6658398Y-10159604D01*
X6658398Y-10159604D02*
X6677445Y-10150080D01*
X6677445Y-10150080D02*
X6686969Y-10140556D01*
X6686969Y-10140556D02*
X6696493Y-10121509D01*
X6696493Y-10121509D02*
X6696493Y-10083413D01*
X6696493Y-10083413D02*
X6686969Y-10064366D01*
X6686969Y-10064366D02*
X6677445Y-10054842D01*
X6677445Y-10054842D02*
X6658398Y-10045318D01*
X6820302Y-9959604D02*
X6839350Y-9959604D01*
X6839350Y-9959604D02*
X6858398Y-9969128D01*
X6858398Y-9969128D02*
X6867922Y-9978651D01*
X6867922Y-9978651D02*
X6877445Y-9997699D01*
X6877445Y-9997699D02*
X6886969Y-10035794D01*
X6886969Y-10035794D02*
X6886969Y-10083413D01*
X6886969Y-10083413D02*
X6877445Y-10121509D01*
X6877445Y-10121509D02*
X6867922Y-10140556D01*
X6867922Y-10140556D02*
X6858398Y-10150080D01*
X6858398Y-10150080D02*
X6839350Y-10159604D01*
X6839350Y-10159604D02*
X6820302Y-10159604D01*
X6820302Y-10159604D02*
X6801255Y-10150080D01*
X6801255Y-10150080D02*
X6791731Y-10140556D01*
X6791731Y-10140556D02*
X6782207Y-10121509D01*
X6782207Y-10121509D02*
X6772683Y-10083413D01*
X6772683Y-10083413D02*
X6772683Y-10035794D01*
X6772683Y-10035794D02*
X6782207Y-9997699D01*
X6782207Y-9997699D02*
X6791731Y-9978651D01*
X6791731Y-9978651D02*
X6801255Y-9969128D01*
X6801255Y-9969128D02*
X6820302Y-9959604D01*
X7010779Y-9959604D02*
X7029826Y-9959604D01*
X7029826Y-9959604D02*
X7048874Y-9969128D01*
X7048874Y-9969128D02*
X7058398Y-9978651D01*
X7058398Y-9978651D02*
X7067922Y-9997699D01*
X7067922Y-9997699D02*
X7077445Y-10035794D01*
X7077445Y-10035794D02*
X7077445Y-10083413D01*
X7077445Y-10083413D02*
X7067922Y-10121509D01*
X7067922Y-10121509D02*
X7058398Y-10140556D01*
X7058398Y-10140556D02*
X7048874Y-10150080D01*
X7048874Y-10150080D02*
X7029826Y-10159604D01*
X7029826Y-10159604D02*
X7010779Y-10159604D01*
X7010779Y-10159604D02*
X6991731Y-10150080D01*
X6991731Y-10150080D02*
X6982207Y-10140556D01*
X6982207Y-10140556D02*
X6972683Y-10121509D01*
X6972683Y-10121509D02*
X6963160Y-10083413D01*
X6963160Y-10083413D02*
X6963160Y-10035794D01*
X6963160Y-10035794D02*
X6972683Y-9997699D01*
X6972683Y-9997699D02*
X6982207Y-9978651D01*
X6982207Y-9978651D02*
X6991731Y-9969128D01*
X6991731Y-9969128D02*
X7010779Y-9959604D01*
X7163160Y-10159604D02*
X7163160Y-10026270D01*
X7163160Y-10045318D02*
X7172683Y-10035794D01*
X7172683Y-10035794D02*
X7191731Y-10026270D01*
X7191731Y-10026270D02*
X7220303Y-10026270D01*
X7220303Y-10026270D02*
X7239350Y-10035794D01*
X7239350Y-10035794D02*
X7248874Y-10054842D01*
X7248874Y-10054842D02*
X7248874Y-10159604D01*
X7248874Y-10054842D02*
X7258398Y-10035794D01*
X7258398Y-10035794D02*
X7277445Y-10026270D01*
X7277445Y-10026270D02*
X7306017Y-10026270D01*
X7306017Y-10026270D02*
X7325064Y-10035794D01*
X7325064Y-10035794D02*
X7334588Y-10054842D01*
X7334588Y-10054842D02*
X7334588Y-10159604D01*
X7429826Y-10159604D02*
X7429826Y-10026270D01*
X7429826Y-10045318D02*
X7439350Y-10035794D01*
X7439350Y-10035794D02*
X7458398Y-10026270D01*
X7458398Y-10026270D02*
X7486969Y-10026270D01*
X7486969Y-10026270D02*
X7506017Y-10035794D01*
X7506017Y-10035794D02*
X7515541Y-10054842D01*
X7515541Y-10054842D02*
X7515541Y-10159604D01*
X7515541Y-10054842D02*
X7525064Y-10035794D01*
X7525064Y-10035794D02*
X7544112Y-10026270D01*
X7544112Y-10026270D02*
X7572683Y-10026270D01*
X7572683Y-10026270D02*
X7591731Y-10035794D01*
X7591731Y-10035794D02*
X7601255Y-10054842D01*
X7601255Y-10054842D02*
X7601255Y-10159604D01*
X7991731Y-9950080D02*
X7820303Y-10207223D01*
X8248874Y-9959604D02*
X8267922Y-9959604D01*
X8267922Y-9959604D02*
X8286969Y-9969128D01*
X8286969Y-9969128D02*
X8296493Y-9978651D01*
X8296493Y-9978651D02*
X8306017Y-9997699D01*
X8306017Y-9997699D02*
X8315541Y-10035794D01*
X8315541Y-10035794D02*
X8315541Y-10083413D01*
X8315541Y-10083413D02*
X8306017Y-10121509D01*
X8306017Y-10121509D02*
X8296493Y-10140556D01*
X8296493Y-10140556D02*
X8286969Y-10150080D01*
X8286969Y-10150080D02*
X8267922Y-10159604D01*
X8267922Y-10159604D02*
X8248874Y-10159604D01*
X8248874Y-10159604D02*
X8229826Y-10150080D01*
X8229826Y-10150080D02*
X8220303Y-10140556D01*
X8220303Y-10140556D02*
X8210779Y-10121509D01*
X8210779Y-10121509D02*
X8201255Y-10083413D01*
X8201255Y-10083413D02*
X8201255Y-10035794D01*
X8201255Y-10035794D02*
X8210779Y-9997699D01*
X8210779Y-9997699D02*
X8220303Y-9978651D01*
X8220303Y-9978651D02*
X8229826Y-9969128D01*
X8229826Y-9969128D02*
X8248874Y-9959604D01*
X8401255Y-10140556D02*
X8410779Y-10150080D01*
X8410779Y-10150080D02*
X8401255Y-10159604D01*
X8401255Y-10159604D02*
X8391731Y-10150080D01*
X8391731Y-10150080D02*
X8401255Y-10140556D01*
X8401255Y-10140556D02*
X8401255Y-10159604D01*
X8534588Y-9959604D02*
X8553636Y-9959604D01*
X8553636Y-9959604D02*
X8572684Y-9969128D01*
X8572684Y-9969128D02*
X8582208Y-9978651D01*
X8582208Y-9978651D02*
X8591731Y-9997699D01*
X8591731Y-9997699D02*
X8601255Y-10035794D01*
X8601255Y-10035794D02*
X8601255Y-10083413D01*
X8601255Y-10083413D02*
X8591731Y-10121509D01*
X8591731Y-10121509D02*
X8582208Y-10140556D01*
X8582208Y-10140556D02*
X8572684Y-10150080D01*
X8572684Y-10150080D02*
X8553636Y-10159604D01*
X8553636Y-10159604D02*
X8534588Y-10159604D01*
X8534588Y-10159604D02*
X8515541Y-10150080D01*
X8515541Y-10150080D02*
X8506017Y-10140556D01*
X8506017Y-10140556D02*
X8496493Y-10121509D01*
X8496493Y-10121509D02*
X8486969Y-10083413D01*
X8486969Y-10083413D02*
X8486969Y-10035794D01*
X8486969Y-10035794D02*
X8496493Y-9997699D01*
X8496493Y-9997699D02*
X8506017Y-9978651D01*
X8506017Y-9978651D02*
X8515541Y-9969128D01*
X8515541Y-9969128D02*
X8534588Y-9959604D01*
X8667922Y-9959604D02*
X8791731Y-9959604D01*
X8791731Y-9959604D02*
X8725065Y-10035794D01*
X8725065Y-10035794D02*
X8753636Y-10035794D01*
X8753636Y-10035794D02*
X8772684Y-10045318D01*
X8772684Y-10045318D02*
X8782208Y-10054842D01*
X8782208Y-10054842D02*
X8791731Y-10073890D01*
X8791731Y-10073890D02*
X8791731Y-10121509D01*
X8791731Y-10121509D02*
X8782208Y-10140556D01*
X8782208Y-10140556D02*
X8772684Y-10150080D01*
X8772684Y-10150080D02*
X8753636Y-10159604D01*
X8753636Y-10159604D02*
X8696493Y-10159604D01*
X8696493Y-10159604D02*
X8677446Y-10150080D01*
X8677446Y-10150080D02*
X8667922Y-10140556D01*
X8982208Y-10159604D02*
X8867922Y-10159604D01*
X8925065Y-10159604D02*
X8925065Y-9959604D01*
X8925065Y-9959604D02*
X8906017Y-9988175D01*
X8906017Y-9988175D02*
X8886969Y-10007223D01*
X8886969Y-10007223D02*
X8867922Y-10016747D01*
X9163160Y-9959604D02*
X9067922Y-9959604D01*
X9067922Y-9959604D02*
X9058398Y-10054842D01*
X9058398Y-10054842D02*
X9067922Y-10045318D01*
X9067922Y-10045318D02*
X9086969Y-10035794D01*
X9086969Y-10035794D02*
X9134589Y-10035794D01*
X9134589Y-10035794D02*
X9153636Y-10045318D01*
X9153636Y-10045318D02*
X9163160Y-10054842D01*
X9163160Y-10054842D02*
X9172684Y-10073890D01*
X9172684Y-10073890D02*
X9172684Y-10121509D01*
X9172684Y-10121509D02*
X9163160Y-10140556D01*
X9163160Y-10140556D02*
X9153636Y-10150080D01*
X9153636Y-10150080D02*
X9134589Y-10159604D01*
X9134589Y-10159604D02*
X9086969Y-10159604D01*
X9086969Y-10159604D02*
X9067922Y-10150080D01*
X9067922Y-10150080D02*
X9058398Y-10140556D01*
X9248874Y-9959604D02*
X9248874Y-9997699D01*
X9325065Y-9959604D02*
X9325065Y-9997699D01*
X9620303Y-10235794D02*
X9610779Y-10226270D01*
X9610779Y-10226270D02*
X9591731Y-10197699D01*
X9591731Y-10197699D02*
X9582208Y-10178651D01*
X9582208Y-10178651D02*
X9572684Y-10150080D01*
X9572684Y-10150080D02*
X9563160Y-10102461D01*
X9563160Y-10102461D02*
X9563160Y-10064366D01*
X9563160Y-10064366D02*
X9572684Y-10016747D01*
X9572684Y-10016747D02*
X9582208Y-9988175D01*
X9582208Y-9988175D02*
X9591731Y-9969128D01*
X9591731Y-9969128D02*
X9610779Y-9940556D01*
X9610779Y-9940556D02*
X9620303Y-9931032D01*
X9725065Y-10045318D02*
X9706017Y-10035794D01*
X9706017Y-10035794D02*
X9696493Y-10026270D01*
X9696493Y-10026270D02*
X9686970Y-10007223D01*
X9686970Y-10007223D02*
X9686970Y-9997699D01*
X9686970Y-9997699D02*
X9696493Y-9978651D01*
X9696493Y-9978651D02*
X9706017Y-9969128D01*
X9706017Y-9969128D02*
X9725065Y-9959604D01*
X9725065Y-9959604D02*
X9763160Y-9959604D01*
X9763160Y-9959604D02*
X9782208Y-9969128D01*
X9782208Y-9969128D02*
X9791731Y-9978651D01*
X9791731Y-9978651D02*
X9801255Y-9997699D01*
X9801255Y-9997699D02*
X9801255Y-10007223D01*
X9801255Y-10007223D02*
X9791731Y-10026270D01*
X9791731Y-10026270D02*
X9782208Y-10035794D01*
X9782208Y-10035794D02*
X9763160Y-10045318D01*
X9763160Y-10045318D02*
X9725065Y-10045318D01*
X9725065Y-10045318D02*
X9706017Y-10054842D01*
X9706017Y-10054842D02*
X9696493Y-10064366D01*
X9696493Y-10064366D02*
X9686970Y-10083413D01*
X9686970Y-10083413D02*
X9686970Y-10121509D01*
X9686970Y-10121509D02*
X9696493Y-10140556D01*
X9696493Y-10140556D02*
X9706017Y-10150080D01*
X9706017Y-10150080D02*
X9725065Y-10159604D01*
X9725065Y-10159604D02*
X9763160Y-10159604D01*
X9763160Y-10159604D02*
X9782208Y-10150080D01*
X9782208Y-10150080D02*
X9791731Y-10140556D01*
X9791731Y-10140556D02*
X9801255Y-10121509D01*
X9801255Y-10121509D02*
X9801255Y-10083413D01*
X9801255Y-10083413D02*
X9791731Y-10064366D01*
X9791731Y-10064366D02*
X9782208Y-10054842D01*
X9782208Y-10054842D02*
X9763160Y-10045318D01*
X9972684Y-9959604D02*
X9934589Y-9959604D01*
X9934589Y-9959604D02*
X9915541Y-9969128D01*
X9915541Y-9969128D02*
X9906017Y-9978651D01*
X9906017Y-9978651D02*
X9886970Y-10007223D01*
X9886970Y-10007223D02*
X9877446Y-10045318D01*
X9877446Y-10045318D02*
X9877446Y-10121509D01*
X9877446Y-10121509D02*
X9886970Y-10140556D01*
X9886970Y-10140556D02*
X9896493Y-10150080D01*
X9896493Y-10150080D02*
X9915541Y-10159604D01*
X9915541Y-10159604D02*
X9953636Y-10159604D01*
X9953636Y-10159604D02*
X9972684Y-10150080D01*
X9972684Y-10150080D02*
X9982208Y-10140556D01*
X9982208Y-10140556D02*
X9991731Y-10121509D01*
X9991731Y-10121509D02*
X9991731Y-10073890D01*
X9991731Y-10073890D02*
X9982208Y-10054842D01*
X9982208Y-10054842D02*
X9972684Y-10045318D01*
X9972684Y-10045318D02*
X9953636Y-10035794D01*
X9953636Y-10035794D02*
X9915541Y-10035794D01*
X9915541Y-10035794D02*
X9896493Y-10045318D01*
X9896493Y-10045318D02*
X9886970Y-10054842D01*
X9886970Y-10054842D02*
X9877446Y-10073890D01*
X10229827Y-10159604D02*
X10229827Y-9959604D01*
X10315541Y-10159604D02*
X10315541Y-10054842D01*
X10315541Y-10054842D02*
X10306017Y-10035794D01*
X10306017Y-10035794D02*
X10286970Y-10026270D01*
X10286970Y-10026270D02*
X10258398Y-10026270D01*
X10258398Y-10026270D02*
X10239351Y-10035794D01*
X10239351Y-10035794D02*
X10229827Y-10045318D01*
X10439351Y-10159604D02*
X10420303Y-10150080D01*
X10420303Y-10150080D02*
X10410779Y-10140556D01*
X10410779Y-10140556D02*
X10401255Y-10121509D01*
X10401255Y-10121509D02*
X10401255Y-10064366D01*
X10401255Y-10064366D02*
X10410779Y-10045318D01*
X10410779Y-10045318D02*
X10420303Y-10035794D01*
X10420303Y-10035794D02*
X10439351Y-10026270D01*
X10439351Y-10026270D02*
X10467922Y-10026270D01*
X10467922Y-10026270D02*
X10486970Y-10035794D01*
X10486970Y-10035794D02*
X10496493Y-10045318D01*
X10496493Y-10045318D02*
X10506017Y-10064366D01*
X10506017Y-10064366D02*
X10506017Y-10121509D01*
X10506017Y-10121509D02*
X10496493Y-10140556D01*
X10496493Y-10140556D02*
X10486970Y-10150080D01*
X10486970Y-10150080D02*
X10467922Y-10159604D01*
X10467922Y-10159604D02*
X10439351Y-10159604D01*
X10620303Y-10159604D02*
X10601255Y-10150080D01*
X10601255Y-10150080D02*
X10591732Y-10131032D01*
X10591732Y-10131032D02*
X10591732Y-9959604D01*
X10772684Y-10150080D02*
X10753636Y-10159604D01*
X10753636Y-10159604D02*
X10715541Y-10159604D01*
X10715541Y-10159604D02*
X10696493Y-10150080D01*
X10696493Y-10150080D02*
X10686970Y-10131032D01*
X10686970Y-10131032D02*
X10686970Y-10054842D01*
X10686970Y-10054842D02*
X10696493Y-10035794D01*
X10696493Y-10035794D02*
X10715541Y-10026270D01*
X10715541Y-10026270D02*
X10753636Y-10026270D01*
X10753636Y-10026270D02*
X10772684Y-10035794D01*
X10772684Y-10035794D02*
X10782208Y-10054842D01*
X10782208Y-10054842D02*
X10782208Y-10073890D01*
X10782208Y-10073890D02*
X10686970Y-10092937D01*
X10858398Y-10150080D02*
X10877446Y-10159604D01*
X10877446Y-10159604D02*
X10915541Y-10159604D01*
X10915541Y-10159604D02*
X10934589Y-10150080D01*
X10934589Y-10150080D02*
X10944113Y-10131032D01*
X10944113Y-10131032D02*
X10944113Y-10121509D01*
X10944113Y-10121509D02*
X10934589Y-10102461D01*
X10934589Y-10102461D02*
X10915541Y-10092937D01*
X10915541Y-10092937D02*
X10886970Y-10092937D01*
X10886970Y-10092937D02*
X10867922Y-10083413D01*
X10867922Y-10083413D02*
X10858398Y-10064366D01*
X10858398Y-10064366D02*
X10858398Y-10054842D01*
X10858398Y-10054842D02*
X10867922Y-10035794D01*
X10867922Y-10035794D02*
X10886970Y-10026270D01*
X10886970Y-10026270D02*
X10915541Y-10026270D01*
X10915541Y-10026270D02*
X10934589Y-10035794D01*
X11010779Y-10235794D02*
X11020303Y-10226270D01*
X11020303Y-10226270D02*
X11039351Y-10197699D01*
X11039351Y-10197699D02*
X11048874Y-10178651D01*
X11048874Y-10178651D02*
X11058398Y-10150080D01*
X11058398Y-10150080D02*
X11067922Y-10102461D01*
X11067922Y-10102461D02*
X11067922Y-10064366D01*
X11067922Y-10064366D02*
X11058398Y-10016747D01*
X11058398Y-10016747D02*
X11048874Y-9988175D01*
X11048874Y-9988175D02*
X11039351Y-9969128D01*
X11039351Y-9969128D02*
X11020303Y-9940556D01*
X11020303Y-9940556D02*
X11010779Y-9931032D01*
D15*
X6029131Y-10371011D02*
X6029131Y-10293229D01*
X5951349Y-10293229D01*
X5951349Y-10371011D01*
X6029131Y-10371011D01*
D11*
X6410779Y-10423604D02*
X6296493Y-10423604D01*
X6353636Y-10423604D02*
X6353636Y-10223604D01*
X6353636Y-10223604D02*
X6334588Y-10252175D01*
X6334588Y-10252175D02*
X6315541Y-10271223D01*
X6315541Y-10271223D02*
X6296493Y-10280747D01*
X6496493Y-10404556D02*
X6506017Y-10414080D01*
X6506017Y-10414080D02*
X6496493Y-10423604D01*
X6496493Y-10423604D02*
X6486969Y-10414080D01*
X6486969Y-10414080D02*
X6496493Y-10404556D01*
X6496493Y-10404556D02*
X6496493Y-10423604D01*
X6696493Y-10423604D02*
X6582207Y-10423604D01*
X6639350Y-10423604D02*
X6639350Y-10223604D01*
X6639350Y-10223604D02*
X6620302Y-10252175D01*
X6620302Y-10252175D02*
X6601255Y-10271223D01*
X6601255Y-10271223D02*
X6582207Y-10280747D01*
X6820302Y-10223604D02*
X6839350Y-10223604D01*
X6839350Y-10223604D02*
X6858398Y-10233128D01*
X6858398Y-10233128D02*
X6867922Y-10242651D01*
X6867922Y-10242651D02*
X6877445Y-10261699D01*
X6877445Y-10261699D02*
X6886969Y-10299794D01*
X6886969Y-10299794D02*
X6886969Y-10347413D01*
X6886969Y-10347413D02*
X6877445Y-10385509D01*
X6877445Y-10385509D02*
X6867922Y-10404556D01*
X6867922Y-10404556D02*
X6858398Y-10414080D01*
X6858398Y-10414080D02*
X6839350Y-10423604D01*
X6839350Y-10423604D02*
X6820302Y-10423604D01*
X6820302Y-10423604D02*
X6801255Y-10414080D01*
X6801255Y-10414080D02*
X6791731Y-10404556D01*
X6791731Y-10404556D02*
X6782207Y-10385509D01*
X6782207Y-10385509D02*
X6772683Y-10347413D01*
X6772683Y-10347413D02*
X6772683Y-10299794D01*
X6772683Y-10299794D02*
X6782207Y-10261699D01*
X6782207Y-10261699D02*
X6791731Y-10242651D01*
X6791731Y-10242651D02*
X6801255Y-10233128D01*
X6801255Y-10233128D02*
X6820302Y-10223604D01*
X7010779Y-10223604D02*
X7029826Y-10223604D01*
X7029826Y-10223604D02*
X7048874Y-10233128D01*
X7048874Y-10233128D02*
X7058398Y-10242651D01*
X7058398Y-10242651D02*
X7067922Y-10261699D01*
X7067922Y-10261699D02*
X7077445Y-10299794D01*
X7077445Y-10299794D02*
X7077445Y-10347413D01*
X7077445Y-10347413D02*
X7067922Y-10385509D01*
X7067922Y-10385509D02*
X7058398Y-10404556D01*
X7058398Y-10404556D02*
X7048874Y-10414080D01*
X7048874Y-10414080D02*
X7029826Y-10423604D01*
X7029826Y-10423604D02*
X7010779Y-10423604D01*
X7010779Y-10423604D02*
X6991731Y-10414080D01*
X6991731Y-10414080D02*
X6982207Y-10404556D01*
X6982207Y-10404556D02*
X6972683Y-10385509D01*
X6972683Y-10385509D02*
X6963160Y-10347413D01*
X6963160Y-10347413D02*
X6963160Y-10299794D01*
X6963160Y-10299794D02*
X6972683Y-10261699D01*
X6972683Y-10261699D02*
X6982207Y-10242651D01*
X6982207Y-10242651D02*
X6991731Y-10233128D01*
X6991731Y-10233128D02*
X7010779Y-10223604D01*
X7163160Y-10423604D02*
X7163160Y-10290270D01*
X7163160Y-10309318D02*
X7172683Y-10299794D01*
X7172683Y-10299794D02*
X7191731Y-10290270D01*
X7191731Y-10290270D02*
X7220303Y-10290270D01*
X7220303Y-10290270D02*
X7239350Y-10299794D01*
X7239350Y-10299794D02*
X7248874Y-10318842D01*
X7248874Y-10318842D02*
X7248874Y-10423604D01*
X7248874Y-10318842D02*
X7258398Y-10299794D01*
X7258398Y-10299794D02*
X7277445Y-10290270D01*
X7277445Y-10290270D02*
X7306017Y-10290270D01*
X7306017Y-10290270D02*
X7325064Y-10299794D01*
X7325064Y-10299794D02*
X7334588Y-10318842D01*
X7334588Y-10318842D02*
X7334588Y-10423604D01*
X7429826Y-10423604D02*
X7429826Y-10290270D01*
X7429826Y-10309318D02*
X7439350Y-10299794D01*
X7439350Y-10299794D02*
X7458398Y-10290270D01*
X7458398Y-10290270D02*
X7486969Y-10290270D01*
X7486969Y-10290270D02*
X7506017Y-10299794D01*
X7506017Y-10299794D02*
X7515541Y-10318842D01*
X7515541Y-10318842D02*
X7515541Y-10423604D01*
X7515541Y-10318842D02*
X7525064Y-10299794D01*
X7525064Y-10299794D02*
X7544112Y-10290270D01*
X7544112Y-10290270D02*
X7572683Y-10290270D01*
X7572683Y-10290270D02*
X7591731Y-10299794D01*
X7591731Y-10299794D02*
X7601255Y-10318842D01*
X7601255Y-10318842D02*
X7601255Y-10423604D01*
X7991731Y-10214080D02*
X7820303Y-10471223D01*
X8248874Y-10223604D02*
X8267922Y-10223604D01*
X8267922Y-10223604D02*
X8286969Y-10233128D01*
X8286969Y-10233128D02*
X8296493Y-10242651D01*
X8296493Y-10242651D02*
X8306017Y-10261699D01*
X8306017Y-10261699D02*
X8315541Y-10299794D01*
X8315541Y-10299794D02*
X8315541Y-10347413D01*
X8315541Y-10347413D02*
X8306017Y-10385509D01*
X8306017Y-10385509D02*
X8296493Y-10404556D01*
X8296493Y-10404556D02*
X8286969Y-10414080D01*
X8286969Y-10414080D02*
X8267922Y-10423604D01*
X8267922Y-10423604D02*
X8248874Y-10423604D01*
X8248874Y-10423604D02*
X8229826Y-10414080D01*
X8229826Y-10414080D02*
X8220303Y-10404556D01*
X8220303Y-10404556D02*
X8210779Y-10385509D01*
X8210779Y-10385509D02*
X8201255Y-10347413D01*
X8201255Y-10347413D02*
X8201255Y-10299794D01*
X8201255Y-10299794D02*
X8210779Y-10261699D01*
X8210779Y-10261699D02*
X8220303Y-10242651D01*
X8220303Y-10242651D02*
X8229826Y-10233128D01*
X8229826Y-10233128D02*
X8248874Y-10223604D01*
X8401255Y-10404556D02*
X8410779Y-10414080D01*
X8410779Y-10414080D02*
X8401255Y-10423604D01*
X8401255Y-10423604D02*
X8391731Y-10414080D01*
X8391731Y-10414080D02*
X8401255Y-10404556D01*
X8401255Y-10404556D02*
X8401255Y-10423604D01*
X8534588Y-10223604D02*
X8553636Y-10223604D01*
X8553636Y-10223604D02*
X8572684Y-10233128D01*
X8572684Y-10233128D02*
X8582208Y-10242651D01*
X8582208Y-10242651D02*
X8591731Y-10261699D01*
X8591731Y-10261699D02*
X8601255Y-10299794D01*
X8601255Y-10299794D02*
X8601255Y-10347413D01*
X8601255Y-10347413D02*
X8591731Y-10385509D01*
X8591731Y-10385509D02*
X8582208Y-10404556D01*
X8582208Y-10404556D02*
X8572684Y-10414080D01*
X8572684Y-10414080D02*
X8553636Y-10423604D01*
X8553636Y-10423604D02*
X8534588Y-10423604D01*
X8534588Y-10423604D02*
X8515541Y-10414080D01*
X8515541Y-10414080D02*
X8506017Y-10404556D01*
X8506017Y-10404556D02*
X8496493Y-10385509D01*
X8496493Y-10385509D02*
X8486969Y-10347413D01*
X8486969Y-10347413D02*
X8486969Y-10299794D01*
X8486969Y-10299794D02*
X8496493Y-10261699D01*
X8496493Y-10261699D02*
X8506017Y-10242651D01*
X8506017Y-10242651D02*
X8515541Y-10233128D01*
X8515541Y-10233128D02*
X8534588Y-10223604D01*
X8772684Y-10290270D02*
X8772684Y-10423604D01*
X8725065Y-10214080D02*
X8677446Y-10356937D01*
X8677446Y-10356937D02*
X8801255Y-10356937D01*
X8858398Y-10223604D02*
X8982208Y-10223604D01*
X8982208Y-10223604D02*
X8915541Y-10299794D01*
X8915541Y-10299794D02*
X8944112Y-10299794D01*
X8944112Y-10299794D02*
X8963160Y-10309318D01*
X8963160Y-10309318D02*
X8972684Y-10318842D01*
X8972684Y-10318842D02*
X8982208Y-10337890D01*
X8982208Y-10337890D02*
X8982208Y-10385509D01*
X8982208Y-10385509D02*
X8972684Y-10404556D01*
X8972684Y-10404556D02*
X8963160Y-10414080D01*
X8963160Y-10414080D02*
X8944112Y-10423604D01*
X8944112Y-10423604D02*
X8886969Y-10423604D01*
X8886969Y-10423604D02*
X8867922Y-10414080D01*
X8867922Y-10414080D02*
X8858398Y-10404556D01*
X9048874Y-10223604D02*
X9172684Y-10223604D01*
X9172684Y-10223604D02*
X9106017Y-10299794D01*
X9106017Y-10299794D02*
X9134589Y-10299794D01*
X9134589Y-10299794D02*
X9153636Y-10309318D01*
X9153636Y-10309318D02*
X9163160Y-10318842D01*
X9163160Y-10318842D02*
X9172684Y-10337890D01*
X9172684Y-10337890D02*
X9172684Y-10385509D01*
X9172684Y-10385509D02*
X9163160Y-10404556D01*
X9163160Y-10404556D02*
X9153636Y-10414080D01*
X9153636Y-10414080D02*
X9134589Y-10423604D01*
X9134589Y-10423604D02*
X9077446Y-10423604D01*
X9077446Y-10423604D02*
X9058398Y-10414080D01*
X9058398Y-10414080D02*
X9048874Y-10404556D01*
X9248874Y-10223604D02*
X9248874Y-10261699D01*
X9325065Y-10223604D02*
X9325065Y-10261699D01*
X9620303Y-10499794D02*
X9610779Y-10490270D01*
X9610779Y-10490270D02*
X9591731Y-10461699D01*
X9591731Y-10461699D02*
X9582208Y-10442651D01*
X9582208Y-10442651D02*
X9572684Y-10414080D01*
X9572684Y-10414080D02*
X9563160Y-10366461D01*
X9563160Y-10366461D02*
X9563160Y-10328366D01*
X9563160Y-10328366D02*
X9572684Y-10280747D01*
X9572684Y-10280747D02*
X9582208Y-10252175D01*
X9582208Y-10252175D02*
X9591731Y-10233128D01*
X9591731Y-10233128D02*
X9610779Y-10204556D01*
X9610779Y-10204556D02*
X9620303Y-10195032D01*
X9801255Y-10423604D02*
X9686970Y-10423604D01*
X9744112Y-10423604D02*
X9744112Y-10223604D01*
X9744112Y-10223604D02*
X9725065Y-10252175D01*
X9725065Y-10252175D02*
X9706017Y-10271223D01*
X9706017Y-10271223D02*
X9686970Y-10280747D01*
X9877446Y-10242651D02*
X9886970Y-10233128D01*
X9886970Y-10233128D02*
X9906017Y-10223604D01*
X9906017Y-10223604D02*
X9953636Y-10223604D01*
X9953636Y-10223604D02*
X9972684Y-10233128D01*
X9972684Y-10233128D02*
X9982208Y-10242651D01*
X9982208Y-10242651D02*
X9991731Y-10261699D01*
X9991731Y-10261699D02*
X9991731Y-10280747D01*
X9991731Y-10280747D02*
X9982208Y-10309318D01*
X9982208Y-10309318D02*
X9867922Y-10423604D01*
X9867922Y-10423604D02*
X9991731Y-10423604D01*
X10229827Y-10423604D02*
X10229827Y-10223604D01*
X10315541Y-10423604D02*
X10315541Y-10318842D01*
X10315541Y-10318842D02*
X10306017Y-10299794D01*
X10306017Y-10299794D02*
X10286970Y-10290270D01*
X10286970Y-10290270D02*
X10258398Y-10290270D01*
X10258398Y-10290270D02*
X10239351Y-10299794D01*
X10239351Y-10299794D02*
X10229827Y-10309318D01*
X10439351Y-10423604D02*
X10420303Y-10414080D01*
X10420303Y-10414080D02*
X10410779Y-10404556D01*
X10410779Y-10404556D02*
X10401255Y-10385509D01*
X10401255Y-10385509D02*
X10401255Y-10328366D01*
X10401255Y-10328366D02*
X10410779Y-10309318D01*
X10410779Y-10309318D02*
X10420303Y-10299794D01*
X10420303Y-10299794D02*
X10439351Y-10290270D01*
X10439351Y-10290270D02*
X10467922Y-10290270D01*
X10467922Y-10290270D02*
X10486970Y-10299794D01*
X10486970Y-10299794D02*
X10496493Y-10309318D01*
X10496493Y-10309318D02*
X10506017Y-10328366D01*
X10506017Y-10328366D02*
X10506017Y-10385509D01*
X10506017Y-10385509D02*
X10496493Y-10404556D01*
X10496493Y-10404556D02*
X10486970Y-10414080D01*
X10486970Y-10414080D02*
X10467922Y-10423604D01*
X10467922Y-10423604D02*
X10439351Y-10423604D01*
X10620303Y-10423604D02*
X10601255Y-10414080D01*
X10601255Y-10414080D02*
X10591732Y-10395032D01*
X10591732Y-10395032D02*
X10591732Y-10223604D01*
X10772684Y-10414080D02*
X10753636Y-10423604D01*
X10753636Y-10423604D02*
X10715541Y-10423604D01*
X10715541Y-10423604D02*
X10696493Y-10414080D01*
X10696493Y-10414080D02*
X10686970Y-10395032D01*
X10686970Y-10395032D02*
X10686970Y-10318842D01*
X10686970Y-10318842D02*
X10696493Y-10299794D01*
X10696493Y-10299794D02*
X10715541Y-10290270D01*
X10715541Y-10290270D02*
X10753636Y-10290270D01*
X10753636Y-10290270D02*
X10772684Y-10299794D01*
X10772684Y-10299794D02*
X10782208Y-10318842D01*
X10782208Y-10318842D02*
X10782208Y-10337890D01*
X10782208Y-10337890D02*
X10686970Y-10356937D01*
X10858398Y-10414080D02*
X10877446Y-10423604D01*
X10877446Y-10423604D02*
X10915541Y-10423604D01*
X10915541Y-10423604D02*
X10934589Y-10414080D01*
X10934589Y-10414080D02*
X10944113Y-10395032D01*
X10944113Y-10395032D02*
X10944113Y-10385509D01*
X10944113Y-10385509D02*
X10934589Y-10366461D01*
X10934589Y-10366461D02*
X10915541Y-10356937D01*
X10915541Y-10356937D02*
X10886970Y-10356937D01*
X10886970Y-10356937D02*
X10867922Y-10347413D01*
X10867922Y-10347413D02*
X10858398Y-10328366D01*
X10858398Y-10328366D02*
X10858398Y-10318842D01*
X10858398Y-10318842D02*
X10867922Y-10299794D01*
X10867922Y-10299794D02*
X10886970Y-10290270D01*
X10886970Y-10290270D02*
X10915541Y-10290270D01*
X10915541Y-10290270D02*
X10934589Y-10299794D01*
X11010779Y-10499794D02*
X11020303Y-10490270D01*
X11020303Y-10490270D02*
X11039351Y-10461699D01*
X11039351Y-10461699D02*
X11048874Y-10442651D01*
X11048874Y-10442651D02*
X11058398Y-10414080D01*
X11058398Y-10414080D02*
X11067922Y-10366461D01*
X11067922Y-10366461D02*
X11067922Y-10328366D01*
X11067922Y-10328366D02*
X11058398Y-10280747D01*
X11058398Y-10280747D02*
X11048874Y-10252175D01*
X11048874Y-10252175D02*
X11039351Y-10233128D01*
X11039351Y-10233128D02*
X11020303Y-10204556D01*
X11020303Y-10204556D02*
X11010779Y-10195032D01*
D16*
X5985240Y-10656120D02*
X6045240Y-10596120D01*
X5985240Y-10536120D01*
X5925240Y-10596120D01*
X5985240Y-10656120D01*
D11*
X6410779Y-10687604D02*
X6296493Y-10687604D01*
X6353636Y-10687604D02*
X6353636Y-10487604D01*
X6353636Y-10487604D02*
X6334588Y-10516175D01*
X6334588Y-10516175D02*
X6315541Y-10535223D01*
X6315541Y-10535223D02*
X6296493Y-10544747D01*
X6496493Y-10668556D02*
X6506017Y-10678080D01*
X6506017Y-10678080D02*
X6496493Y-10687604D01*
X6496493Y-10687604D02*
X6486969Y-10678080D01*
X6486969Y-10678080D02*
X6496493Y-10668556D01*
X6496493Y-10668556D02*
X6496493Y-10687604D01*
X6582207Y-10506651D02*
X6591731Y-10497128D01*
X6591731Y-10497128D02*
X6610779Y-10487604D01*
X6610779Y-10487604D02*
X6658398Y-10487604D01*
X6658398Y-10487604D02*
X6677445Y-10497128D01*
X6677445Y-10497128D02*
X6686969Y-10506651D01*
X6686969Y-10506651D02*
X6696493Y-10525699D01*
X6696493Y-10525699D02*
X6696493Y-10544747D01*
X6696493Y-10544747D02*
X6686969Y-10573318D01*
X6686969Y-10573318D02*
X6572683Y-10687604D01*
X6572683Y-10687604D02*
X6696493Y-10687604D01*
X6820302Y-10487604D02*
X6839350Y-10487604D01*
X6839350Y-10487604D02*
X6858398Y-10497128D01*
X6858398Y-10497128D02*
X6867922Y-10506651D01*
X6867922Y-10506651D02*
X6877445Y-10525699D01*
X6877445Y-10525699D02*
X6886969Y-10563794D01*
X6886969Y-10563794D02*
X6886969Y-10611413D01*
X6886969Y-10611413D02*
X6877445Y-10649509D01*
X6877445Y-10649509D02*
X6867922Y-10668556D01*
X6867922Y-10668556D02*
X6858398Y-10678080D01*
X6858398Y-10678080D02*
X6839350Y-10687604D01*
X6839350Y-10687604D02*
X6820302Y-10687604D01*
X6820302Y-10687604D02*
X6801255Y-10678080D01*
X6801255Y-10678080D02*
X6791731Y-10668556D01*
X6791731Y-10668556D02*
X6782207Y-10649509D01*
X6782207Y-10649509D02*
X6772683Y-10611413D01*
X6772683Y-10611413D02*
X6772683Y-10563794D01*
X6772683Y-10563794D02*
X6782207Y-10525699D01*
X6782207Y-10525699D02*
X6791731Y-10506651D01*
X6791731Y-10506651D02*
X6801255Y-10497128D01*
X6801255Y-10497128D02*
X6820302Y-10487604D01*
X7010779Y-10487604D02*
X7029826Y-10487604D01*
X7029826Y-10487604D02*
X7048874Y-10497128D01*
X7048874Y-10497128D02*
X7058398Y-10506651D01*
X7058398Y-10506651D02*
X7067922Y-10525699D01*
X7067922Y-10525699D02*
X7077445Y-10563794D01*
X7077445Y-10563794D02*
X7077445Y-10611413D01*
X7077445Y-10611413D02*
X7067922Y-10649509D01*
X7067922Y-10649509D02*
X7058398Y-10668556D01*
X7058398Y-10668556D02*
X7048874Y-10678080D01*
X7048874Y-10678080D02*
X7029826Y-10687604D01*
X7029826Y-10687604D02*
X7010779Y-10687604D01*
X7010779Y-10687604D02*
X6991731Y-10678080D01*
X6991731Y-10678080D02*
X6982207Y-10668556D01*
X6982207Y-10668556D02*
X6972683Y-10649509D01*
X6972683Y-10649509D02*
X6963160Y-10611413D01*
X6963160Y-10611413D02*
X6963160Y-10563794D01*
X6963160Y-10563794D02*
X6972683Y-10525699D01*
X6972683Y-10525699D02*
X6982207Y-10506651D01*
X6982207Y-10506651D02*
X6991731Y-10497128D01*
X6991731Y-10497128D02*
X7010779Y-10487604D01*
X7163160Y-10687604D02*
X7163160Y-10554270D01*
X7163160Y-10573318D02*
X7172683Y-10563794D01*
X7172683Y-10563794D02*
X7191731Y-10554270D01*
X7191731Y-10554270D02*
X7220303Y-10554270D01*
X7220303Y-10554270D02*
X7239350Y-10563794D01*
X7239350Y-10563794D02*
X7248874Y-10582842D01*
X7248874Y-10582842D02*
X7248874Y-10687604D01*
X7248874Y-10582842D02*
X7258398Y-10563794D01*
X7258398Y-10563794D02*
X7277445Y-10554270D01*
X7277445Y-10554270D02*
X7306017Y-10554270D01*
X7306017Y-10554270D02*
X7325064Y-10563794D01*
X7325064Y-10563794D02*
X7334588Y-10582842D01*
X7334588Y-10582842D02*
X7334588Y-10687604D01*
X7429826Y-10687604D02*
X7429826Y-10554270D01*
X7429826Y-10573318D02*
X7439350Y-10563794D01*
X7439350Y-10563794D02*
X7458398Y-10554270D01*
X7458398Y-10554270D02*
X7486969Y-10554270D01*
X7486969Y-10554270D02*
X7506017Y-10563794D01*
X7506017Y-10563794D02*
X7515541Y-10582842D01*
X7515541Y-10582842D02*
X7515541Y-10687604D01*
X7515541Y-10582842D02*
X7525064Y-10563794D01*
X7525064Y-10563794D02*
X7544112Y-10554270D01*
X7544112Y-10554270D02*
X7572683Y-10554270D01*
X7572683Y-10554270D02*
X7591731Y-10563794D01*
X7591731Y-10563794D02*
X7601255Y-10582842D01*
X7601255Y-10582842D02*
X7601255Y-10687604D01*
X7991731Y-10478080D02*
X7820303Y-10735223D01*
X8248874Y-10487604D02*
X8267922Y-10487604D01*
X8267922Y-10487604D02*
X8286969Y-10497128D01*
X8286969Y-10497128D02*
X8296493Y-10506651D01*
X8296493Y-10506651D02*
X8306017Y-10525699D01*
X8306017Y-10525699D02*
X8315541Y-10563794D01*
X8315541Y-10563794D02*
X8315541Y-10611413D01*
X8315541Y-10611413D02*
X8306017Y-10649509D01*
X8306017Y-10649509D02*
X8296493Y-10668556D01*
X8296493Y-10668556D02*
X8286969Y-10678080D01*
X8286969Y-10678080D02*
X8267922Y-10687604D01*
X8267922Y-10687604D02*
X8248874Y-10687604D01*
X8248874Y-10687604D02*
X8229826Y-10678080D01*
X8229826Y-10678080D02*
X8220303Y-10668556D01*
X8220303Y-10668556D02*
X8210779Y-10649509D01*
X8210779Y-10649509D02*
X8201255Y-10611413D01*
X8201255Y-10611413D02*
X8201255Y-10563794D01*
X8201255Y-10563794D02*
X8210779Y-10525699D01*
X8210779Y-10525699D02*
X8220303Y-10506651D01*
X8220303Y-10506651D02*
X8229826Y-10497128D01*
X8229826Y-10497128D02*
X8248874Y-10487604D01*
X8401255Y-10668556D02*
X8410779Y-10678080D01*
X8410779Y-10678080D02*
X8401255Y-10687604D01*
X8401255Y-10687604D02*
X8391731Y-10678080D01*
X8391731Y-10678080D02*
X8401255Y-10668556D01*
X8401255Y-10668556D02*
X8401255Y-10687604D01*
X8534588Y-10487604D02*
X8553636Y-10487604D01*
X8553636Y-10487604D02*
X8572684Y-10497128D01*
X8572684Y-10497128D02*
X8582208Y-10506651D01*
X8582208Y-10506651D02*
X8591731Y-10525699D01*
X8591731Y-10525699D02*
X8601255Y-10563794D01*
X8601255Y-10563794D02*
X8601255Y-10611413D01*
X8601255Y-10611413D02*
X8591731Y-10649509D01*
X8591731Y-10649509D02*
X8582208Y-10668556D01*
X8582208Y-10668556D02*
X8572684Y-10678080D01*
X8572684Y-10678080D02*
X8553636Y-10687604D01*
X8553636Y-10687604D02*
X8534588Y-10687604D01*
X8534588Y-10687604D02*
X8515541Y-10678080D01*
X8515541Y-10678080D02*
X8506017Y-10668556D01*
X8506017Y-10668556D02*
X8496493Y-10649509D01*
X8496493Y-10649509D02*
X8486969Y-10611413D01*
X8486969Y-10611413D02*
X8486969Y-10563794D01*
X8486969Y-10563794D02*
X8496493Y-10525699D01*
X8496493Y-10525699D02*
X8506017Y-10506651D01*
X8506017Y-10506651D02*
X8515541Y-10497128D01*
X8515541Y-10497128D02*
X8534588Y-10487604D01*
X8772684Y-10554270D02*
X8772684Y-10687604D01*
X8725065Y-10478080D02*
X8677446Y-10620937D01*
X8677446Y-10620937D02*
X8801255Y-10620937D01*
X8858398Y-10487604D02*
X8991731Y-10487604D01*
X8991731Y-10487604D02*
X8906017Y-10687604D01*
X9058398Y-10506651D02*
X9067922Y-10497128D01*
X9067922Y-10497128D02*
X9086969Y-10487604D01*
X9086969Y-10487604D02*
X9134589Y-10487604D01*
X9134589Y-10487604D02*
X9153636Y-10497128D01*
X9153636Y-10497128D02*
X9163160Y-10506651D01*
X9163160Y-10506651D02*
X9172684Y-10525699D01*
X9172684Y-10525699D02*
X9172684Y-10544747D01*
X9172684Y-10544747D02*
X9163160Y-10573318D01*
X9163160Y-10573318D02*
X9048874Y-10687604D01*
X9048874Y-10687604D02*
X9172684Y-10687604D01*
X9248874Y-10487604D02*
X9248874Y-10525699D01*
X9325065Y-10487604D02*
X9325065Y-10525699D01*
X9620303Y-10763794D02*
X9610779Y-10754270D01*
X9610779Y-10754270D02*
X9591731Y-10725699D01*
X9591731Y-10725699D02*
X9582208Y-10706651D01*
X9582208Y-10706651D02*
X9572684Y-10678080D01*
X9572684Y-10678080D02*
X9563160Y-10630461D01*
X9563160Y-10630461D02*
X9563160Y-10592366D01*
X9563160Y-10592366D02*
X9572684Y-10544747D01*
X9572684Y-10544747D02*
X9582208Y-10516175D01*
X9582208Y-10516175D02*
X9591731Y-10497128D01*
X9591731Y-10497128D02*
X9610779Y-10468556D01*
X9610779Y-10468556D02*
X9620303Y-10459032D01*
X9686970Y-10506651D02*
X9696493Y-10497128D01*
X9696493Y-10497128D02*
X9715541Y-10487604D01*
X9715541Y-10487604D02*
X9763160Y-10487604D01*
X9763160Y-10487604D02*
X9782208Y-10497128D01*
X9782208Y-10497128D02*
X9791731Y-10506651D01*
X9791731Y-10506651D02*
X9801255Y-10525699D01*
X9801255Y-10525699D02*
X9801255Y-10544747D01*
X9801255Y-10544747D02*
X9791731Y-10573318D01*
X9791731Y-10573318D02*
X9677446Y-10687604D01*
X9677446Y-10687604D02*
X9801255Y-10687604D01*
X10039351Y-10687604D02*
X10039351Y-10487604D01*
X10125065Y-10687604D02*
X10125065Y-10582842D01*
X10125065Y-10582842D02*
X10115541Y-10563794D01*
X10115541Y-10563794D02*
X10096493Y-10554270D01*
X10096493Y-10554270D02*
X10067922Y-10554270D01*
X10067922Y-10554270D02*
X10048874Y-10563794D01*
X10048874Y-10563794D02*
X10039351Y-10573318D01*
X10248874Y-10687604D02*
X10229827Y-10678080D01*
X10229827Y-10678080D02*
X10220303Y-10668556D01*
X10220303Y-10668556D02*
X10210779Y-10649509D01*
X10210779Y-10649509D02*
X10210779Y-10592366D01*
X10210779Y-10592366D02*
X10220303Y-10573318D01*
X10220303Y-10573318D02*
X10229827Y-10563794D01*
X10229827Y-10563794D02*
X10248874Y-10554270D01*
X10248874Y-10554270D02*
X10277446Y-10554270D01*
X10277446Y-10554270D02*
X10296493Y-10563794D01*
X10296493Y-10563794D02*
X10306017Y-10573318D01*
X10306017Y-10573318D02*
X10315541Y-10592366D01*
X10315541Y-10592366D02*
X10315541Y-10649509D01*
X10315541Y-10649509D02*
X10306017Y-10668556D01*
X10306017Y-10668556D02*
X10296493Y-10678080D01*
X10296493Y-10678080D02*
X10277446Y-10687604D01*
X10277446Y-10687604D02*
X10248874Y-10687604D01*
X10429827Y-10687604D02*
X10410779Y-10678080D01*
X10410779Y-10678080D02*
X10401255Y-10659032D01*
X10401255Y-10659032D02*
X10401255Y-10487604D01*
X10582208Y-10678080D02*
X10563160Y-10687604D01*
X10563160Y-10687604D02*
X10525065Y-10687604D01*
X10525065Y-10687604D02*
X10506017Y-10678080D01*
X10506017Y-10678080D02*
X10496493Y-10659032D01*
X10496493Y-10659032D02*
X10496493Y-10582842D01*
X10496493Y-10582842D02*
X10506017Y-10563794D01*
X10506017Y-10563794D02*
X10525065Y-10554270D01*
X10525065Y-10554270D02*
X10563160Y-10554270D01*
X10563160Y-10554270D02*
X10582208Y-10563794D01*
X10582208Y-10563794D02*
X10591732Y-10582842D01*
X10591732Y-10582842D02*
X10591732Y-10601890D01*
X10591732Y-10601890D02*
X10496493Y-10620937D01*
X10667922Y-10678080D02*
X10686970Y-10687604D01*
X10686970Y-10687604D02*
X10725065Y-10687604D01*
X10725065Y-10687604D02*
X10744113Y-10678080D01*
X10744113Y-10678080D02*
X10753636Y-10659032D01*
X10753636Y-10659032D02*
X10753636Y-10649509D01*
X10753636Y-10649509D02*
X10744113Y-10630461D01*
X10744113Y-10630461D02*
X10725065Y-10620937D01*
X10725065Y-10620937D02*
X10696493Y-10620937D01*
X10696493Y-10620937D02*
X10677446Y-10611413D01*
X10677446Y-10611413D02*
X10667922Y-10592366D01*
X10667922Y-10592366D02*
X10667922Y-10582842D01*
X10667922Y-10582842D02*
X10677446Y-10563794D01*
X10677446Y-10563794D02*
X10696493Y-10554270D01*
X10696493Y-10554270D02*
X10725065Y-10554270D01*
X10725065Y-10554270D02*
X10744113Y-10563794D01*
X10820303Y-10763794D02*
X10829827Y-10754270D01*
X10829827Y-10754270D02*
X10848874Y-10725699D01*
X10848874Y-10725699D02*
X10858398Y-10706651D01*
X10858398Y-10706651D02*
X10867922Y-10678080D01*
X10867922Y-10678080D02*
X10877446Y-10630461D01*
X10877446Y-10630461D02*
X10877446Y-10592366D01*
X10877446Y-10592366D02*
X10867922Y-10544747D01*
X10867922Y-10544747D02*
X10858398Y-10516175D01*
X10858398Y-10516175D02*
X10848874Y-10497128D01*
X10848874Y-10497128D02*
X10829827Y-10468556D01*
X10829827Y-10468556D02*
X10820303Y-10459032D01*
D17*
X5915240Y-10795120D02*
X6045240Y-10925120D01*
X6045240Y-10795120D02*
X5915240Y-10925120D01*
X6045240Y-10860120D02*
G75*
G03*
X6045240Y-10860120I-65000J0D01*
G01*
D11*
X6410779Y-10951604D02*
X6296493Y-10951604D01*
X6353636Y-10951604D02*
X6353636Y-10751604D01*
X6353636Y-10751604D02*
X6334588Y-10780175D01*
X6334588Y-10780175D02*
X6315541Y-10799223D01*
X6315541Y-10799223D02*
X6296493Y-10808747D01*
X6496493Y-10932556D02*
X6506017Y-10942080D01*
X6506017Y-10942080D02*
X6496493Y-10951604D01*
X6496493Y-10951604D02*
X6486969Y-10942080D01*
X6486969Y-10942080D02*
X6496493Y-10932556D01*
X6496493Y-10932556D02*
X6496493Y-10951604D01*
X6572683Y-10751604D02*
X6696493Y-10751604D01*
X6696493Y-10751604D02*
X6629826Y-10827794D01*
X6629826Y-10827794D02*
X6658398Y-10827794D01*
X6658398Y-10827794D02*
X6677445Y-10837318D01*
X6677445Y-10837318D02*
X6686969Y-10846842D01*
X6686969Y-10846842D02*
X6696493Y-10865890D01*
X6696493Y-10865890D02*
X6696493Y-10913509D01*
X6696493Y-10913509D02*
X6686969Y-10932556D01*
X6686969Y-10932556D02*
X6677445Y-10942080D01*
X6677445Y-10942080D02*
X6658398Y-10951604D01*
X6658398Y-10951604D02*
X6601255Y-10951604D01*
X6601255Y-10951604D02*
X6582207Y-10942080D01*
X6582207Y-10942080D02*
X6572683Y-10932556D01*
X6820302Y-10751604D02*
X6839350Y-10751604D01*
X6839350Y-10751604D02*
X6858398Y-10761128D01*
X6858398Y-10761128D02*
X6867922Y-10770651D01*
X6867922Y-10770651D02*
X6877445Y-10789699D01*
X6877445Y-10789699D02*
X6886969Y-10827794D01*
X6886969Y-10827794D02*
X6886969Y-10875413D01*
X6886969Y-10875413D02*
X6877445Y-10913509D01*
X6877445Y-10913509D02*
X6867922Y-10932556D01*
X6867922Y-10932556D02*
X6858398Y-10942080D01*
X6858398Y-10942080D02*
X6839350Y-10951604D01*
X6839350Y-10951604D02*
X6820302Y-10951604D01*
X6820302Y-10951604D02*
X6801255Y-10942080D01*
X6801255Y-10942080D02*
X6791731Y-10932556D01*
X6791731Y-10932556D02*
X6782207Y-10913509D01*
X6782207Y-10913509D02*
X6772683Y-10875413D01*
X6772683Y-10875413D02*
X6772683Y-10827794D01*
X6772683Y-10827794D02*
X6782207Y-10789699D01*
X6782207Y-10789699D02*
X6791731Y-10770651D01*
X6791731Y-10770651D02*
X6801255Y-10761128D01*
X6801255Y-10761128D02*
X6820302Y-10751604D01*
X7010779Y-10751604D02*
X7029826Y-10751604D01*
X7029826Y-10751604D02*
X7048874Y-10761128D01*
X7048874Y-10761128D02*
X7058398Y-10770651D01*
X7058398Y-10770651D02*
X7067922Y-10789699D01*
X7067922Y-10789699D02*
X7077445Y-10827794D01*
X7077445Y-10827794D02*
X7077445Y-10875413D01*
X7077445Y-10875413D02*
X7067922Y-10913509D01*
X7067922Y-10913509D02*
X7058398Y-10932556D01*
X7058398Y-10932556D02*
X7048874Y-10942080D01*
X7048874Y-10942080D02*
X7029826Y-10951604D01*
X7029826Y-10951604D02*
X7010779Y-10951604D01*
X7010779Y-10951604D02*
X6991731Y-10942080D01*
X6991731Y-10942080D02*
X6982207Y-10932556D01*
X6982207Y-10932556D02*
X6972683Y-10913509D01*
X6972683Y-10913509D02*
X6963160Y-10875413D01*
X6963160Y-10875413D02*
X6963160Y-10827794D01*
X6963160Y-10827794D02*
X6972683Y-10789699D01*
X6972683Y-10789699D02*
X6982207Y-10770651D01*
X6982207Y-10770651D02*
X6991731Y-10761128D01*
X6991731Y-10761128D02*
X7010779Y-10751604D01*
X7163160Y-10951604D02*
X7163160Y-10818270D01*
X7163160Y-10837318D02*
X7172683Y-10827794D01*
X7172683Y-10827794D02*
X7191731Y-10818270D01*
X7191731Y-10818270D02*
X7220303Y-10818270D01*
X7220303Y-10818270D02*
X7239350Y-10827794D01*
X7239350Y-10827794D02*
X7248874Y-10846842D01*
X7248874Y-10846842D02*
X7248874Y-10951604D01*
X7248874Y-10846842D02*
X7258398Y-10827794D01*
X7258398Y-10827794D02*
X7277445Y-10818270D01*
X7277445Y-10818270D02*
X7306017Y-10818270D01*
X7306017Y-10818270D02*
X7325064Y-10827794D01*
X7325064Y-10827794D02*
X7334588Y-10846842D01*
X7334588Y-10846842D02*
X7334588Y-10951604D01*
X7429826Y-10951604D02*
X7429826Y-10818270D01*
X7429826Y-10837318D02*
X7439350Y-10827794D01*
X7439350Y-10827794D02*
X7458398Y-10818270D01*
X7458398Y-10818270D02*
X7486969Y-10818270D01*
X7486969Y-10818270D02*
X7506017Y-10827794D01*
X7506017Y-10827794D02*
X7515541Y-10846842D01*
X7515541Y-10846842D02*
X7515541Y-10951604D01*
X7515541Y-10846842D02*
X7525064Y-10827794D01*
X7525064Y-10827794D02*
X7544112Y-10818270D01*
X7544112Y-10818270D02*
X7572683Y-10818270D01*
X7572683Y-10818270D02*
X7591731Y-10827794D01*
X7591731Y-10827794D02*
X7601255Y-10846842D01*
X7601255Y-10846842D02*
X7601255Y-10951604D01*
X7991731Y-10742080D02*
X7820303Y-10999223D01*
X8248874Y-10751604D02*
X8267922Y-10751604D01*
X8267922Y-10751604D02*
X8286969Y-10761128D01*
X8286969Y-10761128D02*
X8296493Y-10770651D01*
X8296493Y-10770651D02*
X8306017Y-10789699D01*
X8306017Y-10789699D02*
X8315541Y-10827794D01*
X8315541Y-10827794D02*
X8315541Y-10875413D01*
X8315541Y-10875413D02*
X8306017Y-10913509D01*
X8306017Y-10913509D02*
X8296493Y-10932556D01*
X8296493Y-10932556D02*
X8286969Y-10942080D01*
X8286969Y-10942080D02*
X8267922Y-10951604D01*
X8267922Y-10951604D02*
X8248874Y-10951604D01*
X8248874Y-10951604D02*
X8229826Y-10942080D01*
X8229826Y-10942080D02*
X8220303Y-10932556D01*
X8220303Y-10932556D02*
X8210779Y-10913509D01*
X8210779Y-10913509D02*
X8201255Y-10875413D01*
X8201255Y-10875413D02*
X8201255Y-10827794D01*
X8201255Y-10827794D02*
X8210779Y-10789699D01*
X8210779Y-10789699D02*
X8220303Y-10770651D01*
X8220303Y-10770651D02*
X8229826Y-10761128D01*
X8229826Y-10761128D02*
X8248874Y-10751604D01*
X8401255Y-10932556D02*
X8410779Y-10942080D01*
X8410779Y-10942080D02*
X8401255Y-10951604D01*
X8401255Y-10951604D02*
X8391731Y-10942080D01*
X8391731Y-10942080D02*
X8401255Y-10932556D01*
X8401255Y-10932556D02*
X8401255Y-10951604D01*
X8534588Y-10751604D02*
X8553636Y-10751604D01*
X8553636Y-10751604D02*
X8572684Y-10761128D01*
X8572684Y-10761128D02*
X8582208Y-10770651D01*
X8582208Y-10770651D02*
X8591731Y-10789699D01*
X8591731Y-10789699D02*
X8601255Y-10827794D01*
X8601255Y-10827794D02*
X8601255Y-10875413D01*
X8601255Y-10875413D02*
X8591731Y-10913509D01*
X8591731Y-10913509D02*
X8582208Y-10932556D01*
X8582208Y-10932556D02*
X8572684Y-10942080D01*
X8572684Y-10942080D02*
X8553636Y-10951604D01*
X8553636Y-10951604D02*
X8534588Y-10951604D01*
X8534588Y-10951604D02*
X8515541Y-10942080D01*
X8515541Y-10942080D02*
X8506017Y-10932556D01*
X8506017Y-10932556D02*
X8496493Y-10913509D01*
X8496493Y-10913509D02*
X8486969Y-10875413D01*
X8486969Y-10875413D02*
X8486969Y-10827794D01*
X8486969Y-10827794D02*
X8496493Y-10789699D01*
X8496493Y-10789699D02*
X8506017Y-10770651D01*
X8506017Y-10770651D02*
X8515541Y-10761128D01*
X8515541Y-10761128D02*
X8534588Y-10751604D01*
X8782208Y-10751604D02*
X8686969Y-10751604D01*
X8686969Y-10751604D02*
X8677446Y-10846842D01*
X8677446Y-10846842D02*
X8686969Y-10837318D01*
X8686969Y-10837318D02*
X8706017Y-10827794D01*
X8706017Y-10827794D02*
X8753636Y-10827794D01*
X8753636Y-10827794D02*
X8772684Y-10837318D01*
X8772684Y-10837318D02*
X8782208Y-10846842D01*
X8782208Y-10846842D02*
X8791731Y-10865890D01*
X8791731Y-10865890D02*
X8791731Y-10913509D01*
X8791731Y-10913509D02*
X8782208Y-10932556D01*
X8782208Y-10932556D02*
X8772684Y-10942080D01*
X8772684Y-10942080D02*
X8753636Y-10951604D01*
X8753636Y-10951604D02*
X8706017Y-10951604D01*
X8706017Y-10951604D02*
X8686969Y-10942080D01*
X8686969Y-10942080D02*
X8677446Y-10932556D01*
X8982208Y-10951604D02*
X8867922Y-10951604D01*
X8925065Y-10951604D02*
X8925065Y-10751604D01*
X8925065Y-10751604D02*
X8906017Y-10780175D01*
X8906017Y-10780175D02*
X8886969Y-10799223D01*
X8886969Y-10799223D02*
X8867922Y-10808747D01*
X9058398Y-10770651D02*
X9067922Y-10761128D01*
X9067922Y-10761128D02*
X9086969Y-10751604D01*
X9086969Y-10751604D02*
X9134589Y-10751604D01*
X9134589Y-10751604D02*
X9153636Y-10761128D01*
X9153636Y-10761128D02*
X9163160Y-10770651D01*
X9163160Y-10770651D02*
X9172684Y-10789699D01*
X9172684Y-10789699D02*
X9172684Y-10808747D01*
X9172684Y-10808747D02*
X9163160Y-10837318D01*
X9163160Y-10837318D02*
X9048874Y-10951604D01*
X9048874Y-10951604D02*
X9172684Y-10951604D01*
X9248874Y-10751604D02*
X9248874Y-10789699D01*
X9325065Y-10751604D02*
X9325065Y-10789699D01*
X9620303Y-11027794D02*
X9610779Y-11018270D01*
X9610779Y-11018270D02*
X9591731Y-10989699D01*
X9591731Y-10989699D02*
X9582208Y-10970651D01*
X9582208Y-10970651D02*
X9572684Y-10942080D01*
X9572684Y-10942080D02*
X9563160Y-10894461D01*
X9563160Y-10894461D02*
X9563160Y-10856366D01*
X9563160Y-10856366D02*
X9572684Y-10808747D01*
X9572684Y-10808747D02*
X9582208Y-10780175D01*
X9582208Y-10780175D02*
X9591731Y-10761128D01*
X9591731Y-10761128D02*
X9610779Y-10732556D01*
X9610779Y-10732556D02*
X9620303Y-10723032D01*
X9801255Y-10951604D02*
X9686970Y-10951604D01*
X9744112Y-10951604D02*
X9744112Y-10751604D01*
X9744112Y-10751604D02*
X9725065Y-10780175D01*
X9725065Y-10780175D02*
X9706017Y-10799223D01*
X9706017Y-10799223D02*
X9686970Y-10808747D01*
X9896493Y-10951604D02*
X9934589Y-10951604D01*
X9934589Y-10951604D02*
X9953636Y-10942080D01*
X9953636Y-10942080D02*
X9963160Y-10932556D01*
X9963160Y-10932556D02*
X9982208Y-10903985D01*
X9982208Y-10903985D02*
X9991731Y-10865890D01*
X9991731Y-10865890D02*
X9991731Y-10789699D01*
X9991731Y-10789699D02*
X9982208Y-10770651D01*
X9982208Y-10770651D02*
X9972684Y-10761128D01*
X9972684Y-10761128D02*
X9953636Y-10751604D01*
X9953636Y-10751604D02*
X9915541Y-10751604D01*
X9915541Y-10751604D02*
X9896493Y-10761128D01*
X9896493Y-10761128D02*
X9886970Y-10770651D01*
X9886970Y-10770651D02*
X9877446Y-10789699D01*
X9877446Y-10789699D02*
X9877446Y-10837318D01*
X9877446Y-10837318D02*
X9886970Y-10856366D01*
X9886970Y-10856366D02*
X9896493Y-10865890D01*
X9896493Y-10865890D02*
X9915541Y-10875413D01*
X9915541Y-10875413D02*
X9953636Y-10875413D01*
X9953636Y-10875413D02*
X9972684Y-10865890D01*
X9972684Y-10865890D02*
X9982208Y-10856366D01*
X9982208Y-10856366D02*
X9991731Y-10837318D01*
X10229827Y-10951604D02*
X10229827Y-10751604D01*
X10315541Y-10951604D02*
X10315541Y-10846842D01*
X10315541Y-10846842D02*
X10306017Y-10827794D01*
X10306017Y-10827794D02*
X10286970Y-10818270D01*
X10286970Y-10818270D02*
X10258398Y-10818270D01*
X10258398Y-10818270D02*
X10239351Y-10827794D01*
X10239351Y-10827794D02*
X10229827Y-10837318D01*
X10439351Y-10951604D02*
X10420303Y-10942080D01*
X10420303Y-10942080D02*
X10410779Y-10932556D01*
X10410779Y-10932556D02*
X10401255Y-10913509D01*
X10401255Y-10913509D02*
X10401255Y-10856366D01*
X10401255Y-10856366D02*
X10410779Y-10837318D01*
X10410779Y-10837318D02*
X10420303Y-10827794D01*
X10420303Y-10827794D02*
X10439351Y-10818270D01*
X10439351Y-10818270D02*
X10467922Y-10818270D01*
X10467922Y-10818270D02*
X10486970Y-10827794D01*
X10486970Y-10827794D02*
X10496493Y-10837318D01*
X10496493Y-10837318D02*
X10506017Y-10856366D01*
X10506017Y-10856366D02*
X10506017Y-10913509D01*
X10506017Y-10913509D02*
X10496493Y-10932556D01*
X10496493Y-10932556D02*
X10486970Y-10942080D01*
X10486970Y-10942080D02*
X10467922Y-10951604D01*
X10467922Y-10951604D02*
X10439351Y-10951604D01*
X10620303Y-10951604D02*
X10601255Y-10942080D01*
X10601255Y-10942080D02*
X10591732Y-10923032D01*
X10591732Y-10923032D02*
X10591732Y-10751604D01*
X10772684Y-10942080D02*
X10753636Y-10951604D01*
X10753636Y-10951604D02*
X10715541Y-10951604D01*
X10715541Y-10951604D02*
X10696493Y-10942080D01*
X10696493Y-10942080D02*
X10686970Y-10923032D01*
X10686970Y-10923032D02*
X10686970Y-10846842D01*
X10686970Y-10846842D02*
X10696493Y-10827794D01*
X10696493Y-10827794D02*
X10715541Y-10818270D01*
X10715541Y-10818270D02*
X10753636Y-10818270D01*
X10753636Y-10818270D02*
X10772684Y-10827794D01*
X10772684Y-10827794D02*
X10782208Y-10846842D01*
X10782208Y-10846842D02*
X10782208Y-10865890D01*
X10782208Y-10865890D02*
X10686970Y-10884937D01*
X10858398Y-10942080D02*
X10877446Y-10951604D01*
X10877446Y-10951604D02*
X10915541Y-10951604D01*
X10915541Y-10951604D02*
X10934589Y-10942080D01*
X10934589Y-10942080D02*
X10944113Y-10923032D01*
X10944113Y-10923032D02*
X10944113Y-10913509D01*
X10944113Y-10913509D02*
X10934589Y-10894461D01*
X10934589Y-10894461D02*
X10915541Y-10884937D01*
X10915541Y-10884937D02*
X10886970Y-10884937D01*
X10886970Y-10884937D02*
X10867922Y-10875413D01*
X10867922Y-10875413D02*
X10858398Y-10856366D01*
X10858398Y-10856366D02*
X10858398Y-10846842D01*
X10858398Y-10846842D02*
X10867922Y-10827794D01*
X10867922Y-10827794D02*
X10886970Y-10818270D01*
X10886970Y-10818270D02*
X10915541Y-10818270D01*
X10915541Y-10818270D02*
X10934589Y-10827794D01*
X11010779Y-11027794D02*
X11020303Y-11018270D01*
X11020303Y-11018270D02*
X11039351Y-10989699D01*
X11039351Y-10989699D02*
X11048874Y-10970651D01*
X11048874Y-10970651D02*
X11058398Y-10942080D01*
X11058398Y-10942080D02*
X11067922Y-10894461D01*
X11067922Y-10894461D02*
X11067922Y-10856366D01*
X11067922Y-10856366D02*
X11058398Y-10808747D01*
X11058398Y-10808747D02*
X11048874Y-10780175D01*
X11048874Y-10780175D02*
X11039351Y-10761128D01*
X11039351Y-10761128D02*
X11020303Y-10732556D01*
X11020303Y-10732556D02*
X11010779Y-10723032D01*
D18*
X5895240Y-11049120D02*
X6045240Y-11199120D01*
X6045240Y-11049120D02*
X5895240Y-11199120D01*
X5970240Y-11049120D02*
X5970240Y-11199120D01*
X5895240Y-11124120D02*
X6045240Y-11124120D01*
D11*
X6410779Y-11215604D02*
X6296493Y-11215604D01*
X6353636Y-11215604D02*
X6353636Y-11015604D01*
X6353636Y-11015604D02*
X6334588Y-11044175D01*
X6334588Y-11044175D02*
X6315541Y-11063223D01*
X6315541Y-11063223D02*
X6296493Y-11072747D01*
X6496493Y-11196556D02*
X6506017Y-11206080D01*
X6506017Y-11206080D02*
X6496493Y-11215604D01*
X6496493Y-11215604D02*
X6486969Y-11206080D01*
X6486969Y-11206080D02*
X6496493Y-11196556D01*
X6496493Y-11196556D02*
X6496493Y-11215604D01*
X6686969Y-11015604D02*
X6591731Y-11015604D01*
X6591731Y-11015604D02*
X6582207Y-11110842D01*
X6582207Y-11110842D02*
X6591731Y-11101318D01*
X6591731Y-11101318D02*
X6610779Y-11091794D01*
X6610779Y-11091794D02*
X6658398Y-11091794D01*
X6658398Y-11091794D02*
X6677445Y-11101318D01*
X6677445Y-11101318D02*
X6686969Y-11110842D01*
X6686969Y-11110842D02*
X6696493Y-11129890D01*
X6696493Y-11129890D02*
X6696493Y-11177509D01*
X6696493Y-11177509D02*
X6686969Y-11196556D01*
X6686969Y-11196556D02*
X6677445Y-11206080D01*
X6677445Y-11206080D02*
X6658398Y-11215604D01*
X6658398Y-11215604D02*
X6610779Y-11215604D01*
X6610779Y-11215604D02*
X6591731Y-11206080D01*
X6591731Y-11206080D02*
X6582207Y-11196556D01*
X6820302Y-11015604D02*
X6839350Y-11015604D01*
X6839350Y-11015604D02*
X6858398Y-11025128D01*
X6858398Y-11025128D02*
X6867922Y-11034651D01*
X6867922Y-11034651D02*
X6877445Y-11053699D01*
X6877445Y-11053699D02*
X6886969Y-11091794D01*
X6886969Y-11091794D02*
X6886969Y-11139413D01*
X6886969Y-11139413D02*
X6877445Y-11177509D01*
X6877445Y-11177509D02*
X6867922Y-11196556D01*
X6867922Y-11196556D02*
X6858398Y-11206080D01*
X6858398Y-11206080D02*
X6839350Y-11215604D01*
X6839350Y-11215604D02*
X6820302Y-11215604D01*
X6820302Y-11215604D02*
X6801255Y-11206080D01*
X6801255Y-11206080D02*
X6791731Y-11196556D01*
X6791731Y-11196556D02*
X6782207Y-11177509D01*
X6782207Y-11177509D02*
X6772683Y-11139413D01*
X6772683Y-11139413D02*
X6772683Y-11091794D01*
X6772683Y-11091794D02*
X6782207Y-11053699D01*
X6782207Y-11053699D02*
X6791731Y-11034651D01*
X6791731Y-11034651D02*
X6801255Y-11025128D01*
X6801255Y-11025128D02*
X6820302Y-11015604D01*
X7010779Y-11015604D02*
X7029826Y-11015604D01*
X7029826Y-11015604D02*
X7048874Y-11025128D01*
X7048874Y-11025128D02*
X7058398Y-11034651D01*
X7058398Y-11034651D02*
X7067922Y-11053699D01*
X7067922Y-11053699D02*
X7077445Y-11091794D01*
X7077445Y-11091794D02*
X7077445Y-11139413D01*
X7077445Y-11139413D02*
X7067922Y-11177509D01*
X7067922Y-11177509D02*
X7058398Y-11196556D01*
X7058398Y-11196556D02*
X7048874Y-11206080D01*
X7048874Y-11206080D02*
X7029826Y-11215604D01*
X7029826Y-11215604D02*
X7010779Y-11215604D01*
X7010779Y-11215604D02*
X6991731Y-11206080D01*
X6991731Y-11206080D02*
X6982207Y-11196556D01*
X6982207Y-11196556D02*
X6972683Y-11177509D01*
X6972683Y-11177509D02*
X6963160Y-11139413D01*
X6963160Y-11139413D02*
X6963160Y-11091794D01*
X6963160Y-11091794D02*
X6972683Y-11053699D01*
X6972683Y-11053699D02*
X6982207Y-11034651D01*
X6982207Y-11034651D02*
X6991731Y-11025128D01*
X6991731Y-11025128D02*
X7010779Y-11015604D01*
X7163160Y-11215604D02*
X7163160Y-11082270D01*
X7163160Y-11101318D02*
X7172683Y-11091794D01*
X7172683Y-11091794D02*
X7191731Y-11082270D01*
X7191731Y-11082270D02*
X7220303Y-11082270D01*
X7220303Y-11082270D02*
X7239350Y-11091794D01*
X7239350Y-11091794D02*
X7248874Y-11110842D01*
X7248874Y-11110842D02*
X7248874Y-11215604D01*
X7248874Y-11110842D02*
X7258398Y-11091794D01*
X7258398Y-11091794D02*
X7277445Y-11082270D01*
X7277445Y-11082270D02*
X7306017Y-11082270D01*
X7306017Y-11082270D02*
X7325064Y-11091794D01*
X7325064Y-11091794D02*
X7334588Y-11110842D01*
X7334588Y-11110842D02*
X7334588Y-11215604D01*
X7429826Y-11215604D02*
X7429826Y-11082270D01*
X7429826Y-11101318D02*
X7439350Y-11091794D01*
X7439350Y-11091794D02*
X7458398Y-11082270D01*
X7458398Y-11082270D02*
X7486969Y-11082270D01*
X7486969Y-11082270D02*
X7506017Y-11091794D01*
X7506017Y-11091794D02*
X7515541Y-11110842D01*
X7515541Y-11110842D02*
X7515541Y-11215604D01*
X7515541Y-11110842D02*
X7525064Y-11091794D01*
X7525064Y-11091794D02*
X7544112Y-11082270D01*
X7544112Y-11082270D02*
X7572683Y-11082270D01*
X7572683Y-11082270D02*
X7591731Y-11091794D01*
X7591731Y-11091794D02*
X7601255Y-11110842D01*
X7601255Y-11110842D02*
X7601255Y-11215604D01*
X7991731Y-11006080D02*
X7820303Y-11263223D01*
X8248874Y-11015604D02*
X8267922Y-11015604D01*
X8267922Y-11015604D02*
X8286969Y-11025128D01*
X8286969Y-11025128D02*
X8296493Y-11034651D01*
X8296493Y-11034651D02*
X8306017Y-11053699D01*
X8306017Y-11053699D02*
X8315541Y-11091794D01*
X8315541Y-11091794D02*
X8315541Y-11139413D01*
X8315541Y-11139413D02*
X8306017Y-11177509D01*
X8306017Y-11177509D02*
X8296493Y-11196556D01*
X8296493Y-11196556D02*
X8286969Y-11206080D01*
X8286969Y-11206080D02*
X8267922Y-11215604D01*
X8267922Y-11215604D02*
X8248874Y-11215604D01*
X8248874Y-11215604D02*
X8229826Y-11206080D01*
X8229826Y-11206080D02*
X8220303Y-11196556D01*
X8220303Y-11196556D02*
X8210779Y-11177509D01*
X8210779Y-11177509D02*
X8201255Y-11139413D01*
X8201255Y-11139413D02*
X8201255Y-11091794D01*
X8201255Y-11091794D02*
X8210779Y-11053699D01*
X8210779Y-11053699D02*
X8220303Y-11034651D01*
X8220303Y-11034651D02*
X8229826Y-11025128D01*
X8229826Y-11025128D02*
X8248874Y-11015604D01*
X8401255Y-11196556D02*
X8410779Y-11206080D01*
X8410779Y-11206080D02*
X8401255Y-11215604D01*
X8401255Y-11215604D02*
X8391731Y-11206080D01*
X8391731Y-11206080D02*
X8401255Y-11196556D01*
X8401255Y-11196556D02*
X8401255Y-11215604D01*
X8534588Y-11015604D02*
X8553636Y-11015604D01*
X8553636Y-11015604D02*
X8572684Y-11025128D01*
X8572684Y-11025128D02*
X8582208Y-11034651D01*
X8582208Y-11034651D02*
X8591731Y-11053699D01*
X8591731Y-11053699D02*
X8601255Y-11091794D01*
X8601255Y-11091794D02*
X8601255Y-11139413D01*
X8601255Y-11139413D02*
X8591731Y-11177509D01*
X8591731Y-11177509D02*
X8582208Y-11196556D01*
X8582208Y-11196556D02*
X8572684Y-11206080D01*
X8572684Y-11206080D02*
X8553636Y-11215604D01*
X8553636Y-11215604D02*
X8534588Y-11215604D01*
X8534588Y-11215604D02*
X8515541Y-11206080D01*
X8515541Y-11206080D02*
X8506017Y-11196556D01*
X8506017Y-11196556D02*
X8496493Y-11177509D01*
X8496493Y-11177509D02*
X8486969Y-11139413D01*
X8486969Y-11139413D02*
X8486969Y-11091794D01*
X8486969Y-11091794D02*
X8496493Y-11053699D01*
X8496493Y-11053699D02*
X8506017Y-11034651D01*
X8506017Y-11034651D02*
X8515541Y-11025128D01*
X8515541Y-11025128D02*
X8534588Y-11015604D01*
X8782208Y-11015604D02*
X8686969Y-11015604D01*
X8686969Y-11015604D02*
X8677446Y-11110842D01*
X8677446Y-11110842D02*
X8686969Y-11101318D01*
X8686969Y-11101318D02*
X8706017Y-11091794D01*
X8706017Y-11091794D02*
X8753636Y-11091794D01*
X8753636Y-11091794D02*
X8772684Y-11101318D01*
X8772684Y-11101318D02*
X8782208Y-11110842D01*
X8782208Y-11110842D02*
X8791731Y-11129890D01*
X8791731Y-11129890D02*
X8791731Y-11177509D01*
X8791731Y-11177509D02*
X8782208Y-11196556D01*
X8782208Y-11196556D02*
X8772684Y-11206080D01*
X8772684Y-11206080D02*
X8753636Y-11215604D01*
X8753636Y-11215604D02*
X8706017Y-11215604D01*
X8706017Y-11215604D02*
X8686969Y-11206080D01*
X8686969Y-11206080D02*
X8677446Y-11196556D01*
X8886969Y-11215604D02*
X8925065Y-11215604D01*
X8925065Y-11215604D02*
X8944112Y-11206080D01*
X8944112Y-11206080D02*
X8953636Y-11196556D01*
X8953636Y-11196556D02*
X8972684Y-11167985D01*
X8972684Y-11167985D02*
X8982208Y-11129890D01*
X8982208Y-11129890D02*
X8982208Y-11053699D01*
X8982208Y-11053699D02*
X8972684Y-11034651D01*
X8972684Y-11034651D02*
X8963160Y-11025128D01*
X8963160Y-11025128D02*
X8944112Y-11015604D01*
X8944112Y-11015604D02*
X8906017Y-11015604D01*
X8906017Y-11015604D02*
X8886969Y-11025128D01*
X8886969Y-11025128D02*
X8877446Y-11034651D01*
X8877446Y-11034651D02*
X8867922Y-11053699D01*
X8867922Y-11053699D02*
X8867922Y-11101318D01*
X8867922Y-11101318D02*
X8877446Y-11120366D01*
X8877446Y-11120366D02*
X8886969Y-11129890D01*
X8886969Y-11129890D02*
X8906017Y-11139413D01*
X8906017Y-11139413D02*
X8944112Y-11139413D01*
X8944112Y-11139413D02*
X8963160Y-11129890D01*
X8963160Y-11129890D02*
X8972684Y-11120366D01*
X8972684Y-11120366D02*
X8982208Y-11101318D01*
X9172684Y-11215604D02*
X9058398Y-11215604D01*
X9115541Y-11215604D02*
X9115541Y-11015604D01*
X9115541Y-11015604D02*
X9096493Y-11044175D01*
X9096493Y-11044175D02*
X9077446Y-11063223D01*
X9077446Y-11063223D02*
X9058398Y-11072747D01*
X9248874Y-11015604D02*
X9248874Y-11053699D01*
X9325065Y-11015604D02*
X9325065Y-11053699D01*
X9620303Y-11291794D02*
X9610779Y-11282270D01*
X9610779Y-11282270D02*
X9591731Y-11253699D01*
X9591731Y-11253699D02*
X9582208Y-11234651D01*
X9582208Y-11234651D02*
X9572684Y-11206080D01*
X9572684Y-11206080D02*
X9563160Y-11158461D01*
X9563160Y-11158461D02*
X9563160Y-11120366D01*
X9563160Y-11120366D02*
X9572684Y-11072747D01*
X9572684Y-11072747D02*
X9582208Y-11044175D01*
X9582208Y-11044175D02*
X9591731Y-11025128D01*
X9591731Y-11025128D02*
X9610779Y-10996556D01*
X9610779Y-10996556D02*
X9620303Y-10987032D01*
X9725065Y-11101318D02*
X9706017Y-11091794D01*
X9706017Y-11091794D02*
X9696493Y-11082270D01*
X9696493Y-11082270D02*
X9686970Y-11063223D01*
X9686970Y-11063223D02*
X9686970Y-11053699D01*
X9686970Y-11053699D02*
X9696493Y-11034651D01*
X9696493Y-11034651D02*
X9706017Y-11025128D01*
X9706017Y-11025128D02*
X9725065Y-11015604D01*
X9725065Y-11015604D02*
X9763160Y-11015604D01*
X9763160Y-11015604D02*
X9782208Y-11025128D01*
X9782208Y-11025128D02*
X9791731Y-11034651D01*
X9791731Y-11034651D02*
X9801255Y-11053699D01*
X9801255Y-11053699D02*
X9801255Y-11063223D01*
X9801255Y-11063223D02*
X9791731Y-11082270D01*
X9791731Y-11082270D02*
X9782208Y-11091794D01*
X9782208Y-11091794D02*
X9763160Y-11101318D01*
X9763160Y-11101318D02*
X9725065Y-11101318D01*
X9725065Y-11101318D02*
X9706017Y-11110842D01*
X9706017Y-11110842D02*
X9696493Y-11120366D01*
X9696493Y-11120366D02*
X9686970Y-11139413D01*
X9686970Y-11139413D02*
X9686970Y-11177509D01*
X9686970Y-11177509D02*
X9696493Y-11196556D01*
X9696493Y-11196556D02*
X9706017Y-11206080D01*
X9706017Y-11206080D02*
X9725065Y-11215604D01*
X9725065Y-11215604D02*
X9763160Y-11215604D01*
X9763160Y-11215604D02*
X9782208Y-11206080D01*
X9782208Y-11206080D02*
X9791731Y-11196556D01*
X9791731Y-11196556D02*
X9801255Y-11177509D01*
X9801255Y-11177509D02*
X9801255Y-11139413D01*
X9801255Y-11139413D02*
X9791731Y-11120366D01*
X9791731Y-11120366D02*
X9782208Y-11110842D01*
X9782208Y-11110842D02*
X9763160Y-11101318D01*
X10039351Y-11215604D02*
X10039351Y-11015604D01*
X10125065Y-11215604D02*
X10125065Y-11110842D01*
X10125065Y-11110842D02*
X10115541Y-11091794D01*
X10115541Y-11091794D02*
X10096493Y-11082270D01*
X10096493Y-11082270D02*
X10067922Y-11082270D01*
X10067922Y-11082270D02*
X10048874Y-11091794D01*
X10048874Y-11091794D02*
X10039351Y-11101318D01*
X10248874Y-11215604D02*
X10229827Y-11206080D01*
X10229827Y-11206080D02*
X10220303Y-11196556D01*
X10220303Y-11196556D02*
X10210779Y-11177509D01*
X10210779Y-11177509D02*
X10210779Y-11120366D01*
X10210779Y-11120366D02*
X10220303Y-11101318D01*
X10220303Y-11101318D02*
X10229827Y-11091794D01*
X10229827Y-11091794D02*
X10248874Y-11082270D01*
X10248874Y-11082270D02*
X10277446Y-11082270D01*
X10277446Y-11082270D02*
X10296493Y-11091794D01*
X10296493Y-11091794D02*
X10306017Y-11101318D01*
X10306017Y-11101318D02*
X10315541Y-11120366D01*
X10315541Y-11120366D02*
X10315541Y-11177509D01*
X10315541Y-11177509D02*
X10306017Y-11196556D01*
X10306017Y-11196556D02*
X10296493Y-11206080D01*
X10296493Y-11206080D02*
X10277446Y-11215604D01*
X10277446Y-11215604D02*
X10248874Y-11215604D01*
X10429827Y-11215604D02*
X10410779Y-11206080D01*
X10410779Y-11206080D02*
X10401255Y-11187032D01*
X10401255Y-11187032D02*
X10401255Y-11015604D01*
X10582208Y-11206080D02*
X10563160Y-11215604D01*
X10563160Y-11215604D02*
X10525065Y-11215604D01*
X10525065Y-11215604D02*
X10506017Y-11206080D01*
X10506017Y-11206080D02*
X10496493Y-11187032D01*
X10496493Y-11187032D02*
X10496493Y-11110842D01*
X10496493Y-11110842D02*
X10506017Y-11091794D01*
X10506017Y-11091794D02*
X10525065Y-11082270D01*
X10525065Y-11082270D02*
X10563160Y-11082270D01*
X10563160Y-11082270D02*
X10582208Y-11091794D01*
X10582208Y-11091794D02*
X10591732Y-11110842D01*
X10591732Y-11110842D02*
X10591732Y-11129890D01*
X10591732Y-11129890D02*
X10496493Y-11148937D01*
X10667922Y-11206080D02*
X10686970Y-11215604D01*
X10686970Y-11215604D02*
X10725065Y-11215604D01*
X10725065Y-11215604D02*
X10744113Y-11206080D01*
X10744113Y-11206080D02*
X10753636Y-11187032D01*
X10753636Y-11187032D02*
X10753636Y-11177509D01*
X10753636Y-11177509D02*
X10744113Y-11158461D01*
X10744113Y-11158461D02*
X10725065Y-11148937D01*
X10725065Y-11148937D02*
X10696493Y-11148937D01*
X10696493Y-11148937D02*
X10677446Y-11139413D01*
X10677446Y-11139413D02*
X10667922Y-11120366D01*
X10667922Y-11120366D02*
X10667922Y-11110842D01*
X10667922Y-11110842D02*
X10677446Y-11091794D01*
X10677446Y-11091794D02*
X10696493Y-11082270D01*
X10696493Y-11082270D02*
X10725065Y-11082270D01*
X10725065Y-11082270D02*
X10744113Y-11091794D01*
X10820303Y-11291794D02*
X10829827Y-11282270D01*
X10829827Y-11282270D02*
X10848874Y-11253699D01*
X10848874Y-11253699D02*
X10858398Y-11234651D01*
X10858398Y-11234651D02*
X10867922Y-11206080D01*
X10867922Y-11206080D02*
X10877446Y-11158461D01*
X10877446Y-11158461D02*
X10877446Y-11120366D01*
X10877446Y-11120366D02*
X10867922Y-11072747D01*
X10867922Y-11072747D02*
X10858398Y-11044175D01*
X10858398Y-11044175D02*
X10848874Y-11025128D01*
X10848874Y-11025128D02*
X10829827Y-10996556D01*
X10829827Y-10996556D02*
X10820303Y-10987032D01*
M02*
