%TF.GenerationSoftware,KiCad,Pcbnew,7.0.5*%
%TF.CreationDate,2023-12-24T17:04:19+05:30*%
%TF.ProjectId,TSALv3,5453414c-7633-42e6-9b69-6361645f7063,rev?*%
%TF.SameCoordinates,Original*%
%TF.FileFunction,Legend,Top*%
%TF.FilePolarity,Positive*%
%FSLAX46Y46*%
G04 Gerber Fmt 4.6, Leading zero omitted, Abs format (unit mm)*
G04 Created by KiCad (PCBNEW 7.0.5) date 2023-12-24 17:04:19*
%MOMM*%
%LPD*%
G01*
G04 APERTURE LIST*
%ADD10C,0.100000*%
%ADD11C,0.150000*%
%ADD12C,0.120000*%
%ADD13C,0.127000*%
%ADD14C,0.200000*%
G04 APERTURE END LIST*
D10*
X61568684Y-47726019D02*
X61568684Y-46726019D01*
X61568684Y-47202209D02*
X62140112Y-47202209D01*
X62140112Y-47726019D02*
X62140112Y-46726019D01*
X62473446Y-46726019D02*
X62806779Y-47726019D01*
X62806779Y-47726019D02*
X63140112Y-46726019D01*
X63473446Y-47345066D02*
X64235351Y-47345066D01*
X61517884Y-53339419D02*
X61517884Y-52339419D01*
X61517884Y-52815609D02*
X62089312Y-52815609D01*
X62089312Y-53339419D02*
X62089312Y-52339419D01*
X62422646Y-52339419D02*
X62755979Y-53339419D01*
X62755979Y-53339419D02*
X63089312Y-52339419D01*
X63422646Y-52958466D02*
X64184551Y-52958466D01*
X63803598Y-53339419D02*
X63803598Y-52577514D01*
X110822465Y-32209800D02*
X110965322Y-32257419D01*
X110965322Y-32257419D02*
X111203417Y-32257419D01*
X111203417Y-32257419D02*
X111298655Y-32209800D01*
X111298655Y-32209800D02*
X111346274Y-32162180D01*
X111346274Y-32162180D02*
X111393893Y-32066942D01*
X111393893Y-32066942D02*
X111393893Y-31971704D01*
X111393893Y-31971704D02*
X111346274Y-31876466D01*
X111346274Y-31876466D02*
X111298655Y-31828847D01*
X111298655Y-31828847D02*
X111203417Y-31781228D01*
X111203417Y-31781228D02*
X111012941Y-31733609D01*
X111012941Y-31733609D02*
X110917703Y-31685990D01*
X110917703Y-31685990D02*
X110870084Y-31638371D01*
X110870084Y-31638371D02*
X110822465Y-31543133D01*
X110822465Y-31543133D02*
X110822465Y-31447895D01*
X110822465Y-31447895D02*
X110870084Y-31352657D01*
X110870084Y-31352657D02*
X110917703Y-31305038D01*
X110917703Y-31305038D02*
X111012941Y-31257419D01*
X111012941Y-31257419D02*
X111251036Y-31257419D01*
X111251036Y-31257419D02*
X111393893Y-31305038D01*
X111822465Y-32257419D02*
X111822465Y-31257419D01*
X111822465Y-31257419D02*
X112155798Y-31971704D01*
X112155798Y-31971704D02*
X112489131Y-31257419D01*
X112489131Y-31257419D02*
X112489131Y-32257419D01*
X112965322Y-32257419D02*
X112965322Y-31257419D01*
X112965322Y-31257419D02*
X113346274Y-31257419D01*
X113346274Y-31257419D02*
X113441512Y-31305038D01*
X113441512Y-31305038D02*
X113489131Y-31352657D01*
X113489131Y-31352657D02*
X113536750Y-31447895D01*
X113536750Y-31447895D02*
X113536750Y-31590752D01*
X113536750Y-31590752D02*
X113489131Y-31685990D01*
X113489131Y-31685990D02*
X113441512Y-31733609D01*
X113441512Y-31733609D02*
X113346274Y-31781228D01*
X113346274Y-31781228D02*
X112965322Y-31781228D01*
X113917703Y-32209800D02*
X114060560Y-32257419D01*
X114060560Y-32257419D02*
X114298655Y-32257419D01*
X114298655Y-32257419D02*
X114393893Y-32209800D01*
X114393893Y-32209800D02*
X114441512Y-32162180D01*
X114441512Y-32162180D02*
X114489131Y-32066942D01*
X114489131Y-32066942D02*
X114489131Y-31971704D01*
X114489131Y-31971704D02*
X114441512Y-31876466D01*
X114441512Y-31876466D02*
X114393893Y-31828847D01*
X114393893Y-31828847D02*
X114298655Y-31781228D01*
X114298655Y-31781228D02*
X114108179Y-31733609D01*
X114108179Y-31733609D02*
X114012941Y-31685990D01*
X114012941Y-31685990D02*
X113965322Y-31638371D01*
X113965322Y-31638371D02*
X113917703Y-31543133D01*
X113917703Y-31543133D02*
X113917703Y-31447895D01*
X113917703Y-31447895D02*
X113965322Y-31352657D01*
X113965322Y-31352657D02*
X114012941Y-31305038D01*
X114012941Y-31305038D02*
X114108179Y-31257419D01*
X114108179Y-31257419D02*
X114346274Y-31257419D01*
X114346274Y-31257419D02*
X114489131Y-31305038D01*
X114917703Y-31876466D02*
X115679608Y-31876466D01*
X117147065Y-32133600D02*
X117289922Y-32181219D01*
X117289922Y-32181219D02*
X117528017Y-32181219D01*
X117528017Y-32181219D02*
X117623255Y-32133600D01*
X117623255Y-32133600D02*
X117670874Y-32085980D01*
X117670874Y-32085980D02*
X117718493Y-31990742D01*
X117718493Y-31990742D02*
X117718493Y-31895504D01*
X117718493Y-31895504D02*
X117670874Y-31800266D01*
X117670874Y-31800266D02*
X117623255Y-31752647D01*
X117623255Y-31752647D02*
X117528017Y-31705028D01*
X117528017Y-31705028D02*
X117337541Y-31657409D01*
X117337541Y-31657409D02*
X117242303Y-31609790D01*
X117242303Y-31609790D02*
X117194684Y-31562171D01*
X117194684Y-31562171D02*
X117147065Y-31466933D01*
X117147065Y-31466933D02*
X117147065Y-31371695D01*
X117147065Y-31371695D02*
X117194684Y-31276457D01*
X117194684Y-31276457D02*
X117242303Y-31228838D01*
X117242303Y-31228838D02*
X117337541Y-31181219D01*
X117337541Y-31181219D02*
X117575636Y-31181219D01*
X117575636Y-31181219D02*
X117718493Y-31228838D01*
X118147065Y-32181219D02*
X118147065Y-31181219D01*
X118147065Y-31181219D02*
X118480398Y-31895504D01*
X118480398Y-31895504D02*
X118813731Y-31181219D01*
X118813731Y-31181219D02*
X118813731Y-32181219D01*
X119289922Y-32181219D02*
X119289922Y-31181219D01*
X119289922Y-31181219D02*
X119670874Y-31181219D01*
X119670874Y-31181219D02*
X119766112Y-31228838D01*
X119766112Y-31228838D02*
X119813731Y-31276457D01*
X119813731Y-31276457D02*
X119861350Y-31371695D01*
X119861350Y-31371695D02*
X119861350Y-31514552D01*
X119861350Y-31514552D02*
X119813731Y-31609790D01*
X119813731Y-31609790D02*
X119766112Y-31657409D01*
X119766112Y-31657409D02*
X119670874Y-31705028D01*
X119670874Y-31705028D02*
X119289922Y-31705028D01*
X120242303Y-32133600D02*
X120385160Y-32181219D01*
X120385160Y-32181219D02*
X120623255Y-32181219D01*
X120623255Y-32181219D02*
X120718493Y-32133600D01*
X120718493Y-32133600D02*
X120766112Y-32085980D01*
X120766112Y-32085980D02*
X120813731Y-31990742D01*
X120813731Y-31990742D02*
X120813731Y-31895504D01*
X120813731Y-31895504D02*
X120766112Y-31800266D01*
X120766112Y-31800266D02*
X120718493Y-31752647D01*
X120718493Y-31752647D02*
X120623255Y-31705028D01*
X120623255Y-31705028D02*
X120432779Y-31657409D01*
X120432779Y-31657409D02*
X120337541Y-31609790D01*
X120337541Y-31609790D02*
X120289922Y-31562171D01*
X120289922Y-31562171D02*
X120242303Y-31466933D01*
X120242303Y-31466933D02*
X120242303Y-31371695D01*
X120242303Y-31371695D02*
X120289922Y-31276457D01*
X120289922Y-31276457D02*
X120337541Y-31228838D01*
X120337541Y-31228838D02*
X120432779Y-31181219D01*
X120432779Y-31181219D02*
X120670874Y-31181219D01*
X120670874Y-31181219D02*
X120813731Y-31228838D01*
X121242303Y-31800266D02*
X122004208Y-31800266D01*
X121623255Y-32181219D02*
X121623255Y-31419314D01*
X101348265Y-83076504D02*
X101824455Y-83076504D01*
X101253027Y-83362219D02*
X101586360Y-82362219D01*
X101586360Y-82362219D02*
X101919693Y-83362219D01*
X102253027Y-83362219D02*
X102253027Y-82362219D01*
X103300645Y-83362219D02*
X102967312Y-82886028D01*
X102729217Y-83362219D02*
X102729217Y-82362219D01*
X102729217Y-82362219D02*
X103110169Y-82362219D01*
X103110169Y-82362219D02*
X103205407Y-82409838D01*
X103205407Y-82409838D02*
X103253026Y-82457457D01*
X103253026Y-82457457D02*
X103300645Y-82552695D01*
X103300645Y-82552695D02*
X103300645Y-82695552D01*
X103300645Y-82695552D02*
X103253026Y-82790790D01*
X103253026Y-82790790D02*
X103205407Y-82838409D01*
X103205407Y-82838409D02*
X103110169Y-82886028D01*
X103110169Y-82886028D02*
X102729217Y-82886028D01*
X103729217Y-82981266D02*
X104491122Y-82981266D01*
X85549465Y-82974904D02*
X86025655Y-82974904D01*
X85454227Y-83260619D02*
X85787560Y-82260619D01*
X85787560Y-82260619D02*
X86120893Y-83260619D01*
X86454227Y-83260619D02*
X86454227Y-82260619D01*
X87501845Y-83260619D02*
X87168512Y-82784428D01*
X86930417Y-83260619D02*
X86930417Y-82260619D01*
X86930417Y-82260619D02*
X87311369Y-82260619D01*
X87311369Y-82260619D02*
X87406607Y-82308238D01*
X87406607Y-82308238D02*
X87454226Y-82355857D01*
X87454226Y-82355857D02*
X87501845Y-82451095D01*
X87501845Y-82451095D02*
X87501845Y-82593952D01*
X87501845Y-82593952D02*
X87454226Y-82689190D01*
X87454226Y-82689190D02*
X87406607Y-82736809D01*
X87406607Y-82736809D02*
X87311369Y-82784428D01*
X87311369Y-82784428D02*
X86930417Y-82784428D01*
X87930417Y-82879666D02*
X88692322Y-82879666D01*
X88311369Y-83260619D02*
X88311369Y-82498714D01*
X69391884Y-83413019D02*
X69391884Y-82413019D01*
X69391884Y-82413019D02*
X69772836Y-82413019D01*
X69772836Y-82413019D02*
X69868074Y-82460638D01*
X69868074Y-82460638D02*
X69915693Y-82508257D01*
X69915693Y-82508257D02*
X69963312Y-82603495D01*
X69963312Y-82603495D02*
X69963312Y-82746352D01*
X69963312Y-82746352D02*
X69915693Y-82841590D01*
X69915693Y-82841590D02*
X69868074Y-82889209D01*
X69868074Y-82889209D02*
X69772836Y-82936828D01*
X69772836Y-82936828D02*
X69391884Y-82936828D01*
X70963312Y-83413019D02*
X70629979Y-82936828D01*
X70391884Y-83413019D02*
X70391884Y-82413019D01*
X70391884Y-82413019D02*
X70772836Y-82413019D01*
X70772836Y-82413019D02*
X70868074Y-82460638D01*
X70868074Y-82460638D02*
X70915693Y-82508257D01*
X70915693Y-82508257D02*
X70963312Y-82603495D01*
X70963312Y-82603495D02*
X70963312Y-82746352D01*
X70963312Y-82746352D02*
X70915693Y-82841590D01*
X70915693Y-82841590D02*
X70868074Y-82889209D01*
X70868074Y-82889209D02*
X70772836Y-82936828D01*
X70772836Y-82936828D02*
X70391884Y-82936828D01*
X71391884Y-82889209D02*
X71725217Y-82889209D01*
X71868074Y-83413019D02*
X71391884Y-83413019D01*
X71391884Y-83413019D02*
X71391884Y-82413019D01*
X71391884Y-82413019D02*
X71868074Y-82413019D01*
X193293084Y-83159066D02*
X194054989Y-83159066D01*
X188390884Y-83336866D02*
X189152789Y-83336866D01*
X188771836Y-83717819D02*
X188771836Y-82955914D01*
X207313884Y-83311466D02*
X208075789Y-83311466D01*
X201370284Y-83438466D02*
X202132189Y-83438466D01*
X201751236Y-83819419D02*
X201751236Y-83057514D01*
X220105893Y-83349638D02*
X220010655Y-83302019D01*
X220010655Y-83302019D02*
X219867798Y-83302019D01*
X219867798Y-83302019D02*
X219724941Y-83349638D01*
X219724941Y-83349638D02*
X219629703Y-83444876D01*
X219629703Y-83444876D02*
X219582084Y-83540114D01*
X219582084Y-83540114D02*
X219534465Y-83730590D01*
X219534465Y-83730590D02*
X219534465Y-83873447D01*
X219534465Y-83873447D02*
X219582084Y-84063923D01*
X219582084Y-84063923D02*
X219629703Y-84159161D01*
X219629703Y-84159161D02*
X219724941Y-84254400D01*
X219724941Y-84254400D02*
X219867798Y-84302019D01*
X219867798Y-84302019D02*
X219963036Y-84302019D01*
X219963036Y-84302019D02*
X220105893Y-84254400D01*
X220105893Y-84254400D02*
X220153512Y-84206780D01*
X220153512Y-84206780D02*
X220153512Y-83873447D01*
X220153512Y-83873447D02*
X219963036Y-83873447D01*
X221058274Y-84302019D02*
X220582084Y-84302019D01*
X220582084Y-84302019D02*
X220582084Y-83302019D01*
X221248751Y-83302019D02*
X221582084Y-84302019D01*
X221582084Y-84302019D02*
X221915417Y-83302019D01*
X222248751Y-83921066D02*
X223010656Y-83921066D01*
X214365493Y-83400438D02*
X214270255Y-83352819D01*
X214270255Y-83352819D02*
X214127398Y-83352819D01*
X214127398Y-83352819D02*
X213984541Y-83400438D01*
X213984541Y-83400438D02*
X213889303Y-83495676D01*
X213889303Y-83495676D02*
X213841684Y-83590914D01*
X213841684Y-83590914D02*
X213794065Y-83781390D01*
X213794065Y-83781390D02*
X213794065Y-83924247D01*
X213794065Y-83924247D02*
X213841684Y-84114723D01*
X213841684Y-84114723D02*
X213889303Y-84209961D01*
X213889303Y-84209961D02*
X213984541Y-84305200D01*
X213984541Y-84305200D02*
X214127398Y-84352819D01*
X214127398Y-84352819D02*
X214222636Y-84352819D01*
X214222636Y-84352819D02*
X214365493Y-84305200D01*
X214365493Y-84305200D02*
X214413112Y-84257580D01*
X214413112Y-84257580D02*
X214413112Y-83924247D01*
X214413112Y-83924247D02*
X214222636Y-83924247D01*
X215317874Y-84352819D02*
X214841684Y-84352819D01*
X214841684Y-84352819D02*
X214841684Y-83352819D01*
X215508351Y-83352819D02*
X215841684Y-84352819D01*
X215841684Y-84352819D02*
X216175017Y-83352819D01*
X216508351Y-83971866D02*
X217270256Y-83971866D01*
X216889303Y-84352819D02*
X216889303Y-83590914D01*
X188860712Y-84937019D02*
X188527379Y-84460828D01*
X188289284Y-84937019D02*
X188289284Y-83937019D01*
X188289284Y-83937019D02*
X188670236Y-83937019D01*
X188670236Y-83937019D02*
X188765474Y-83984638D01*
X188765474Y-83984638D02*
X188813093Y-84032257D01*
X188813093Y-84032257D02*
X188860712Y-84127495D01*
X188860712Y-84127495D02*
X188860712Y-84270352D01*
X188860712Y-84270352D02*
X188813093Y-84365590D01*
X188813093Y-84365590D02*
X188765474Y-84413209D01*
X188765474Y-84413209D02*
X188670236Y-84460828D01*
X188670236Y-84460828D02*
X188289284Y-84460828D01*
X189289284Y-84413209D02*
X189622617Y-84413209D01*
X189765474Y-84937019D02*
X189289284Y-84937019D01*
X189289284Y-84937019D02*
X189289284Y-83937019D01*
X189289284Y-83937019D02*
X189765474Y-83937019D01*
X190194046Y-84937019D02*
X190194046Y-83937019D01*
X190194046Y-83937019D02*
X190432141Y-83937019D01*
X190432141Y-83937019D02*
X190574998Y-83984638D01*
X190574998Y-83984638D02*
X190670236Y-84079876D01*
X190670236Y-84079876D02*
X190717855Y-84175114D01*
X190717855Y-84175114D02*
X190765474Y-84365590D01*
X190765474Y-84365590D02*
X190765474Y-84508447D01*
X190765474Y-84508447D02*
X190717855Y-84698923D01*
X190717855Y-84698923D02*
X190670236Y-84794161D01*
X190670236Y-84794161D02*
X190574998Y-84889400D01*
X190574998Y-84889400D02*
X190432141Y-84937019D01*
X190432141Y-84937019D02*
X190194046Y-84937019D01*
X192432141Y-84937019D02*
X191955951Y-84937019D01*
X191955951Y-84937019D02*
X191955951Y-83937019D01*
X192765475Y-84413209D02*
X193098808Y-84413209D01*
X193241665Y-84937019D02*
X192765475Y-84937019D01*
X192765475Y-84937019D02*
X192765475Y-83937019D01*
X192765475Y-83937019D02*
X193241665Y-83937019D01*
X193670237Y-84937019D02*
X193670237Y-83937019D01*
X193670237Y-83937019D02*
X193908332Y-83937019D01*
X193908332Y-83937019D02*
X194051189Y-83984638D01*
X194051189Y-83984638D02*
X194146427Y-84079876D01*
X194146427Y-84079876D02*
X194194046Y-84175114D01*
X194194046Y-84175114D02*
X194241665Y-84365590D01*
X194241665Y-84365590D02*
X194241665Y-84508447D01*
X194241665Y-84508447D02*
X194194046Y-84698923D01*
X194194046Y-84698923D02*
X194146427Y-84794161D01*
X194146427Y-84794161D02*
X194051189Y-84889400D01*
X194051189Y-84889400D02*
X193908332Y-84937019D01*
X193908332Y-84937019D02*
X193670237Y-84937019D01*
X202173493Y-84137038D02*
X202078255Y-84089419D01*
X202078255Y-84089419D02*
X201935398Y-84089419D01*
X201935398Y-84089419D02*
X201792541Y-84137038D01*
X201792541Y-84137038D02*
X201697303Y-84232276D01*
X201697303Y-84232276D02*
X201649684Y-84327514D01*
X201649684Y-84327514D02*
X201602065Y-84517990D01*
X201602065Y-84517990D02*
X201602065Y-84660847D01*
X201602065Y-84660847D02*
X201649684Y-84851323D01*
X201649684Y-84851323D02*
X201697303Y-84946561D01*
X201697303Y-84946561D02*
X201792541Y-85041800D01*
X201792541Y-85041800D02*
X201935398Y-85089419D01*
X201935398Y-85089419D02*
X202030636Y-85089419D01*
X202030636Y-85089419D02*
X202173493Y-85041800D01*
X202173493Y-85041800D02*
X202221112Y-84994180D01*
X202221112Y-84994180D02*
X202221112Y-84660847D01*
X202221112Y-84660847D02*
X202030636Y-84660847D01*
X203221112Y-85089419D02*
X202887779Y-84613228D01*
X202649684Y-85089419D02*
X202649684Y-84089419D01*
X202649684Y-84089419D02*
X203030636Y-84089419D01*
X203030636Y-84089419D02*
X203125874Y-84137038D01*
X203125874Y-84137038D02*
X203173493Y-84184657D01*
X203173493Y-84184657D02*
X203221112Y-84279895D01*
X203221112Y-84279895D02*
X203221112Y-84422752D01*
X203221112Y-84422752D02*
X203173493Y-84517990D01*
X203173493Y-84517990D02*
X203125874Y-84565609D01*
X203125874Y-84565609D02*
X203030636Y-84613228D01*
X203030636Y-84613228D02*
X202649684Y-84613228D01*
X203649684Y-85089419D02*
X203649684Y-84089419D01*
X203649684Y-84089419D02*
X204221112Y-85089419D01*
X204221112Y-85089419D02*
X204221112Y-84089419D01*
X205935398Y-85089419D02*
X205459208Y-85089419D01*
X205459208Y-85089419D02*
X205459208Y-84089419D01*
X206268732Y-84565609D02*
X206602065Y-84565609D01*
X206744922Y-85089419D02*
X206268732Y-85089419D01*
X206268732Y-85089419D02*
X206268732Y-84089419D01*
X206268732Y-84089419D02*
X206744922Y-84089419D01*
X207173494Y-85089419D02*
X207173494Y-84089419D01*
X207173494Y-84089419D02*
X207411589Y-84089419D01*
X207411589Y-84089419D02*
X207554446Y-84137038D01*
X207554446Y-84137038D02*
X207649684Y-84232276D01*
X207649684Y-84232276D02*
X207697303Y-84327514D01*
X207697303Y-84327514D02*
X207744922Y-84517990D01*
X207744922Y-84517990D02*
X207744922Y-84660847D01*
X207744922Y-84660847D02*
X207697303Y-84851323D01*
X207697303Y-84851323D02*
X207649684Y-84946561D01*
X207649684Y-84946561D02*
X207554446Y-85041800D01*
X207554446Y-85041800D02*
X207411589Y-85089419D01*
X207411589Y-85089419D02*
X207173494Y-85089419D01*
X176414712Y-33730619D02*
X176081379Y-33254428D01*
X175843284Y-33730619D02*
X175843284Y-32730619D01*
X175843284Y-32730619D02*
X176224236Y-32730619D01*
X176224236Y-32730619D02*
X176319474Y-32778238D01*
X176319474Y-32778238D02*
X176367093Y-32825857D01*
X176367093Y-32825857D02*
X176414712Y-32921095D01*
X176414712Y-32921095D02*
X176414712Y-33063952D01*
X176414712Y-33063952D02*
X176367093Y-33159190D01*
X176367093Y-33159190D02*
X176319474Y-33206809D01*
X176319474Y-33206809D02*
X176224236Y-33254428D01*
X176224236Y-33254428D02*
X175843284Y-33254428D01*
X176843284Y-33206809D02*
X177176617Y-33206809D01*
X177319474Y-33730619D02*
X176843284Y-33730619D01*
X176843284Y-33730619D02*
X176843284Y-32730619D01*
X176843284Y-32730619D02*
X177319474Y-32730619D01*
X177700427Y-33683000D02*
X177843284Y-33730619D01*
X177843284Y-33730619D02*
X178081379Y-33730619D01*
X178081379Y-33730619D02*
X178176617Y-33683000D01*
X178176617Y-33683000D02*
X178224236Y-33635380D01*
X178224236Y-33635380D02*
X178271855Y-33540142D01*
X178271855Y-33540142D02*
X178271855Y-33444904D01*
X178271855Y-33444904D02*
X178224236Y-33349666D01*
X178224236Y-33349666D02*
X178176617Y-33302047D01*
X178176617Y-33302047D02*
X178081379Y-33254428D01*
X178081379Y-33254428D02*
X177890903Y-33206809D01*
X177890903Y-33206809D02*
X177795665Y-33159190D01*
X177795665Y-33159190D02*
X177748046Y-33111571D01*
X177748046Y-33111571D02*
X177700427Y-33016333D01*
X177700427Y-33016333D02*
X177700427Y-32921095D01*
X177700427Y-32921095D02*
X177748046Y-32825857D01*
X177748046Y-32825857D02*
X177795665Y-32778238D01*
X177795665Y-32778238D02*
X177890903Y-32730619D01*
X177890903Y-32730619D02*
X178128998Y-32730619D01*
X178128998Y-32730619D02*
X178271855Y-32778238D01*
X178700427Y-33206809D02*
X179033760Y-33206809D01*
X179176617Y-33730619D02*
X178700427Y-33730619D01*
X178700427Y-33730619D02*
X178700427Y-32730619D01*
X178700427Y-32730619D02*
X179176617Y-32730619D01*
X179462332Y-32730619D02*
X180033760Y-32730619D01*
X179748046Y-33730619D02*
X179748046Y-32730619D01*
D11*
%TO.C,R19*%
X133365219Y-51925457D02*
X132889028Y-52258790D01*
X133365219Y-52496885D02*
X132365219Y-52496885D01*
X132365219Y-52496885D02*
X132365219Y-52115933D01*
X132365219Y-52115933D02*
X132412838Y-52020695D01*
X132412838Y-52020695D02*
X132460457Y-51973076D01*
X132460457Y-51973076D02*
X132555695Y-51925457D01*
X132555695Y-51925457D02*
X132698552Y-51925457D01*
X132698552Y-51925457D02*
X132793790Y-51973076D01*
X132793790Y-51973076D02*
X132841409Y-52020695D01*
X132841409Y-52020695D02*
X132889028Y-52115933D01*
X132889028Y-52115933D02*
X132889028Y-52496885D01*
X133365219Y-50973076D02*
X133365219Y-51544504D01*
X133365219Y-51258790D02*
X132365219Y-51258790D01*
X132365219Y-51258790D02*
X132508076Y-51354028D01*
X132508076Y-51354028D02*
X132603314Y-51449266D01*
X132603314Y-51449266D02*
X132650933Y-51544504D01*
X133365219Y-50496885D02*
X133365219Y-50306409D01*
X133365219Y-50306409D02*
X133317600Y-50211171D01*
X133317600Y-50211171D02*
X133269980Y-50163552D01*
X133269980Y-50163552D02*
X133127123Y-50068314D01*
X133127123Y-50068314D02*
X132936647Y-50020695D01*
X132936647Y-50020695D02*
X132555695Y-50020695D01*
X132555695Y-50020695D02*
X132460457Y-50068314D01*
X132460457Y-50068314D02*
X132412838Y-50115933D01*
X132412838Y-50115933D02*
X132365219Y-50211171D01*
X132365219Y-50211171D02*
X132365219Y-50401647D01*
X132365219Y-50401647D02*
X132412838Y-50496885D01*
X132412838Y-50496885D02*
X132460457Y-50544504D01*
X132460457Y-50544504D02*
X132555695Y-50592123D01*
X132555695Y-50592123D02*
X132793790Y-50592123D01*
X132793790Y-50592123D02*
X132889028Y-50544504D01*
X132889028Y-50544504D02*
X132936647Y-50496885D01*
X132936647Y-50496885D02*
X132984266Y-50401647D01*
X132984266Y-50401647D02*
X132984266Y-50211171D01*
X132984266Y-50211171D02*
X132936647Y-50115933D01*
X132936647Y-50115933D02*
X132889028Y-50068314D01*
X132889028Y-50068314D02*
X132793790Y-50020695D01*
%TO.C,R18*%
X123129019Y-40393857D02*
X122652828Y-40727190D01*
X123129019Y-40965285D02*
X122129019Y-40965285D01*
X122129019Y-40965285D02*
X122129019Y-40584333D01*
X122129019Y-40584333D02*
X122176638Y-40489095D01*
X122176638Y-40489095D02*
X122224257Y-40441476D01*
X122224257Y-40441476D02*
X122319495Y-40393857D01*
X122319495Y-40393857D02*
X122462352Y-40393857D01*
X122462352Y-40393857D02*
X122557590Y-40441476D01*
X122557590Y-40441476D02*
X122605209Y-40489095D01*
X122605209Y-40489095D02*
X122652828Y-40584333D01*
X122652828Y-40584333D02*
X122652828Y-40965285D01*
X123129019Y-39441476D02*
X123129019Y-40012904D01*
X123129019Y-39727190D02*
X122129019Y-39727190D01*
X122129019Y-39727190D02*
X122271876Y-39822428D01*
X122271876Y-39822428D02*
X122367114Y-39917666D01*
X122367114Y-39917666D02*
X122414733Y-40012904D01*
X122557590Y-38870047D02*
X122509971Y-38965285D01*
X122509971Y-38965285D02*
X122462352Y-39012904D01*
X122462352Y-39012904D02*
X122367114Y-39060523D01*
X122367114Y-39060523D02*
X122319495Y-39060523D01*
X122319495Y-39060523D02*
X122224257Y-39012904D01*
X122224257Y-39012904D02*
X122176638Y-38965285D01*
X122176638Y-38965285D02*
X122129019Y-38870047D01*
X122129019Y-38870047D02*
X122129019Y-38679571D01*
X122129019Y-38679571D02*
X122176638Y-38584333D01*
X122176638Y-38584333D02*
X122224257Y-38536714D01*
X122224257Y-38536714D02*
X122319495Y-38489095D01*
X122319495Y-38489095D02*
X122367114Y-38489095D01*
X122367114Y-38489095D02*
X122462352Y-38536714D01*
X122462352Y-38536714D02*
X122509971Y-38584333D01*
X122509971Y-38584333D02*
X122557590Y-38679571D01*
X122557590Y-38679571D02*
X122557590Y-38870047D01*
X122557590Y-38870047D02*
X122605209Y-38965285D01*
X122605209Y-38965285D02*
X122652828Y-39012904D01*
X122652828Y-39012904D02*
X122748066Y-39060523D01*
X122748066Y-39060523D02*
X122938542Y-39060523D01*
X122938542Y-39060523D02*
X123033780Y-39012904D01*
X123033780Y-39012904D02*
X123081400Y-38965285D01*
X123081400Y-38965285D02*
X123129019Y-38870047D01*
X123129019Y-38870047D02*
X123129019Y-38679571D01*
X123129019Y-38679571D02*
X123081400Y-38584333D01*
X123081400Y-38584333D02*
X123033780Y-38536714D01*
X123033780Y-38536714D02*
X122938542Y-38489095D01*
X122938542Y-38489095D02*
X122748066Y-38489095D01*
X122748066Y-38489095D02*
X122652828Y-38536714D01*
X122652828Y-38536714D02*
X122605209Y-38584333D01*
X122605209Y-38584333D02*
X122557590Y-38679571D01*
%TO.C,R4*%
X91755933Y-59476619D02*
X91422600Y-59000428D01*
X91184505Y-59476619D02*
X91184505Y-58476619D01*
X91184505Y-58476619D02*
X91565457Y-58476619D01*
X91565457Y-58476619D02*
X91660695Y-58524238D01*
X91660695Y-58524238D02*
X91708314Y-58571857D01*
X91708314Y-58571857D02*
X91755933Y-58667095D01*
X91755933Y-58667095D02*
X91755933Y-58809952D01*
X91755933Y-58809952D02*
X91708314Y-58905190D01*
X91708314Y-58905190D02*
X91660695Y-58952809D01*
X91660695Y-58952809D02*
X91565457Y-59000428D01*
X91565457Y-59000428D02*
X91184505Y-59000428D01*
X92613076Y-58809952D02*
X92613076Y-59476619D01*
X92374981Y-58429000D02*
X92136886Y-59143285D01*
X92136886Y-59143285D02*
X92755933Y-59143285D01*
%TO.C,R8*%
X90765333Y-40696219D02*
X90432000Y-40220028D01*
X90193905Y-40696219D02*
X90193905Y-39696219D01*
X90193905Y-39696219D02*
X90574857Y-39696219D01*
X90574857Y-39696219D02*
X90670095Y-39743838D01*
X90670095Y-39743838D02*
X90717714Y-39791457D01*
X90717714Y-39791457D02*
X90765333Y-39886695D01*
X90765333Y-39886695D02*
X90765333Y-40029552D01*
X90765333Y-40029552D02*
X90717714Y-40124790D01*
X90717714Y-40124790D02*
X90670095Y-40172409D01*
X90670095Y-40172409D02*
X90574857Y-40220028D01*
X90574857Y-40220028D02*
X90193905Y-40220028D01*
X91336762Y-40124790D02*
X91241524Y-40077171D01*
X91241524Y-40077171D02*
X91193905Y-40029552D01*
X91193905Y-40029552D02*
X91146286Y-39934314D01*
X91146286Y-39934314D02*
X91146286Y-39886695D01*
X91146286Y-39886695D02*
X91193905Y-39791457D01*
X91193905Y-39791457D02*
X91241524Y-39743838D01*
X91241524Y-39743838D02*
X91336762Y-39696219D01*
X91336762Y-39696219D02*
X91527238Y-39696219D01*
X91527238Y-39696219D02*
X91622476Y-39743838D01*
X91622476Y-39743838D02*
X91670095Y-39791457D01*
X91670095Y-39791457D02*
X91717714Y-39886695D01*
X91717714Y-39886695D02*
X91717714Y-39934314D01*
X91717714Y-39934314D02*
X91670095Y-40029552D01*
X91670095Y-40029552D02*
X91622476Y-40077171D01*
X91622476Y-40077171D02*
X91527238Y-40124790D01*
X91527238Y-40124790D02*
X91336762Y-40124790D01*
X91336762Y-40124790D02*
X91241524Y-40172409D01*
X91241524Y-40172409D02*
X91193905Y-40220028D01*
X91193905Y-40220028D02*
X91146286Y-40315266D01*
X91146286Y-40315266D02*
X91146286Y-40505742D01*
X91146286Y-40505742D02*
X91193905Y-40600980D01*
X91193905Y-40600980D02*
X91241524Y-40648600D01*
X91241524Y-40648600D02*
X91336762Y-40696219D01*
X91336762Y-40696219D02*
X91527238Y-40696219D01*
X91527238Y-40696219D02*
X91622476Y-40648600D01*
X91622476Y-40648600D02*
X91670095Y-40600980D01*
X91670095Y-40600980D02*
X91717714Y-40505742D01*
X91717714Y-40505742D02*
X91717714Y-40315266D01*
X91717714Y-40315266D02*
X91670095Y-40220028D01*
X91670095Y-40220028D02*
X91622476Y-40172409D01*
X91622476Y-40172409D02*
X91527238Y-40124790D01*
%TO.C,R1*%
X123078219Y-52719266D02*
X122602028Y-53052599D01*
X123078219Y-53290694D02*
X122078219Y-53290694D01*
X122078219Y-53290694D02*
X122078219Y-52909742D01*
X122078219Y-52909742D02*
X122125838Y-52814504D01*
X122125838Y-52814504D02*
X122173457Y-52766885D01*
X122173457Y-52766885D02*
X122268695Y-52719266D01*
X122268695Y-52719266D02*
X122411552Y-52719266D01*
X122411552Y-52719266D02*
X122506790Y-52766885D01*
X122506790Y-52766885D02*
X122554409Y-52814504D01*
X122554409Y-52814504D02*
X122602028Y-52909742D01*
X122602028Y-52909742D02*
X122602028Y-53290694D01*
X123078219Y-51766885D02*
X123078219Y-52338313D01*
X123078219Y-52052599D02*
X122078219Y-52052599D01*
X122078219Y-52052599D02*
X122221076Y-52147837D01*
X122221076Y-52147837D02*
X122316314Y-52243075D01*
X122316314Y-52243075D02*
X122363933Y-52338313D01*
%TO.C,J6*%
X176989066Y-45135419D02*
X176989066Y-45849704D01*
X176989066Y-45849704D02*
X176941447Y-45992561D01*
X176941447Y-45992561D02*
X176846209Y-46087800D01*
X176846209Y-46087800D02*
X176703352Y-46135419D01*
X176703352Y-46135419D02*
X176608114Y-46135419D01*
X177893828Y-45135419D02*
X177703352Y-45135419D01*
X177703352Y-45135419D02*
X177608114Y-45183038D01*
X177608114Y-45183038D02*
X177560495Y-45230657D01*
X177560495Y-45230657D02*
X177465257Y-45373514D01*
X177465257Y-45373514D02*
X177417638Y-45563990D01*
X177417638Y-45563990D02*
X177417638Y-45944942D01*
X177417638Y-45944942D02*
X177465257Y-46040180D01*
X177465257Y-46040180D02*
X177512876Y-46087800D01*
X177512876Y-46087800D02*
X177608114Y-46135419D01*
X177608114Y-46135419D02*
X177798590Y-46135419D01*
X177798590Y-46135419D02*
X177893828Y-46087800D01*
X177893828Y-46087800D02*
X177941447Y-46040180D01*
X177941447Y-46040180D02*
X177989066Y-45944942D01*
X177989066Y-45944942D02*
X177989066Y-45706847D01*
X177989066Y-45706847D02*
X177941447Y-45611609D01*
X177941447Y-45611609D02*
X177893828Y-45563990D01*
X177893828Y-45563990D02*
X177798590Y-45516371D01*
X177798590Y-45516371D02*
X177608114Y-45516371D01*
X177608114Y-45516371D02*
X177512876Y-45563990D01*
X177512876Y-45563990D02*
X177465257Y-45611609D01*
X177465257Y-45611609D02*
X177417638Y-45706847D01*
%TO.C,U5*%
X116027295Y-65873019D02*
X116027295Y-66682542D01*
X116027295Y-66682542D02*
X116074914Y-66777780D01*
X116074914Y-66777780D02*
X116122533Y-66825400D01*
X116122533Y-66825400D02*
X116217771Y-66873019D01*
X116217771Y-66873019D02*
X116408247Y-66873019D01*
X116408247Y-66873019D02*
X116503485Y-66825400D01*
X116503485Y-66825400D02*
X116551104Y-66777780D01*
X116551104Y-66777780D02*
X116598723Y-66682542D01*
X116598723Y-66682542D02*
X116598723Y-65873019D01*
X117551104Y-65873019D02*
X117074914Y-65873019D01*
X117074914Y-65873019D02*
X117027295Y-66349209D01*
X117027295Y-66349209D02*
X117074914Y-66301590D01*
X117074914Y-66301590D02*
X117170152Y-66253971D01*
X117170152Y-66253971D02*
X117408247Y-66253971D01*
X117408247Y-66253971D02*
X117503485Y-66301590D01*
X117503485Y-66301590D02*
X117551104Y-66349209D01*
X117551104Y-66349209D02*
X117598723Y-66444447D01*
X117598723Y-66444447D02*
X117598723Y-66682542D01*
X117598723Y-66682542D02*
X117551104Y-66777780D01*
X117551104Y-66777780D02*
X117503485Y-66825400D01*
X117503485Y-66825400D02*
X117408247Y-66873019D01*
X117408247Y-66873019D02*
X117170152Y-66873019D01*
X117170152Y-66873019D02*
X117074914Y-66825400D01*
X117074914Y-66825400D02*
X117027295Y-66777780D01*
%TO.C,U7*%
X161836695Y-59262019D02*
X161836695Y-60071542D01*
X161836695Y-60071542D02*
X161884314Y-60166780D01*
X161884314Y-60166780D02*
X161931933Y-60214400D01*
X161931933Y-60214400D02*
X162027171Y-60262019D01*
X162027171Y-60262019D02*
X162217647Y-60262019D01*
X162217647Y-60262019D02*
X162312885Y-60214400D01*
X162312885Y-60214400D02*
X162360504Y-60166780D01*
X162360504Y-60166780D02*
X162408123Y-60071542D01*
X162408123Y-60071542D02*
X162408123Y-59262019D01*
X162789076Y-59262019D02*
X163455742Y-59262019D01*
X163455742Y-59262019D02*
X163027171Y-60262019D01*
%TO.C,R16*%
X216786619Y-44940457D02*
X216310428Y-45273790D01*
X216786619Y-45511885D02*
X215786619Y-45511885D01*
X215786619Y-45511885D02*
X215786619Y-45130933D01*
X215786619Y-45130933D02*
X215834238Y-45035695D01*
X215834238Y-45035695D02*
X215881857Y-44988076D01*
X215881857Y-44988076D02*
X215977095Y-44940457D01*
X215977095Y-44940457D02*
X216119952Y-44940457D01*
X216119952Y-44940457D02*
X216215190Y-44988076D01*
X216215190Y-44988076D02*
X216262809Y-45035695D01*
X216262809Y-45035695D02*
X216310428Y-45130933D01*
X216310428Y-45130933D02*
X216310428Y-45511885D01*
X216786619Y-43988076D02*
X216786619Y-44559504D01*
X216786619Y-44273790D02*
X215786619Y-44273790D01*
X215786619Y-44273790D02*
X215929476Y-44369028D01*
X215929476Y-44369028D02*
X216024714Y-44464266D01*
X216024714Y-44464266D02*
X216072333Y-44559504D01*
X215786619Y-43130933D02*
X215786619Y-43321409D01*
X215786619Y-43321409D02*
X215834238Y-43416647D01*
X215834238Y-43416647D02*
X215881857Y-43464266D01*
X215881857Y-43464266D02*
X216024714Y-43559504D01*
X216024714Y-43559504D02*
X216215190Y-43607123D01*
X216215190Y-43607123D02*
X216596142Y-43607123D01*
X216596142Y-43607123D02*
X216691380Y-43559504D01*
X216691380Y-43559504D02*
X216739000Y-43511885D01*
X216739000Y-43511885D02*
X216786619Y-43416647D01*
X216786619Y-43416647D02*
X216786619Y-43226171D01*
X216786619Y-43226171D02*
X216739000Y-43130933D01*
X216739000Y-43130933D02*
X216691380Y-43083314D01*
X216691380Y-43083314D02*
X216596142Y-43035695D01*
X216596142Y-43035695D02*
X216358047Y-43035695D01*
X216358047Y-43035695D02*
X216262809Y-43083314D01*
X216262809Y-43083314D02*
X216215190Y-43130933D01*
X216215190Y-43130933D02*
X216167571Y-43226171D01*
X216167571Y-43226171D02*
X216167571Y-43416647D01*
X216167571Y-43416647D02*
X216215190Y-43511885D01*
X216215190Y-43511885D02*
X216262809Y-43559504D01*
X216262809Y-43559504D02*
X216358047Y-43607123D01*
%TO.C,U6*%
X148383995Y-59262019D02*
X148383995Y-60071542D01*
X148383995Y-60071542D02*
X148431614Y-60166780D01*
X148431614Y-60166780D02*
X148479233Y-60214400D01*
X148479233Y-60214400D02*
X148574471Y-60262019D01*
X148574471Y-60262019D02*
X148764947Y-60262019D01*
X148764947Y-60262019D02*
X148860185Y-60214400D01*
X148860185Y-60214400D02*
X148907804Y-60166780D01*
X148907804Y-60166780D02*
X148955423Y-60071542D01*
X148955423Y-60071542D02*
X148955423Y-59262019D01*
X149860185Y-59262019D02*
X149669709Y-59262019D01*
X149669709Y-59262019D02*
X149574471Y-59309638D01*
X149574471Y-59309638D02*
X149526852Y-59357257D01*
X149526852Y-59357257D02*
X149431614Y-59500114D01*
X149431614Y-59500114D02*
X149383995Y-59690590D01*
X149383995Y-59690590D02*
X149383995Y-60071542D01*
X149383995Y-60071542D02*
X149431614Y-60166780D01*
X149431614Y-60166780D02*
X149479233Y-60214400D01*
X149479233Y-60214400D02*
X149574471Y-60262019D01*
X149574471Y-60262019D02*
X149764947Y-60262019D01*
X149764947Y-60262019D02*
X149860185Y-60214400D01*
X149860185Y-60214400D02*
X149907804Y-60166780D01*
X149907804Y-60166780D02*
X149955423Y-60071542D01*
X149955423Y-60071542D02*
X149955423Y-59833447D01*
X149955423Y-59833447D02*
X149907804Y-59738209D01*
X149907804Y-59738209D02*
X149860185Y-59690590D01*
X149860185Y-59690590D02*
X149764947Y-59642971D01*
X149764947Y-59642971D02*
X149574471Y-59642971D01*
X149574471Y-59642971D02*
X149479233Y-59690590D01*
X149479233Y-59690590D02*
X149431614Y-59738209D01*
X149431614Y-59738209D02*
X149383995Y-59833447D01*
%TO.C,R3*%
X115987533Y-61026019D02*
X115654200Y-60549828D01*
X115416105Y-61026019D02*
X115416105Y-60026019D01*
X115416105Y-60026019D02*
X115797057Y-60026019D01*
X115797057Y-60026019D02*
X115892295Y-60073638D01*
X115892295Y-60073638D02*
X115939914Y-60121257D01*
X115939914Y-60121257D02*
X115987533Y-60216495D01*
X115987533Y-60216495D02*
X115987533Y-60359352D01*
X115987533Y-60359352D02*
X115939914Y-60454590D01*
X115939914Y-60454590D02*
X115892295Y-60502209D01*
X115892295Y-60502209D02*
X115797057Y-60549828D01*
X115797057Y-60549828D02*
X115416105Y-60549828D01*
X116320867Y-60026019D02*
X116939914Y-60026019D01*
X116939914Y-60026019D02*
X116606581Y-60406971D01*
X116606581Y-60406971D02*
X116749438Y-60406971D01*
X116749438Y-60406971D02*
X116844676Y-60454590D01*
X116844676Y-60454590D02*
X116892295Y-60502209D01*
X116892295Y-60502209D02*
X116939914Y-60597447D01*
X116939914Y-60597447D02*
X116939914Y-60835542D01*
X116939914Y-60835542D02*
X116892295Y-60930780D01*
X116892295Y-60930780D02*
X116844676Y-60978400D01*
X116844676Y-60978400D02*
X116749438Y-61026019D01*
X116749438Y-61026019D02*
X116463724Y-61026019D01*
X116463724Y-61026019D02*
X116368486Y-60978400D01*
X116368486Y-60978400D02*
X116320867Y-60930780D01*
%TO.C,R2*%
X78674933Y-59451219D02*
X78341600Y-58975028D01*
X78103505Y-59451219D02*
X78103505Y-58451219D01*
X78103505Y-58451219D02*
X78484457Y-58451219D01*
X78484457Y-58451219D02*
X78579695Y-58498838D01*
X78579695Y-58498838D02*
X78627314Y-58546457D01*
X78627314Y-58546457D02*
X78674933Y-58641695D01*
X78674933Y-58641695D02*
X78674933Y-58784552D01*
X78674933Y-58784552D02*
X78627314Y-58879790D01*
X78627314Y-58879790D02*
X78579695Y-58927409D01*
X78579695Y-58927409D02*
X78484457Y-58975028D01*
X78484457Y-58975028D02*
X78103505Y-58975028D01*
X79055886Y-58546457D02*
X79103505Y-58498838D01*
X79103505Y-58498838D02*
X79198743Y-58451219D01*
X79198743Y-58451219D02*
X79436838Y-58451219D01*
X79436838Y-58451219D02*
X79532076Y-58498838D01*
X79532076Y-58498838D02*
X79579695Y-58546457D01*
X79579695Y-58546457D02*
X79627314Y-58641695D01*
X79627314Y-58641695D02*
X79627314Y-58736933D01*
X79627314Y-58736933D02*
X79579695Y-58879790D01*
X79579695Y-58879790D02*
X79008267Y-59451219D01*
X79008267Y-59451219D02*
X79627314Y-59451219D01*
%TO.C,R10*%
X128717019Y-45118257D02*
X128240828Y-45451590D01*
X128717019Y-45689685D02*
X127717019Y-45689685D01*
X127717019Y-45689685D02*
X127717019Y-45308733D01*
X127717019Y-45308733D02*
X127764638Y-45213495D01*
X127764638Y-45213495D02*
X127812257Y-45165876D01*
X127812257Y-45165876D02*
X127907495Y-45118257D01*
X127907495Y-45118257D02*
X128050352Y-45118257D01*
X128050352Y-45118257D02*
X128145590Y-45165876D01*
X128145590Y-45165876D02*
X128193209Y-45213495D01*
X128193209Y-45213495D02*
X128240828Y-45308733D01*
X128240828Y-45308733D02*
X128240828Y-45689685D01*
X128717019Y-44165876D02*
X128717019Y-44737304D01*
X128717019Y-44451590D02*
X127717019Y-44451590D01*
X127717019Y-44451590D02*
X127859876Y-44546828D01*
X127859876Y-44546828D02*
X127955114Y-44642066D01*
X127955114Y-44642066D02*
X128002733Y-44737304D01*
X127717019Y-43546828D02*
X127717019Y-43451590D01*
X127717019Y-43451590D02*
X127764638Y-43356352D01*
X127764638Y-43356352D02*
X127812257Y-43308733D01*
X127812257Y-43308733D02*
X127907495Y-43261114D01*
X127907495Y-43261114D02*
X128097971Y-43213495D01*
X128097971Y-43213495D02*
X128336066Y-43213495D01*
X128336066Y-43213495D02*
X128526542Y-43261114D01*
X128526542Y-43261114D02*
X128621780Y-43308733D01*
X128621780Y-43308733D02*
X128669400Y-43356352D01*
X128669400Y-43356352D02*
X128717019Y-43451590D01*
X128717019Y-43451590D02*
X128717019Y-43546828D01*
X128717019Y-43546828D02*
X128669400Y-43642066D01*
X128669400Y-43642066D02*
X128621780Y-43689685D01*
X128621780Y-43689685D02*
X128526542Y-43737304D01*
X128526542Y-43737304D02*
X128336066Y-43784923D01*
X128336066Y-43784923D02*
X128097971Y-43784923D01*
X128097971Y-43784923D02*
X127907495Y-43737304D01*
X127907495Y-43737304D02*
X127812257Y-43689685D01*
X127812257Y-43689685D02*
X127764638Y-43642066D01*
X127764638Y-43642066D02*
X127717019Y-43546828D01*
%TO.C,C2*%
X133379380Y-41771866D02*
X133427000Y-41819485D01*
X133427000Y-41819485D02*
X133474619Y-41962342D01*
X133474619Y-41962342D02*
X133474619Y-42057580D01*
X133474619Y-42057580D02*
X133427000Y-42200437D01*
X133427000Y-42200437D02*
X133331761Y-42295675D01*
X133331761Y-42295675D02*
X133236523Y-42343294D01*
X133236523Y-42343294D02*
X133046047Y-42390913D01*
X133046047Y-42390913D02*
X132903190Y-42390913D01*
X132903190Y-42390913D02*
X132712714Y-42343294D01*
X132712714Y-42343294D02*
X132617476Y-42295675D01*
X132617476Y-42295675D02*
X132522238Y-42200437D01*
X132522238Y-42200437D02*
X132474619Y-42057580D01*
X132474619Y-42057580D02*
X132474619Y-41962342D01*
X132474619Y-41962342D02*
X132522238Y-41819485D01*
X132522238Y-41819485D02*
X132569857Y-41771866D01*
X132569857Y-41390913D02*
X132522238Y-41343294D01*
X132522238Y-41343294D02*
X132474619Y-41248056D01*
X132474619Y-41248056D02*
X132474619Y-41009961D01*
X132474619Y-41009961D02*
X132522238Y-40914723D01*
X132522238Y-40914723D02*
X132569857Y-40867104D01*
X132569857Y-40867104D02*
X132665095Y-40819485D01*
X132665095Y-40819485D02*
X132760333Y-40819485D01*
X132760333Y-40819485D02*
X132903190Y-40867104D01*
X132903190Y-40867104D02*
X133474619Y-41438532D01*
X133474619Y-41438532D02*
X133474619Y-40819485D01*
%TO.C,Q1*%
X134816857Y-71926438D02*
X134769238Y-72021676D01*
X134769238Y-72021676D02*
X134674000Y-72116914D01*
X134674000Y-72116914D02*
X134531142Y-72259771D01*
X134531142Y-72259771D02*
X134483523Y-72355009D01*
X134483523Y-72355009D02*
X134483523Y-72450247D01*
X134721619Y-72402628D02*
X134674000Y-72497866D01*
X134674000Y-72497866D02*
X134578761Y-72593104D01*
X134578761Y-72593104D02*
X134388285Y-72640723D01*
X134388285Y-72640723D02*
X134054952Y-72640723D01*
X134054952Y-72640723D02*
X133864476Y-72593104D01*
X133864476Y-72593104D02*
X133769238Y-72497866D01*
X133769238Y-72497866D02*
X133721619Y-72402628D01*
X133721619Y-72402628D02*
X133721619Y-72212152D01*
X133721619Y-72212152D02*
X133769238Y-72116914D01*
X133769238Y-72116914D02*
X133864476Y-72021676D01*
X133864476Y-72021676D02*
X134054952Y-71974057D01*
X134054952Y-71974057D02*
X134388285Y-71974057D01*
X134388285Y-71974057D02*
X134578761Y-72021676D01*
X134578761Y-72021676D02*
X134674000Y-72116914D01*
X134674000Y-72116914D02*
X134721619Y-72212152D01*
X134721619Y-72212152D02*
X134721619Y-72402628D01*
X134721619Y-71021676D02*
X134721619Y-71593104D01*
X134721619Y-71307390D02*
X133721619Y-71307390D01*
X133721619Y-71307390D02*
X133864476Y-71402628D01*
X133864476Y-71402628D02*
X133959714Y-71497866D01*
X133959714Y-71497866D02*
X134007333Y-71593104D01*
%TO.C,R28*%
X138013419Y-59545457D02*
X137537228Y-59878790D01*
X138013419Y-60116885D02*
X137013419Y-60116885D01*
X137013419Y-60116885D02*
X137013419Y-59735933D01*
X137013419Y-59735933D02*
X137061038Y-59640695D01*
X137061038Y-59640695D02*
X137108657Y-59593076D01*
X137108657Y-59593076D02*
X137203895Y-59545457D01*
X137203895Y-59545457D02*
X137346752Y-59545457D01*
X137346752Y-59545457D02*
X137441990Y-59593076D01*
X137441990Y-59593076D02*
X137489609Y-59640695D01*
X137489609Y-59640695D02*
X137537228Y-59735933D01*
X137537228Y-59735933D02*
X137537228Y-60116885D01*
X137108657Y-59164504D02*
X137061038Y-59116885D01*
X137061038Y-59116885D02*
X137013419Y-59021647D01*
X137013419Y-59021647D02*
X137013419Y-58783552D01*
X137013419Y-58783552D02*
X137061038Y-58688314D01*
X137061038Y-58688314D02*
X137108657Y-58640695D01*
X137108657Y-58640695D02*
X137203895Y-58593076D01*
X137203895Y-58593076D02*
X137299133Y-58593076D01*
X137299133Y-58593076D02*
X137441990Y-58640695D01*
X137441990Y-58640695D02*
X138013419Y-59212123D01*
X138013419Y-59212123D02*
X138013419Y-58593076D01*
X137441990Y-58021647D02*
X137394371Y-58116885D01*
X137394371Y-58116885D02*
X137346752Y-58164504D01*
X137346752Y-58164504D02*
X137251514Y-58212123D01*
X137251514Y-58212123D02*
X137203895Y-58212123D01*
X137203895Y-58212123D02*
X137108657Y-58164504D01*
X137108657Y-58164504D02*
X137061038Y-58116885D01*
X137061038Y-58116885D02*
X137013419Y-58021647D01*
X137013419Y-58021647D02*
X137013419Y-57831171D01*
X137013419Y-57831171D02*
X137061038Y-57735933D01*
X137061038Y-57735933D02*
X137108657Y-57688314D01*
X137108657Y-57688314D02*
X137203895Y-57640695D01*
X137203895Y-57640695D02*
X137251514Y-57640695D01*
X137251514Y-57640695D02*
X137346752Y-57688314D01*
X137346752Y-57688314D02*
X137394371Y-57735933D01*
X137394371Y-57735933D02*
X137441990Y-57831171D01*
X137441990Y-57831171D02*
X137441990Y-58021647D01*
X137441990Y-58021647D02*
X137489609Y-58116885D01*
X137489609Y-58116885D02*
X137537228Y-58164504D01*
X137537228Y-58164504D02*
X137632466Y-58212123D01*
X137632466Y-58212123D02*
X137822942Y-58212123D01*
X137822942Y-58212123D02*
X137918180Y-58164504D01*
X137918180Y-58164504D02*
X137965800Y-58116885D01*
X137965800Y-58116885D02*
X138013419Y-58021647D01*
X138013419Y-58021647D02*
X138013419Y-57831171D01*
X138013419Y-57831171D02*
X137965800Y-57735933D01*
X137965800Y-57735933D02*
X137918180Y-57688314D01*
X137918180Y-57688314D02*
X137822942Y-57640695D01*
X137822942Y-57640695D02*
X137632466Y-57640695D01*
X137632466Y-57640695D02*
X137537228Y-57688314D01*
X137537228Y-57688314D02*
X137489609Y-57735933D01*
X137489609Y-57735933D02*
X137441990Y-57831171D01*
%TO.C,R5*%
X110216019Y-52897066D02*
X109739828Y-53230399D01*
X110216019Y-53468494D02*
X109216019Y-53468494D01*
X109216019Y-53468494D02*
X109216019Y-53087542D01*
X109216019Y-53087542D02*
X109263638Y-52992304D01*
X109263638Y-52992304D02*
X109311257Y-52944685D01*
X109311257Y-52944685D02*
X109406495Y-52897066D01*
X109406495Y-52897066D02*
X109549352Y-52897066D01*
X109549352Y-52897066D02*
X109644590Y-52944685D01*
X109644590Y-52944685D02*
X109692209Y-52992304D01*
X109692209Y-52992304D02*
X109739828Y-53087542D01*
X109739828Y-53087542D02*
X109739828Y-53468494D01*
X109216019Y-51992304D02*
X109216019Y-52468494D01*
X109216019Y-52468494D02*
X109692209Y-52516113D01*
X109692209Y-52516113D02*
X109644590Y-52468494D01*
X109644590Y-52468494D02*
X109596971Y-52373256D01*
X109596971Y-52373256D02*
X109596971Y-52135161D01*
X109596971Y-52135161D02*
X109644590Y-52039923D01*
X109644590Y-52039923D02*
X109692209Y-51992304D01*
X109692209Y-51992304D02*
X109787447Y-51944685D01*
X109787447Y-51944685D02*
X110025542Y-51944685D01*
X110025542Y-51944685D02*
X110120780Y-51992304D01*
X110120780Y-51992304D02*
X110168400Y-52039923D01*
X110168400Y-52039923D02*
X110216019Y-52135161D01*
X110216019Y-52135161D02*
X110216019Y-52373256D01*
X110216019Y-52373256D02*
X110168400Y-52468494D01*
X110168400Y-52468494D02*
X110120780Y-52516113D01*
%TO.C,D3*%
X155878305Y-34256019D02*
X155878305Y-33256019D01*
X155878305Y-33256019D02*
X156116400Y-33256019D01*
X156116400Y-33256019D02*
X156259257Y-33303638D01*
X156259257Y-33303638D02*
X156354495Y-33398876D01*
X156354495Y-33398876D02*
X156402114Y-33494114D01*
X156402114Y-33494114D02*
X156449733Y-33684590D01*
X156449733Y-33684590D02*
X156449733Y-33827447D01*
X156449733Y-33827447D02*
X156402114Y-34017923D01*
X156402114Y-34017923D02*
X156354495Y-34113161D01*
X156354495Y-34113161D02*
X156259257Y-34208400D01*
X156259257Y-34208400D02*
X156116400Y-34256019D01*
X156116400Y-34256019D02*
X155878305Y-34256019D01*
X156783067Y-33256019D02*
X157402114Y-33256019D01*
X157402114Y-33256019D02*
X157068781Y-33636971D01*
X157068781Y-33636971D02*
X157211638Y-33636971D01*
X157211638Y-33636971D02*
X157306876Y-33684590D01*
X157306876Y-33684590D02*
X157354495Y-33732209D01*
X157354495Y-33732209D02*
X157402114Y-33827447D01*
X157402114Y-33827447D02*
X157402114Y-34065542D01*
X157402114Y-34065542D02*
X157354495Y-34160780D01*
X157354495Y-34160780D02*
X157306876Y-34208400D01*
X157306876Y-34208400D02*
X157211638Y-34256019D01*
X157211638Y-34256019D02*
X156925924Y-34256019D01*
X156925924Y-34256019D02*
X156830686Y-34208400D01*
X156830686Y-34208400D02*
X156783067Y-34160780D01*
X151274495Y-34626019D02*
X151274495Y-33626019D01*
X151845923Y-34626019D02*
X151417352Y-34054590D01*
X151845923Y-33626019D02*
X151274495Y-34197447D01*
%TO.C,R14*%
X202418019Y-48725057D02*
X201941828Y-49058390D01*
X202418019Y-49296485D02*
X201418019Y-49296485D01*
X201418019Y-49296485D02*
X201418019Y-48915533D01*
X201418019Y-48915533D02*
X201465638Y-48820295D01*
X201465638Y-48820295D02*
X201513257Y-48772676D01*
X201513257Y-48772676D02*
X201608495Y-48725057D01*
X201608495Y-48725057D02*
X201751352Y-48725057D01*
X201751352Y-48725057D02*
X201846590Y-48772676D01*
X201846590Y-48772676D02*
X201894209Y-48820295D01*
X201894209Y-48820295D02*
X201941828Y-48915533D01*
X201941828Y-48915533D02*
X201941828Y-49296485D01*
X202418019Y-47772676D02*
X202418019Y-48344104D01*
X202418019Y-48058390D02*
X201418019Y-48058390D01*
X201418019Y-48058390D02*
X201560876Y-48153628D01*
X201560876Y-48153628D02*
X201656114Y-48248866D01*
X201656114Y-48248866D02*
X201703733Y-48344104D01*
X201751352Y-46915533D02*
X202418019Y-46915533D01*
X201370400Y-47153628D02*
X202084685Y-47391723D01*
X202084685Y-47391723D02*
X202084685Y-46772676D01*
%TO.C,J1*%
X75132819Y-50137733D02*
X75847104Y-50137733D01*
X75847104Y-50137733D02*
X75989961Y-50185352D01*
X75989961Y-50185352D02*
X76085200Y-50280590D01*
X76085200Y-50280590D02*
X76132819Y-50423447D01*
X76132819Y-50423447D02*
X76132819Y-50518685D01*
X76132819Y-49137733D02*
X76132819Y-49709161D01*
X76132819Y-49423447D02*
X75132819Y-49423447D01*
X75132819Y-49423447D02*
X75275676Y-49518685D01*
X75275676Y-49518685D02*
X75370914Y-49613923D01*
X75370914Y-49613923D02*
X75418533Y-49709161D01*
%TO.C,C4*%
X214590333Y-36612780D02*
X214542714Y-36660400D01*
X214542714Y-36660400D02*
X214399857Y-36708019D01*
X214399857Y-36708019D02*
X214304619Y-36708019D01*
X214304619Y-36708019D02*
X214161762Y-36660400D01*
X214161762Y-36660400D02*
X214066524Y-36565161D01*
X214066524Y-36565161D02*
X214018905Y-36469923D01*
X214018905Y-36469923D02*
X213971286Y-36279447D01*
X213971286Y-36279447D02*
X213971286Y-36136590D01*
X213971286Y-36136590D02*
X214018905Y-35946114D01*
X214018905Y-35946114D02*
X214066524Y-35850876D01*
X214066524Y-35850876D02*
X214161762Y-35755638D01*
X214161762Y-35755638D02*
X214304619Y-35708019D01*
X214304619Y-35708019D02*
X214399857Y-35708019D01*
X214399857Y-35708019D02*
X214542714Y-35755638D01*
X214542714Y-35755638D02*
X214590333Y-35803257D01*
X215447476Y-36041352D02*
X215447476Y-36708019D01*
X215209381Y-35660400D02*
X214971286Y-36374685D01*
X214971286Y-36374685D02*
X215590333Y-36374685D01*
%TO.C,J4*%
X86204466Y-69928219D02*
X86204466Y-70642504D01*
X86204466Y-70642504D02*
X86156847Y-70785361D01*
X86156847Y-70785361D02*
X86061609Y-70880600D01*
X86061609Y-70880600D02*
X85918752Y-70928219D01*
X85918752Y-70928219D02*
X85823514Y-70928219D01*
X87109228Y-70261552D02*
X87109228Y-70928219D01*
X86871133Y-69880600D02*
X86633038Y-70594885D01*
X86633038Y-70594885D02*
X87252085Y-70594885D01*
%TO.C,C1*%
X113899333Y-77593580D02*
X113851714Y-77641200D01*
X113851714Y-77641200D02*
X113708857Y-77688819D01*
X113708857Y-77688819D02*
X113613619Y-77688819D01*
X113613619Y-77688819D02*
X113470762Y-77641200D01*
X113470762Y-77641200D02*
X113375524Y-77545961D01*
X113375524Y-77545961D02*
X113327905Y-77450723D01*
X113327905Y-77450723D02*
X113280286Y-77260247D01*
X113280286Y-77260247D02*
X113280286Y-77117390D01*
X113280286Y-77117390D02*
X113327905Y-76926914D01*
X113327905Y-76926914D02*
X113375524Y-76831676D01*
X113375524Y-76831676D02*
X113470762Y-76736438D01*
X113470762Y-76736438D02*
X113613619Y-76688819D01*
X113613619Y-76688819D02*
X113708857Y-76688819D01*
X113708857Y-76688819D02*
X113851714Y-76736438D01*
X113851714Y-76736438D02*
X113899333Y-76784057D01*
X114851714Y-77688819D02*
X114280286Y-77688819D01*
X114566000Y-77688819D02*
X114566000Y-76688819D01*
X114566000Y-76688819D02*
X114470762Y-76831676D01*
X114470762Y-76831676D02*
X114375524Y-76926914D01*
X114375524Y-76926914D02*
X114280286Y-76974533D01*
%TO.C,J7*%
X217034866Y-70792019D02*
X217034866Y-71506304D01*
X217034866Y-71506304D02*
X216987247Y-71649161D01*
X216987247Y-71649161D02*
X216892009Y-71744400D01*
X216892009Y-71744400D02*
X216749152Y-71792019D01*
X216749152Y-71792019D02*
X216653914Y-71792019D01*
X217415819Y-70792019D02*
X218082485Y-70792019D01*
X218082485Y-70792019D02*
X217653914Y-71792019D01*
%TO.C,K2*%
X185925619Y-62739494D02*
X184925619Y-62739494D01*
X185925619Y-62168066D02*
X185354190Y-62596637D01*
X184925619Y-62168066D02*
X185497047Y-62739494D01*
X185020857Y-61787113D02*
X184973238Y-61739494D01*
X184973238Y-61739494D02*
X184925619Y-61644256D01*
X184925619Y-61644256D02*
X184925619Y-61406161D01*
X184925619Y-61406161D02*
X184973238Y-61310923D01*
X184973238Y-61310923D02*
X185020857Y-61263304D01*
X185020857Y-61263304D02*
X185116095Y-61215685D01*
X185116095Y-61215685D02*
X185211333Y-61215685D01*
X185211333Y-61215685D02*
X185354190Y-61263304D01*
X185354190Y-61263304D02*
X185925619Y-61834732D01*
X185925619Y-61834732D02*
X185925619Y-61215685D01*
%TO.C,R12*%
X134154942Y-37445019D02*
X133821609Y-36968828D01*
X133583514Y-37445019D02*
X133583514Y-36445019D01*
X133583514Y-36445019D02*
X133964466Y-36445019D01*
X133964466Y-36445019D02*
X134059704Y-36492638D01*
X134059704Y-36492638D02*
X134107323Y-36540257D01*
X134107323Y-36540257D02*
X134154942Y-36635495D01*
X134154942Y-36635495D02*
X134154942Y-36778352D01*
X134154942Y-36778352D02*
X134107323Y-36873590D01*
X134107323Y-36873590D02*
X134059704Y-36921209D01*
X134059704Y-36921209D02*
X133964466Y-36968828D01*
X133964466Y-36968828D02*
X133583514Y-36968828D01*
X135107323Y-37445019D02*
X134535895Y-37445019D01*
X134821609Y-37445019D02*
X134821609Y-36445019D01*
X134821609Y-36445019D02*
X134726371Y-36587876D01*
X134726371Y-36587876D02*
X134631133Y-36683114D01*
X134631133Y-36683114D02*
X134535895Y-36730733D01*
X135488276Y-36540257D02*
X135535895Y-36492638D01*
X135535895Y-36492638D02*
X135631133Y-36445019D01*
X135631133Y-36445019D02*
X135869228Y-36445019D01*
X135869228Y-36445019D02*
X135964466Y-36492638D01*
X135964466Y-36492638D02*
X136012085Y-36540257D01*
X136012085Y-36540257D02*
X136059704Y-36635495D01*
X136059704Y-36635495D02*
X136059704Y-36730733D01*
X136059704Y-36730733D02*
X136012085Y-36873590D01*
X136012085Y-36873590D02*
X135440657Y-37445019D01*
X135440657Y-37445019D02*
X136059704Y-37445019D01*
%TO.C,D2*%
X85164705Y-51698419D02*
X85164705Y-50698419D01*
X85164705Y-50698419D02*
X85402800Y-50698419D01*
X85402800Y-50698419D02*
X85545657Y-50746038D01*
X85545657Y-50746038D02*
X85640895Y-50841276D01*
X85640895Y-50841276D02*
X85688514Y-50936514D01*
X85688514Y-50936514D02*
X85736133Y-51126990D01*
X85736133Y-51126990D02*
X85736133Y-51269847D01*
X85736133Y-51269847D02*
X85688514Y-51460323D01*
X85688514Y-51460323D02*
X85640895Y-51555561D01*
X85640895Y-51555561D02*
X85545657Y-51650800D01*
X85545657Y-51650800D02*
X85402800Y-51698419D01*
X85402800Y-51698419D02*
X85164705Y-51698419D01*
X86117086Y-50793657D02*
X86164705Y-50746038D01*
X86164705Y-50746038D02*
X86259943Y-50698419D01*
X86259943Y-50698419D02*
X86498038Y-50698419D01*
X86498038Y-50698419D02*
X86593276Y-50746038D01*
X86593276Y-50746038D02*
X86640895Y-50793657D01*
X86640895Y-50793657D02*
X86688514Y-50888895D01*
X86688514Y-50888895D02*
X86688514Y-50984133D01*
X86688514Y-50984133D02*
X86640895Y-51126990D01*
X86640895Y-51126990D02*
X86069467Y-51698419D01*
X86069467Y-51698419D02*
X86688514Y-51698419D01*
X89450895Y-51378419D02*
X89450895Y-50378419D01*
X90022323Y-51378419D02*
X89593752Y-50806990D01*
X90022323Y-50378419D02*
X89450895Y-50949847D01*
%TO.C,J5*%
X101647666Y-70080619D02*
X101647666Y-70794904D01*
X101647666Y-70794904D02*
X101600047Y-70937761D01*
X101600047Y-70937761D02*
X101504809Y-71033000D01*
X101504809Y-71033000D02*
X101361952Y-71080619D01*
X101361952Y-71080619D02*
X101266714Y-71080619D01*
X102600047Y-70080619D02*
X102123857Y-70080619D01*
X102123857Y-70080619D02*
X102076238Y-70556809D01*
X102076238Y-70556809D02*
X102123857Y-70509190D01*
X102123857Y-70509190D02*
X102219095Y-70461571D01*
X102219095Y-70461571D02*
X102457190Y-70461571D01*
X102457190Y-70461571D02*
X102552428Y-70509190D01*
X102552428Y-70509190D02*
X102600047Y-70556809D01*
X102600047Y-70556809D02*
X102647666Y-70652047D01*
X102647666Y-70652047D02*
X102647666Y-70890142D01*
X102647666Y-70890142D02*
X102600047Y-70985380D01*
X102600047Y-70985380D02*
X102552428Y-71033000D01*
X102552428Y-71033000D02*
X102457190Y-71080619D01*
X102457190Y-71080619D02*
X102219095Y-71080619D01*
X102219095Y-71080619D02*
X102123857Y-71033000D01*
X102123857Y-71033000D02*
X102076238Y-70985380D01*
%TO.C,D4*%
X209040505Y-68990219D02*
X209040505Y-67990219D01*
X209040505Y-67990219D02*
X209278600Y-67990219D01*
X209278600Y-67990219D02*
X209421457Y-68037838D01*
X209421457Y-68037838D02*
X209516695Y-68133076D01*
X209516695Y-68133076D02*
X209564314Y-68228314D01*
X209564314Y-68228314D02*
X209611933Y-68418790D01*
X209611933Y-68418790D02*
X209611933Y-68561647D01*
X209611933Y-68561647D02*
X209564314Y-68752123D01*
X209564314Y-68752123D02*
X209516695Y-68847361D01*
X209516695Y-68847361D02*
X209421457Y-68942600D01*
X209421457Y-68942600D02*
X209278600Y-68990219D01*
X209278600Y-68990219D02*
X209040505Y-68990219D01*
X210469076Y-68323552D02*
X210469076Y-68990219D01*
X210230981Y-67942600D02*
X209992886Y-68656885D01*
X209992886Y-68656885D02*
X210611933Y-68656885D01*
X214596695Y-68620219D02*
X214596695Y-67620219D01*
X215168123Y-68620219D02*
X214739552Y-68048790D01*
X215168123Y-67620219D02*
X214596695Y-68191647D01*
%TO.C,K1*%
X166192619Y-43333494D02*
X165192619Y-43333494D01*
X166192619Y-42762066D02*
X165621190Y-43190637D01*
X165192619Y-42762066D02*
X165764047Y-43333494D01*
X166192619Y-41809685D02*
X166192619Y-42381113D01*
X166192619Y-42095399D02*
X165192619Y-42095399D01*
X165192619Y-42095399D02*
X165335476Y-42190637D01*
X165335476Y-42190637D02*
X165430714Y-42285875D01*
X165430714Y-42285875D02*
X165478333Y-42381113D01*
%TO.C,C6*%
X212405933Y-57237580D02*
X212358314Y-57285200D01*
X212358314Y-57285200D02*
X212215457Y-57332819D01*
X212215457Y-57332819D02*
X212120219Y-57332819D01*
X212120219Y-57332819D02*
X211977362Y-57285200D01*
X211977362Y-57285200D02*
X211882124Y-57189961D01*
X211882124Y-57189961D02*
X211834505Y-57094723D01*
X211834505Y-57094723D02*
X211786886Y-56904247D01*
X211786886Y-56904247D02*
X211786886Y-56761390D01*
X211786886Y-56761390D02*
X211834505Y-56570914D01*
X211834505Y-56570914D02*
X211882124Y-56475676D01*
X211882124Y-56475676D02*
X211977362Y-56380438D01*
X211977362Y-56380438D02*
X212120219Y-56332819D01*
X212120219Y-56332819D02*
X212215457Y-56332819D01*
X212215457Y-56332819D02*
X212358314Y-56380438D01*
X212358314Y-56380438D02*
X212405933Y-56428057D01*
X213263076Y-56332819D02*
X213072600Y-56332819D01*
X213072600Y-56332819D02*
X212977362Y-56380438D01*
X212977362Y-56380438D02*
X212929743Y-56428057D01*
X212929743Y-56428057D02*
X212834505Y-56570914D01*
X212834505Y-56570914D02*
X212786886Y-56761390D01*
X212786886Y-56761390D02*
X212786886Y-57142342D01*
X212786886Y-57142342D02*
X212834505Y-57237580D01*
X212834505Y-57237580D02*
X212882124Y-57285200D01*
X212882124Y-57285200D02*
X212977362Y-57332819D01*
X212977362Y-57332819D02*
X213167838Y-57332819D01*
X213167838Y-57332819D02*
X213263076Y-57285200D01*
X213263076Y-57285200D02*
X213310695Y-57237580D01*
X213310695Y-57237580D02*
X213358314Y-57142342D01*
X213358314Y-57142342D02*
X213358314Y-56904247D01*
X213358314Y-56904247D02*
X213310695Y-56809009D01*
X213310695Y-56809009D02*
X213263076Y-56761390D01*
X213263076Y-56761390D02*
X213167838Y-56713771D01*
X213167838Y-56713771D02*
X212977362Y-56713771D01*
X212977362Y-56713771D02*
X212882124Y-56761390D01*
X212882124Y-56761390D02*
X212834505Y-56809009D01*
X212834505Y-56809009D02*
X212786886Y-56904247D01*
%TO.C,J8*%
X203953866Y-70639619D02*
X203953866Y-71353904D01*
X203953866Y-71353904D02*
X203906247Y-71496761D01*
X203906247Y-71496761D02*
X203811009Y-71592000D01*
X203811009Y-71592000D02*
X203668152Y-71639619D01*
X203668152Y-71639619D02*
X203572914Y-71639619D01*
X204572914Y-71068190D02*
X204477676Y-71020571D01*
X204477676Y-71020571D02*
X204430057Y-70972952D01*
X204430057Y-70972952D02*
X204382438Y-70877714D01*
X204382438Y-70877714D02*
X204382438Y-70830095D01*
X204382438Y-70830095D02*
X204430057Y-70734857D01*
X204430057Y-70734857D02*
X204477676Y-70687238D01*
X204477676Y-70687238D02*
X204572914Y-70639619D01*
X204572914Y-70639619D02*
X204763390Y-70639619D01*
X204763390Y-70639619D02*
X204858628Y-70687238D01*
X204858628Y-70687238D02*
X204906247Y-70734857D01*
X204906247Y-70734857D02*
X204953866Y-70830095D01*
X204953866Y-70830095D02*
X204953866Y-70877714D01*
X204953866Y-70877714D02*
X204906247Y-70972952D01*
X204906247Y-70972952D02*
X204858628Y-71020571D01*
X204858628Y-71020571D02*
X204763390Y-71068190D01*
X204763390Y-71068190D02*
X204572914Y-71068190D01*
X204572914Y-71068190D02*
X204477676Y-71115809D01*
X204477676Y-71115809D02*
X204430057Y-71163428D01*
X204430057Y-71163428D02*
X204382438Y-71258666D01*
X204382438Y-71258666D02*
X204382438Y-71449142D01*
X204382438Y-71449142D02*
X204430057Y-71544380D01*
X204430057Y-71544380D02*
X204477676Y-71592000D01*
X204477676Y-71592000D02*
X204572914Y-71639619D01*
X204572914Y-71639619D02*
X204763390Y-71639619D01*
X204763390Y-71639619D02*
X204858628Y-71592000D01*
X204858628Y-71592000D02*
X204906247Y-71544380D01*
X204906247Y-71544380D02*
X204953866Y-71449142D01*
X204953866Y-71449142D02*
X204953866Y-71258666D01*
X204953866Y-71258666D02*
X204906247Y-71163428D01*
X204906247Y-71163428D02*
X204858628Y-71115809D01*
X204858628Y-71115809D02*
X204763390Y-71068190D01*
%TO.C,C5*%
X206081333Y-57313780D02*
X206033714Y-57361400D01*
X206033714Y-57361400D02*
X205890857Y-57409019D01*
X205890857Y-57409019D02*
X205795619Y-57409019D01*
X205795619Y-57409019D02*
X205652762Y-57361400D01*
X205652762Y-57361400D02*
X205557524Y-57266161D01*
X205557524Y-57266161D02*
X205509905Y-57170923D01*
X205509905Y-57170923D02*
X205462286Y-56980447D01*
X205462286Y-56980447D02*
X205462286Y-56837590D01*
X205462286Y-56837590D02*
X205509905Y-56647114D01*
X205509905Y-56647114D02*
X205557524Y-56551876D01*
X205557524Y-56551876D02*
X205652762Y-56456638D01*
X205652762Y-56456638D02*
X205795619Y-56409019D01*
X205795619Y-56409019D02*
X205890857Y-56409019D01*
X205890857Y-56409019D02*
X206033714Y-56456638D01*
X206033714Y-56456638D02*
X206081333Y-56504257D01*
X206986095Y-56409019D02*
X206509905Y-56409019D01*
X206509905Y-56409019D02*
X206462286Y-56885209D01*
X206462286Y-56885209D02*
X206509905Y-56837590D01*
X206509905Y-56837590D02*
X206605143Y-56789971D01*
X206605143Y-56789971D02*
X206843238Y-56789971D01*
X206843238Y-56789971D02*
X206938476Y-56837590D01*
X206938476Y-56837590D02*
X206986095Y-56885209D01*
X206986095Y-56885209D02*
X207033714Y-56980447D01*
X207033714Y-56980447D02*
X207033714Y-57218542D01*
X207033714Y-57218542D02*
X206986095Y-57313780D01*
X206986095Y-57313780D02*
X206938476Y-57361400D01*
X206938476Y-57361400D02*
X206843238Y-57409019D01*
X206843238Y-57409019D02*
X206605143Y-57409019D01*
X206605143Y-57409019D02*
X206509905Y-57361400D01*
X206509905Y-57361400D02*
X206462286Y-57313780D01*
%TO.C,R17*%
X217007419Y-58148457D02*
X216531228Y-58481790D01*
X217007419Y-58719885D02*
X216007419Y-58719885D01*
X216007419Y-58719885D02*
X216007419Y-58338933D01*
X216007419Y-58338933D02*
X216055038Y-58243695D01*
X216055038Y-58243695D02*
X216102657Y-58196076D01*
X216102657Y-58196076D02*
X216197895Y-58148457D01*
X216197895Y-58148457D02*
X216340752Y-58148457D01*
X216340752Y-58148457D02*
X216435990Y-58196076D01*
X216435990Y-58196076D02*
X216483609Y-58243695D01*
X216483609Y-58243695D02*
X216531228Y-58338933D01*
X216531228Y-58338933D02*
X216531228Y-58719885D01*
X217007419Y-57196076D02*
X217007419Y-57767504D01*
X217007419Y-57481790D02*
X216007419Y-57481790D01*
X216007419Y-57481790D02*
X216150276Y-57577028D01*
X216150276Y-57577028D02*
X216245514Y-57672266D01*
X216245514Y-57672266D02*
X216293133Y-57767504D01*
X216007419Y-56862742D02*
X216007419Y-56196076D01*
X216007419Y-56196076D02*
X217007419Y-56624647D01*
%TO.C,U8*%
X190459295Y-58506219D02*
X190459295Y-59315742D01*
X190459295Y-59315742D02*
X190506914Y-59410980D01*
X190506914Y-59410980D02*
X190554533Y-59458600D01*
X190554533Y-59458600D02*
X190649771Y-59506219D01*
X190649771Y-59506219D02*
X190840247Y-59506219D01*
X190840247Y-59506219D02*
X190935485Y-59458600D01*
X190935485Y-59458600D02*
X190983104Y-59410980D01*
X190983104Y-59410980D02*
X191030723Y-59315742D01*
X191030723Y-59315742D02*
X191030723Y-58506219D01*
X191649771Y-58934790D02*
X191554533Y-58887171D01*
X191554533Y-58887171D02*
X191506914Y-58839552D01*
X191506914Y-58839552D02*
X191459295Y-58744314D01*
X191459295Y-58744314D02*
X191459295Y-58696695D01*
X191459295Y-58696695D02*
X191506914Y-58601457D01*
X191506914Y-58601457D02*
X191554533Y-58553838D01*
X191554533Y-58553838D02*
X191649771Y-58506219D01*
X191649771Y-58506219D02*
X191840247Y-58506219D01*
X191840247Y-58506219D02*
X191935485Y-58553838D01*
X191935485Y-58553838D02*
X191983104Y-58601457D01*
X191983104Y-58601457D02*
X192030723Y-58696695D01*
X192030723Y-58696695D02*
X192030723Y-58744314D01*
X192030723Y-58744314D02*
X191983104Y-58839552D01*
X191983104Y-58839552D02*
X191935485Y-58887171D01*
X191935485Y-58887171D02*
X191840247Y-58934790D01*
X191840247Y-58934790D02*
X191649771Y-58934790D01*
X191649771Y-58934790D02*
X191554533Y-58982409D01*
X191554533Y-58982409D02*
X191506914Y-59030028D01*
X191506914Y-59030028D02*
X191459295Y-59125266D01*
X191459295Y-59125266D02*
X191459295Y-59315742D01*
X191459295Y-59315742D02*
X191506914Y-59410980D01*
X191506914Y-59410980D02*
X191554533Y-59458600D01*
X191554533Y-59458600D02*
X191649771Y-59506219D01*
X191649771Y-59506219D02*
X191840247Y-59506219D01*
X191840247Y-59506219D02*
X191935485Y-59458600D01*
X191935485Y-59458600D02*
X191983104Y-59410980D01*
X191983104Y-59410980D02*
X192030723Y-59315742D01*
X192030723Y-59315742D02*
X192030723Y-59125266D01*
X192030723Y-59125266D02*
X191983104Y-59030028D01*
X191983104Y-59030028D02*
X191935485Y-58982409D01*
X191935485Y-58982409D02*
X191840247Y-58934790D01*
%TO.C,R7*%
X98008419Y-43092666D02*
X97532228Y-43425999D01*
X98008419Y-43664094D02*
X97008419Y-43664094D01*
X97008419Y-43664094D02*
X97008419Y-43283142D01*
X97008419Y-43283142D02*
X97056038Y-43187904D01*
X97056038Y-43187904D02*
X97103657Y-43140285D01*
X97103657Y-43140285D02*
X97198895Y-43092666D01*
X97198895Y-43092666D02*
X97341752Y-43092666D01*
X97341752Y-43092666D02*
X97436990Y-43140285D01*
X97436990Y-43140285D02*
X97484609Y-43187904D01*
X97484609Y-43187904D02*
X97532228Y-43283142D01*
X97532228Y-43283142D02*
X97532228Y-43664094D01*
X97008419Y-42759332D02*
X97008419Y-42092666D01*
X97008419Y-42092666D02*
X98008419Y-42521237D01*
%TO.C,U4*%
X209077495Y-41127619D02*
X209077495Y-41937142D01*
X209077495Y-41937142D02*
X209125114Y-42032380D01*
X209125114Y-42032380D02*
X209172733Y-42080000D01*
X209172733Y-42080000D02*
X209267971Y-42127619D01*
X209267971Y-42127619D02*
X209458447Y-42127619D01*
X209458447Y-42127619D02*
X209553685Y-42080000D01*
X209553685Y-42080000D02*
X209601304Y-42032380D01*
X209601304Y-42032380D02*
X209648923Y-41937142D01*
X209648923Y-41937142D02*
X209648923Y-41127619D01*
X210553685Y-41460952D02*
X210553685Y-42127619D01*
X210315590Y-41080000D02*
X210077495Y-41794285D01*
X210077495Y-41794285D02*
X210696542Y-41794285D01*
%TO.C,R9*%
X77989133Y-40645419D02*
X77655800Y-40169228D01*
X77417705Y-40645419D02*
X77417705Y-39645419D01*
X77417705Y-39645419D02*
X77798657Y-39645419D01*
X77798657Y-39645419D02*
X77893895Y-39693038D01*
X77893895Y-39693038D02*
X77941514Y-39740657D01*
X77941514Y-39740657D02*
X77989133Y-39835895D01*
X77989133Y-39835895D02*
X77989133Y-39978752D01*
X77989133Y-39978752D02*
X77941514Y-40073990D01*
X77941514Y-40073990D02*
X77893895Y-40121609D01*
X77893895Y-40121609D02*
X77798657Y-40169228D01*
X77798657Y-40169228D02*
X77417705Y-40169228D01*
X78465324Y-40645419D02*
X78655800Y-40645419D01*
X78655800Y-40645419D02*
X78751038Y-40597800D01*
X78751038Y-40597800D02*
X78798657Y-40550180D01*
X78798657Y-40550180D02*
X78893895Y-40407323D01*
X78893895Y-40407323D02*
X78941514Y-40216847D01*
X78941514Y-40216847D02*
X78941514Y-39835895D01*
X78941514Y-39835895D02*
X78893895Y-39740657D01*
X78893895Y-39740657D02*
X78846276Y-39693038D01*
X78846276Y-39693038D02*
X78751038Y-39645419D01*
X78751038Y-39645419D02*
X78560562Y-39645419D01*
X78560562Y-39645419D02*
X78465324Y-39693038D01*
X78465324Y-39693038D02*
X78417705Y-39740657D01*
X78417705Y-39740657D02*
X78370086Y-39835895D01*
X78370086Y-39835895D02*
X78370086Y-40073990D01*
X78370086Y-40073990D02*
X78417705Y-40169228D01*
X78417705Y-40169228D02*
X78465324Y-40216847D01*
X78465324Y-40216847D02*
X78560562Y-40264466D01*
X78560562Y-40264466D02*
X78751038Y-40264466D01*
X78751038Y-40264466D02*
X78846276Y-40216847D01*
X78846276Y-40216847D02*
X78893895Y-40169228D01*
X78893895Y-40169228D02*
X78941514Y-40073990D01*
%TO.C,U1*%
X141437295Y-35133219D02*
X141437295Y-35942742D01*
X141437295Y-35942742D02*
X141484914Y-36037980D01*
X141484914Y-36037980D02*
X141532533Y-36085600D01*
X141532533Y-36085600D02*
X141627771Y-36133219D01*
X141627771Y-36133219D02*
X141818247Y-36133219D01*
X141818247Y-36133219D02*
X141913485Y-36085600D01*
X141913485Y-36085600D02*
X141961104Y-36037980D01*
X141961104Y-36037980D02*
X142008723Y-35942742D01*
X142008723Y-35942742D02*
X142008723Y-35133219D01*
X143008723Y-36133219D02*
X142437295Y-36133219D01*
X142723009Y-36133219D02*
X142723009Y-35133219D01*
X142723009Y-35133219D02*
X142627771Y-35276076D01*
X142627771Y-35276076D02*
X142532533Y-35371314D01*
X142532533Y-35371314D02*
X142437295Y-35418933D01*
%TO.C,R6*%
X98059219Y-56503866D02*
X97583028Y-56837199D01*
X98059219Y-57075294D02*
X97059219Y-57075294D01*
X97059219Y-57075294D02*
X97059219Y-56694342D01*
X97059219Y-56694342D02*
X97106838Y-56599104D01*
X97106838Y-56599104D02*
X97154457Y-56551485D01*
X97154457Y-56551485D02*
X97249695Y-56503866D01*
X97249695Y-56503866D02*
X97392552Y-56503866D01*
X97392552Y-56503866D02*
X97487790Y-56551485D01*
X97487790Y-56551485D02*
X97535409Y-56599104D01*
X97535409Y-56599104D02*
X97583028Y-56694342D01*
X97583028Y-56694342D02*
X97583028Y-57075294D01*
X97059219Y-55646723D02*
X97059219Y-55837199D01*
X97059219Y-55837199D02*
X97106838Y-55932437D01*
X97106838Y-55932437D02*
X97154457Y-55980056D01*
X97154457Y-55980056D02*
X97297314Y-56075294D01*
X97297314Y-56075294D02*
X97487790Y-56122913D01*
X97487790Y-56122913D02*
X97868742Y-56122913D01*
X97868742Y-56122913D02*
X97963980Y-56075294D01*
X97963980Y-56075294D02*
X98011600Y-56027675D01*
X98011600Y-56027675D02*
X98059219Y-55932437D01*
X98059219Y-55932437D02*
X98059219Y-55741961D01*
X98059219Y-55741961D02*
X98011600Y-55646723D01*
X98011600Y-55646723D02*
X97963980Y-55599104D01*
X97963980Y-55599104D02*
X97868742Y-55551485D01*
X97868742Y-55551485D02*
X97630647Y-55551485D01*
X97630647Y-55551485D02*
X97535409Y-55599104D01*
X97535409Y-55599104D02*
X97487790Y-55646723D01*
X97487790Y-55646723D02*
X97440171Y-55741961D01*
X97440171Y-55741961D02*
X97440171Y-55932437D01*
X97440171Y-55932437D02*
X97487790Y-56027675D01*
X97487790Y-56027675D02*
X97535409Y-56075294D01*
X97535409Y-56075294D02*
X97630647Y-56122913D01*
%TO.C,J3*%
X70278666Y-70182219D02*
X70278666Y-70896504D01*
X70278666Y-70896504D02*
X70231047Y-71039361D01*
X70231047Y-71039361D02*
X70135809Y-71134600D01*
X70135809Y-71134600D02*
X69992952Y-71182219D01*
X69992952Y-71182219D02*
X69897714Y-71182219D01*
X70659619Y-70182219D02*
X71278666Y-70182219D01*
X71278666Y-70182219D02*
X70945333Y-70563171D01*
X70945333Y-70563171D02*
X71088190Y-70563171D01*
X71088190Y-70563171D02*
X71183428Y-70610790D01*
X71183428Y-70610790D02*
X71231047Y-70658409D01*
X71231047Y-70658409D02*
X71278666Y-70753647D01*
X71278666Y-70753647D02*
X71278666Y-70991742D01*
X71278666Y-70991742D02*
X71231047Y-71086980D01*
X71231047Y-71086980D02*
X71183428Y-71134600D01*
X71183428Y-71134600D02*
X71088190Y-71182219D01*
X71088190Y-71182219D02*
X70802476Y-71182219D01*
X70802476Y-71182219D02*
X70707238Y-71134600D01*
X70707238Y-71134600D02*
X70659619Y-71086980D01*
%TO.C,R27*%
X127066019Y-72448657D02*
X126589828Y-72781990D01*
X127066019Y-73020085D02*
X126066019Y-73020085D01*
X126066019Y-73020085D02*
X126066019Y-72639133D01*
X126066019Y-72639133D02*
X126113638Y-72543895D01*
X126113638Y-72543895D02*
X126161257Y-72496276D01*
X126161257Y-72496276D02*
X126256495Y-72448657D01*
X126256495Y-72448657D02*
X126399352Y-72448657D01*
X126399352Y-72448657D02*
X126494590Y-72496276D01*
X126494590Y-72496276D02*
X126542209Y-72543895D01*
X126542209Y-72543895D02*
X126589828Y-72639133D01*
X126589828Y-72639133D02*
X126589828Y-73020085D01*
X126161257Y-72067704D02*
X126113638Y-72020085D01*
X126113638Y-72020085D02*
X126066019Y-71924847D01*
X126066019Y-71924847D02*
X126066019Y-71686752D01*
X126066019Y-71686752D02*
X126113638Y-71591514D01*
X126113638Y-71591514D02*
X126161257Y-71543895D01*
X126161257Y-71543895D02*
X126256495Y-71496276D01*
X126256495Y-71496276D02*
X126351733Y-71496276D01*
X126351733Y-71496276D02*
X126494590Y-71543895D01*
X126494590Y-71543895D02*
X127066019Y-72115323D01*
X127066019Y-72115323D02*
X127066019Y-71496276D01*
X126066019Y-71162942D02*
X126066019Y-70496276D01*
X126066019Y-70496276D02*
X127066019Y-70924847D01*
%TO.C,R15*%
X91457542Y-65725019D02*
X91124209Y-65248828D01*
X90886114Y-65725019D02*
X90886114Y-64725019D01*
X90886114Y-64725019D02*
X91267066Y-64725019D01*
X91267066Y-64725019D02*
X91362304Y-64772638D01*
X91362304Y-64772638D02*
X91409923Y-64820257D01*
X91409923Y-64820257D02*
X91457542Y-64915495D01*
X91457542Y-64915495D02*
X91457542Y-65058352D01*
X91457542Y-65058352D02*
X91409923Y-65153590D01*
X91409923Y-65153590D02*
X91362304Y-65201209D01*
X91362304Y-65201209D02*
X91267066Y-65248828D01*
X91267066Y-65248828D02*
X90886114Y-65248828D01*
X92409923Y-65725019D02*
X91838495Y-65725019D01*
X92124209Y-65725019D02*
X92124209Y-64725019D01*
X92124209Y-64725019D02*
X92028971Y-64867876D01*
X92028971Y-64867876D02*
X91933733Y-64963114D01*
X91933733Y-64963114D02*
X91838495Y-65010733D01*
X93314685Y-64725019D02*
X92838495Y-64725019D01*
X92838495Y-64725019D02*
X92790876Y-65201209D01*
X92790876Y-65201209D02*
X92838495Y-65153590D01*
X92838495Y-65153590D02*
X92933733Y-65105971D01*
X92933733Y-65105971D02*
X93171828Y-65105971D01*
X93171828Y-65105971D02*
X93267066Y-65153590D01*
X93267066Y-65153590D02*
X93314685Y-65201209D01*
X93314685Y-65201209D02*
X93362304Y-65296447D01*
X93362304Y-65296447D02*
X93362304Y-65534542D01*
X93362304Y-65534542D02*
X93314685Y-65629780D01*
X93314685Y-65629780D02*
X93267066Y-65677400D01*
X93267066Y-65677400D02*
X93171828Y-65725019D01*
X93171828Y-65725019D02*
X92933733Y-65725019D01*
X92933733Y-65725019D02*
X92838495Y-65677400D01*
X92838495Y-65677400D02*
X92790876Y-65629780D01*
%TO.C,U3*%
X190408495Y-39380019D02*
X190408495Y-40189542D01*
X190408495Y-40189542D02*
X190456114Y-40284780D01*
X190456114Y-40284780D02*
X190503733Y-40332400D01*
X190503733Y-40332400D02*
X190598971Y-40380019D01*
X190598971Y-40380019D02*
X190789447Y-40380019D01*
X190789447Y-40380019D02*
X190884685Y-40332400D01*
X190884685Y-40332400D02*
X190932304Y-40284780D01*
X190932304Y-40284780D02*
X190979923Y-40189542D01*
X190979923Y-40189542D02*
X190979923Y-39380019D01*
X191360876Y-39380019D02*
X191979923Y-39380019D01*
X191979923Y-39380019D02*
X191646590Y-39760971D01*
X191646590Y-39760971D02*
X191789447Y-39760971D01*
X191789447Y-39760971D02*
X191884685Y-39808590D01*
X191884685Y-39808590D02*
X191932304Y-39856209D01*
X191932304Y-39856209D02*
X191979923Y-39951447D01*
X191979923Y-39951447D02*
X191979923Y-40189542D01*
X191979923Y-40189542D02*
X191932304Y-40284780D01*
X191932304Y-40284780D02*
X191884685Y-40332400D01*
X191884685Y-40332400D02*
X191789447Y-40380019D01*
X191789447Y-40380019D02*
X191503733Y-40380019D01*
X191503733Y-40380019D02*
X191408495Y-40332400D01*
X191408495Y-40332400D02*
X191360876Y-40284780D01*
%TO.C,J2*%
X115597266Y-43662219D02*
X115597266Y-44376504D01*
X115597266Y-44376504D02*
X115549647Y-44519361D01*
X115549647Y-44519361D02*
X115454409Y-44614600D01*
X115454409Y-44614600D02*
X115311552Y-44662219D01*
X115311552Y-44662219D02*
X115216314Y-44662219D01*
X116025838Y-43757457D02*
X116073457Y-43709838D01*
X116073457Y-43709838D02*
X116168695Y-43662219D01*
X116168695Y-43662219D02*
X116406790Y-43662219D01*
X116406790Y-43662219D02*
X116502028Y-43709838D01*
X116502028Y-43709838D02*
X116549647Y-43757457D01*
X116549647Y-43757457D02*
X116597266Y-43852695D01*
X116597266Y-43852695D02*
X116597266Y-43947933D01*
X116597266Y-43947933D02*
X116549647Y-44090790D01*
X116549647Y-44090790D02*
X115978219Y-44662219D01*
X115978219Y-44662219D02*
X116597266Y-44662219D01*
%TO.C,J9*%
X190872866Y-70639619D02*
X190872866Y-71353904D01*
X190872866Y-71353904D02*
X190825247Y-71496761D01*
X190825247Y-71496761D02*
X190730009Y-71592000D01*
X190730009Y-71592000D02*
X190587152Y-71639619D01*
X190587152Y-71639619D02*
X190491914Y-71639619D01*
X191396676Y-71639619D02*
X191587152Y-71639619D01*
X191587152Y-71639619D02*
X191682390Y-71592000D01*
X191682390Y-71592000D02*
X191730009Y-71544380D01*
X191730009Y-71544380D02*
X191825247Y-71401523D01*
X191825247Y-71401523D02*
X191872866Y-71211047D01*
X191872866Y-71211047D02*
X191872866Y-70830095D01*
X191872866Y-70830095D02*
X191825247Y-70734857D01*
X191825247Y-70734857D02*
X191777628Y-70687238D01*
X191777628Y-70687238D02*
X191682390Y-70639619D01*
X191682390Y-70639619D02*
X191491914Y-70639619D01*
X191491914Y-70639619D02*
X191396676Y-70687238D01*
X191396676Y-70687238D02*
X191349057Y-70734857D01*
X191349057Y-70734857D02*
X191301438Y-70830095D01*
X191301438Y-70830095D02*
X191301438Y-71068190D01*
X191301438Y-71068190D02*
X191349057Y-71163428D01*
X191349057Y-71163428D02*
X191396676Y-71211047D01*
X191396676Y-71211047D02*
X191491914Y-71258666D01*
X191491914Y-71258666D02*
X191682390Y-71258666D01*
X191682390Y-71258666D02*
X191777628Y-71211047D01*
X191777628Y-71211047D02*
X191825247Y-71163428D01*
X191825247Y-71163428D02*
X191872866Y-71068190D01*
%TO.C,D1*%
X204697105Y-36796019D02*
X204697105Y-35796019D01*
X204697105Y-35796019D02*
X204935200Y-35796019D01*
X204935200Y-35796019D02*
X205078057Y-35843638D01*
X205078057Y-35843638D02*
X205173295Y-35938876D01*
X205173295Y-35938876D02*
X205220914Y-36034114D01*
X205220914Y-36034114D02*
X205268533Y-36224590D01*
X205268533Y-36224590D02*
X205268533Y-36367447D01*
X205268533Y-36367447D02*
X205220914Y-36557923D01*
X205220914Y-36557923D02*
X205173295Y-36653161D01*
X205173295Y-36653161D02*
X205078057Y-36748400D01*
X205078057Y-36748400D02*
X204935200Y-36796019D01*
X204935200Y-36796019D02*
X204697105Y-36796019D01*
X206220914Y-36796019D02*
X205649486Y-36796019D01*
X205935200Y-36796019D02*
X205935200Y-35796019D01*
X205935200Y-35796019D02*
X205839962Y-35938876D01*
X205839962Y-35938876D02*
X205744724Y-36034114D01*
X205744724Y-36034114D02*
X205649486Y-36081733D01*
X200093295Y-37166019D02*
X200093295Y-36166019D01*
X200664723Y-37166019D02*
X200236152Y-36594590D01*
X200664723Y-36166019D02*
X200093295Y-36737447D01*
%TO.C,C3*%
X119416533Y-73493580D02*
X119368914Y-73541200D01*
X119368914Y-73541200D02*
X119226057Y-73588819D01*
X119226057Y-73588819D02*
X119130819Y-73588819D01*
X119130819Y-73588819D02*
X118987962Y-73541200D01*
X118987962Y-73541200D02*
X118892724Y-73445961D01*
X118892724Y-73445961D02*
X118845105Y-73350723D01*
X118845105Y-73350723D02*
X118797486Y-73160247D01*
X118797486Y-73160247D02*
X118797486Y-73017390D01*
X118797486Y-73017390D02*
X118845105Y-72826914D01*
X118845105Y-72826914D02*
X118892724Y-72731676D01*
X118892724Y-72731676D02*
X118987962Y-72636438D01*
X118987962Y-72636438D02*
X119130819Y-72588819D01*
X119130819Y-72588819D02*
X119226057Y-72588819D01*
X119226057Y-72588819D02*
X119368914Y-72636438D01*
X119368914Y-72636438D02*
X119416533Y-72684057D01*
X119749867Y-72588819D02*
X120368914Y-72588819D01*
X120368914Y-72588819D02*
X120035581Y-72969771D01*
X120035581Y-72969771D02*
X120178438Y-72969771D01*
X120178438Y-72969771D02*
X120273676Y-73017390D01*
X120273676Y-73017390D02*
X120321295Y-73065009D01*
X120321295Y-73065009D02*
X120368914Y-73160247D01*
X120368914Y-73160247D02*
X120368914Y-73398342D01*
X120368914Y-73398342D02*
X120321295Y-73493580D01*
X120321295Y-73493580D02*
X120273676Y-73541200D01*
X120273676Y-73541200D02*
X120178438Y-73588819D01*
X120178438Y-73588819D02*
X119892724Y-73588819D01*
X119892724Y-73588819D02*
X119797486Y-73541200D01*
X119797486Y-73541200D02*
X119749867Y-73493580D01*
%TO.C,R13*%
X197754219Y-61983857D02*
X197278028Y-62317190D01*
X197754219Y-62555285D02*
X196754219Y-62555285D01*
X196754219Y-62555285D02*
X196754219Y-62174333D01*
X196754219Y-62174333D02*
X196801838Y-62079095D01*
X196801838Y-62079095D02*
X196849457Y-62031476D01*
X196849457Y-62031476D02*
X196944695Y-61983857D01*
X196944695Y-61983857D02*
X197087552Y-61983857D01*
X197087552Y-61983857D02*
X197182790Y-62031476D01*
X197182790Y-62031476D02*
X197230409Y-62079095D01*
X197230409Y-62079095D02*
X197278028Y-62174333D01*
X197278028Y-62174333D02*
X197278028Y-62555285D01*
X197754219Y-61031476D02*
X197754219Y-61602904D01*
X197754219Y-61317190D02*
X196754219Y-61317190D01*
X196754219Y-61317190D02*
X196897076Y-61412428D01*
X196897076Y-61412428D02*
X196992314Y-61507666D01*
X196992314Y-61507666D02*
X197039933Y-61602904D01*
X196754219Y-60698142D02*
X196754219Y-60079095D01*
X196754219Y-60079095D02*
X197135171Y-60412428D01*
X197135171Y-60412428D02*
X197135171Y-60269571D01*
X197135171Y-60269571D02*
X197182790Y-60174333D01*
X197182790Y-60174333D02*
X197230409Y-60126714D01*
X197230409Y-60126714D02*
X197325647Y-60079095D01*
X197325647Y-60079095D02*
X197563742Y-60079095D01*
X197563742Y-60079095D02*
X197658980Y-60126714D01*
X197658980Y-60126714D02*
X197706600Y-60174333D01*
X197706600Y-60174333D02*
X197754219Y-60269571D01*
X197754219Y-60269571D02*
X197754219Y-60555285D01*
X197754219Y-60555285D02*
X197706600Y-60650523D01*
X197706600Y-60650523D02*
X197658980Y-60698142D01*
%TO.C,R11*%
X133507819Y-58402457D02*
X133031628Y-58735790D01*
X133507819Y-58973885D02*
X132507819Y-58973885D01*
X132507819Y-58973885D02*
X132507819Y-58592933D01*
X132507819Y-58592933D02*
X132555438Y-58497695D01*
X132555438Y-58497695D02*
X132603057Y-58450076D01*
X132603057Y-58450076D02*
X132698295Y-58402457D01*
X132698295Y-58402457D02*
X132841152Y-58402457D01*
X132841152Y-58402457D02*
X132936390Y-58450076D01*
X132936390Y-58450076D02*
X132984009Y-58497695D01*
X132984009Y-58497695D02*
X133031628Y-58592933D01*
X133031628Y-58592933D02*
X133031628Y-58973885D01*
X133507819Y-57450076D02*
X133507819Y-58021504D01*
X133507819Y-57735790D02*
X132507819Y-57735790D01*
X132507819Y-57735790D02*
X132650676Y-57831028D01*
X132650676Y-57831028D02*
X132745914Y-57926266D01*
X132745914Y-57926266D02*
X132793533Y-58021504D01*
X133507819Y-56497695D02*
X133507819Y-57069123D01*
X133507819Y-56783409D02*
X132507819Y-56783409D01*
X132507819Y-56783409D02*
X132650676Y-56878647D01*
X132650676Y-56878647D02*
X132745914Y-56973885D01*
X132745914Y-56973885D02*
X132793533Y-57069123D01*
D12*
%TO.C,R19*%
X135280400Y-47242600D02*
X135280400Y-48012600D01*
X135280400Y-55322600D02*
X135280400Y-54552600D01*
X133910400Y-54552600D02*
X136650400Y-54552600D01*
X136650400Y-48012600D02*
X133910400Y-48012600D01*
X136650400Y-54552600D02*
X136650400Y-48012600D01*
X133910400Y-48012600D02*
X133910400Y-54552600D01*
%TO.C,R18*%
X125044200Y-35711000D02*
X125044200Y-36481000D01*
X125044200Y-43791000D02*
X125044200Y-43021000D01*
X123674200Y-43021000D02*
X126414200Y-43021000D01*
X126414200Y-36481000D02*
X123674200Y-36481000D01*
X126414200Y-43021000D02*
X126414200Y-36481000D01*
X123674200Y-36481000D02*
X123674200Y-43021000D01*
%TO.C,R4*%
X87882600Y-61391800D02*
X88652600Y-61391800D01*
X88652600Y-60021800D02*
X88652600Y-62761800D01*
X88652600Y-62761800D02*
X95192600Y-62761800D01*
X95192600Y-60021800D02*
X88652600Y-60021800D01*
X95192600Y-62761800D02*
X95192600Y-60021800D01*
X95962600Y-61391800D02*
X95192600Y-61391800D01*
%TO.C,R8*%
X94972000Y-37871400D02*
X94202000Y-37871400D01*
X94202000Y-39241400D02*
X94202000Y-36501400D01*
X94202000Y-36501400D02*
X87662000Y-36501400D01*
X87662000Y-39241400D02*
X94202000Y-39241400D01*
X87662000Y-36501400D02*
X87662000Y-39241400D01*
X86892000Y-37871400D02*
X87662000Y-37871400D01*
%TO.C,R1*%
X124993400Y-56592600D02*
X124993400Y-55822600D01*
X123623400Y-55822600D02*
X126363400Y-55822600D01*
X126363400Y-55822600D02*
X126363400Y-49282600D01*
X123623400Y-49282600D02*
X123623400Y-55822600D01*
X126363400Y-49282600D02*
X123623400Y-49282600D01*
X124993400Y-48512600D02*
X124993400Y-49282600D01*
%TO.C,J6*%
X182702400Y-35260600D02*
X182702400Y-34520600D01*
X182702400Y-34520600D02*
X182202400Y-34520600D01*
X182462400Y-44681600D02*
X182462400Y-34760600D01*
X182462400Y-44681600D02*
X172182400Y-44681600D01*
X182462400Y-41721600D02*
X172182400Y-41721600D01*
X182462400Y-36820600D02*
X172182400Y-36820600D01*
X182462400Y-35320600D02*
X172182400Y-35320600D01*
X182462400Y-34760600D02*
X172182400Y-34760600D01*
X176009400Y-38397600D02*
X176056400Y-38351600D01*
X175816400Y-38181600D02*
X175851400Y-38146600D01*
X173712400Y-40695600D02*
X173747400Y-40659600D01*
X173507400Y-40489600D02*
X173554400Y-40443600D01*
X172182400Y-44681600D02*
X172182400Y-34760600D01*
X181397399Y-40104599D02*
G75*
G03*
X181397826Y-38737558I-1534992J684000D01*
G01*
X179178401Y-40955599D02*
G75*
G03*
X180545442Y-40956026I684000J1534992D01*
G01*
X180546400Y-37885601D02*
G75*
G03*
X179833595Y-37740348I-683999J-1535000D01*
G01*
X179862400Y-37740601D02*
G75*
G03*
X179179082Y-37885845I0J-1679999D01*
G01*
X178327400Y-38736600D02*
G75*
G03*
X178326974Y-40103642I1535000J-684000D01*
G01*
X176462400Y-39420600D02*
G75*
G03*
X176462400Y-39420600I-1680000J0D01*
G01*
%TO.C,U5*%
X111669200Y-67418200D02*
X111669200Y-72059200D01*
X111669200Y-67418200D02*
X121909200Y-67418200D01*
X111669200Y-68928200D02*
X121909200Y-68928200D01*
X111669200Y-72059200D02*
X121909200Y-72059200D01*
X114939200Y-67418200D02*
X114939200Y-68928200D01*
X118640200Y-67418200D02*
X118640200Y-68928200D01*
X121909200Y-67418200D02*
X121909200Y-72059200D01*
D13*
%TO.C,U7*%
X160123600Y-61097200D02*
X166723600Y-61097200D01*
X160123600Y-62417200D02*
X160123600Y-61097200D01*
X160123600Y-80787200D02*
X160123600Y-79467200D01*
X166723600Y-61097200D02*
X166723600Y-62417200D01*
X166723600Y-79467200D02*
X166723600Y-80787200D01*
X166723600Y-80787200D02*
X160123600Y-80787200D01*
D14*
X158468600Y-63322200D02*
G75*
G03*
X158468600Y-63322200I-100000J0D01*
G01*
D12*
%TO.C,R16*%
X218998800Y-48820200D02*
X218998800Y-48050200D01*
X217628800Y-48050200D02*
X220368800Y-48050200D01*
X220368800Y-48050200D02*
X220368800Y-41510200D01*
X217628800Y-41510200D02*
X217628800Y-48050200D01*
X220368800Y-41510200D02*
X217628800Y-41510200D01*
X218998800Y-40740200D02*
X218998800Y-41510200D01*
D13*
%TO.C,U6*%
X146670900Y-61097200D02*
X153270900Y-61097200D01*
X146670900Y-62417200D02*
X146670900Y-61097200D01*
X146670900Y-80787200D02*
X146670900Y-79467200D01*
X153270900Y-61097200D02*
X153270900Y-62417200D01*
X153270900Y-79467200D02*
X153270900Y-80787200D01*
X153270900Y-80787200D02*
X146670900Y-80787200D01*
D14*
X145015900Y-63322200D02*
G75*
G03*
X145015900Y-63322200I-100000J0D01*
G01*
D12*
%TO.C,R3*%
X112114200Y-62941200D02*
X112884200Y-62941200D01*
X112884200Y-61571200D02*
X112884200Y-64311200D01*
X112884200Y-64311200D02*
X119424200Y-64311200D01*
X119424200Y-61571200D02*
X112884200Y-61571200D01*
X119424200Y-64311200D02*
X119424200Y-61571200D01*
X120194200Y-62941200D02*
X119424200Y-62941200D01*
%TO.C,R2*%
X74801600Y-61366400D02*
X75571600Y-61366400D01*
X75571600Y-59996400D02*
X75571600Y-62736400D01*
X75571600Y-62736400D02*
X82111600Y-62736400D01*
X82111600Y-59996400D02*
X75571600Y-59996400D01*
X82111600Y-62736400D02*
X82111600Y-59996400D01*
X82881600Y-61366400D02*
X82111600Y-61366400D01*
%TO.C,R10*%
X130632200Y-48515400D02*
X130632200Y-47745400D01*
X129262200Y-47745400D02*
X132002200Y-47745400D01*
X132002200Y-47745400D02*
X132002200Y-41205400D01*
X129262200Y-41205400D02*
X129262200Y-47745400D01*
X132002200Y-41205400D02*
X129262200Y-41205400D01*
X130632200Y-40435400D02*
X130632200Y-41205400D01*
%TO.C,C2*%
X134218000Y-42244200D02*
X134218000Y-40986200D01*
X136058000Y-42244200D02*
X136058000Y-40986200D01*
%TO.C,Q1*%
X135266800Y-76951200D02*
X139907800Y-76951200D01*
X135266800Y-76951200D02*
X135266800Y-66711200D01*
X136776800Y-76951200D02*
X136776800Y-66711200D01*
X139907800Y-76951200D02*
X139907800Y-66711200D01*
X135266800Y-73681200D02*
X136776800Y-73681200D01*
X135266800Y-69980200D02*
X136776800Y-69980200D01*
X135266800Y-66711200D02*
X139907800Y-66711200D01*
%TO.C,R28*%
X139928600Y-54862600D02*
X139928600Y-55632600D01*
X141298600Y-55632600D02*
X138558600Y-55632600D01*
X138558600Y-55632600D02*
X138558600Y-62172600D01*
X141298600Y-62172600D02*
X141298600Y-55632600D01*
X138558600Y-62172600D02*
X141298600Y-62172600D01*
X139928600Y-62942600D02*
X139928600Y-62172600D01*
%TO.C,R5*%
X107391200Y-48690400D02*
X107391200Y-49460400D01*
X108761200Y-49460400D02*
X106021200Y-49460400D01*
X106021200Y-49460400D02*
X106021200Y-56000400D01*
X108761200Y-56000400D02*
X108761200Y-49460400D01*
X106021200Y-56000400D02*
X108761200Y-56000400D01*
X107391200Y-56770400D02*
X107391200Y-56000400D01*
%TO.C,D3*%
X152876400Y-36271200D02*
X153896400Y-36271200D01*
X153896400Y-34801200D02*
X153896400Y-37741200D01*
X153896400Y-37741200D02*
X159336400Y-37741200D01*
X154676400Y-34801200D02*
X154676400Y-37741200D01*
X154796400Y-34801200D02*
X154796400Y-37741200D01*
X154916400Y-34801200D02*
X154916400Y-37741200D01*
X159336400Y-34801200D02*
X153896400Y-34801200D01*
X159336400Y-37741200D02*
X159336400Y-34801200D01*
X160356400Y-36271200D02*
X159336400Y-36271200D01*
%TO.C,R14*%
X199593200Y-44042200D02*
X199593200Y-44812200D01*
X200963200Y-44812200D02*
X198223200Y-44812200D01*
X198223200Y-44812200D02*
X198223200Y-51352200D01*
X200963200Y-51352200D02*
X200963200Y-44812200D01*
X198223200Y-51352200D02*
X200963200Y-51352200D01*
X199593200Y-52122200D02*
X199593200Y-51352200D01*
%TO.C,J1*%
X65258000Y-44424400D02*
X64518000Y-44424400D01*
X64518000Y-44424400D02*
X64518000Y-44924400D01*
X74679000Y-44664400D02*
X64758000Y-44664400D01*
X74679000Y-44664400D02*
X74679000Y-54944400D01*
X71719000Y-44664400D02*
X71719000Y-54944400D01*
X66818000Y-44664400D02*
X66818000Y-54944400D01*
X65318000Y-44664400D02*
X65318000Y-54944400D01*
X64758000Y-44664400D02*
X64758000Y-54944400D01*
X68395000Y-51117400D02*
X68349000Y-51070400D01*
X68179000Y-51310400D02*
X68144000Y-51275400D01*
X70693000Y-53414400D02*
X70657000Y-53379400D01*
X70487000Y-53619400D02*
X70441000Y-53572400D01*
X74679000Y-54944400D02*
X64758000Y-54944400D01*
X70101999Y-45729401D02*
G75*
G03*
X68734958Y-45728974I-684000J-1534992D01*
G01*
X70952999Y-47948399D02*
G75*
G03*
X70953426Y-46581358I-1534992J684000D01*
G01*
X67883001Y-46580400D02*
G75*
G03*
X67737748Y-47293205I1535000J-683999D01*
G01*
X67738001Y-47264400D02*
G75*
G03*
X67883245Y-47947718I1679999J0D01*
G01*
X68734000Y-48799400D02*
G75*
G03*
X70101042Y-48799826I684000J1535000D01*
G01*
X71098000Y-52344400D02*
G75*
G03*
X71098000Y-52344400I-1680000J0D01*
G01*
%TO.C,C4*%
X214128000Y-37383200D02*
X215386000Y-37383200D01*
X214128000Y-39223200D02*
X215386000Y-39223200D01*
%TO.C,J4*%
X81157800Y-80893400D02*
X81157800Y-81633400D01*
X81157800Y-81633400D02*
X81657800Y-81633400D01*
X81397800Y-71472400D02*
X81397800Y-81393400D01*
X81397800Y-71472400D02*
X91677800Y-71472400D01*
X81397800Y-74432400D02*
X91677800Y-74432400D01*
X81397800Y-79333400D02*
X91677800Y-79333400D01*
X81397800Y-80833400D02*
X91677800Y-80833400D01*
X81397800Y-81393400D02*
X91677800Y-81393400D01*
X87850800Y-77756400D02*
X87803800Y-77802400D01*
X88043800Y-77972400D02*
X88008800Y-78007400D01*
X90147800Y-75458400D02*
X90112800Y-75494400D01*
X90352800Y-75664400D02*
X90305800Y-75710400D01*
X91677800Y-71472400D02*
X91677800Y-81393400D01*
X82462801Y-76049401D02*
G75*
G03*
X82462374Y-77416442I1534992J-684000D01*
G01*
X84681799Y-75198401D02*
G75*
G03*
X83314758Y-75197974I-684000J-1534992D01*
G01*
X83313800Y-78268399D02*
G75*
G03*
X84026605Y-78413652I683999J1535000D01*
G01*
X83997800Y-78413399D02*
G75*
G03*
X84681118Y-78268155I0J1679999D01*
G01*
X85532800Y-77417400D02*
G75*
G03*
X85533226Y-76050358I-1535000J684000D01*
G01*
X90757800Y-76733400D02*
G75*
G03*
X90757800Y-76733400I-1680000J0D01*
G01*
%TO.C,C1*%
X114695000Y-76104000D02*
X113437000Y-76104000D01*
X114695000Y-74264000D02*
X113437000Y-74264000D01*
%TO.C,J7*%
X211988200Y-81757200D02*
X211988200Y-82497200D01*
X211988200Y-82497200D02*
X212488200Y-82497200D01*
X212228200Y-72336200D02*
X212228200Y-82257200D01*
X212228200Y-72336200D02*
X222508200Y-72336200D01*
X212228200Y-75296200D02*
X222508200Y-75296200D01*
X212228200Y-80197200D02*
X222508200Y-80197200D01*
X212228200Y-81697200D02*
X222508200Y-81697200D01*
X212228200Y-82257200D02*
X222508200Y-82257200D01*
X218681200Y-78620200D02*
X218634200Y-78666200D01*
X218874200Y-78836200D02*
X218839200Y-78871200D01*
X220978200Y-76322200D02*
X220943200Y-76358200D01*
X221183200Y-76528200D02*
X221136200Y-76574200D01*
X222508200Y-72336200D02*
X222508200Y-82257200D01*
X213293201Y-76913201D02*
G75*
G03*
X213292774Y-78280242I1534992J-684000D01*
G01*
X215512199Y-76062201D02*
G75*
G03*
X214145158Y-76061774I-684000J-1534992D01*
G01*
X214144200Y-79132199D02*
G75*
G03*
X214857005Y-79277452I683999J1535000D01*
G01*
X214828200Y-79277199D02*
G75*
G03*
X215511518Y-79131955I0J1679999D01*
G01*
X216363200Y-78281200D02*
G75*
G03*
X216363626Y-76914158I-1535000J684000D01*
G01*
X221588200Y-77597200D02*
G75*
G03*
X221588200Y-77597200I-1680000J0D01*
G01*
%TO.C,K2*%
X182009100Y-47222500D02*
X184409100Y-47222500D01*
X184209100Y-47422500D02*
X184209100Y-76622500D01*
X171509100Y-47422500D02*
X184209100Y-47422500D01*
X184409100Y-49622500D02*
X184409100Y-47222500D01*
X181609100Y-53062500D02*
X181609100Y-54332500D01*
X180339100Y-53062500D02*
X180339100Y-54332500D01*
X179069100Y-53062500D02*
X177799100Y-55602500D01*
X175259100Y-53062500D02*
X180339100Y-53062500D01*
X181609100Y-54332500D02*
X180339100Y-54332500D01*
X180339100Y-54332500D02*
X180339100Y-55602500D01*
X175259100Y-54332500D02*
X173989100Y-54332500D01*
X173989100Y-54332500D02*
X173989100Y-53062500D01*
X180339100Y-55602500D02*
X175259100Y-55602500D01*
X175259100Y-55602500D02*
X175259100Y-53062500D01*
X184209100Y-76622500D02*
X183009100Y-76622500D01*
X180209100Y-76622500D02*
X175509100Y-76622500D01*
X172709100Y-76622500D02*
X171509100Y-76622500D01*
X171509100Y-76622500D02*
X171509100Y-47422500D01*
%TO.C,R12*%
X138837800Y-34620200D02*
X138067800Y-34620200D01*
X138067800Y-35990200D02*
X138067800Y-33250200D01*
X138067800Y-33250200D02*
X131527800Y-33250200D01*
X131527800Y-35990200D02*
X138067800Y-35990200D01*
X131527800Y-33250200D02*
X131527800Y-35990200D01*
X130757800Y-34620200D02*
X131527800Y-34620200D01*
%TO.C,D2*%
X88672800Y-49123600D02*
X88022800Y-49123600D01*
X88022800Y-50243600D02*
X88022800Y-48003600D01*
X88022800Y-48003600D02*
X83782800Y-48003600D01*
X87422800Y-50243600D02*
X87422800Y-48003600D01*
X87302800Y-50243600D02*
X87302800Y-48003600D01*
X87182800Y-50243600D02*
X87182800Y-48003600D01*
X83782800Y-50243600D02*
X88022800Y-50243600D01*
X83782800Y-48003600D02*
X83782800Y-50243600D01*
X83132800Y-49123600D02*
X83782800Y-49123600D01*
%TO.C,J5*%
X96601000Y-81045800D02*
X96601000Y-81785800D01*
X96601000Y-81785800D02*
X97101000Y-81785800D01*
X96841000Y-71624800D02*
X96841000Y-81545800D01*
X96841000Y-71624800D02*
X107121000Y-71624800D01*
X96841000Y-74584800D02*
X107121000Y-74584800D01*
X96841000Y-79485800D02*
X107121000Y-79485800D01*
X96841000Y-80985800D02*
X107121000Y-80985800D01*
X96841000Y-81545800D02*
X107121000Y-81545800D01*
X103294000Y-77908800D02*
X103247000Y-77954800D01*
X103487000Y-78124800D02*
X103452000Y-78159800D01*
X105591000Y-75610800D02*
X105556000Y-75646800D01*
X105796000Y-75816800D02*
X105749000Y-75862800D01*
X107121000Y-71624800D02*
X107121000Y-81545800D01*
X97906001Y-76201801D02*
G75*
G03*
X97905574Y-77568842I1534992J-684000D01*
G01*
X100124999Y-75350801D02*
G75*
G03*
X98757958Y-75350374I-684000J-1534992D01*
G01*
X98757000Y-78420799D02*
G75*
G03*
X99469805Y-78566052I683999J1535000D01*
G01*
X99441000Y-78565799D02*
G75*
G03*
X100124318Y-78420555I0J1679999D01*
G01*
X100976000Y-77569800D02*
G75*
G03*
X100976426Y-76202758I-1535000J684000D01*
G01*
X106201000Y-76885800D02*
G75*
G03*
X106201000Y-76885800I-1680000J0D01*
G01*
%TO.C,D4*%
X213518600Y-66065400D02*
X212498600Y-66065400D01*
X212498600Y-67535400D02*
X212498600Y-64595400D01*
X212498600Y-64595400D02*
X207058600Y-64595400D01*
X211718600Y-67535400D02*
X211718600Y-64595400D01*
X211598600Y-67535400D02*
X211598600Y-64595400D01*
X211478600Y-67535400D02*
X211478600Y-64595400D01*
X207058600Y-67535400D02*
X212498600Y-67535400D01*
X207058600Y-64595400D02*
X207058600Y-67535400D01*
X206038600Y-66065400D02*
X207058600Y-66065400D01*
D13*
%TO.C,K1*%
X163902800Y-39470400D02*
X148302800Y-39470400D01*
X148302800Y-39470400D02*
X148302800Y-58670400D01*
X163902800Y-58670400D02*
X163902800Y-39470400D01*
X148302800Y-58670400D02*
X163902800Y-58670400D01*
D14*
X162202800Y-38570400D02*
G75*
G03*
X162202800Y-38570400I-100000J0D01*
G01*
D12*
%TO.C,C6*%
X211943600Y-58008000D02*
X213201600Y-58008000D01*
X211943600Y-59848000D02*
X213201600Y-59848000D01*
%TO.C,J8*%
X198907200Y-81604800D02*
X198907200Y-82344800D01*
X198907200Y-82344800D02*
X199407200Y-82344800D01*
X199147200Y-72183800D02*
X199147200Y-82104800D01*
X199147200Y-72183800D02*
X209427200Y-72183800D01*
X199147200Y-75143800D02*
X209427200Y-75143800D01*
X199147200Y-80044800D02*
X209427200Y-80044800D01*
X199147200Y-81544800D02*
X209427200Y-81544800D01*
X199147200Y-82104800D02*
X209427200Y-82104800D01*
X205600200Y-78467800D02*
X205553200Y-78513800D01*
X205793200Y-78683800D02*
X205758200Y-78718800D01*
X207897200Y-76169800D02*
X207862200Y-76205800D01*
X208102200Y-76375800D02*
X208055200Y-76421800D01*
X209427200Y-72183800D02*
X209427200Y-82104800D01*
X200212201Y-76760801D02*
G75*
G03*
X200211774Y-78127842I1534992J-684000D01*
G01*
X202431199Y-75909801D02*
G75*
G03*
X201064158Y-75909374I-684000J-1534992D01*
G01*
X201063200Y-78979799D02*
G75*
G03*
X201776005Y-79125052I683999J1535000D01*
G01*
X201747200Y-79124799D02*
G75*
G03*
X202430518Y-78979555I0J1679999D01*
G01*
X203282200Y-78128800D02*
G75*
G03*
X203282626Y-76761758I-1535000J684000D01*
G01*
X208507200Y-77444800D02*
G75*
G03*
X208507200Y-77444800I-1680000J0D01*
G01*
%TO.C,C5*%
X205619000Y-58084200D02*
X206877000Y-58084200D01*
X205619000Y-59924200D02*
X206877000Y-59924200D01*
%TO.C,R17*%
X218922600Y-61545600D02*
X218922600Y-60775600D01*
X217552600Y-60775600D02*
X220292600Y-60775600D01*
X220292600Y-60775600D02*
X220292600Y-54235600D01*
X217552600Y-54235600D02*
X217552600Y-60775600D01*
X220292600Y-54235600D02*
X217552600Y-54235600D01*
X218922600Y-53465600D02*
X218922600Y-54235600D01*
%TO.C,U8*%
X188571200Y-60051400D02*
X188571200Y-67791400D01*
X188571200Y-67791400D02*
X193871200Y-67791400D01*
X190221200Y-60051400D02*
X188571200Y-60051400D01*
X193871200Y-60051400D02*
X192221200Y-60051400D01*
X193871200Y-67791400D02*
X193871200Y-60051400D01*
X190221200Y-60051400D02*
G75*
G03*
X192221200Y-60051400I1000000J0D01*
G01*
%TO.C,R7*%
X99923600Y-46966000D02*
X99923600Y-46196000D01*
X98553600Y-46196000D02*
X101293600Y-46196000D01*
X101293600Y-46196000D02*
X101293600Y-39656000D01*
X98553600Y-39656000D02*
X98553600Y-46196000D01*
X101293600Y-39656000D02*
X98553600Y-39656000D01*
X99923600Y-38886000D02*
X99923600Y-39656000D01*
%TO.C,U4*%
X207189400Y-42672800D02*
X207189400Y-52952800D01*
X207189400Y-52952800D02*
X212489400Y-52952800D01*
X208839400Y-42672800D02*
X207189400Y-42672800D01*
X212489400Y-42672800D02*
X210839400Y-42672800D01*
X212489400Y-52952800D02*
X212489400Y-42672800D01*
X208839400Y-42672800D02*
G75*
G03*
X210839400Y-42672800I1000000J0D01*
G01*
%TO.C,R9*%
X82195800Y-37820600D02*
X81425800Y-37820600D01*
X81425800Y-39190600D02*
X81425800Y-36450600D01*
X81425800Y-36450600D02*
X74885800Y-36450600D01*
X74885800Y-39190600D02*
X81425800Y-39190600D01*
X74885800Y-36450600D02*
X74885800Y-39190600D01*
X74115800Y-37820600D02*
X74885800Y-37820600D01*
%TO.C,U1*%
X139549200Y-36678400D02*
X139549200Y-46958400D01*
X139549200Y-46958400D02*
X144849200Y-46958400D01*
X141199200Y-36678400D02*
X139549200Y-36678400D01*
X144849200Y-36678400D02*
X143199200Y-36678400D01*
X144849200Y-46958400D02*
X144849200Y-36678400D01*
X141199200Y-36678400D02*
G75*
G03*
X143199200Y-36678400I1000000J0D01*
G01*
%TO.C,R6*%
X99974400Y-60377200D02*
X99974400Y-59607200D01*
X98604400Y-59607200D02*
X101344400Y-59607200D01*
X101344400Y-59607200D02*
X101344400Y-53067200D01*
X98604400Y-53067200D02*
X98604400Y-59607200D01*
X101344400Y-53067200D02*
X98604400Y-53067200D01*
X99974400Y-52297200D02*
X99974400Y-53067200D01*
%TO.C,J3*%
X65232000Y-81147400D02*
X65232000Y-81887400D01*
X65232000Y-81887400D02*
X65732000Y-81887400D01*
X65472000Y-71726400D02*
X65472000Y-81647400D01*
X65472000Y-71726400D02*
X75752000Y-71726400D01*
X65472000Y-74686400D02*
X75752000Y-74686400D01*
X65472000Y-79587400D02*
X75752000Y-79587400D01*
X65472000Y-81087400D02*
X75752000Y-81087400D01*
X65472000Y-81647400D02*
X75752000Y-81647400D01*
X71925000Y-78010400D02*
X71878000Y-78056400D01*
X72118000Y-78226400D02*
X72083000Y-78261400D01*
X74222000Y-75712400D02*
X74187000Y-75748400D01*
X74427000Y-75918400D02*
X74380000Y-75964400D01*
X75752000Y-71726400D02*
X75752000Y-81647400D01*
X66537001Y-76303401D02*
G75*
G03*
X66536574Y-77670442I1534992J-684000D01*
G01*
X68755999Y-75452401D02*
G75*
G03*
X67388958Y-75451974I-684000J-1534992D01*
G01*
X67388000Y-78522399D02*
G75*
G03*
X68100805Y-78667652I683999J1535000D01*
G01*
X68072000Y-78667399D02*
G75*
G03*
X68755318Y-78522155I0J1679999D01*
G01*
X69607000Y-77671400D02*
G75*
G03*
X69607426Y-76304358I-1535000J684000D01*
G01*
X74832000Y-76987400D02*
G75*
G03*
X74832000Y-76987400I-1680000J0D01*
G01*
%TO.C,R27*%
X128981200Y-75845800D02*
X128981200Y-75075800D01*
X127611200Y-75075800D02*
X130351200Y-75075800D01*
X130351200Y-75075800D02*
X130351200Y-68535800D01*
X127611200Y-68535800D02*
X127611200Y-75075800D01*
X130351200Y-68535800D02*
X127611200Y-68535800D01*
X128981200Y-67765800D02*
X128981200Y-68535800D01*
%TO.C,R15*%
X88060400Y-67640200D02*
X88830400Y-67640200D01*
X88830400Y-66270200D02*
X88830400Y-69010200D01*
X88830400Y-69010200D02*
X95370400Y-69010200D01*
X95370400Y-66270200D02*
X88830400Y-66270200D01*
X95370400Y-69010200D02*
X95370400Y-66270200D01*
X96140400Y-67640200D02*
X95370400Y-67640200D01*
%TO.C,U3*%
X188520400Y-40925200D02*
X188520400Y-48665200D01*
X188520400Y-48665200D02*
X193820400Y-48665200D01*
X190170400Y-40925200D02*
X188520400Y-40925200D01*
X193820400Y-40925200D02*
X192170400Y-40925200D01*
X193820400Y-48665200D02*
X193820400Y-40925200D01*
X190170400Y-40925200D02*
G75*
G03*
X192170400Y-40925200I1000000J0D01*
G01*
%TO.C,J2*%
X121310600Y-33787400D02*
X121310600Y-33047400D01*
X121310600Y-33047400D02*
X120810600Y-33047400D01*
X121070600Y-43208400D02*
X121070600Y-33287400D01*
X121070600Y-43208400D02*
X110790600Y-43208400D01*
X121070600Y-40248400D02*
X110790600Y-40248400D01*
X121070600Y-35347400D02*
X110790600Y-35347400D01*
X121070600Y-33847400D02*
X110790600Y-33847400D01*
X121070600Y-33287400D02*
X110790600Y-33287400D01*
X114617600Y-36924400D02*
X114664600Y-36878400D01*
X114424600Y-36708400D02*
X114459600Y-36673400D01*
X112320600Y-39222400D02*
X112355600Y-39186400D01*
X112115600Y-39016400D02*
X112162600Y-38970400D01*
X110790600Y-43208400D02*
X110790600Y-33287400D01*
X120005599Y-38631399D02*
G75*
G03*
X120006026Y-37264358I-1534992J684000D01*
G01*
X117786601Y-39482399D02*
G75*
G03*
X119153642Y-39482826I684000J1534992D01*
G01*
X119154600Y-36412401D02*
G75*
G03*
X118441795Y-36267148I-683999J-1535000D01*
G01*
X118470600Y-36267401D02*
G75*
G03*
X117787282Y-36412645I0J-1679999D01*
G01*
X116935600Y-37263400D02*
G75*
G03*
X116935174Y-38630442I1535000J-684000D01*
G01*
X115070600Y-37947400D02*
G75*
G03*
X115070600Y-37947400I-1680000J0D01*
G01*
%TO.C,J9*%
X185826200Y-81604800D02*
X185826200Y-82344800D01*
X185826200Y-82344800D02*
X186326200Y-82344800D01*
X186066200Y-72183800D02*
X186066200Y-82104800D01*
X186066200Y-72183800D02*
X196346200Y-72183800D01*
X186066200Y-75143800D02*
X196346200Y-75143800D01*
X186066200Y-80044800D02*
X196346200Y-80044800D01*
X186066200Y-81544800D02*
X196346200Y-81544800D01*
X186066200Y-82104800D02*
X196346200Y-82104800D01*
X192519200Y-78467800D02*
X192472200Y-78513800D01*
X192712200Y-78683800D02*
X192677200Y-78718800D01*
X194816200Y-76169800D02*
X194781200Y-76205800D01*
X195021200Y-76375800D02*
X194974200Y-76421800D01*
X196346200Y-72183800D02*
X196346200Y-82104800D01*
X187131201Y-76760801D02*
G75*
G03*
X187130774Y-78127842I1534992J-684000D01*
G01*
X189350199Y-75909801D02*
G75*
G03*
X187983158Y-75909374I-684000J-1534992D01*
G01*
X187982200Y-78979799D02*
G75*
G03*
X188695005Y-79125052I683999J1535000D01*
G01*
X188666200Y-79124799D02*
G75*
G03*
X189349518Y-78979555I0J1679999D01*
G01*
X190201200Y-78128800D02*
G75*
G03*
X190201626Y-76761758I-1535000J684000D01*
G01*
X195426200Y-77444800D02*
G75*
G03*
X195426200Y-77444800I-1680000J0D01*
G01*
%TO.C,D1*%
X201695200Y-38811200D02*
X202715200Y-38811200D01*
X202715200Y-37341200D02*
X202715200Y-40281200D01*
X202715200Y-40281200D02*
X208155200Y-40281200D01*
X203495200Y-37341200D02*
X203495200Y-40281200D01*
X203615200Y-37341200D02*
X203615200Y-40281200D01*
X203735200Y-37341200D02*
X203735200Y-40281200D01*
X208155200Y-37341200D02*
X202715200Y-37341200D01*
X208155200Y-40281200D02*
X208155200Y-37341200D01*
X209175200Y-38811200D02*
X208155200Y-38811200D01*
%TO.C,C3*%
X118954200Y-74264000D02*
X120212200Y-74264000D01*
X118954200Y-76104000D02*
X120212200Y-76104000D01*
%TO.C,R13*%
X199669400Y-65381000D02*
X199669400Y-64611000D01*
X198299400Y-64611000D02*
X201039400Y-64611000D01*
X201039400Y-64611000D02*
X201039400Y-58071000D01*
X198299400Y-58071000D02*
X198299400Y-64611000D01*
X201039400Y-58071000D02*
X198299400Y-58071000D01*
X199669400Y-57301000D02*
X199669400Y-58071000D01*
%TO.C,R11*%
X130683000Y-53719600D02*
X130683000Y-54489600D01*
X132053000Y-54489600D02*
X129313000Y-54489600D01*
X129313000Y-54489600D02*
X129313000Y-61029600D01*
X132053000Y-61029600D02*
X132053000Y-54489600D01*
X129313000Y-61029600D02*
X132053000Y-61029600D01*
X130683000Y-61799600D02*
X130683000Y-61029600D01*
%TD*%
M02*
