M48
; DRILL file {KiCad 7.0.5} date Sun Dec 24 17:04:14 2023
; FORMAT={-:-/ absolute / inch / decimal}
; #@! TF.CreationDate,2023-12-24T17:04:14+05:30
; #@! TF.GenerationSoftware,Kicad,Pcbnew,7.0.5
; #@! TF.FileFunction,Plated,1,2,PTH
FMAT,2
INCH
; #@! TA.AperFunction,Plated,PTH,ViaDrill
T1C0.0118
; #@! TA.AperFunction,Plated,PTH,ComponentDrill
T2C0.0303
; #@! TA.AperFunction,Plated,PTH,ComponentDrill
T3C0.0315
; #@! TA.AperFunction,Plated,PTH,ComponentDrill
T4C0.0433
; #@! TA.AperFunction,Plated,PTH,ComponentDrill
T5C0.0472
; #@! TA.AperFunction,Plated,PTH,ComponentDrill
T6C0.0512
; #@! TA.AperFunction,Plated,PTH,ComponentDrill
T7C0.0591
%
G90
G05
T1
X5.508Y-2.291
X5.644Y-3.244
X5.662Y-2.347
X6.48Y-2.941
X7.112Y-3.088
T2
X5.7481Y-2.493
X5.7481Y-2.593
X5.7481Y-2.693
X5.7481Y-2.793
X5.7481Y-2.893
X5.7481Y-2.993
X5.7481Y-3.093
X6.0607Y-2.493
X6.0607Y-2.593
X6.0607Y-2.693
X6.0607Y-2.793
X6.0607Y-2.893
X6.0607Y-2.993
X6.0607Y-3.093
X6.2777Y-2.493
X6.2777Y-2.593
X6.2777Y-2.693
X6.2777Y-2.793
X6.2777Y-2.893
X6.2777Y-2.993
X6.2777Y-3.093
X6.5903Y-2.493
X6.5903Y-2.593
X6.5903Y-2.693
X6.5903Y-2.793
X6.5903Y-2.893
X6.5903Y-2.993
X6.5903Y-3.093
T3
X2.877Y-1.489
X2.904Y-2.416
X3.232Y-1.934
X3.277Y-1.489
X3.304Y-2.416
X3.38Y-1.491
X3.419Y-2.417
X3.426Y-2.663
X3.532Y-1.934
X3.78Y-1.491
X3.819Y-2.417
X3.826Y-2.663
X3.934Y-1.49
X3.934Y-1.89
X3.936Y-2.018
X3.936Y-2.418
X4.228Y-1.876
X4.228Y-2.276
X4.373Y-2.478
X4.4416Y-2.96
X4.54Y-2.96
X4.6588Y-2.96
X4.7572Y-2.96
X4.773Y-2.478
X4.921Y-1.869
X4.921Y-2.269
X4.923Y-1.365
X4.923Y-1.765
X5.078Y-2.627
X5.078Y-3.027
X5.107Y-1.363
X5.143Y-1.551
X5.143Y-1.951
X5.145Y-2.074
X5.145Y-2.474
X5.3204Y-1.5892
X5.3204Y-1.6876
X5.326Y-1.819
X5.326Y-2.219
X5.4484Y-1.4964
X5.4484Y-1.5964
X5.4484Y-1.6964
X5.4484Y-1.7964
X5.507Y-1.363
X5.509Y-2.119
X5.509Y-2.519
X5.7484Y-1.4964
X5.7484Y-1.5964
X5.7484Y-1.6964
X5.7484Y-1.7964
X5.9096Y-1.6957
X6.382Y-1.6957
X7.3764Y-1.6636
X7.3764Y-1.7636
X7.3764Y-1.8636
X7.3784Y-2.4166
X7.3784Y-2.5166
X7.3784Y-2.6166
X7.6764Y-1.6636
X7.6764Y-1.7636
X7.6764Y-1.8636
X7.6784Y-2.4166
X7.6784Y-2.5166
X7.6784Y-2.6166
X7.858Y-1.693
X7.858Y-2.093
X7.861Y-2.215
X7.861Y-2.615
X8.0708Y-2.323
X8.1114Y-1.7324
X8.1114Y-1.8324
X8.1114Y-1.9324
X8.1114Y-2.0324
X8.1692Y-2.323
X8.3198Y-2.32
X8.4058Y-1.508
X8.4114Y-1.7324
X8.4114Y-1.8324
X8.4114Y-1.9324
X8.4114Y-2.0324
X8.4182Y-2.32
X8.5042Y-1.508
X8.619Y-2.064
X8.619Y-2.464
X8.622Y-1.563
X8.622Y-1.963
T4
X4.498Y-2.783
X4.598Y-2.783
X4.698Y-2.783
X5.4542Y-2.728
X5.4542Y-2.828
X5.4542Y-2.928
X5.966Y-1.428
X6.366Y-1.428
X7.888Y-1.528
X8.059Y-2.601
X8.288Y-1.528
X8.459Y-2.601
T5
X5.9096Y-2.176
X6.382Y-2.176
T6
X2.68Y-3.031
X2.733Y-1.8608
X2.733Y-2.0608
X2.88Y-3.031
X3.307Y-3.021
X3.507Y-3.021
X3.915Y-3.027
X4.115Y-3.027
X4.4642Y-1.494
X4.6642Y-1.494
X6.1411Y-1.6169
X6.8812Y-1.552
X7.0812Y-1.552
X7.4278Y-3.049
X7.6278Y-3.049
X7.9428Y-3.049
X8.1428Y-3.049
X8.4578Y-3.055
X8.6578Y-3.055
T7
X6.8547Y-1.9891
X6.8547Y-2.5796
X6.8547Y-2.7765
X6.8547Y-2.9733
X7.15Y-1.9891
X7.15Y-2.5796
X7.15Y-2.7765
X7.15Y-2.9733
T0
M30
