%TF.GenerationSoftware,KiCad,Pcbnew,7.0.5*%
%TF.CreationDate,2023-12-24T17:04:19+05:30*%
%TF.ProjectId,TSALv3,5453414c-7633-42e6-9b69-6361645f7063,rev?*%
%TF.SameCoordinates,Original*%
%TF.FileFunction,Copper,L1,Top*%
%TF.FilePolarity,Positive*%
%FSLAX46Y46*%
G04 Gerber Fmt 4.6, Leading zero omitted, Abs format (unit mm)*
G04 Created by KiCad (PCBNEW 7.0.5) date 2023-12-24 17:04:19*
%MOMM*%
%LPD*%
G01*
G04 APERTURE LIST*
%TA.AperFunction,ComponentPad*%
%ADD10C,1.600000*%
%TD*%
%TA.AperFunction,ComponentPad*%
%ADD11O,1.600000X1.600000*%
%TD*%
%TA.AperFunction,ComponentPad*%
%ADD12R,2.600000X2.600000*%
%TD*%
%TA.AperFunction,ComponentPad*%
%ADD13C,2.600000*%
%TD*%
%TA.AperFunction,ComponentPad*%
%ADD14R,1.905000X2.000000*%
%TD*%
%TA.AperFunction,ComponentPad*%
%ADD15O,1.905000X2.000000*%
%TD*%
%TA.AperFunction,ComponentPad*%
%ADD16R,1.170000X1.170000*%
%TD*%
%TA.AperFunction,ComponentPad*%
%ADD17C,1.170000*%
%TD*%
%TA.AperFunction,ComponentPad*%
%ADD18R,2.000000X1.905000*%
%TD*%
%TA.AperFunction,ComponentPad*%
%ADD19O,2.000000X1.905000*%
%TD*%
%TA.AperFunction,ComponentPad*%
%ADD20R,2.200000X2.200000*%
%TD*%
%TA.AperFunction,ComponentPad*%
%ADD21O,2.200000X2.200000*%
%TD*%
%TA.AperFunction,ComponentPad*%
%ADD22C,3.000000*%
%TD*%
%TA.AperFunction,ComponentPad*%
%ADD23R,3.000000X3.000000*%
%TD*%
%TA.AperFunction,ComponentPad*%
%ADD24R,1.600000X1.600000*%
%TD*%
%TA.AperFunction,ComponentPad*%
%ADD25C,1.308000*%
%TD*%
%TA.AperFunction,ComponentPad*%
%ADD26C,1.950000*%
%TD*%
%TA.AperFunction,ComponentPad*%
%ADD27C,1.800000*%
%TD*%
%TA.AperFunction,ViaPad*%
%ADD28C,0.600000*%
%TD*%
%TA.AperFunction,Conductor*%
%ADD29C,0.200000*%
%TD*%
G04 APERTURE END LIST*
D10*
%TO.P,R19,1*%
%TO.N,GND*%
X135280400Y-56362600D03*
D11*
%TO.P,R19,2*%
%TO.N,Net-(U1A-+)*%
X135280400Y-46202600D03*
%TD*%
D10*
%TO.P,R18,1*%
%TO.N,Net-(U1A--)*%
X125044200Y-44831000D03*
D11*
%TO.P,R18,2*%
%TO.N,+5V*%
X125044200Y-34671000D03*
%TD*%
D10*
%TO.P,R4,1*%
%TO.N,Net-(R2-Pad2)*%
X86842600Y-61391800D03*
D11*
%TO.P,R4,2*%
%TO.N,Net-(R4-Pad2)*%
X97002600Y-61391800D03*
%TD*%
D10*
%TO.P,R8,1*%
%TO.N,/Vin*%
X96012000Y-37871400D03*
D11*
%TO.P,R8,2*%
%TO.N,Net-(R8-Pad2)*%
X85852000Y-37871400D03*
%TD*%
D10*
%TO.P,R1,1*%
%TO.N,Net-(R1-Pad1)*%
X124993400Y-57632600D03*
D11*
%TO.P,R1,2*%
%TO.N,+12V*%
X124993400Y-47472600D03*
%TD*%
D12*
%TO.P,J6,1,Pin_1*%
%TO.N,+12V*%
X179862400Y-39420600D03*
D13*
%TO.P,J6,2,Pin_2*%
%TO.N,reset*%
X174782400Y-39420600D03*
%TD*%
D14*
%TO.P,U5,1,IN*%
%TO.N,+12V*%
X114249200Y-70688200D03*
D15*
%TO.P,U5,2,GND*%
%TO.N,GND*%
X116789200Y-70688200D03*
%TO.P,U5,3,OUT*%
%TO.N,+5V*%
X119329200Y-70688200D03*
%TD*%
D16*
%TO.P,U7,1,1A*%
%TO.N,unconnected-(U7-1A-Pad1)*%
X159453600Y-63322200D03*
D17*
%TO.P,U7,2,1B*%
%TO.N,unconnected-(U7-1B-Pad2)*%
X159453600Y-65862200D03*
%TO.P,U7,3,1Y*%
%TO.N,unconnected-(U7-1Y-Pad3)*%
X159453600Y-68402200D03*
%TO.P,U7,4,2A*%
%TO.N,TS Status*%
X159453600Y-70942200D03*
%TO.P,U7,5,2B*%
%TO.N,AIR State*%
X159453600Y-73482200D03*
%TO.P,U7,6,2Y*%
%TO.N,RED ON*%
X159453600Y-76022200D03*
%TO.P,U7,7,GND*%
%TO.N,GND*%
X159453600Y-78562200D03*
%TO.P,U7,8,3Y*%
%TO.N,TSAL Error*%
X167393600Y-78562200D03*
%TO.P,U7,9,3A*%
%TO.N,TS Status*%
X167393600Y-76022200D03*
%TO.P,U7,10,3B*%
%TO.N,AUX Open*%
X167393600Y-73482200D03*
%TO.P,U7,11,4Y*%
%TO.N,unconnected-(U7-4Y-Pad11)*%
X167393600Y-70942200D03*
%TO.P,U7,12,4A*%
%TO.N,unconnected-(U7-4A-Pad12)*%
X167393600Y-68402200D03*
%TO.P,U7,13,4B*%
%TO.N,unconnected-(U7-4B-Pad13)*%
X167393600Y-65862200D03*
%TO.P,U7,14,VCC*%
%TO.N,+5V*%
X167393600Y-63322200D03*
%TD*%
D10*
%TO.P,R16,1*%
%TO.N,Net-(D1-A)*%
X218998800Y-49860200D03*
D11*
%TO.P,R16,2*%
%TO.N,Net-(U4-VCC)*%
X218998800Y-39700200D03*
%TD*%
D16*
%TO.P,U6,1,1A*%
%TO.N,AIR State*%
X146000900Y-63322200D03*
D17*
%TO.P,U6,2,1Y*%
%TO.N,AUX Open*%
X146000900Y-65862200D03*
%TO.P,U6,3,2A*%
%TO.N,unconnected-(U6-2A-Pad3)*%
X146000900Y-68402200D03*
%TO.P,U6,4,2Y*%
%TO.N,unconnected-(U6-2Y-Pad4)*%
X146000900Y-70942200D03*
%TO.P,U6,5,3A*%
%TO.N,TS Status*%
X146000900Y-73482200D03*
%TO.P,U6,6,3Y*%
%TO.N,TS' Status*%
X146000900Y-76022200D03*
%TO.P,U6,7,GND*%
%TO.N,GND*%
X146000900Y-78562200D03*
%TO.P,U6,8,4Y*%
%TO.N,unconnected-(U6-4Y-Pad8)*%
X153940900Y-78562200D03*
%TO.P,U6,9,4A*%
%TO.N,unconnected-(U6-4A-Pad9)*%
X153940900Y-76022200D03*
%TO.P,U6,10,5Y*%
%TO.N,TSAL Error'*%
X153940900Y-73482200D03*
%TO.P,U6,11,5A*%
%TO.N,TSAL Error*%
X153940900Y-70942200D03*
%TO.P,U6,12,6Y*%
%TO.N,unconnected-(U6-6Y-Pad12)*%
X153940900Y-68402200D03*
%TO.P,U6,13,6A*%
%TO.N,unconnected-(U6-6A-Pad13)*%
X153940900Y-65862200D03*
%TO.P,U6,14,VCC*%
%TO.N,+5V*%
X153940900Y-63322200D03*
%TD*%
D10*
%TO.P,R3,1*%
%TO.N,/Vref*%
X111074200Y-62941200D03*
D11*
%TO.P,R3,2*%
%TO.N,Net-(R1-Pad1)*%
X121234200Y-62941200D03*
%TD*%
D10*
%TO.P,R2,1*%
%TO.N,/+HV*%
X73761600Y-61366400D03*
D11*
%TO.P,R2,2*%
%TO.N,Net-(R2-Pad2)*%
X83921600Y-61366400D03*
%TD*%
D10*
%TO.P,R10,1*%
%TO.N,Net-(U1A-+)*%
X130632200Y-49555400D03*
D11*
%TO.P,R10,2*%
%TO.N,/Vin*%
X130632200Y-39395400D03*
%TD*%
D10*
%TO.P,C2,1*%
%TO.N,Net-(U1A-+)*%
X135138000Y-42865200D03*
%TO.P,C2,2*%
%TO.N,Net-(U1A--)*%
X135138000Y-40365200D03*
%TD*%
D18*
%TO.P,Q1,1,G*%
%TO.N,Net-(Q1-G)*%
X138536800Y-74371200D03*
D19*
%TO.P,Q1,2,D*%
%TO.N,Net-(Q1-D)*%
X138536800Y-71831200D03*
%TO.P,Q1,3,S*%
%TO.N,GND*%
X138536800Y-69291200D03*
%TD*%
D11*
%TO.P,R28,2*%
%TO.N,GND*%
X139928600Y-53822600D03*
D10*
%TO.P,R28,1*%
%TO.N,Net-(Q1-G)*%
X139928600Y-63982600D03*
%TD*%
%TO.P,R5,1*%
%TO.N,GND*%
X107391200Y-47650400D03*
D11*
%TO.P,R5,2*%
%TO.N,/Vref*%
X107391200Y-57810400D03*
%TD*%
D20*
%TO.P,D3,1,K*%
%TO.N,reset*%
X151536400Y-36271200D03*
D21*
%TO.P,D3,2,A*%
%TO.N,GND*%
X161696400Y-36271200D03*
%TD*%
D10*
%TO.P,R14,1*%
%TO.N,Net-(U4-VCC)*%
X199593200Y-43002200D03*
D11*
%TO.P,R14,2*%
%TO.N,GLV-*%
X199593200Y-53162200D03*
%TD*%
D12*
%TO.P,J1,1,Pin_1*%
%TO.N,GND*%
X69418000Y-47264400D03*
D13*
%TO.P,J1,2,Pin_2*%
%TO.N,/+HV*%
X69418000Y-52344400D03*
%TD*%
D10*
%TO.P,C4,1*%
%TO.N,GLV-*%
X213507000Y-38303200D03*
%TO.P,C4,2*%
%TO.N,Net-(U4-VCC)*%
X216007000Y-38303200D03*
%TD*%
D12*
%TO.P,J4,1,Pin_1*%
%TO.N,+5V*%
X83997800Y-76733400D03*
D13*
%TO.P,J4,2,Pin_2*%
%TO.N,AIR State*%
X89077800Y-76733400D03*
%TD*%
D10*
%TO.P,C1,1*%
%TO.N,GND*%
X115316000Y-75184000D03*
%TO.P,C1,2*%
%TO.N,+12V*%
X112816000Y-75184000D03*
%TD*%
D12*
%TO.P,J7,1,Pin_1*%
%TO.N,GLV+*%
X214828200Y-77597200D03*
D13*
%TO.P,J7,2,Pin_2*%
%TO.N,GLV-*%
X219908200Y-77597200D03*
%TD*%
D22*
%TO.P,K2,11*%
%TO.N,Net-(K1-PadCOM)*%
X181609100Y-70522500D03*
%TO.P,K2,12*%
%TO.N,unconnected-(K2-Pad12)*%
X181609100Y-65522500D03*
%TO.P,K2,14*%
%TO.N,Net-(Q1-D)*%
X181609100Y-75522500D03*
%TO.P,K2,21*%
%TO.N,GLV+*%
X174109100Y-70522500D03*
%TO.P,K2,22*%
%TO.N,unconnected-(K2-Pad22)*%
X174109100Y-65522500D03*
%TO.P,K2,24*%
%TO.N,GLV supply*%
X174109100Y-75522500D03*
D23*
%TO.P,K2,A1*%
%TO.N,+12V*%
X181609100Y-50522500D03*
D22*
%TO.P,K2,A2*%
%TO.N,Net-(K1-PadCOM)*%
X174109100Y-50522500D03*
%TD*%
D10*
%TO.P,R12,1*%
%TO.N,+5V*%
X139877800Y-34620200D03*
D11*
%TO.P,R12,2*%
%TO.N,TS Status*%
X129717800Y-34620200D03*
%TD*%
D24*
%TO.P,D2,1,K*%
%TO.N,/Vin*%
X89712800Y-49123600D03*
D11*
%TO.P,D2,2,A*%
%TO.N,GND*%
X82092800Y-49123600D03*
%TD*%
D12*
%TO.P,J5,1,Pin_1*%
%TO.N,+5V*%
X99441000Y-76885800D03*
D13*
%TO.P,J5,2,Pin_2*%
%TO.N,AIR State*%
X104521000Y-76885800D03*
%TD*%
D20*
%TO.P,D4,1,K*%
%TO.N,Net-(D4-K)*%
X214858600Y-66065400D03*
D21*
%TO.P,D4,2,A*%
%TO.N,Net-(D1-K)*%
X204698600Y-66065400D03*
%TD*%
D25*
%TO.P,K1,COIL1*%
%TO.N,GND*%
X162102800Y-43070400D03*
%TO.P,K1,COIL2*%
%TO.N,reset*%
X150102800Y-43070400D03*
D26*
%TO.P,K1,COM*%
%TO.N,Net-(K1-PadCOM)*%
X155982800Y-41070400D03*
D27*
%TO.P,K1,NC*%
%TO.N,unconnected-(K1-PadNC)*%
X162102800Y-55270400D03*
%TO.P,K1,NO*%
%TO.N,Net-(Q1-D)*%
X150102800Y-55270400D03*
%TD*%
D10*
%TO.P,C6,1*%
%TO.N,GLV-*%
X211322600Y-58928000D03*
%TO.P,C6,2*%
%TO.N,Net-(D1-K)*%
X213822600Y-58928000D03*
%TD*%
D12*
%TO.P,J8,1,Pin_1*%
%TO.N,/GRN+*%
X201747200Y-77444800D03*
D13*
%TO.P,J8,2,Pin_2*%
%TO.N,GLV-*%
X206827200Y-77444800D03*
%TD*%
D10*
%TO.P,C5,1*%
%TO.N,GLV-*%
X204998000Y-59004200D03*
%TO.P,C5,2*%
%TO.N,Net-(U4-CV)*%
X207498000Y-59004200D03*
%TD*%
%TO.P,R17,1*%
%TO.N,Net-(D4-K)*%
X218922600Y-62585600D03*
D11*
%TO.P,R17,2*%
%TO.N,Net-(D1-A)*%
X218922600Y-52425600D03*
%TD*%
D24*
%TO.P,U8,1*%
%TO.N,TS' Status*%
X187411200Y-61381400D03*
D11*
%TO.P,U8,2*%
%TO.N,GND*%
X187411200Y-63921400D03*
%TO.P,U8,3,NC*%
%TO.N,unconnected-(U8-NC-Pad3)*%
X187411200Y-66461400D03*
%TO.P,U8,4*%
%TO.N,/GRN+*%
X195031200Y-66461400D03*
%TO.P,U8,5*%
%TO.N,GLV supply*%
X195031200Y-63921400D03*
%TO.P,U8,6*%
%TO.N,unconnected-(U8-Pad6)*%
X195031200Y-61381400D03*
%TD*%
D10*
%TO.P,R7,1*%
%TO.N,Net-(R6-Pad2)*%
X99923600Y-48006000D03*
D11*
%TO.P,R7,2*%
%TO.N,/Vin*%
X99923600Y-37846000D03*
%TD*%
D24*
%TO.P,U4,1,GND*%
%TO.N,GLV-*%
X206029400Y-44002800D03*
D11*
%TO.P,U4,2,TR*%
%TO.N,Net-(D1-K)*%
X206029400Y-46542800D03*
%TO.P,U4,3,Q*%
%TO.N,/RED+*%
X206029400Y-49082800D03*
%TO.P,U4,4,R*%
%TO.N,unconnected-(U4-R-Pad4)*%
X206029400Y-51622800D03*
%TO.P,U4,5,CV*%
%TO.N,Net-(U4-CV)*%
X213649400Y-51622800D03*
%TO.P,U4,6,THR*%
%TO.N,Net-(D1-K)*%
X213649400Y-49082800D03*
%TO.P,U4,7,DIS*%
%TO.N,Net-(D1-A)*%
X213649400Y-46542800D03*
%TO.P,U4,8,VCC*%
%TO.N,Net-(U4-VCC)*%
X213649400Y-44002800D03*
%TD*%
D10*
%TO.P,R9,1*%
%TO.N,Net-(R8-Pad2)*%
X83235800Y-37820600D03*
D11*
%TO.P,R9,2*%
%TO.N,GND*%
X73075800Y-37820600D03*
%TD*%
D24*
%TO.P,U1,1*%
%TO.N,TS Status*%
X138389200Y-38008400D03*
D11*
%TO.P,U1,2,-*%
%TO.N,Net-(U1A--)*%
X138389200Y-40548400D03*
%TO.P,U1,3,+*%
%TO.N,Net-(U1A-+)*%
X138389200Y-43088400D03*
%TO.P,U1,4,V-*%
%TO.N,GND*%
X138389200Y-45628400D03*
%TO.P,U1,5*%
%TO.N,N/C*%
X146009200Y-45628400D03*
%TO.P,U1,6*%
X146009200Y-43088400D03*
%TO.P,U1,7*%
X146009200Y-40548400D03*
%TO.P,U1,8,V+*%
%TO.N,+5V*%
X146009200Y-38008400D03*
%TD*%
D10*
%TO.P,R6,1*%
%TO.N,Net-(R4-Pad2)*%
X99974400Y-61417200D03*
D11*
%TO.P,R6,2*%
%TO.N,Net-(R6-Pad2)*%
X99974400Y-51257200D03*
%TD*%
D12*
%TO.P,J3,1,Pin_1*%
%TO.N,+5V*%
X68072000Y-76987400D03*
D13*
%TO.P,J3,2,Pin_2*%
%TO.N,AIR State*%
X73152000Y-76987400D03*
%TD*%
D10*
%TO.P,R27,1*%
%TO.N,TSAL Error'*%
X128981200Y-76885800D03*
D11*
%TO.P,R27,2*%
%TO.N,Net-(Q1-G)*%
X128981200Y-66725800D03*
%TD*%
D10*
%TO.P,R15,1*%
%TO.N,AIR State*%
X87020400Y-67640200D03*
D11*
%TO.P,R15,2*%
%TO.N,GND*%
X97180400Y-67640200D03*
%TD*%
D24*
%TO.P,U3,1*%
%TO.N,RED ON*%
X187360400Y-42255200D03*
D11*
%TO.P,U3,2*%
%TO.N,GND*%
X187360400Y-44795200D03*
%TO.P,U3,3,NC*%
%TO.N,unconnected-(U3-NC-Pad3)*%
X187360400Y-47335200D03*
%TO.P,U3,4*%
%TO.N,Net-(U4-VCC)*%
X194980400Y-47335200D03*
%TO.P,U3,5*%
%TO.N,GLV supply*%
X194980400Y-44795200D03*
%TO.P,U3,6*%
%TO.N,unconnected-(U3-Pad6)*%
X194980400Y-42255200D03*
%TD*%
D12*
%TO.P,J2,1,Pin_1*%
%TO.N,+12V*%
X118470600Y-37947400D03*
D13*
%TO.P,J2,2,Pin_2*%
%TO.N,GND*%
X113390600Y-37947400D03*
%TD*%
D12*
%TO.P,J9,1,Pin_1*%
%TO.N,/RED+*%
X188666200Y-77444800D03*
D13*
%TO.P,J9,2,Pin_2*%
%TO.N,GLV-*%
X193746200Y-77444800D03*
%TD*%
D20*
%TO.P,D1,1,K*%
%TO.N,Net-(D1-K)*%
X200355200Y-38811200D03*
D21*
%TO.P,D1,2,A*%
%TO.N,Net-(D1-A)*%
X210515200Y-38811200D03*
%TD*%
D10*
%TO.P,C3,1*%
%TO.N,GND*%
X118333200Y-75184000D03*
%TO.P,C3,2*%
%TO.N,+5V*%
X120833200Y-75184000D03*
%TD*%
%TO.P,R13,1*%
%TO.N,/GRN+*%
X199669400Y-66421000D03*
D11*
%TO.P,R13,2*%
%TO.N,GLV-*%
X199669400Y-56261000D03*
%TD*%
D10*
%TO.P,R11,1*%
%TO.N,Net-(U1A--)*%
X130683000Y-52679600D03*
D11*
%TO.P,R11,2*%
%TO.N,/Vref*%
X130683000Y-62839600D03*
%TD*%
D28*
%TO.N,+12V*%
X139903200Y-58191400D03*
%TO.N,GLV+*%
X180644800Y-78435200D03*
%TO.N,TS' Status*%
X164592000Y-74701400D03*
%TO.N,+5V*%
X143814800Y-59613800D03*
%TO.N,TSAL Error'*%
X143357600Y-82397600D03*
%TD*%
D29*
%TO.N,+12V*%
X114249200Y-73750800D02*
X112816000Y-75184000D01*
X114249200Y-70688200D02*
X114249200Y-73750800D01*
%TO.N,GND*%
X115316000Y-75184000D02*
X118333200Y-75184000D01*
X116789200Y-73710800D02*
X115316000Y-75184000D01*
X116789200Y-70688200D02*
X116789200Y-73710800D01*
%TO.N,+5V*%
X120833200Y-72192200D02*
X119329200Y-70688200D01*
X120833200Y-75184000D02*
X120833200Y-72192200D01*
X120833200Y-77876400D02*
X119182200Y-79527400D01*
X120833200Y-75184000D02*
X120833200Y-77876400D01*
%TO.N,RED ON*%
X184531000Y-45084600D02*
X187360400Y-42255200D01*
X184531000Y-75844400D02*
X184531000Y-45084600D01*
X180695600Y-79679800D02*
X184531000Y-75844400D01*
X163111200Y-79679800D02*
X180695600Y-79679800D01*
X159453600Y-76022200D02*
X163111200Y-79679800D01*
%TO.N,GND*%
X107391200Y-43946800D02*
X113390600Y-37947400D01*
X107391200Y-47650400D02*
X107391200Y-43946800D01*
%TO.N,Net-(R1-Pad1)*%
X121234200Y-62941200D02*
X121234200Y-61391800D01*
X121234200Y-61391800D02*
X124993400Y-57632600D01*
%TO.N,+12V*%
X124993400Y-47472600D02*
X122275600Y-47472600D01*
X122275600Y-47472600D02*
X118470600Y-43667600D01*
X130708400Y-58191400D02*
X124993400Y-52476400D01*
X139903200Y-58191400D02*
X130708400Y-58191400D01*
X124993400Y-52476400D02*
X114249200Y-63220600D01*
X124993400Y-47472600D02*
X124993400Y-52476400D01*
%TO.N,/Vref*%
X107391200Y-59258200D02*
X111074200Y-62941200D01*
X107391200Y-57810400D02*
X107391200Y-59258200D01*
%TO.N,/Vin*%
X101828600Y-35941000D02*
X127177800Y-35941000D01*
X127177800Y-35941000D02*
X129387600Y-38150800D01*
X99923600Y-37846000D02*
X101828600Y-35941000D01*
%TO.N,+12V*%
X118470600Y-43667600D02*
X118470600Y-37947400D01*
%TO.N,Net-(D1-K)*%
X197510400Y-41656000D02*
X200355200Y-38811200D01*
X204724000Y-49961800D02*
X200050400Y-54635400D01*
X199212200Y-54635400D02*
X197510400Y-52933600D01*
X197510400Y-52933600D02*
X197510400Y-41656000D01*
X204724000Y-47848200D02*
X204724000Y-49961800D01*
X206029400Y-46542800D02*
X204724000Y-47848200D01*
X200050400Y-54635400D02*
X199212200Y-54635400D01*
%TO.N,Net-(U4-CV)*%
X207498000Y-57774200D02*
X213649400Y-51622800D01*
X207498000Y-59004200D02*
X207498000Y-57774200D01*
%TO.N,Net-(D1-A)*%
X212344000Y-36982400D02*
X210515200Y-38811200D01*
X214749400Y-45442800D02*
X214749400Y-37686000D01*
X214749400Y-37686000D02*
X214045800Y-36982400D01*
X213649400Y-46542800D02*
X214749400Y-45442800D01*
X214045800Y-36982400D02*
X212344000Y-36982400D01*
%TO.N,GLV-*%
X199593200Y-50439000D02*
X206029400Y-44002800D01*
X199593200Y-53162200D02*
X199593200Y-50439000D01*
X202412600Y-59004200D02*
X199669400Y-56261000D01*
X204998000Y-59004200D02*
X202412600Y-59004200D01*
X204998000Y-61594200D02*
X206827200Y-63423400D01*
X204998000Y-59004200D02*
X204998000Y-61594200D01*
X206827200Y-63423400D02*
X211322600Y-58928000D01*
X206827200Y-77444800D02*
X206827200Y-63423400D01*
%TO.N,Net-(D4-K)*%
X214858600Y-66065400D02*
X215442800Y-66065400D01*
X215442800Y-66065400D02*
X218922600Y-62585600D01*
%TO.N,Net-(D1-A)*%
X218922600Y-49936400D02*
X218998800Y-49860200D01*
X218922600Y-52425600D02*
X218922600Y-49936400D01*
X216966800Y-49860200D02*
X213649400Y-46542800D01*
X218998800Y-49860200D02*
X216966800Y-49860200D01*
%TO.N,GLV-*%
X207807400Y-44002800D02*
X206029400Y-44002800D01*
X213507000Y-38303200D02*
X207807400Y-44002800D01*
%TO.N,GLV+*%
X174109100Y-71899500D02*
X174109100Y-70522500D01*
X180644800Y-78435200D02*
X174109100Y-71899500D01*
%TO.N,TS' Status*%
X164156200Y-75137200D02*
X164592000Y-74701400D01*
X146885900Y-75137200D02*
X164156200Y-75137200D01*
X146000900Y-76022200D02*
X146885900Y-75137200D01*
%TO.N,/GRN+*%
X199669400Y-75367000D02*
X201747200Y-77444800D01*
X199669400Y-66421000D02*
X199669400Y-75367000D01*
X195031200Y-66461400D02*
X199629000Y-66461400D01*
X199629000Y-66461400D02*
X199669400Y-66421000D01*
%TO.N,+5V*%
X143814800Y-40202800D02*
X146009200Y-38008400D01*
X143814800Y-59613800D02*
X143814800Y-40202800D01*
%TO.N,Net-(K1-PadCOM)*%
X178739800Y-69392800D02*
X180479400Y-69392800D01*
X177850800Y-68503800D02*
X178739800Y-69392800D01*
X180479400Y-69392800D02*
X181609100Y-70522500D01*
X177850800Y-54264200D02*
X177850800Y-68503800D01*
X174109100Y-50522500D02*
X177850800Y-54264200D01*
%TO.N,TSAL Error*%
X168275000Y-74752200D02*
X167081200Y-74752200D01*
X168783000Y-75260200D02*
X168275000Y-74752200D01*
X168783000Y-77172800D02*
X168783000Y-75260200D01*
X162102800Y-69773800D02*
X155109300Y-69773800D01*
X167081200Y-74752200D02*
X162102800Y-69773800D01*
X155109300Y-69773800D02*
X153940900Y-70942200D01*
X167393600Y-78562200D02*
X168783000Y-77172800D01*
%TO.N,AUX Open*%
X167393600Y-72550620D02*
X167393600Y-73482200D01*
X159820180Y-64977200D02*
X167393600Y-72550620D01*
X146885900Y-64977200D02*
X159820180Y-64977200D01*
X146000900Y-65862200D02*
X146885900Y-64977200D01*
%TO.N,TS Status*%
X162313600Y-70942200D02*
X167393600Y-76022200D01*
X159453600Y-70942200D02*
X162313600Y-70942200D01*
%TO.N,+5V*%
X166199800Y-62128400D02*
X167393600Y-63322200D01*
X155134700Y-62128400D02*
X166199800Y-62128400D01*
X153940900Y-63322200D02*
X155134700Y-62128400D01*
%TO.N,TS Status*%
X147042300Y-72440800D02*
X155117800Y-72440800D01*
X146000900Y-73482200D02*
X147042300Y-72440800D01*
X155117800Y-72440800D02*
X156616400Y-70942200D01*
X156616400Y-70942200D02*
X159453600Y-70942200D01*
%TO.N,+5V*%
X137917330Y-64438235D02*
X142741765Y-59613800D01*
X125579165Y-64438235D02*
X137917330Y-64438235D01*
X142741765Y-59613800D02*
X143814800Y-59613800D01*
X119329200Y-70688200D02*
X125579165Y-64438235D01*
%TO.N,TSAL Error'*%
X137845800Y-76885800D02*
X143357600Y-82397600D01*
X128981200Y-76885800D02*
X137845800Y-76885800D01*
%TO.N,GND*%
X158005800Y-80010000D02*
X159453600Y-78562200D01*
X147448700Y-80010000D02*
X158005800Y-80010000D01*
X146000900Y-78562200D02*
X147448700Y-80010000D01*
%TO.N,Net-(Q1-D)*%
X137236800Y-70531200D02*
X137236800Y-68249200D01*
X137236800Y-68249200D02*
X150102800Y-55383200D01*
X138536800Y-71831200D02*
X137236800Y-70531200D01*
X150102800Y-55383200D02*
X150102800Y-55270400D01*
%TO.N,GND*%
X138536800Y-69809680D02*
X146000900Y-77273780D01*
X146000900Y-77273780D02*
X146000900Y-78562200D01*
X138536800Y-69291200D02*
X138536800Y-69809680D01*
%TO.N,Net-(K1-PadCOM)*%
X165434900Y-50522500D02*
X174109100Y-50522500D01*
X155982800Y-41070400D02*
X165434900Y-50522500D01*
%TO.N,+12V*%
X179862400Y-39420600D02*
X179862400Y-48775800D01*
X179862400Y-48775800D02*
X181609100Y-50522500D01*
%TO.N,reset*%
X170233000Y-34871200D02*
X174782400Y-39420600D01*
X152936400Y-34871200D02*
X170233000Y-34871200D01*
X151536400Y-36271200D02*
X152936400Y-34871200D01*
X151536400Y-41636800D02*
X150102800Y-43070400D01*
X151536400Y-36271200D02*
X151536400Y-41636800D01*
%TO.N,GND*%
X161696400Y-42664000D02*
X162102800Y-43070400D01*
X161696400Y-36271200D02*
X161696400Y-42664000D01*
X138389200Y-52283200D02*
X139928600Y-53822600D01*
X138389200Y-45628400D02*
X138389200Y-52283200D01*
%TO.N,Net-(Q1-G)*%
X136677400Y-67233800D02*
X137185400Y-66725800D01*
X136677400Y-72511800D02*
X136677400Y-67233800D01*
X138536800Y-74371200D02*
X136677400Y-72511800D01*
X137185400Y-66725800D02*
X139928600Y-63982600D01*
X128981200Y-66725800D02*
X137185400Y-66725800D01*
%TO.N,GND*%
X137388600Y-56362600D02*
X139928600Y-53822600D01*
X135280400Y-56362600D02*
X137388600Y-56362600D01*
%TO.N,Net-(U1A--)*%
X129133600Y-46369600D02*
X130672200Y-44831000D01*
X129133600Y-51130200D02*
X129133600Y-46369600D01*
X130683000Y-52679600D02*
X129133600Y-51130200D01*
%TO.N,Net-(U1A-+)*%
X135280400Y-46202600D02*
X133985000Y-46202600D01*
X133985000Y-46202600D02*
X130632200Y-49555400D01*
X135138000Y-46060200D02*
X135280400Y-46202600D01*
X135138000Y-42865200D02*
X135138000Y-46060200D01*
X138166000Y-42865200D02*
X138389200Y-43088400D01*
X135138000Y-42865200D02*
X138166000Y-42865200D01*
%TO.N,Net-(U1A--)*%
X138206000Y-40365200D02*
X138389200Y-40548400D01*
X135138000Y-40365200D02*
X138206000Y-40365200D01*
X130672200Y-44831000D02*
X135138000Y-40365200D01*
X125044200Y-44831000D02*
X130672200Y-44831000D01*
%TO.N,/Vin*%
X129082800Y-37846000D02*
X130632200Y-39395400D01*
%TO.N,+5V*%
X103582600Y-79527400D02*
X119182200Y-79527400D01*
X100941000Y-76885800D02*
X103582600Y-79527400D01*
X99441000Y-76885800D02*
X100941000Y-76885800D01*
%TO.N,TS Status*%
X135001000Y-34620200D02*
X138389200Y-38008400D01*
X129717800Y-34620200D02*
X135001000Y-34620200D01*
%TO.N,+5V*%
X142621000Y-34620200D02*
X146009200Y-38008400D01*
X139877800Y-34620200D02*
X142621000Y-34620200D01*
X138277600Y-33020000D02*
X139877800Y-34620200D01*
X126695200Y-33020000D02*
X138277600Y-33020000D01*
X125044200Y-34671000D02*
X126695200Y-33020000D01*
%TO.N,+12V*%
X114249200Y-63220600D02*
X114249200Y-70688200D01*
%TO.N,GND*%
X82092800Y-52552600D02*
X97180400Y-67640200D01*
X82092800Y-49123600D02*
X82092800Y-52552600D01*
%TO.N,AIR State*%
X87020400Y-73202800D02*
X88138000Y-74320400D01*
X87020400Y-67640200D02*
X87020400Y-73202800D01*
X91770200Y-74041000D02*
X89077800Y-76733400D01*
X103759000Y-74041000D02*
X91770200Y-74041000D01*
X104521000Y-76885800D02*
X104521000Y-74803000D01*
X104521000Y-74803000D02*
X103759000Y-74041000D01*
X89077800Y-75260200D02*
X88138000Y-74320400D01*
X89077800Y-76733400D02*
X89077800Y-75260200D01*
X73152000Y-76987400D02*
X75819000Y-74320400D01*
X75819000Y-74320400D02*
X88138000Y-74320400D01*
%TO.N,+5V*%
X97332800Y-78994000D02*
X99441000Y-76885800D01*
X86258400Y-78994000D02*
X97332800Y-78994000D01*
X83997800Y-76733400D02*
X86258400Y-78994000D01*
X81635600Y-79095600D02*
X83997800Y-76733400D01*
X68072000Y-76987400D02*
X70180200Y-79095600D01*
X70180200Y-79095600D02*
X81635600Y-79095600D01*
%TO.N,GND*%
X78592800Y-49123600D02*
X73075800Y-43606600D01*
X82092800Y-49123600D02*
X78592800Y-49123600D01*
%TO.N,/Vin*%
X96012000Y-42824400D02*
X89712800Y-49123600D01*
X96012000Y-37871400D02*
X96012000Y-42824400D01*
%TO.N,GND*%
X73075800Y-37820600D02*
X73075800Y-43606600D01*
X73075800Y-43606600D02*
X69418000Y-47264400D01*
%TO.N,Net-(R8-Pad2)*%
X83286600Y-37871400D02*
X83235800Y-37820600D01*
X85852000Y-37871400D02*
X83286600Y-37871400D01*
%TO.N,/Vin*%
X96037400Y-37846000D02*
X96012000Y-37871400D01*
X99923600Y-37846000D02*
X96037400Y-37846000D01*
%TO.N,Net-(R6-Pad2)*%
X99974400Y-48056800D02*
X99923600Y-48006000D01*
X99974400Y-51257200D02*
X99974400Y-48056800D01*
%TO.N,Net-(R4-Pad2)*%
X99949000Y-61391800D02*
X99974400Y-61417200D01*
X97002600Y-61391800D02*
X99949000Y-61391800D01*
%TO.N,Net-(R2-Pad2)*%
X83921600Y-61366400D02*
X86817200Y-61366400D01*
X86817200Y-61366400D02*
X86842600Y-61391800D01*
%TO.N,/+HV*%
X69418000Y-57022800D02*
X73761600Y-61366400D01*
X69418000Y-52344400D02*
X69418000Y-57022800D01*
%TD*%
M02*
